<svg id="svg" version="1.1" xmlns="http://www.w3.org/2000/svg" xmlns:xlink="http://www.w3.org/1999/xlink" width="400" height="275.49668874172187" viewBox="0, 0, 400,275.49668874172187"><g id="svgg"><path id="path0" d="M17.643 1.349 C 17.643 2.091,17.523 3.921,17.375 5.415 C 16.512 14.173,16.502 46.290,17.358 57.615 C 17.513 59.662,17.774 63.198,17.938 65.472 C 18.354 71.226,19.171 79.621,19.683 83.391 C 19.765 83.997,20.024 85.982,20.259 87.802 C 20.493 89.621,20.801 91.854,20.943 92.764 C 21.085 93.673,21.274 95.038,21.363 95.796 C 21.453 96.554,21.640 97.795,21.780 98.553 C 21.920 99.311,22.229 101.110,22.468 102.550 C 22.706 103.990,23.025 105.789,23.176 106.547 C 23.326 107.305,23.690 109.166,23.984 110.682 C 24.277 112.198,24.722 114.369,24.972 115.507 C 25.222 116.644,25.602 118.380,25.817 119.366 C 26.514 122.569,26.697 123.338,27.162 125.017 C 27.413 125.927,27.786 127.354,27.989 128.187 C 28.193 129.021,28.493 130.235,28.656 130.885 C 29.119 132.729,30.485 137.459,31.300 140.041 C 31.707 141.330,32.181 142.964,32.354 143.671 C 32.526 144.379,32.767 145.057,32.889 145.179 C 33.010 145.301,33.028 145.187,32.928 144.926 C 32.756 144.478,40.415 144.452,171.714 144.452 C 282.692 144.452,310.687 144.522,310.706 144.797 C 310.719 144.986,310.895 144.521,311.098 143.763 C 311.302 143.005,311.587 141.950,311.732 141.420 C 311.877 140.889,312.261 139.488,312.584 138.305 C 313.436 135.194,315.220 128.111,315.757 125.706 C 316.011 124.569,316.396 122.895,316.612 121.985 C 317.479 118.334,318.022 115.693,319.507 107.926 C 319.905 105.847,320.527 102.187,321.006 99.104 C 321.242 97.588,321.558 95.603,321.709 94.693 C 322.101 92.328,322.638 88.065,323.339 81.737 C 323.507 80.221,323.771 77.988,323.925 76.775 C 324.325 73.635,325.106 64.469,325.545 57.753 C 326.316 45.978,326.466 40.140,326.309 28.119 C 326.149 15.857,325.776 4.897,325.406 1.632 L 325.222 -0.000 171.432 -0.000 L 17.643 0.000 17.643 1.349 M33.291 146.808 C 33.363 147.184,33.513 147.549,33.625 147.618 C 33.737 147.687,33.769 147.435,33.697 147.059 C 33.625 146.682,33.475 146.317,33.363 146.248 C 33.252 146.179,33.219 146.431,33.291 146.808 M303.285 164.562 C 303.124 165.025,303.051 165.403,303.122 165.403 C 303.309 165.403,303.829 163.971,303.692 163.835 C 303.630 163.772,303.447 164.099,303.285 164.562 M278.260 207.499 C 277.675 208.212,277.341 208.707,277.517 208.598 C 277.892 208.366,279.638 206.203,279.450 206.203 C 279.380 206.203,278.844 206.786,278.260 207.499 M70.710 214.748 C 71.302 215.355,71.849 215.851,71.924 215.851 C 72.000 215.851,71.578 215.355,70.986 214.748 C 70.393 214.142,69.847 213.646,69.771 213.646 C 69.695 213.646,70.118 214.142,70.710 214.748 M270.591 216.618 C 269.173 218.176,268.914 218.536,269.855 217.643 C 271.154 216.409,273.106 214.183,272.869 214.206 C 272.819 214.211,271.793 215.296,270.591 216.618 M73.053 217.367 C 73.567 217.898,74.050 218.332,74.126 218.332 C 74.202 218.332,73.843 217.898,73.329 217.367 C 72.814 216.837,72.332 216.402,72.256 216.402 C 72.180 216.402,72.539 216.837,73.053 217.367 M265.053 222.536 L 262.578 225.086 265.127 222.611 C 266.530 221.249,267.677 220.102,267.677 220.061 C 267.677 219.861,267.352 220.168,265.053 222.536 M81.048 225.310 C 81.048 225.358,81.451 225.761,81.943 226.206 L 82.839 227.016 82.030 226.120 C 81.275 225.285,81.048 225.097,81.048 225.310 M260.086 227.223 L 258.718 228.670 260.165 227.302 C 261.510 226.031,261.739 225.775,261.533 225.775 C 261.490 225.775,260.839 226.427,260.086 227.223 M84.218 228.256 C 84.810 228.863,85.357 229.359,85.432 229.359 C 85.508 229.359,85.086 228.863,84.493 228.256 C 83.901 227.650,83.355 227.154,83.279 227.154 C 83.203 227.154,83.626 227.650,84.218 228.256 M250.861 234.910 L 249.621 236.033 250.789 235.157 C 251.804 234.395,252.456 233.752,252.187 233.778 C 252.140 233.783,251.544 234.292,250.861 234.910 M248.465 236.684 L 247.691 237.394 248.587 236.770 C 249.080 236.428,249.483 236.108,249.483 236.061 C 249.483 235.844,249.178 236.030,248.465 236.684 M99.104 239.426 C 99.407 239.673,99.904 239.997,100.207 240.146 L 100.758 240.416 100.207 239.967 C 99.904 239.721,99.407 239.397,99.104 239.248 L 98.553 238.977 99.104 239.426 M102.688 241.631 C 102.991 241.878,103.487 242.202,103.790 242.351 L 104.342 242.622 103.790 242.173 C 103.487 241.926,102.991 241.602,102.688 241.453 L 102.136 241.183 102.688 241.631 M148.243 251.068 C 161.471 251.108,183.119 251.108,196.347 251.068 C 209.576 251.029,198.753 250.996,172.295 250.996 C 145.837 250.996,135.014 251.029,148.243 251.068 M328.119 252.992 C 328.687 253.051,329.618 253.051,330.186 252.992 C 330.755 252.933,330.289 252.884,329.152 252.884 C 328.015 252.884,327.550 252.933,328.119 252.992 " stroke="none" fill="#83b4cc" fill-rule="evenodd"></path><path id="path1" d="M1.836 0.207 C 1.766 0.320,1.692 1.958,1.672 3.846 C 1.652 5.734,1.577 7.336,1.507 7.407 C 1.436 7.477,1.378 6.832,1.378 5.973 C 1.378 5.114,1.254 4.411,1.103 4.411 C 0.951 4.411,0.827 5.021,0.827 5.767 C 0.827 6.512,0.752 7.319,0.660 7.558 C 0.540 7.871,0.657 7.994,1.073 7.994 C 1.513 7.994,1.654 8.166,1.654 8.700 C 1.654 9.120,1.538 9.333,1.366 9.228 C 1.050 9.032,0.276 9.563,0.276 9.977 C 0.276 10.120,0.513 10.162,0.804 10.069 C 1.377 9.887,1.795 10.300,1.508 10.765 C 1.384 10.965,1.223 10.966,0.984 10.767 C 0.599 10.448,0.276 10.650,0.276 11.211 C 0.276 11.413,0.506 11.578,0.788 11.578 C 1.177 11.578,1.292 11.771,1.267 12.385 C 1.227 13.388,0.837 13.843,0.799 12.934 C 0.777 12.433,0.701 12.526,0.495 13.305 C 0.200 14.416,0.371 15.306,0.825 15.025 C 0.981 14.929,1.101 15.132,1.098 15.490 C 1.095 15.952,1.029 16.024,0.857 15.753 C 0.550 15.268,0.327 15.664,0.413 16.540 C 0.450 16.919,0.620 17.198,0.791 17.161 C 0.963 17.123,1.101 17.371,1.098 17.712 C 1.095 18.165,1.030 18.231,0.857 17.958 C 0.692 17.697,0.563 17.677,0.432 17.889 C 0.193 18.276,0.505 18.807,0.846 18.596 C 0.987 18.509,1.103 18.817,1.103 19.281 C 1.103 19.808,0.974 20.098,0.758 20.055 C 0.535 20.011,0.414 20.326,0.414 20.951 C 0.414 21.576,0.535 21.892,0.758 21.847 C 0.948 21.809,1.103 21.964,1.103 22.192 C 1.103 22.419,0.948 22.574,0.758 22.536 C 0.536 22.492,0.383 22.882,0.329 23.639 C 0.263 24.552,0.339 24.810,0.673 24.810 C 0.998 24.810,1.103 25.112,1.103 26.051 C 1.103 26.970,0.995 27.292,0.689 27.292 C 0.462 27.292,0.276 27.416,0.276 27.567 C 0.276 27.719,0.462 27.843,0.689 27.843 C 0.917 27.843,1.103 27.967,1.103 28.119 C 1.103 28.270,1.010 28.363,0.896 28.325 C 0.782 28.287,0.689 28.380,0.689 28.532 C 0.689 28.684,0.782 28.777,0.896 28.739 C 1.010 28.701,1.103 29.162,1.103 29.764 C 1.103 30.623,1.014 30.824,0.689 30.699 C 0.427 30.599,0.276 30.703,0.276 30.984 C 0.276 31.227,0.462 31.427,0.689 31.427 C 0.965 31.427,1.103 31.702,1.103 32.254 C 1.103 32.805,0.965 33.081,0.689 33.081 C 0.400 33.081,0.276 33.372,0.276 34.045 C 0.276 34.719,0.400 35.010,0.689 35.010 C 1.002 35.010,1.103 35.347,1.103 36.389 C 1.103 37.344,0.997 37.746,0.758 37.698 C 0.549 37.656,0.378 37.997,0.324 38.562 C 0.252 39.318,0.318 39.464,0.669 39.329 C 0.984 39.208,1.102 39.330,1.098 39.774 C 1.095 40.223,1.031 40.286,0.857 40.012 C 0.468 39.398,0.260 40.081,0.330 41.746 C 0.373 42.779,0.510 43.280,0.748 43.280 C 0.943 43.280,1.103 43.566,1.103 43.915 C 1.103 44.263,1.258 44.705,1.447 44.896 C 1.724 45.174,1.699 45.208,1.326 45.065 C 1.069 44.968,0.807 44.619,0.743 44.291 C 0.664 43.887,0.614 43.984,0.589 44.590 C 0.568 45.091,0.688 45.486,0.861 45.486 C 1.085 45.486,1.082 45.592,0.851 45.870 C 0.606 46.166,0.626 46.348,0.938 46.660 C 1.252 46.974,1.269 47.145,1.016 47.419 C 0.759 47.697,0.783 47.740,1.129 47.619 C 1.523 47.482,1.590 48.325,1.764 55.631 C 1.871 60.122,2.063 63.925,2.191 64.083 C 2.537 64.507,2.676 71.099,2.343 71.240 C 2.174 71.312,2.195 71.448,2.396 71.591 C 2.714 71.818,2.843 72.604,3.181 76.361 C 3.270 77.347,3.450 78.401,3.581 78.704 C 3.898 79.438,4.137 84.113,3.848 83.935 C 3.724 83.858,3.544 83.921,3.449 84.075 C 3.353 84.230,3.469 84.356,3.705 84.356 C 4.019 84.356,4.135 84.638,4.135 85.403 C 4.135 85.979,4.250 86.569,4.391 86.713 C 4.783 87.113,4.832 90.326,4.453 90.783 C 4.084 91.228,4.309 92.058,4.925 92.520 C 5.189 92.718,5.373 93.453,5.441 94.587 C 5.500 95.555,5.654 96.595,5.784 96.899 C 6.207 97.883,6.351 100.343,5.982 100.271 C 5.800 100.236,5.651 100.455,5.651 100.758 C 5.651 101.061,5.806 101.278,5.996 101.241 C 6.200 101.200,6.340 101.460,6.340 101.877 C 6.340 102.277,6.460 102.509,6.616 102.412 C 6.782 102.309,6.892 102.680,6.892 103.344 C 6.892 103.951,6.749 104.535,6.574 104.643 C 6.355 104.779,6.419 104.964,6.781 105.243 C 7.148 105.525,7.202 105.684,6.961 105.775 C 6.771 105.846,6.616 106.100,6.616 106.340 C 6.616 106.581,6.697 106.696,6.796 106.597 C 7.068 106.325,7.700 107.291,7.710 107.994 C 7.715 108.336,7.599 108.615,7.452 108.615 C 7.305 108.615,7.266 108.398,7.366 108.132 C 7.524 107.710,7.489 107.697,7.081 108.028 C 6.411 108.573,6.459 109.529,7.145 109.311 C 7.573 109.175,7.645 109.250,7.526 109.706 C 7.368 110.309,7.856 110.499,8.088 109.924 C 8.164 109.735,8.236 110.035,8.248 110.591 C 8.260 111.147,8.353 111.819,8.455 112.083 C 8.572 112.390,8.533 112.499,8.346 112.383 C 8.184 112.283,7.977 112.397,7.886 112.636 C 7.609 113.357,7.690 113.534,8.339 113.627 C 8.882 113.704,8.987 113.938,9.180 115.507 C 9.301 116.492,9.519 117.416,9.662 117.560 C 9.806 117.704,9.924 118.170,9.924 118.594 C 9.924 119.019,10.048 119.366,10.200 119.366 C 10.584 119.366,10.547 121.219,10.158 121.459 C 9.938 121.595,9.997 121.770,10.349 122.027 C 10.768 122.334,10.781 122.398,10.423 122.398 C 10.184 122.398,9.917 122.672,9.829 123.007 C 9.634 123.753,9.794 123.952,10.271 123.556 C 10.761 123.150,11.191 123.483,11.362 124.399 C 11.484 125.059,11.446 125.114,11.075 124.813 C 10.713 124.518,10.677 124.542,10.837 124.971 C 10.942 125.249,11.027 125.597,11.027 125.745 C 11.027 125.893,11.132 125.949,11.261 125.870 C 11.390 125.790,11.661 126.248,11.862 126.887 C 12.064 127.527,12.329 128.184,12.451 128.349 C 12.573 128.514,12.706 129.413,12.746 130.348 C 12.794 131.463,12.925 132.008,13.128 131.932 C 13.318 131.860,13.500 132.353,13.603 133.220 C 13.694 133.992,13.896 134.751,14.052 134.907 C 14.428 135.282,14.412 135.648,14.025 135.562 C 13.496 135.444,13.448 136.128,13.975 136.265 C 14.432 136.383,14.434 136.396,13.990 136.426 C 13.405 136.464,13.383 136.648,13.902 137.166 C 14.414 137.678,14.548 137.663,14.675 137.078 C 14.738 136.790,14.837 136.951,14.921 137.475 C 14.998 137.958,14.991 138.330,14.905 138.302 C 14.819 138.273,14.748 138.374,14.748 138.525 C 14.748 138.677,14.840 138.770,14.952 138.733 C 15.064 138.696,15.126 138.944,15.090 139.284 C 15.053 139.630,15.164 139.877,15.341 139.844 C 15.754 139.766,16.133 141.234,15.734 141.367 C 15.213 141.541,15.417 142.247,15.989 142.247 C 16.420 142.247,16.540 142.431,16.540 143.090 C 16.540 143.582,16.655 143.862,16.816 143.763 C 16.968 143.669,17.092 143.770,17.092 143.988 C 17.092 144.205,17.169 144.771,17.264 145.245 C 17.396 145.907,17.339 146.106,17.018 146.106 C 16.788 146.106,16.528 146.292,16.441 146.520 C 16.353 146.748,16.433 146.933,16.620 146.933 C 16.805 146.933,17.125 147.313,17.331 147.778 C 17.557 148.288,17.851 148.566,18.073 148.481 C 18.300 148.394,18.387 148.482,18.299 148.711 C 18.221 148.916,18.289 149.165,18.451 149.265 C 18.613 149.365,18.746 149.750,18.746 150.120 C 18.746 150.490,18.854 150.793,18.986 150.793 C 19.118 150.793,19.306 151.287,19.402 151.892 C 19.499 152.496,19.823 153.427,20.122 153.959 C 20.569 154.754,20.593 154.928,20.257 154.928 C 20.032 154.928,19.848 155.110,19.848 155.332 C 19.848 155.562,20.012 155.675,20.226 155.592 C 20.434 155.513,20.678 155.639,20.768 155.873 C 20.863 156.123,20.795 156.272,20.603 156.234 C 20.423 156.198,20.232 156.447,20.180 156.788 C 20.128 157.130,20.218 157.409,20.381 157.409 C 20.543 157.409,20.675 157.595,20.675 157.822 C 20.675 158.050,20.799 158.236,20.951 158.236 C 21.103 158.236,21.227 158.429,21.227 158.665 C 21.227 158.902,21.351 159.019,21.502 158.925 C 21.654 158.831,21.778 159.017,21.778 159.338 C 21.778 159.660,21.902 159.846,22.054 159.752 C 22.205 159.658,22.329 159.775,22.329 160.011 C 22.329 160.248,22.461 160.441,22.621 160.441 C 22.782 160.441,22.840 160.559,22.751 160.703 C 22.662 160.847,22.858 161.537,23.187 162.236 C 23.608 163.132,23.698 163.593,23.492 163.800 C 23.122 164.169,23.367 164.859,23.808 164.690 C 23.990 164.621,24.337 165.000,24.579 165.535 C 24.939 166.331,24.950 166.506,24.639 166.506 C 24.430 166.506,24.259 166.643,24.259 166.811 C 24.259 166.979,24.435 167.049,24.650 166.966 C 24.865 166.884,25.111 167.001,25.198 167.227 C 25.285 167.452,25.241 167.567,25.102 167.481 C 24.963 167.394,24.779 167.436,24.695 167.573 C 24.610 167.710,24.787 167.886,25.088 167.965 C 25.389 168.043,25.714 168.336,25.812 168.616 C 25.989 169.124,27.505 172.462,27.795 172.984 C 27.880 173.136,27.758 173.106,27.526 172.918 C 27.063 172.543,26.740 172.715,26.740 173.336 C 26.740 173.618,26.933 173.685,27.408 173.566 C 27.980 173.422,28.101 173.516,28.256 174.225 C 28.356 174.680,28.552 175.052,28.692 175.052 C 28.831 175.052,28.946 175.228,28.946 175.443 C 28.946 175.903,29.818 177.629,30.117 177.762 C 30.231 177.813,30.324 178.051,30.324 178.292 C 30.324 178.532,30.696 179.388,31.151 180.194 C 32.067 181.818,32.139 182.058,31.633 181.801 C 31.444 181.705,31.582 181.883,31.940 182.198 C 32.441 182.639,32.488 182.771,32.146 182.771 C 31.619 182.771,31.561 183.199,32.047 183.508 C 32.386 183.723,32.532 183.770,33.081 183.839 C 33.232 183.858,33.356 184.111,33.356 184.402 C 33.356 184.692,33.497 184.977,33.668 185.034 C 33.842 185.092,34.004 185.835,34.035 186.719 C 34.100 188.575,34.522 189.222,35.138 188.407 C 35.505 187.922,35.545 187.917,35.553 188.353 C 35.558 188.618,35.671 188.835,35.805 188.835 C 35.939 188.835,36.111 189.074,36.188 189.366 C 36.285 189.737,36.212 189.853,35.946 189.751 C 35.734 189.669,35.483 189.830,35.377 190.116 C 35.273 190.397,35.059 190.713,34.901 190.819 C 34.742 190.924,34.701 191.099,34.810 191.208 C 34.918 191.316,35.235 191.199,35.513 190.947 C 36.133 190.385,36.940 190.349,36.940 190.883 C 36.940 191.100,37.095 191.443,37.285 191.646 C 38.284 192.717,38.756 194.624,38.023 194.624 C 37.882 194.624,37.767 194.810,37.767 195.038 C 37.767 195.684,38.508 195.523,38.718 194.831 C 38.860 194.366,38.945 194.315,39.059 194.624 C 39.142 194.852,39.578 195.622,40.027 196.337 C 40.538 197.150,40.781 197.831,40.677 198.159 C 40.576 198.477,40.691 198.831,40.971 199.063 C 41.383 199.405,41.409 199.378,41.223 198.792 C 41.081 198.343,41.111 198.198,41.321 198.328 C 41.489 198.431,41.626 198.688,41.626 198.898 C 41.626 199.108,41.852 199.442,42.127 199.640 C 42.707 200.057,43.113 200.965,42.721 200.965 C 42.574 200.965,42.453 201.103,42.453 201.273 C 42.453 201.447,42.698 201.517,43.016 201.433 C 43.465 201.316,43.546 201.389,43.418 201.792 C 43.306 202.145,43.428 202.353,43.820 202.477 C 44.130 202.576,44.383 202.834,44.383 203.051 C 44.383 203.268,44.493 203.446,44.627 203.446 C 44.761 203.446,44.949 203.663,45.045 203.928 C 45.259 204.520,45.806 205.454,46.259 206.000 C 46.446 206.225,46.512 206.632,46.408 206.905 C 46.265 207.277,46.322 207.361,46.638 207.240 C 47.098 207.063,47.807 207.746,48.091 208.640 C 48.190 208.952,48.513 209.284,48.808 209.377 C 49.104 209.471,49.345 209.781,49.345 210.067 C 49.345 210.352,49.562 210.712,49.828 210.867 C 50.287 211.135,50.287 211.148,49.828 211.156 C 49.562 211.161,49.345 211.289,49.345 211.440 C 49.345 211.592,49.347 211.809,49.348 211.923 C 49.353 212.235,50.279 212.189,50.528 211.863 C 50.663 211.687,50.730 211.736,50.702 211.992 C 50.609 212.871,50.733 213.150,51.148 212.991 C 51.404 212.892,51.644 213.017,51.754 213.306 C 51.854 213.569,52.037 213.908,52.159 214.059 C 52.949 215.035,54.521 216.868,54.928 217.285 C 55.193 217.558,55.410 217.912,55.410 218.073 C 55.410 218.233,55.534 218.288,55.686 218.194 C 55.837 218.101,55.961 218.194,55.961 218.402 C 55.961 218.795,57.100 220.183,59.358 222.539 C 60.221 223.440,60.577 223.995,60.372 224.122 C 60.142 224.263,60.162 224.423,60.443 224.704 C 60.656 224.917,60.798 225.248,60.760 225.440 C 60.721 225.632,60.752 225.662,60.829 225.507 C 61.120 224.920,61.695 225.283,63.624 227.271 C 65.548 229.254,66.051 230.186,65.196 230.186 C 64.969 230.186,64.783 230.310,64.783 230.462 C 64.783 230.813,65.525 230.823,65.740 230.474 C 66.116 229.866,68.594 231.846,68.418 232.613 C 68.369 232.826,68.532 232.939,68.815 232.890 C 69.135 232.833,69.351 233.035,69.462 233.494 C 69.568 233.927,69.856 234.216,70.239 234.271 C 70.574 234.320,70.848 234.475,70.848 234.616 C 70.848 234.757,70.941 234.845,71.054 234.812 C 71.168 234.779,71.819 235.280,72.502 235.926 C 75.396 238.663,76.012 239.197,76.517 239.404 C 76.864 239.546,76.930 239.668,76.706 239.752 C 76.516 239.823,76.361 240.008,76.361 240.163 C 76.361 240.318,76.554 240.371,76.789 240.281 C 77.025 240.190,77.366 240.243,77.548 240.399 C 77.729 240.554,78.305 240.987,78.827 241.361 C 79.496 241.839,79.632 242.040,79.286 242.040 C 78.665 242.040,78.859 242.697,79.518 242.825 C 79.820 242.883,79.938 242.803,79.823 242.618 C 79.721 242.452,79.768 242.316,79.929 242.316 C 80.089 242.316,80.221 242.440,80.221 242.591 C 80.221 242.743,80.352 242.867,80.512 242.867 C 80.788 242.867,82.416 244.054,83.657 245.158 C 83.965 245.433,84.219 245.835,84.221 246.052 C 84.222 246.269,84.346 246.435,84.496 246.421 C 84.646 246.407,84.738 246.284,84.700 246.147 C 84.604 245.802,84.803 245.838,85.232 246.244 C 85.891 246.867,87.517 248.004,88.008 248.185 C 88.274 248.283,88.491 248.491,88.491 248.647 C 88.491 248.804,88.624 248.932,88.786 248.932 C 89.227 248.932,89.872 249.661,89.649 249.908 C 89.543 250.026,89.682 250.041,89.958 249.941 C 90.496 249.748,91.356 250.378,91.028 250.725 C 90.921 250.838,91.113 250.844,91.454 250.739 C 91.829 250.624,92.074 250.665,92.074 250.843 C 92.074 251.005,92.261 251.137,92.488 251.137 C 92.715 251.137,92.901 251.259,92.901 251.408 C 92.901 251.556,93.212 251.756,93.591 251.851 C 93.970 251.946,94.289 252.104,94.301 252.201 C 94.312 252.298,94.364 252.595,94.414 252.860 C 94.500 253.307,94.082 253.342,88.673 253.338 C 85.311 253.336,82.998 253.234,83.213 253.097 C 83.782 252.737,83.135 252.465,82.242 252.690 C 81.557 252.862,81.535 252.901,82.022 253.092 C 82.328 253.212,81.212 253.312,79.462 253.323 C 76.817 253.340,76.361 253.279,76.361 252.909 C 76.361 252.639,76.178 252.515,75.879 252.581 C 75.613 252.639,75.427 252.834,75.465 253.014 C 75.511 253.234,75.077 253.343,74.156 253.343 C 73.200 253.343,72.799 253.237,72.846 252.998 C 72.913 252.665,72.783 252.638,71.744 252.769 C 71.320 252.822,71.329 252.859,71.813 253.067 C 72.238 253.250,72.093 253.308,71.176 253.323 C 70.508 253.334,70.058 253.230,70.147 253.086 C 70.234 252.945,70.179 252.751,70.025 252.656 C 69.871 252.561,69.745 252.676,69.745 252.913 C 69.745 253.261,69.379 253.343,67.815 253.343 C 66.239 253.343,65.886 253.263,65.886 252.906 C 65.886 252.666,65.731 252.526,65.541 252.596 C 65.351 252.665,65.228 252.864,65.267 253.038 C 65.314 253.246,64.875 253.336,63.972 253.304 C 63.214 253.278,62.631 253.131,62.661 252.974 C 62.691 252.819,62.405 252.692,62.026 252.692 C 61.642 252.692,61.367 252.836,61.406 253.017 C 61.497 253.445,56.979 253.464,56.186 253.039 C 55.761 252.812,55.669 252.816,55.817 253.056 C 56.020 253.384,15.457 253.310,13.674 252.979 C 13.235 252.898,12.785 252.684,12.674 252.504 C 12.524 252.261,12.428 252.273,12.301 252.553 C 12.168 252.844,12.093 252.851,11.969 252.584 C 11.743 252.101,10.931 252.143,11.117 252.628 C 11.213 252.878,11.020 253.078,10.577 253.189 C 9.789 253.387,9.097 254.761,9.097 256.127 C 9.097 256.607,8.950 257.491,8.771 258.090 C 8.510 258.961,8.517 259.298,8.808 259.764 C 9.070 260.183,9.084 260.377,8.859 260.452 C 8.687 260.509,8.546 260.801,8.546 261.101 C 8.546 261.400,8.653 261.579,8.785 261.497 C 8.916 261.416,9.086 262.213,9.161 263.269 C 9.237 264.325,9.470 265.400,9.680 265.659 C 9.894 265.922,9.918 266.043,9.736 265.934 C 9.557 265.827,9.342 265.851,9.257 265.988 C 9.057 266.311,9.821 266.947,10.159 266.738 C 10.301 266.650,10.489 266.763,10.576 266.990 C 10.663 267.216,10.625 267.402,10.493 267.402 C 10.360 267.402,10.318 267.657,10.400 267.969 C 10.494 268.328,10.697 268.478,10.955 268.380 C 11.399 268.209,13.232 270.017,13.232 270.626 C 13.232 270.956,13.588 271.107,14.143 271.013 C 14.265 270.993,14.540 271.133,14.754 271.325 C 14.968 271.517,15.329 271.831,15.556 272.021 C 15.787 272.214,15.894 272.567,15.798 272.817 C 15.679 273.128,15.745 273.223,16.014 273.125 C 16.228 273.048,16.368 272.835,16.327 272.654 C 16.278 272.442,16.473 272.479,16.871 272.757 C 17.211 272.996,17.707 273.191,17.971 273.191 C 18.243 273.191,18.395 273.341,18.321 273.535 C 18.235 273.761,18.500 273.902,19.086 273.943 C 19.579 273.978,20.025 274.133,20.076 274.288 C 20.128 274.443,20.422 274.569,20.731 274.569 C 21.155 274.569,21.256 274.703,21.147 275.121 C 21.040 275.530,21.138 275.672,21.528 275.672 C 21.817 275.672,22.054 275.551,22.054 275.403 C 22.054 275.228,22.301 275.228,22.761 275.403 C 24.069 275.901,320.484 275.750,321.985 275.251 C 324.113 274.544,324.190 274.510,324.190 274.292 C 324.190 274.175,324.624 273.998,325.155 273.898 C 325.686 273.799,326.120 273.612,326.120 273.484 C 326.120 273.356,326.402 273.180,326.746 273.094 C 327.090 273.007,327.643 272.684,327.975 272.375 C 328.306 272.065,328.651 271.813,328.739 271.813 C 328.916 271.813,330.818 270.131,331.825 269.084 C 332.453 268.431,332.460 268.430,332.460 269.016 C 332.460 269.341,332.569 269.607,332.701 269.607 C 332.833 269.607,332.927 269.090,332.911 268.457 C 332.893 267.765,333.017 267.262,333.222 267.194 C 333.410 267.131,333.563 266.923,333.563 266.732 C 333.563 266.540,333.745 266.019,333.968 265.573 C 334.190 265.126,334.403 264.363,334.440 263.876 C 334.477 263.389,334.615 262.991,334.747 262.991 C 335.031 262.991,334.944 257.740,334.654 257.340 C 334.544 257.188,334.383 256.460,334.295 255.723 C 334.135 254.369,333.502 253.067,333.005 253.067 C 332.857 253.067,332.736 252.881,332.736 252.653 C 332.736 252.109,331.985 252.125,331.429 252.680 C 330.880 253.229,326.651 253.144,326.463 252.580 C 326.328 252.175,325.569 252.120,325.569 252.516 C 325.569 252.917,323.986 252.854,323.821 252.447 C 323.710 252.171,323.678 252.171,323.661 252.447 C 323.635 252.853,322.261 252.920,322.261 252.516 C 322.261 252.133,321.503 252.168,321.374 252.556 C 321.129 253.290,289.079 253.778,289.245 253.045 C 289.285 252.868,289.163 252.665,288.973 252.596 C 288.784 252.526,288.629 252.670,288.629 252.915 C 288.629 253.412,248.292 253.530,247.511 253.035 C 247.243 252.865,247.314 252.798,247.769 252.795 C 248.115 252.793,248.469 252.605,248.556 252.378 C 248.644 252.150,248.954 251.964,249.246 251.964 C 249.537 251.964,249.847 251.778,249.935 251.551 C 250.022 251.323,250.266 251.137,250.477 251.137 C 250.689 251.137,250.861 251.015,250.861 250.867 C 250.861 250.718,251.172 250.518,251.551 250.423 C 251.930 250.328,252.240 250.153,252.240 250.034 C 252.240 249.915,252.432 249.744,252.668 249.654 C 252.913 249.559,253.024 249.606,252.927 249.762 C 252.834 249.912,252.959 250.034,253.205 250.034 C 253.450 250.034,253.584 249.926,253.502 249.794 C 253.318 249.496,254.141 248.542,254.790 248.301 C 255.055 248.203,255.272 247.994,255.272 247.838 C 255.272 247.681,255.457 247.553,255.683 247.553 C 255.909 247.553,256.450 247.181,256.885 246.726 C 257.319 246.272,257.764 245.899,257.872 245.899 C 257.980 245.899,258.241 245.744,258.453 245.555 C 259.447 244.663,259.683 244.538,260.082 244.691 C 260.318 244.782,260.510 244.712,260.510 244.534 C 260.510 244.357,260.355 244.300,260.165 244.408 C 259.976 244.515,260.255 244.216,260.786 243.743 C 262.240 242.449,262.404 242.316,262.557 242.316 C 262.634 242.316,263.119 241.912,263.634 241.420 C 264.149 240.927,265.093 240.090,265.732 239.559 C 266.372 239.028,267.062 238.439,267.266 238.249 C 267.471 238.060,267.771 237.905,267.933 237.905 C 268.096 237.905,268.229 237.719,268.229 237.491 C 268.229 237.264,268.351 237.078,268.501 237.078 C 268.650 237.078,270.016 235.837,271.537 234.321 C 273.057 232.805,274.424 231.564,274.573 231.564 C 274.723 231.564,274.845 231.454,274.845 231.319 C 274.845 231.184,276.365 229.510,278.222 227.599 C 281.941 223.773,282.288 223.393,282.288 223.154 C 282.288 223.064,282.753 222.564,283.322 222.043 C 283.890 221.523,284.356 220.999,284.356 220.879 C 284.356 220.760,285.007 219.994,285.803 219.177 C 286.599 218.360,287.250 217.591,287.250 217.470 C 287.250 217.348,287.622 216.868,288.077 216.402 C 288.532 215.937,288.904 215.437,288.904 215.290 C 288.904 215.144,289.000 215.024,289.117 215.024 C 289.234 215.024,289.564 214.590,289.850 214.059 C 290.136 213.529,290.505 213.076,290.671 213.052 C 290.836 213.029,291.158 212.998,291.385 212.983 C 291.654 212.965,291.800 212.666,291.803 212.129 C 291.808 211.367,292.167 210.758,293.357 209.496 C 293.607 209.231,293.895 208.753,293.995 208.435 C 294.096 208.117,294.295 207.857,294.436 207.857 C 294.578 207.857,294.693 207.671,294.693 207.443 C 294.693 207.216,294.795 207.030,294.918 207.030 C 295.042 207.030,295.422 206.533,295.763 205.927 C 296.104 205.320,296.499 204.824,296.641 204.824 C 296.783 204.824,296.899 204.638,296.899 204.411 C 296.899 204.183,297.020 203.997,297.169 203.997 C 297.318 203.997,297.517 203.687,297.613 203.308 C 297.769 202.683,297.912 202.570,298.453 202.642 C 298.815 202.691,299.067 201.939,298.754 201.746 C 298.530 201.607,298.606 201.396,299.005 201.049 C 299.319 200.775,299.663 200.279,299.768 199.945 C 299.873 199.612,300.108 199.396,300.290 199.465 C 300.501 199.546,300.632 199.271,300.652 198.705 C 300.670 198.218,300.825 197.772,300.997 197.715 C 301.169 197.658,301.309 197.435,301.309 197.220 C 301.309 197.006,301.425 196.830,301.567 196.830 C 301.708 196.830,301.910 196.556,302.016 196.222 C 302.122 195.888,302.379 195.445,302.586 195.238 C 302.794 195.030,302.963 194.683,302.963 194.467 C 302.963 194.250,303.088 194.073,303.239 194.073 C 303.391 194.073,303.515 193.879,303.515 193.641 C 303.515 193.334,303.675 193.260,304.066 193.384 C 304.382 193.484,304.618 193.433,304.618 193.265 C 304.618 193.103,304.493 192.970,304.342 192.970 C 303.938 192.970,304.005 192.519,304.480 192.045 C 304.707 191.817,304.893 191.507,304.893 191.356 C 304.893 191.204,305.048 190.916,305.238 190.716 C 305.427 190.515,305.860 189.793,306.199 189.111 C 306.538 188.429,306.817 188.025,306.819 188.215 C 306.828 188.987,307.239 188.493,307.269 187.675 C 307.286 187.190,307.441 186.745,307.613 186.688 C 307.785 186.631,307.926 186.461,307.926 186.312 C 307.926 185.719,308.804 185.219,310.123 185.063 C 310.886 184.973,311.509 184.792,311.509 184.662 C 311.509 184.531,311.881 184.425,312.336 184.425 C 312.791 184.425,313.163 184.315,313.163 184.181 C 313.163 184.046,313.846 183.851,314.680 183.747 C 315.513 183.643,316.196 183.459,316.196 183.337 C 316.196 183.133,318.276 182.638,318.746 182.730 C 318.859 182.752,318.952 182.646,318.952 182.495 C 318.952 182.343,319.124 182.219,319.334 182.219 C 319.545 182.219,320.072 182.034,320.506 181.807 C 320.940 181.581,321.582 181.395,321.932 181.394 C 322.286 181.393,322.493 181.270,322.398 181.116 C 322.160 180.731,323.182 180.770,323.573 181.161 C 323.817 181.405,323.961 181.306,324.173 180.748 C 324.343 180.301,324.661 180.014,324.987 180.014 C 325.282 180.014,325.564 179.896,325.615 179.753 C 325.665 179.609,326.141 179.416,326.671 179.325 C 327.202 179.233,327.677 179.040,327.728 178.897 C 327.779 178.753,327.933 178.635,328.071 178.635 C 328.499 178.635,330.531 177.689,330.531 177.490 C 330.531 177.386,330.903 177.219,331.358 177.119 C 331.813 177.019,332.185 176.823,332.185 176.684 C 332.185 176.544,332.308 176.430,332.458 176.430 C 332.929 176.430,334.941 175.484,334.941 175.262 C 334.941 175.146,335.062 175.052,335.208 175.052 C 335.355 175.052,335.394 175.265,335.294 175.525 C 335.133 175.945,335.162 175.953,335.552 175.594 C 335.794 175.372,335.972 175.127,335.949 175.052 C 335.925 174.976,336.004 174.887,336.123 174.855 C 336.242 174.822,336.530 174.605,336.763 174.372 C 336.996 174.140,337.363 173.949,337.580 173.949 C 337.797 173.949,337.974 173.825,337.974 173.673 C 337.974 173.522,338.160 173.398,338.387 173.398 C 338.615 173.398,338.801 173.276,338.801 173.127 C 338.801 172.979,339.111 172.779,339.490 172.684 C 339.869 172.589,340.179 172.415,340.179 172.297 C 340.179 172.180,340.396 172.011,340.662 171.922 C 341.185 171.746,342.163 171.157,342.385 170.885 C 342.460 170.792,342.802 170.628,343.143 170.522 C 343.484 170.415,343.763 170.204,343.763 170.052 C 343.763 169.899,344.037 169.854,344.383 169.951 C 344.782 170.063,344.878 170.038,344.654 169.881 C 344.396 169.701,344.504 169.534,345.067 169.243 C 345.487 169.026,345.982 168.663,346.166 168.436 C 346.400 168.148,346.505 168.127,346.511 168.367 C 346.523 168.853,347.071 168.798,347.071 168.311 C 347.071 168.090,347.384 167.687,347.765 167.415 C 348.147 167.142,348.725 166.702,349.048 166.437 C 349.372 166.172,349.747 165.955,349.883 165.955 C 350.019 165.955,350.417 165.644,350.768 165.265 C 351.120 164.886,351.503 164.576,351.620 164.576 C 351.736 164.576,352.110 164.276,352.451 163.908 C 352.791 163.541,353.398 163.200,353.800 163.150 C 354.202 163.101,354.540 162.936,354.550 162.784 C 354.588 162.218,355.098 161.544,355.489 161.544 C 355.711 161.544,355.892 161.428,355.892 161.287 C 355.892 161.145,356.134 160.953,356.430 160.859 C 356.725 160.765,357.048 160.434,357.147 160.122 C 357.295 159.656,357.480 159.586,358.195 159.723 C 358.713 159.822,358.916 159.795,358.699 159.655 C 358.317 159.408,359.520 158.040,361.400 156.582 C 361.889 156.203,362.634 155.537,363.055 155.102 C 363.476 154.666,363.964 154.170,364.139 153.999 C 364.552 153.594,368.066 150.079,368.472 149.666 C 368.643 149.491,369.172 148.960,369.648 148.485 C 370.123 148.011,370.913 147.220,371.403 146.728 C 371.894 146.236,372.512 145.833,372.777 145.832 C 373.043 145.831,373.260 145.706,373.260 145.555 C 373.260 145.403,373.043 145.279,372.777 145.278 C 372.417 145.278,372.521 145.084,373.191 144.512 C 373.684 144.091,374.087 143.588,374.087 143.394 C 374.087 143.200,374.198 143.110,374.333 143.193 C 374.469 143.277,374.655 143.045,374.747 142.677 C 374.840 142.309,375.163 141.929,375.466 141.833 C 375.769 141.737,376.017 141.562,376.017 141.443 C 376.017 141.325,376.234 140.971,376.499 140.656 C 376.764 140.341,377.292 139.685,377.671 139.198 C 378.050 138.711,378.701 137.910,379.118 137.418 C 379.535 136.925,379.876 136.429,379.876 136.315 C 379.876 136.201,380.186 135.820,380.565 135.469 C 380.944 135.117,381.254 134.719,381.254 134.584 C 381.254 134.449,381.564 133.978,381.943 133.537 C 382.322 133.096,382.632 132.636,382.632 132.513 C 382.633 132.390,382.778 132.380,382.955 132.489 C 383.169 132.622,383.221 132.541,383.109 132.248 C 383.015 132.005,383.045 131.768,383.175 131.720 C 383.305 131.672,383.832 131.005,384.347 130.237 C 384.871 129.455,385.441 128.894,385.641 128.960 C 385.894 129.045,385.944 128.908,385.813 128.496 C 385.699 128.137,385.748 127.912,385.938 127.912 C 386.109 127.912,386.172 127.788,386.079 127.636 C 385.985 127.484,386.040 127.360,386.200 127.360 C 386.361 127.360,386.492 127.174,386.492 126.947 C 386.492 126.720,386.603 126.533,386.738 126.533 C 386.873 126.533,387.061 126.223,387.157 125.844 C 387.252 125.465,387.451 125.155,387.600 125.155 C 387.749 125.155,387.870 124.969,387.870 124.742 C 387.870 124.514,387.981 124.328,388.116 124.328 C 388.251 124.328,388.440 124.018,388.535 123.639 C 388.630 123.260,388.820 122.950,388.956 122.950 C 389.093 122.950,389.287 122.578,389.387 122.123 C 389.550 121.378,389.932 121.134,390.717 121.270 C 390.842 121.292,390.845 121.151,390.723 120.958 C 390.429 120.488,390.543 119.924,391.190 118.655 C 391.487 118.072,391.730 117.446,391.730 117.263 C 391.730 117.080,391.828 116.890,391.947 116.839 C 392.067 116.788,392.431 116.127,392.757 115.369 C 393.226 114.275,393.466 114.008,393.918 114.077 C 394.572 114.176,394.681 113.713,394.082 113.378 C 393.657 113.140,393.791 111.923,394.243 111.923 C 394.377 111.923,394.487 111.613,394.487 111.234 C 394.487 110.855,394.605 110.544,394.750 110.544 C 394.894 110.544,395.100 110.082,395.206 109.518 C 395.399 108.488,395.769 107.911,396.272 107.858 C 396.700 107.812,396.779 107.236,396.357 107.236 C 396.084 107.236,396.008 106.963,396.088 106.272 C 396.150 105.741,396.311 105.307,396.446 105.307 C 396.581 105.307,396.692 104.997,396.692 104.618 C 396.692 104.238,396.802 103.928,396.936 103.928 C 397.070 103.928,397.268 103.215,397.376 102.343 C 397.484 101.471,397.694 100.610,397.842 100.429 C 397.991 100.247,398.183 98.914,398.270 97.465 C 398.356 96.016,398.538 94.831,398.673 94.831 C 398.809 94.831,398.904 92.491,398.885 89.570 C 398.867 86.676,398.924 84.237,399.013 84.148 C 399.278 83.883,399.193 82.150,398.915 82.150 C 398.773 82.150,398.615 82.553,398.564 83.046 C 398.514 83.539,398.370 82.733,398.246 81.254 C 398.121 79.776,397.921 78.567,397.801 78.567 C 397.681 78.567,397.497 77.886,397.394 77.055 C 397.290 76.223,397.089 75.472,396.948 75.384 C 396.807 75.297,396.692 74.923,396.692 74.553 C 396.692 74.183,396.579 73.880,396.440 73.880 C 396.302 73.880,396.105 73.384,396.003 72.777 C 395.900 72.171,395.703 71.675,395.565 71.675 C 395.427 71.675,395.314 71.450,395.314 71.176 C 395.314 70.902,395.131 70.437,394.909 70.142 C 394.686 69.848,394.500 69.400,394.495 69.148 C 394.491 68.895,394.331 68.616,394.142 68.527 C 393.866 68.399,393.866 68.334,394.142 68.206 C 394.692 67.949,394.543 67.614,393.797 67.426 C 393.418 67.331,393.108 67.066,393.108 66.837 C 393.108 66.607,392.922 66.348,392.695 66.261 C 392.467 66.174,392.281 65.881,392.281 65.610 C 392.281 65.339,392.087 65.043,391.850 64.952 C 391.613 64.861,391.492 64.669,391.580 64.526 C 391.669 64.383,391.583 64.165,391.389 64.042 C 391.196 63.919,390.705 63.372,390.300 62.827 C 389.894 62.282,389.150 61.400,388.647 60.866 C 388.144 60.333,387.424 59.507,387.046 59.031 C 386.669 58.556,386.256 58.167,386.129 58.167 C 386.002 58.167,385.406 57.671,384.806 57.064 C 384.205 56.458,383.533 55.961,383.311 55.961 C 382.828 55.961,382.769 55.227,383.239 55.070 C 383.446 55.001,383.394 54.893,383.101 54.780 C 382.843 54.681,382.633 54.721,382.633 54.867 C 382.633 55.014,382.513 55.134,382.366 55.134 C 382.219 55.134,382.178 54.927,382.276 54.673 C 382.411 54.319,382.342 54.254,381.976 54.394 C 381.668 54.513,381.243 54.339,380.770 53.901 C 380.369 53.529,379.693 53.148,379.269 53.055 C 378.845 52.961,378.498 52.771,378.498 52.631 C 378.498 52.492,378.312 52.378,378.084 52.378 C 377.857 52.378,377.671 52.262,377.671 52.121 C 377.671 51.979,377.391 51.776,377.050 51.670 C 376.709 51.563,376.368 51.400,376.292 51.307 C 376.042 50.999,373.418 49.779,372.295 49.448 C 371.688 49.270,371.409 49.112,371.675 49.097 C 371.940 49.082,372.157 48.943,372.157 48.789 C 372.157 48.630,371.870 48.580,371.498 48.673 C 371.122 48.768,370.476 48.651,369.995 48.403 C 369.531 48.163,368.898 47.967,368.587 47.967 C 368.276 47.967,368.022 47.852,368.022 47.711 C 368.022 47.570,367.340 47.370,366.506 47.266 C 365.672 47.162,364.990 46.967,364.990 46.832 C 364.990 46.698,364.671 46.589,364.282 46.589 C 363.893 46.589,363.348 46.467,363.071 46.319 C 362.793 46.170,361.840 45.965,360.952 45.863 C 360.065 45.761,359.274 45.580,359.195 45.461 C 359.116 45.342,357.751 45.165,356.162 45.067 C 354.574 44.970,353.088 44.818,352.860 44.729 C 352.229 44.484,352.087 44.455,351.344 44.418 C 350.930 44.397,350.655 44.218,350.655 43.970 C 350.655 43.691,350.376 43.556,349.798 43.556 C 349.126 43.556,348.978 43.651,349.111 43.998 C 349.262 44.392,349.017 44.419,346.867 44.243 C 345.539 44.135,343.754 44.037,342.902 44.027 L 341.351 44.009 341.424 43.162 C 341.464 42.697,341.511 39.928,341.527 37.009 C 341.544 34.090,341.651 31.733,341.764 31.771 C 341.878 31.809,341.971 31.716,341.971 31.564 C 341.971 31.413,341.878 31.320,341.764 31.358 C 341.651 31.396,341.547 29.349,341.534 26.809 C 341.504 20.925,341.419 18.373,341.242 18.043 C 341.165 17.899,341.080 15.982,341.054 13.784 C 341.027 11.585,340.928 8.625,340.833 7.205 C 340.697 5.176,340.742 4.568,341.040 4.359 C 341.334 4.153,341.342 4.061,341.075 3.953 C 340.668 3.788,340.605 2.205,341.006 2.205 C 341.158 2.205,341.282 2.006,341.282 1.762 C 341.282 1.489,341.129 1.378,340.883 1.472 C 340.589 1.585,340.498 1.430,340.538 0.882 L 340.593 0.138 332.907 0.064 L 325.221 -0.009 325.406 1.627 C 325.776 4.897,326.149 15.850,326.309 28.119 C 326.466 40.140,326.316 45.978,325.545 57.753 C 325.106 64.469,324.325 73.635,323.925 76.775 C 323.771 77.988,323.507 80.221,323.339 81.737 C 322.638 88.065,322.101 92.328,321.709 94.693 C 321.558 95.603,321.242 97.588,321.006 99.104 C 320.527 102.187,319.905 105.847,319.507 107.926 C 318.022 115.693,317.479 118.334,316.612 121.985 C 316.396 122.895,316.011 124.569,315.757 125.706 C 315.001 129.091,313.112 136.460,311.765 141.282 C 311.638 141.737,311.355 142.791,311.137 143.625 C 310.614 145.621,308.808 151.076,308.468 151.685 C 308.321 151.948,308.201 152.301,308.201 152.470 C 308.201 152.639,308.027 153.168,307.814 153.645 C 307.601 154.123,307.213 155.134,306.953 155.892 C 306.390 157.534,305.793 159.020,305.431 159.679 C 305.287 159.943,305.169 160.284,305.169 160.439 C 305.169 160.593,304.859 161.362,304.480 162.148 C 304.101 162.934,303.790 163.684,303.790 163.816 C 303.790 164.112,303.037 165.801,301.281 169.440 C 300.538 170.978,299.931 172.374,299.931 172.542 C 299.931 172.709,299.807 172.846,299.655 172.846 C 299.504 172.846,299.380 172.994,299.380 173.174 C 299.380 173.531,297.699 177.032,297.420 177.257 C 297.326 177.333,297.153 177.705,297.037 178.084 C 296.920 178.463,296.748 178.835,296.655 178.911 C 296.562 178.987,296.097 179.793,295.624 180.703 C 295.150 181.613,294.405 183.039,293.970 183.873 C 293.534 184.707,293.084 185.431,292.970 185.481 C 292.857 185.532,292.764 185.700,292.764 185.856 C 292.764 186.133,290.347 190.154,287.277 194.985 C 286.428 196.320,285.610 197.622,285.458 197.879 C 285.307 198.136,285.121 198.408,285.045 198.484 C 284.969 198.560,284.356 199.428,283.682 200.414 C 282.098 202.730,278.809 207.205,277.898 208.284 C 277.508 208.746,276.754 209.672,276.223 210.341 C 275.693 211.011,274.875 211.997,274.407 212.533 C 273.939 213.069,273.256 213.878,272.891 214.331 C 272.525 214.783,271.347 216.086,270.273 217.225 C 269.198 218.365,267.896 219.777,267.378 220.364 C 258.334 230.623,241.940 242.423,227.939 248.752 C 227.385 249.003,226.759 249.207,226.547 249.207 C 226.335 249.207,226.043 249.312,225.899 249.440 C 225.666 249.646,224.886 249.862,220.675 250.887 C 219.003 251.294,124.248 251.069,122.812 250.655 C 122.205 250.480,121.068 250.175,120.285 249.978 C 119.501 249.782,118.767 249.528,118.654 249.414 C 118.540 249.300,118.269 249.207,118.052 249.207 C 117.532 249.207,115.298 248.217,109.993 245.636 C 103.534 242.493,93.572 236.122,88.891 232.141 C 88.428 231.748,87.503 230.992,86.835 230.462 C 84.715 228.778,80.484 224.909,77.477 221.906 C 73.876 218.309,68.966 212.892,66.991 210.338 C 66.464 209.655,65.895 208.973,65.729 208.822 C 65.562 208.670,64.576 207.367,63.538 205.927 C 62.500 204.487,61.549 203.267,61.425 203.216 C 61.301 203.166,61.199 202.997,61.199 202.842 C 61.199 202.687,60.845 202.108,60.413 201.556 C 59.116 199.900,56.513 196.025,56.513 195.752 C 56.513 195.612,56.416 195.456,56.297 195.405 C 56.178 195.355,55.589 194.503,54.987 193.512 C 54.386 192.521,53.738 191.467,53.548 191.169 C 53.357 190.871,53.119 190.441,53.018 190.214 C 52.918 189.986,52.445 189.180,51.969 188.422 C 51.492 187.664,50.912 186.671,50.680 186.216 C 50.311 185.494,48.361 181.801,46.824 178.915 C 46.543 178.387,46.313 177.798,46.313 177.606 C 46.313 177.414,46.216 177.257,46.098 177.257 C 45.980 177.257,45.642 176.637,45.348 175.879 C 45.054 175.121,44.716 174.500,44.598 174.500 C 44.480 174.500,44.383 174.368,44.383 174.207 C 44.383 174.046,44.062 173.208,43.670 172.346 C 42.912 170.679,42.614 170.014,41.546 167.609 C 41.176 166.775,40.608 165.510,40.285 164.798 C 39.961 164.086,39.697 163.311,39.697 163.075 C 39.697 162.839,39.573 162.646,39.421 162.646 C 39.269 162.646,39.145 162.489,39.145 162.297 C 39.145 162.004,38.170 159.458,37.220 157.271 C 37.088 156.968,36.584 155.603,36.100 154.238 C 35.616 152.874,35.063 151.385,34.871 150.930 C 34.679 150.476,34.358 149.607,34.158 149.001 C 33.957 148.394,33.709 147.774,33.606 147.622 C 33.504 147.471,33.328 146.917,33.215 146.391 C 33.103 145.865,32.911 145.245,32.789 145.012 C 32.667 144.780,32.446 144.094,32.299 143.487 C 32.152 142.881,31.700 141.330,31.296 140.041 C 30.473 137.419,29.108 132.685,28.656 130.885 C 28.493 130.235,28.193 129.021,27.989 128.187 C 27.786 127.354,27.413 125.927,27.162 125.017 C 26.697 123.338,26.514 122.569,25.817 119.366 C 25.602 118.380,25.222 116.644,24.972 115.507 C 24.722 114.369,24.277 112.198,23.984 110.682 C 23.690 109.166,23.326 107.305,23.176 106.547 C 23.025 105.789,22.706 103.990,22.468 102.550 C 22.229 101.110,21.920 99.311,21.780 98.553 C 21.640 97.795,21.453 96.554,21.363 95.796 C 21.274 95.038,21.085 93.673,20.943 92.764 C 20.801 91.854,20.493 89.621,20.259 87.802 C 20.024 85.982,19.765 83.997,19.683 83.391 C 19.171 79.621,18.354 71.226,17.938 65.472 C 17.774 63.198,17.513 59.662,17.358 57.615 C 16.502 46.290,16.512 14.173,17.375 5.415 C 17.523 3.921,17.643 2.091,17.643 1.349 L 17.643 0.000 9.803 0.000 C 5.490 0.000,1.905 0.093,1.836 0.207 M0.827 3.170 C 0.827 3.549,0.951 3.859,1.103 3.859 C 1.254 3.859,1.378 3.549,1.378 3.170 C 1.378 2.791,1.254 2.481,1.103 2.481 C 0.951 2.481,0.827 2.791,0.827 3.170 M359.752 44.797 C 359.752 45.024,359.876 45.210,360.028 45.210 C 360.179 45.210,360.303 45.024,360.303 44.797 C 360.303 44.569,360.179 44.383,360.028 44.383 C 359.876 44.383,359.752 44.569,359.752 44.797 M0.620 48.425 C 0.080 48.643,0.217 49.070,0.827 49.070 C 1.133 49.070,1.378 48.886,1.378 48.656 C 1.378 48.231,1.220 48.183,0.620 48.425 M0.827 49.897 C 0.827 50.200,0.951 50.448,1.103 50.448 C 1.254 50.448,1.378 50.200,1.378 49.897 C 1.378 49.593,1.254 49.345,1.103 49.345 C 0.951 49.345,0.827 49.593,0.827 49.897 M0.827 52.929 C 0.827 53.384,0.951 53.756,1.103 53.756 C 1.254 53.756,1.378 53.384,1.378 52.929 C 1.378 52.474,1.254 52.102,1.103 52.102 C 0.951 52.102,0.827 52.474,0.827 52.929 M345.023 63.067 C 344.889 63.491,345.016 63.543,345.969 63.452 C 346.601 63.391,347.071 63.202,347.071 63.007 C 347.071 62.753,347.813 62.695,350.034 62.776 C 353.267 62.894,355.341 63.325,355.341 63.878 C 355.341 64.073,355.465 64.232,355.617 64.232 C 355.768 64.232,355.892 64.031,355.892 63.786 C 355.892 63.453,356.049 63.387,356.513 63.524 C 357.498 63.816,357.870 63.890,359.407 64.099 C 360.203 64.207,360.855 64.389,360.855 64.503 C 360.855 64.617,361.258 64.776,361.751 64.856 C 362.243 64.937,363.352 65.325,364.214 65.720 C 365.076 66.114,365.894 66.437,366.031 66.437 C 366.295 66.437,367.766 67.243,369.484 68.328 C 370.050 68.686,370.480 69.143,370.439 69.344 C 370.399 69.545,370.489 69.686,370.641 69.658 C 370.793 69.630,370.887 69.519,370.851 69.410 C 370.815 69.302,370.970 69.284,371.196 69.371 C 371.421 69.457,371.606 69.639,371.606 69.774 C 371.606 69.910,371.747 70.021,371.919 70.021 C 372.091 70.021,372.503 70.314,372.835 70.672 C 373.167 71.030,373.770 71.540,374.176 71.806 C 374.582 72.072,374.914 72.527,374.914 72.818 C 374.914 73.108,375.131 73.424,375.396 73.519 C 375.995 73.734,376.844 74.586,376.844 74.971 C 376.844 75.129,376.954 75.258,377.090 75.258 C 377.225 75.258,377.403 75.433,377.484 75.645 C 377.710 76.234,377.379 77.188,376.949 77.188 C 376.739 77.188,376.568 77.312,376.568 77.464 C 376.568 77.615,376.871 77.739,377.241 77.739 C 377.611 77.739,377.996 77.872,378.096 78.034 C 378.196 78.196,378.451 78.262,378.663 78.180 C 378.886 78.095,379.049 78.204,379.049 78.437 C 379.049 78.660,379.181 78.842,379.343 78.842 C 379.512 78.842,379.563 79.077,379.462 79.394 C 379.362 79.710,379.413 79.945,379.582 79.945 C 379.744 79.945,379.876 80.193,379.876 80.496 C 379.876 80.799,380.016 81.048,380.186 81.048 C 380.385 81.048,380.436 81.350,380.328 81.888 C 380.224 82.410,380.263 82.665,380.431 82.561 C 380.903 82.270,380.725 82.762,380.221 83.145 C 379.772 83.486,379.779 83.512,380.329 83.520 C 381.025 83.530,381.254 84.012,381.254 85.465 C 381.254 86.050,381.378 86.605,381.530 86.699 C 381.686 86.796,381.806 88.167,381.806 89.869 C 381.806 91.572,381.686 92.943,381.530 93.039 C 381.378 93.133,381.254 93.831,381.254 94.590 C 381.254 95.953,380.908 96.982,380.317 97.377 C 380.101 97.521,380.106 97.581,380.334 97.584 C 380.681 97.588,380.545 99.166,380.157 99.655 C 380.036 99.807,379.850 100.582,379.743 101.378 C 379.636 102.174,379.436 102.826,379.299 102.826 C 379.161 102.826,379.049 103.013,379.049 103.243 C 379.049 103.472,378.939 103.876,378.806 104.139 C 378.359 105.018,377.395 107.656,377.395 108.000 C 377.395 108.186,377.271 108.339,377.119 108.339 C 376.968 108.339,376.844 108.587,376.844 108.890 C 376.844 109.194,376.729 109.442,376.590 109.442 C 376.450 109.442,376.254 109.814,376.154 110.269 C 376.054 110.724,375.859 111.096,375.719 111.096 C 375.579 111.096,375.465 111.335,375.465 111.627 C 375.465 111.920,375.279 112.345,375.052 112.573 C 374.824 112.800,374.638 113.181,374.638 113.419 C 374.638 113.936,374.322 113.978,373.866 113.522 C 373.609 113.264,373.535 113.329,373.535 113.814 C 373.535 114.159,373.658 114.360,373.811 114.266 C 374.233 114.006,374.139 114.588,373.687 115.040 C 373.467 115.260,373.205 115.765,373.106 116.162 C 373.006 116.560,372.814 116.885,372.679 116.885 C 372.543 116.885,372.433 117.071,372.433 117.298 C 372.433 117.526,372.317 117.712,372.176 117.712 C 372.034 117.712,371.832 117.985,371.726 118.319 C 371.620 118.653,371.363 119.096,371.156 119.304 C 370.948 119.511,370.779 119.838,370.779 120.031 C 370.779 120.223,370.456 120.527,370.063 120.706 C 369.595 120.920,369.402 121.178,369.507 121.450 C 369.595 121.680,369.495 121.934,369.285 122.014 C 369.075 122.095,368.837 122.416,368.755 122.729 C 368.658 123.099,368.460 123.241,368.185 123.135 C 367.651 122.930,367.280 123.489,367.756 123.783 C 368.037 123.956,368.015 124.099,367.653 124.461 C 367.401 124.713,367.195 125.041,367.195 125.191 C 367.195 125.341,367.071 125.387,366.919 125.293 C 366.768 125.199,366.644 125.378,366.644 125.690 C 366.644 126.002,366.530 126.258,366.391 126.258 C 366.251 126.258,365.853 126.723,365.505 127.292 C 365.157 127.860,364.744 128.464,364.586 128.633 C 364.123 129.133,363.262 130.175,362.260 131.451 C 361.094 132.936,360.414 133.743,359.269 135.000 C 358.777 135.541,358.372 136.121,358.369 136.289 C 358.367 136.458,358.243 136.409,358.094 136.182 C 357.901 135.889,357.762 135.860,357.615 136.081 C 357.502 136.253,357.171 136.439,356.880 136.495 C 356.227 136.619,355.958 137.285,356.561 137.285 C 356.931 137.285,356.946 137.371,356.656 137.836 C 356.466 138.139,356.086 138.387,355.810 138.387 C 355.534 138.387,355.385 138.510,355.477 138.661 C 355.658 138.952,354.803 140.294,354.427 140.308 C 354.304 140.313,353.890 140.689,353.507 141.144 C 353.124 141.599,352.650 141.971,352.454 141.971 C 352.257 141.971,351.899 142.272,351.659 142.639 C 351.418 143.007,350.960 143.390,350.641 143.492 C 350.323 143.593,350.131 143.745,350.216 143.829 C 350.543 144.157,348.398 145.851,347.869 145.683 C 347.503 145.567,347.347 145.652,347.347 145.966 C 347.347 146.251,347.472 146.339,347.691 146.207 C 347.941 146.057,347.936 146.124,347.671 146.450 C 347.466 146.704,347.115 146.827,346.868 146.732 C 346.614 146.635,346.500 146.679,346.598 146.836 C 346.789 147.146,345.551 148.587,345.093 148.587 C 344.927 148.587,344.504 148.897,344.152 149.276 C 343.801 149.655,343.384 149.966,343.225 149.966 C 343.066 149.966,342.936 150.076,342.936 150.212 C 342.936 150.347,342.751 150.529,342.526 150.615 C 342.300 150.702,342.145 150.684,342.181 150.576 C 342.217 150.468,342.123 150.354,341.971 150.323 C 341.819 150.292,341.734 150.509,341.782 150.805 C 341.837 151.150,341.710 151.344,341.428 151.344 C 341.187 151.344,340.917 151.530,340.830 151.757 C 340.743 151.985,340.491 152.171,340.271 152.171 C 340.051 152.171,339.948 152.295,340.041 152.447 C 340.135 152.598,340.018 152.722,339.780 152.722 C 339.543 152.722,339.079 153.032,338.749 153.411 C 338.420 153.790,338.043 154.101,337.913 154.101 C 337.624 154.101,335.942 155.260,335.814 155.548 C 335.764 155.662,335.547 155.755,335.332 155.755 C 335.117 155.755,334.941 155.879,334.941 156.030 C 334.941 156.182,334.764 156.306,334.548 156.306 C 334.331 156.306,333.984 156.476,333.777 156.683 C 333.569 156.891,333.126 157.147,332.792 157.253 C 332.458 157.359,332.185 157.562,332.185 157.703 C 332.185 157.844,332.009 157.960,331.794 157.960 C 331.579 157.960,331.362 158.068,331.312 158.199 C 331.261 158.331,330.925 158.530,330.565 158.642 C 330.115 158.782,329.969 158.751,330.099 158.541 C 330.384 158.079,329.546 158.175,329.152 158.649 C 328.868 158.991,328.898 159.066,329.325 159.084 C 329.692 159.100,329.622 159.186,329.083 159.383 C 328.666 159.535,328.325 159.776,328.325 159.918 C 328.325 160.061,327.989 160.092,327.567 159.987 C 326.905 159.822,326.854 159.852,327.161 160.225 C 327.464 160.593,327.381 160.677,326.567 160.830 C 326.047 160.928,325.552 161.190,325.466 161.413 C 325.380 161.637,325.058 161.819,324.750 161.819 C 324.442 161.819,324.190 161.943,324.190 162.095 C 324.190 162.247,323.942 162.371,323.639 162.371 C 323.336 162.371,323.088 162.508,323.088 162.676 C 323.088 162.867,322.820 162.915,322.375 162.803 C 321.913 162.687,321.725 162.725,321.840 162.911 C 321.938 163.069,321.834 163.198,321.611 163.198 C 321.387 163.198,321.152 163.353,321.088 163.542 C 320.997 163.811,320.871 163.804,320.513 163.509 C 320.186 163.238,320.055 163.224,320.055 163.459 C 320.055 163.975,319.324 164.576,318.696 164.576 C 318.382 164.576,318.125 164.700,318.125 164.852 C 318.125 165.003,317.931 165.127,317.693 165.127 C 317.243 165.127,317.361 164.181,317.881 163.625 C 318.015 163.481,318.125 163.156,318.125 162.902 C 318.125 161.994,319.258 159.842,319.655 159.995 C 320.177 160.195,320.437 159.703,319.957 159.424 C 319.537 159.180,319.650 157.409,320.086 157.409 C 320.221 157.409,320.331 157.099,320.331 156.720 C 320.331 156.340,320.453 156.030,320.603 156.030 C 320.753 156.030,320.955 155.531,321.053 154.921 C 321.207 153.956,321.307 153.832,321.814 153.974 C 322.205 154.083,322.281 154.055,322.043 153.889 C 321.646 153.613,321.872 151.344,322.296 151.344 C 322.428 151.344,322.536 151.103,322.536 150.809 C 322.536 150.515,322.669 150.192,322.831 150.092 C 322.993 149.992,323.060 149.740,322.981 149.533 C 322.901 149.326,322.974 149.071,323.142 148.967 C 323.328 148.852,323.371 148.903,323.252 149.096 C 323.144 149.271,323.183 149.414,323.340 149.414 C 323.510 149.414,323.558 149.080,323.460 148.587 C 323.363 148.104,323.410 147.760,323.573 147.760 C 323.726 147.760,323.940 147.171,324.048 146.451 C 324.156 145.731,324.325 145.079,324.424 145.003 C 324.523 144.928,324.802 144.307,325.043 143.625 C 325.284 142.943,325.655 142.385,325.866 142.385 C 326.077 142.385,326.295 142.149,326.351 141.862 C 326.425 141.477,326.335 141.384,326.010 141.509 C 325.550 141.685,325.387 141.289,325.812 141.026 C 325.947 140.943,326.149 140.284,326.262 139.562 C 326.375 138.840,326.524 138.405,326.593 138.594 C 326.852 139.312,327.262 138.918,327.086 138.118 C 326.987 137.667,327.002 137.142,327.120 136.952 C 327.238 136.761,327.368 136.417,327.409 136.187 C 327.710 134.505,327.865 133.977,328.055 133.977 C 328.175 133.977,328.359 133.356,328.463 132.598 C 328.590 131.678,328.783 131.220,329.046 131.220 C 329.316 131.220,329.390 131.025,329.282 130.596 C 329.196 130.253,329.318 129.513,329.552 128.951 C 329.787 128.389,329.979 127.615,329.979 127.231 C 329.979 126.848,330.088 126.533,330.220 126.533 C 330.352 126.533,330.543 126.006,330.644 125.362 C 330.844 124.090,331.286 122.537,331.662 121.790 C 331.792 121.531,331.980 120.787,332.079 120.136 C 332.179 119.485,332.353 118.828,332.467 118.677 C 332.581 118.525,332.762 117.750,332.869 116.954 C 332.976 116.158,333.176 115.507,333.313 115.507 C 333.451 115.507,333.548 115.414,333.530 115.300 C 333.431 114.671,333.606 114.128,333.908 114.127 C 334.145 114.127,334.260 113.568,334.278 112.324 C 334.292 111.332,334.447 110.377,334.623 110.202 C 334.798 110.026,334.941 109.590,334.941 109.233 C 334.941 108.875,335.057 108.654,335.198 108.741 C 335.339 108.828,335.533 108.772,335.629 108.617 C 335.725 108.462,335.623 108.266,335.403 108.181 C 335.148 108.084,335.059 107.812,335.158 107.433 C 335.388 106.553,336.040 105.381,336.042 105.844 C 336.044 106.138,336.126 106.162,336.351 105.937 C 336.699 105.589,336.418 104.938,336.025 105.181 C 335.507 105.501,335.787 104.288,336.377 103.655 C 336.789 103.212,336.876 102.965,336.646 102.889 C 336.284 102.768,336.470 100.190,336.880 99.655 C 336.997 99.504,337.181 98.418,337.289 97.243 C 337.398 96.068,337.597 95.107,337.731 95.107 C 337.864 95.107,337.974 94.494,337.974 93.745 C 337.974 92.996,338.104 92.302,338.263 92.204 C 338.422 92.106,338.523 91.819,338.489 91.568 C 338.323 90.359,338.859 87.703,339.239 87.849 C 339.470 87.938,339.628 87.825,339.628 87.572 C 339.628 87.016,339.164 86.733,338.984 87.180 C 338.907 87.370,338.835 87.185,338.823 86.768 C 338.808 86.256,338.940 86.010,339.231 86.010 C 339.467 86.010,339.592 85.899,339.508 85.763 C 339.424 85.627,339.572 85.432,339.836 85.330 C 340.290 85.154,340.289 85.123,339.820 84.777 C 339.285 84.383,339.384 78.486,339.936 77.891 C 340.070 77.747,340.179 76.483,340.179 75.082 C 340.179 73.671,340.303 72.458,340.456 72.363 C 340.609 72.269,340.712 71.630,340.686 70.944 C 340.656 70.127,340.774 69.609,341.029 69.445 C 341.358 69.234,341.360 69.155,341.043 68.951 C 340.741 68.756,340.706 68.099,340.866 65.643 L 341.066 62.578 343.122 62.578 C 344.967 62.578,345.162 62.628,345.023 63.067 M352.309 63.405 C 352.309 63.556,352.488 63.680,352.706 63.680 C 352.924 63.680,353.180 63.556,353.274 63.405 C 353.367 63.253,353.189 63.129,352.876 63.129 C 352.564 63.129,352.309 63.253,352.309 63.405 M353.576 63.637 C 353.480 63.792,353.537 64.001,353.701 64.102 C 354.125 64.364,354.398 64.005,354.044 63.652 C 353.846 63.454,353.692 63.449,353.576 63.637 M393.245 65.888 C 393.150 66.040,393.259 66.237,393.487 66.324 C 393.714 66.411,393.833 66.658,393.750 66.873 C 393.658 67.115,393.778 67.264,394.067 67.264 C 394.341 67.264,394.467 67.122,394.372 66.919 C 394.284 66.730,394.135 66.358,394.041 66.092 C 393.851 65.555,393.506 65.466,393.245 65.888 M363.611 66.299 C 363.330 66.638,363.349 66.713,363.715 66.713 C 363.961 66.713,364.163 66.527,364.163 66.299 C 364.163 66.072,364.116 65.886,364.059 65.886 C 364.001 65.886,363.800 66.072,363.611 66.299 M377.311 78.191 C 377.090 78.412,377.339 78.842,377.687 78.842 C 377.830 78.842,377.946 78.656,377.946 78.429 C 377.946 78.002,377.621 77.881,377.311 78.191 M3.032 81.048 C 3.032 82.150,3.151 82.977,3.308 82.977 C 3.466 82.977,3.584 82.150,3.584 81.048 C 3.584 79.945,3.466 79.118,3.308 79.118 C 3.151 79.118,3.032 79.945,3.032 81.048 M337.444 99.311 C 337.432 99.576,337.298 99.793,337.147 99.793 C 336.995 99.793,336.871 99.944,336.871 100.128 C 336.871 100.345,337.028 100.306,337.317 100.017 C 337.562 99.772,337.696 99.404,337.614 99.200 C 337.513 98.946,337.459 98.980,337.444 99.311 M378.699 102.254 C 378.601 102.626,378.674 102.741,378.942 102.638 C 379.153 102.557,379.325 102.318,379.325 102.107 C 379.325 101.534,378.858 101.643,378.699 102.254 M376.568 105.031 C 376.568 105.334,376.692 105.582,376.844 105.582 C 376.995 105.582,377.119 105.334,377.119 105.031 C 377.119 104.728,376.995 104.480,376.844 104.480 C 376.692 104.480,376.568 104.728,376.568 105.031 M372.984 110.820 C 372.984 111.123,373.108 111.371,373.260 111.371 C 373.411 111.371,373.535 111.123,373.535 110.820 C 373.535 110.517,373.411 110.269,373.260 110.269 C 373.108 110.269,372.984 110.517,372.984 110.820 M9.649 120.606 C 9.649 120.834,9.773 121.020,9.924 121.020 C 10.076 121.020,10.200 120.834,10.200 120.606 C 10.200 120.379,10.076 120.193,9.924 120.193 C 9.773 120.193,9.649 120.379,9.649 120.606 M16.265 144.849 C 16.265 145.068,16.389 145.323,16.540 145.417 C 16.692 145.511,16.816 145.332,16.816 145.020 C 16.816 144.708,16.692 144.452,16.540 144.452 C 16.389 144.452,16.265 144.631,16.265 144.849 M344.774 145.739 C 344.457 146.056,344.573 146.382,345.003 146.382 C 345.231 146.382,345.417 146.196,345.417 145.968 C 345.417 145.538,345.091 145.421,344.774 145.739 M344.754 147.441 C 344.659 147.596,344.715 147.805,344.879 147.907 C 345.303 148.169,345.577 147.810,345.223 147.456 C 345.025 147.258,344.871 147.253,344.754 147.441 M18.199 150.665 C 18.206 151.139,18.710 151.747,18.921 151.536 C 19.034 151.423,18.917 151.121,18.660 150.865 C 18.404 150.608,18.196 150.518,18.199 150.665 M58.718 223.983 C 58.718 224.211,58.842 224.397,58.994 224.397 C 59.145 224.397,59.269 224.211,59.269 223.983 C 59.269 223.756,59.145 223.570,58.994 223.570 C 58.842 223.570,58.718 223.756,58.718 223.983 M254.445 251.137 C 254.445 251.289,254.631 251.413,254.859 251.413 C 255.086 251.413,255.272 251.289,255.272 251.137 C 255.272 250.986,255.086 250.861,254.859 250.861 C 254.631 250.861,254.445 250.986,254.445 251.137 M14.059 252.516 C 14.059 252.667,14.245 252.791,14.473 252.791 C 14.700 252.791,14.886 252.667,14.886 252.516 C 14.886 252.364,14.700 252.240,14.473 252.240 C 14.245 252.240,14.059 252.364,14.059 252.516 " stroke="none" fill="#ebe9e4" fill-rule="evenodd"></path><path id="path2" d="M102.619 144.659 C 140.637 144.697,202.850 144.697,240.868 144.659 C 278.887 144.620,247.781 144.589,171.744 144.589 C 95.706 144.589,64.600 144.620,102.619 144.659 M310.162 145.585 C 309.992 146.073,309.901 146.519,309.960 146.578 C 310.019 146.637,310.206 146.287,310.376 145.800 C 310.546 145.313,310.637 144.866,310.578 144.807 C 310.519 144.748,310.331 145.098,310.162 145.585 M33.702 145.348 C 33.772 145.538,34.175 146.685,34.596 147.898 C 35.017 149.111,35.468 150.221,35.599 150.365 C 35.730 150.509,35.837 150.846,35.837 151.114 C 35.837 151.556,36.349 152.931,36.974 154.166 C 37.107 154.429,37.216 154.782,37.216 154.951 C 37.216 155.120,37.385 155.649,37.592 156.126 C 37.799 156.604,38.186 157.553,38.452 158.236 C 38.997 159.632,39.150 160.008,39.972 161.957 C 40.292 162.715,40.655 163.584,40.779 163.887 C 40.903 164.190,41.315 165.121,41.695 165.955 C 42.075 166.788,42.571 167.905,42.797 168.436 C 44.119 171.546,44.811 173.002,47.580 178.494 C 49.262 181.832,51.278 185.666,52.059 187.014 C 53.540 189.568,53.798 190.268,53.023 189.627 C 52.604 189.282,52.598 189.302,52.944 189.858 C 53.190 190.253,53.391 190.359,53.515 190.158 C 53.678 189.893,55.686 192.616,55.686 193.103 C 55.686 193.190,56.368 194.258,57.202 195.476 C 58.036 196.693,58.718 197.744,58.718 197.811 C 58.718 197.877,59.670 199.245,60.834 200.849 C 62.316 202.893,62.849 203.829,62.613 203.975 C 62.358 204.133,62.381 204.271,62.709 204.543 C 63.076 204.848,63.115 204.833,62.968 204.450 C 62.634 203.580,63.074 204.013,64.649 206.105 C 65.521 207.265,66.457 208.474,66.727 208.793 C 66.997 209.112,68.066 210.385,69.102 211.622 C 70.138 212.859,71.717 214.692,72.610 215.695 C 73.504 216.698,74.171 217.581,74.094 217.659 C 74.017 217.736,73.557 217.348,73.073 216.796 C 72.588 216.245,72.141 215.845,72.078 215.907 C 71.897 216.088,78.807 223.231,81.213 225.351 C 82.411 226.406,81.282 225.208,78.704 222.687 C 76.127 220.167,74.098 218.025,74.195 217.927 C 74.292 217.829,75.843 219.214,77.641 221.005 C 80.943 224.296,85.147 228.138,87.384 229.910 C 88.053 230.441,88.980 231.197,89.442 231.590 C 91.803 233.597,100.102 239.311,103.101 240.993 C 103.784 241.375,105.086 242.127,105.996 242.664 C 108.499 244.140,115.572 247.503,117.988 248.367 C 118.518 248.557,119.201 248.816,119.504 248.944 C 120.164 249.221,122.243 249.700,124.328 250.054 C 125.969 250.334,217.030 250.443,219.504 250.169 C 224.623 249.601,231.895 246.558,240.041 241.573 C 241.898 240.437,243.487 239.395,243.572 239.257 C 243.657 239.120,243.920 239.008,244.158 239.008 C 244.527 239.008,244.535 239.073,244.210 239.465 C 243.865 239.884,243.885 239.890,244.441 239.544 C 244.860 239.283,244.949 239.102,244.725 238.963 C 244.546 238.852,244.458 238.716,244.529 238.660 C 244.600 238.603,245.713 237.832,247.002 236.944 C 248.291 236.057,249.407 235.259,249.483 235.171 C 249.559 235.083,250.427 234.395,251.413 233.643 C 252.398 232.891,253.267 232.205,253.343 232.119 C 253.418 232.034,254.039 231.536,254.721 231.013 C 255.403 230.490,256.025 229.997,256.104 229.918 C 257.327 228.671,258.079 228.167,258.267 228.471 C 258.420 228.718,258.665 228.603,259.150 228.055 C 259.753 227.372,259.758 227.348,259.199 227.820 C 257.926 228.894,258.371 228.034,259.837 226.586 C 261.104 225.336,261.405 225.155,261.649 225.500 C 261.901 225.857,261.921 225.852,261.799 225.466 C 261.709 225.182,262.110 224.581,262.903 223.812 C 265.868 220.938,273.251 212.875,274.973 210.630 C 275.271 210.242,275.586 209.862,275.673 209.786 C 275.760 209.711,276.447 208.844,277.199 207.860 C 277.951 206.876,278.722 205.905,278.912 205.703 C 279.101 205.501,279.832 204.528,280.536 203.542 C 281.498 202.194,281.881 201.840,282.078 202.115 C 282.272 202.387,282.300 202.356,282.183 201.995 C 282.082 201.680,282.632 200.603,283.743 198.939 C 285.737 195.953,285.406 196.470,288.703 191.178 C 290.120 188.904,291.695 186.299,292.202 185.389 C 292.709 184.480,293.373 183.301,293.677 182.771 C 294.499 181.338,300.255 169.893,300.956 168.298 C 301.289 167.540,301.888 166.175,302.288 165.265 C 302.688 164.356,303.252 163.091,303.541 162.455 C 303.830 161.819,304.066 161.130,304.066 160.925 C 304.066 160.719,304.174 160.433,304.306 160.289 C 304.437 160.145,304.769 159.407,305.042 158.649 C 305.316 157.891,305.628 157.147,305.736 156.995 C 305.844 156.844,306.023 156.285,306.134 155.755 C 306.245 155.224,306.414 154.666,306.508 154.514 C 306.715 154.183,307.089 153.187,307.905 150.793 C 308.241 149.807,308.618 148.753,308.743 148.449 C 309.154 147.451,309.855 145.402,309.855 145.201 C 309.855 145.092,247.692 145.003,171.714 145.003 C 61.316 145.003,33.599 145.073,33.702 145.348 M309.433 147.898 C 309.362 148.125,309.243 148.504,309.169 148.739 C 309.095 148.975,309.142 149.101,309.274 149.019 C 309.406 148.938,309.573 148.559,309.646 148.178 C 309.790 147.424,309.642 147.230,309.433 147.898 M307.145 154.362 C 306.984 154.825,306.910 155.203,306.982 155.203 C 307.168 155.203,307.688 153.771,307.552 153.635 C 307.489 153.572,307.306 153.900,307.145 154.362 M299.114 173.104 C 298.765 173.756,298.748 174.031,299.071 173.832 C 299.314 173.681,299.693 172.571,299.501 172.571 C 299.445 172.571,299.271 172.811,299.114 173.104 M55.917 194.762 C 56.335 195.586,57.047 196.455,57.045 196.141 C 57.045 195.989,56.728 195.493,56.341 195.038 C 55.953 194.583,55.763 194.459,55.917 194.762 M279.437 205.651 C 279.169 206.106,278.995 206.478,279.050 206.478 C 279.106 206.478,279.427 206.106,279.763 205.651 C 280.100 205.196,280.274 204.824,280.150 204.824 C 280.027 204.824,279.706 205.196,279.437 205.651 M65.331 208.128 C 65.810 208.733,66.346 209.316,66.521 209.425 C 66.697 209.534,66.363 209.039,65.779 208.326 C 65.195 207.613,64.659 207.030,64.589 207.030 C 64.518 207.030,64.853 207.524,65.331 208.128 M276.721 209.166 C 276.196 209.778,275.875 210.338,276.050 210.338 C 276.125 210.338,276.451 209.966,276.775 209.511 C 277.417 208.609,277.384 208.395,276.721 209.166 M68.091 211.527 C 68.091 211.574,68.494 211.977,68.987 212.423 L 69.883 213.232 69.073 212.336 C 68.318 211.501,68.091 211.314,68.091 211.527 M272.625 214.128 L 271.675 215.162 272.708 214.212 C 273.277 213.689,273.742 213.224,273.742 213.178 C 273.742 212.968,273.509 213.166,272.625 214.128 M264.884 222.236 C 263.423 223.728,262.309 224.948,262.408 224.948 C 262.507 224.948,263.824 223.708,265.334 222.192 C 266.845 220.675,267.959 219.455,267.810 219.480 C 267.661 219.504,266.344 220.745,264.884 222.236 M256.375 230.231 C 255.541 231.000,255.231 231.379,255.686 231.071 C 256.464 230.545,258.273 228.794,258.012 228.820 C 257.945 228.826,257.209 229.461,256.375 230.231 M86.010 229.445 C 86.010 229.493,86.413 229.896,86.906 230.341 L 87.802 231.151 86.992 230.255 C 86.237 229.420,86.010 229.232,86.010 229.445 M89.593 232.468 C 89.593 232.520,89.997 232.859,90.489 233.219 C 91.044 233.625,91.236 233.692,90.994 233.394 C 90.627 232.942,89.593 232.258,89.593 232.468 M252.875 233.106 L 252.102 233.820 252.998 233.225 C 253.819 232.680,254.086 232.391,253.771 232.391 C 253.704 232.391,253.301 232.713,252.875 233.106 M95.245 236.669 C 95.548 236.916,96.044 237.240,96.347 237.389 L 96.899 237.660 96.347 237.211 C 96.044 236.964,95.548 236.640,95.245 236.491 L 94.693 236.220 95.245 236.669 M247.108 237.401 C 245.988 238.244,245.667 238.575,246.313 238.222 C 247.030 237.830,248.292 236.816,248.073 236.808 C 247.980 236.805,247.546 237.072,247.108 237.401 M242.660 240.418 C 241.721 241.019,241.417 241.424,242.247 240.967 C 242.879 240.620,243.870 239.853,243.694 239.848 C 243.618 239.846,243.153 240.102,242.660 240.418 M115.231 247.921 C 115.231 247.993,115.631 248.190,116.121 248.361 C 116.610 248.532,116.889 248.558,116.741 248.419 C 116.427 248.125,115.231 247.731,115.231 247.921 M221.439 250.294 C 220.797 250.398,220.198 250.558,220.106 250.649 C 219.867 250.889,222.251 250.556,222.743 250.282 C 223.207 250.023,223.092 250.024,221.439 250.294 " stroke="none" fill="#5b4323" fill-rule="evenodd"></path><path id="path3" d="M33.381 145.905 C 33.626 146.628,33.907 147.300,34.005 147.398 C 34.103 147.496,34.184 147.773,34.185 148.013 C 34.186 148.253,34.372 148.805,34.599 149.239 C 34.825 149.673,35.010 150.186,35.010 150.379 C 35.010 150.572,35.196 151.085,35.422 151.519 C 35.649 151.953,35.835 152.519,35.836 152.775 C 35.837 153.031,35.961 153.318,36.113 153.411 C 36.265 153.505,36.389 153.773,36.389 154.006 C 36.389 154.240,36.558 154.822,36.765 155.299 C 36.972 155.777,37.361 156.726,37.629 157.409 C 38.445 159.480,39.161 161.217,39.806 162.688 C 40.049 163.242,40.248 163.762,40.248 163.843 C 40.248 163.925,40.744 165.061,41.351 166.368 C 41.957 167.675,42.453 168.923,42.453 169.141 C 42.453 169.360,42.578 169.538,42.729 169.538 C 42.881 169.538,43.005 169.669,43.005 169.829 C 43.005 170.452,47.397 179.478,50.040 184.287 C 50.874 185.803,51.707 187.354,51.892 187.733 C 52.077 188.112,52.293 188.484,52.372 188.560 C 52.647 188.824,53.222 189.804,53.383 190.283 C 53.472 190.548,53.654 190.765,53.788 190.765 C 53.922 190.765,54.032 190.920,54.032 191.110 C 54.032 191.300,54.714 192.498,55.548 193.772 C 56.382 195.047,57.064 196.125,57.064 196.168 C 57.064 196.372,60.217 200.839,60.418 200.919 C 60.544 200.969,60.648 201.138,60.648 201.293 C 60.648 201.448,61.050 202.089,61.541 202.717 C 62.033 203.345,62.531 203.983,62.650 204.135 C 62.768 204.287,63.513 205.293,64.306 206.372 C 70.334 214.573,81.672 226.254,89.026 231.840 C 89.525 232.219,90.322 232.843,90.797 233.227 C 92.791 234.839,97.543 238.093,101.034 240.238 C 102.247 240.984,103.301 241.663,103.377 241.748 C 103.534 241.923,104.500 242.449,107.650 244.073 C 108.863 244.699,109.917 245.272,109.993 245.348 C 110.069 245.424,110.565 245.686,111.096 245.931 C 111.626 246.176,112.766 246.704,113.628 247.103 C 114.491 247.502,115.297 247.830,115.420 247.831 C 115.544 247.832,115.955 247.994,116.334 248.192 C 116.713 248.390,117.705 248.778,118.539 249.055 C 119.373 249.332,120.303 249.661,120.606 249.786 C 122.834 250.705,123.888 250.724,172.295 250.708 C 209.102 250.697,220.505 250.615,221.778 250.353 C 223.518 249.995,227.072 248.810,228.250 248.195 C 228.633 247.996,229.163 247.832,229.428 247.831 C 229.693 247.830,229.910 247.705,229.910 247.553 C 229.910 247.402,230.049 247.278,230.218 247.278 C 230.578 247.278,235.958 244.601,237.524 243.644 C 238.113 243.284,239.059 242.747,239.628 242.452 C 240.196 242.156,240.662 241.819,240.662 241.702 C 240.662 241.584,240.778 241.489,240.920 241.489 C 241.062 241.489,241.993 240.930,242.990 240.248 C 243.987 239.566,244.915 239.008,245.052 239.008 C 245.190 239.008,245.343 238.910,245.394 238.790 C 245.445 238.670,246.103 238.143,246.858 237.618 C 247.612 237.094,248.473 236.447,248.770 236.182 C 249.068 235.917,249.403 235.700,249.515 235.700 C 249.628 235.700,249.884 235.544,250.085 235.355 C 250.410 235.048,253.319 232.715,254.037 232.185 C 254.192 232.071,255.122 231.286,256.105 230.441 C 257.087 229.595,258.262 228.603,258.715 228.235 C 260.093 227.118,271.021 216.057,272.640 214.141 C 274.990 211.359,275.837 210.332,277.254 208.547 C 277.976 207.637,278.722 206.729,278.911 206.528 C 279.101 206.328,279.256 206.071,279.256 205.959 C 279.256 205.847,279.474 205.515,279.741 205.221 C 280.798 204.056,282.012 202.385,282.012 202.097 C 282.012 201.929,282.117 201.792,282.244 201.792 C 282.371 201.792,282.619 201.513,282.795 201.172 C 282.971 200.830,283.541 199.993,284.061 199.311 C 284.582 198.629,285.016 197.926,285.026 197.749 C 285.037 197.572,285.138 197.386,285.252 197.335 C 285.586 197.187,290.344 189.826,290.925 188.560 C 291.029 188.332,291.341 187.774,291.618 187.319 C 291.895 186.864,292.534 185.748,293.039 184.838 C 293.544 183.928,294.164 182.812,294.418 182.357 C 294.672 181.902,295.675 179.979,296.647 178.084 C 297.620 176.189,298.508 174.597,298.622 174.546 C 298.735 174.496,298.828 174.295,298.828 174.101 C 298.828 173.906,299.249 172.893,299.764 171.850 C 300.791 169.765,302.570 165.935,303.015 164.852 C 303.170 164.473,303.457 163.790,303.652 163.336 C 304.602 161.121,305.196 159.672,305.858 157.960 C 306.122 157.278,306.438 156.471,306.561 156.168 C 306.683 155.865,307.060 154.810,307.398 153.825 C 307.736 152.839,308.346 151.103,308.755 149.966 C 309.164 148.828,309.558 147.712,309.632 147.484 C 309.706 147.257,309.946 146.513,310.165 145.830 L 310.564 144.590 171.750 144.590 L 32.936 144.590 33.381 145.905 M309.855 145.201 C 309.855 145.402,309.154 147.451,308.743 148.449 C 308.618 148.753,308.241 149.807,307.905 150.793 C 307.089 153.187,306.715 154.183,306.508 154.514 C 306.414 154.666,306.245 155.224,306.134 155.755 C 306.023 156.285,305.844 156.844,305.736 156.995 C 305.628 157.147,305.316 157.891,305.042 158.649 C 304.769 159.407,304.437 160.145,304.306 160.289 C 304.174 160.433,304.066 160.719,304.066 160.925 C 304.066 161.130,303.830 161.819,303.541 162.455 C 303.252 163.091,302.688 164.356,302.288 165.265 C 301.888 166.175,301.289 167.540,300.956 168.298 C 300.255 169.893,294.499 181.338,293.677 182.771 C 293.373 183.301,292.709 184.480,292.202 185.389 C 291.695 186.299,290.094 188.944,288.645 191.267 C 287.195 193.589,285.882 195.698,285.725 195.953 C 284.268 198.329,279.221 205.530,278.735 205.927 C 278.642 206.003,277.951 206.871,277.199 207.857 C 276.447 208.842,275.760 209.711,275.673 209.786 C 275.586 209.862,275.271 210.242,274.973 210.630 C 270.821 216.043,259.969 226.961,254.721 231.007 C 254.039 231.533,253.418 232.034,253.343 232.119 C 253.267 232.205,252.398 232.891,251.413 233.643 C 250.427 234.395,249.559 235.083,249.483 235.171 C 249.407 235.259,248.291 236.061,247.002 236.952 C 245.713 237.843,244.597 238.639,244.521 238.721 C 244.445 238.803,244.135 239.020,243.832 239.203 C 243.529 239.387,241.792 240.460,239.972 241.588 C 234.617 244.909,228.602 247.838,224.948 248.903 C 221.753 249.835,221.061 249.996,219.504 250.169 C 217.030 250.443,125.969 250.334,124.328 250.054 C 122.243 249.700,120.164 249.221,119.504 248.944 C 119.201 248.816,118.518 248.557,117.988 248.367 C 115.572 247.503,108.499 244.140,105.996 242.664 C 105.086 242.127,103.784 241.375,103.101 240.993 C 100.102 239.311,91.803 233.597,89.442 231.590 C 88.980 231.197,88.053 230.441,87.384 229.910 C 82.128 225.746,74.215 217.817,68.826 211.315 C 67.941 210.247,67.009 209.125,66.755 208.822 C 65.361 207.159,58.718 198.052,58.718 197.805 C 58.718 197.741,58.036 196.693,57.202 195.476 C 56.368 194.258,55.686 193.190,55.686 193.103 C 55.686 193.015,55.225 192.237,54.662 191.372 C 54.099 190.507,53.498 189.552,53.326 189.249 C 50.765 184.728,48.710 180.856,46.658 176.685 C 44.472 172.239,43.725 170.638,42.744 168.298 C 42.616 167.994,42.173 167.002,41.758 166.092 C 41.343 165.183,40.903 164.190,40.779 163.887 C 40.655 163.584,40.292 162.715,39.972 161.957 C 39.150 160.008,38.997 159.632,38.452 158.236 C 38.186 157.553,37.799 156.604,37.592 156.126 C 37.385 155.649,37.216 155.120,37.216 154.951 C 37.216 154.782,37.107 154.429,36.974 154.166 C 36.349 152.931,35.837 151.556,35.837 151.114 C 35.837 150.846,35.730 150.509,35.599 150.365 C 35.468 150.221,35.017 149.111,34.596 147.898 C 34.175 146.685,33.772 145.538,33.702 145.348 C 33.599 145.073,61.316 145.003,171.714 145.003 C 247.692 145.003,309.855 145.092,309.855 145.201 " stroke="none" fill="#222329" fill-rule="evenodd"></path></g></svg>