<svg viewBox="40 184 456 275" xmlns="http://www.w3.org/2000/svg" width="456" height="275">
  <defs>
    <linearGradient y2="415.781" x2="229.226" y1="302.413" x1="229.226" gradientUnits="userSpaceOnUse" id="gradient-0">
      <stop style="stop-color:rgb(35.686% 26.275% 13.725%)" offset="0">
        
      </stop>
      <stop style="stop-color:rgb(24.025% 15.729% 2.8983%)" offset="1">
        
      </stop>
    </linearGradient>

    <linearGradient y2="248.825" x2="-353.107" y1="129.553" x1="-353.107" gradientUnits="userSpaceOnUse" id="gradient-1">
      <stop style="stop-color:rgb(51.373% 70.588% 80%)" offset="0">
        
      </stop>
      <stop style="stop-color:rgb(22.354% 41.799% 50.413%)" offset="1">
        
      </stop>
    </linearGradient>
  </defs>

  <g id="svg">
    <g transform="matrix(1, 0, 0, 1, 107.328941, -1.26808)" id="svgg">
      <path style="fill: rgb(235, 233, 228);" fill-rule="evenodd" stroke="none" d="M -64.662 226.391 C -64.339 270.363 -64.236 271.804 -59.962 291.161 C -47.156 349.162 -8.67 397.249 42.486 419.179 C 45.578 420.503 46.923 421.54 47.511 423.046 C 48.373 425.255 47.906 436.307 46.913 437.297 C 46.595 437.612 30.633 437.969 11.44 438.091 C -20.436 438.295 -23.624 438.426 -25.43 439.609 C -31.729 443.739 -31.734 453.234 -25.439 457.123 L -22.956 458.658 L 129.354 458.541 C 213.124 458.476 282.411 458.14 283.329 457.79 C 290.249 455.159 291.233 444.43 284.965 439.958 C 282.668 438.319 282.581 438.314 243.766 437.947 L 204.865 437.581 L 204.865 429.146 L 204.865 420.712 L 213.503 416.129 C 242.527 400.729 259.691 384.139 280.343 351.526 C 282.17 348.643 282.555 348.408 285.496 348.408 C 294.47 348.408 315.118 347.69 318.127 347.273 C 380.735 338.594 406.175 260.057 362.264 211.014 C 347.041 194.01 328.414 186.956 298.708 186.946 L 286.13 186.942 L 285.758 226.024 C 285.318 272.197 284.52 280.318 278.255 302.552 C 262.126 359.78 218.017 401.429 161.719 412.59 C 66.791 431.405 -19.242 377.849 -39.459 287.358 C -43.384 269.789 -43.739 264.914 -44.1 223.823 L -44.437 185.473 L -54.701 185.473 L -64.963 185.473 L -64.662 226.391 M 320.42 209.771 C 368.561 222.677 378.658 290.729 336.582 318.7 C 327.445 324.776 319.899 326.819 303.862 327.568 C 291.081 328.162 291.441 328.349 293.707 322.332 C 303.605 296.031 306.46 277.024 306.494 237.18 C 306.512 215.849 306.732 209.034 307.433 208.324 C 308.535 207.208 312.519 207.652 320.42 209.771" id="path0"/>
      
      <g transform="matrix(1, 0, 0, 1, 504.739319, 1.899784)" id="svg-1">
        <g transform="matrix(1, 0, 0, 1, -30.992184, 54.093948)" id="group-1">
          <path stroke-opacity="0" stroke="rgb(0,0,0)" fill="url(#gradient-1)" d="M -518.313 129.553 L -517.618 188.355 L -516.908 210.499 L -513.989 229.059 L -508.155 249.225 L -195.702 247.769 L -190.65 227.987 L -188.606 207.827 L -187.247 131.249 L -518.313 129.553 Z"/>
        </g>
      </g>
    </g>
  </g>

  
  <path stroke="rgba(0,0,0,0)" fill-rule="nonzero" fill="url(#gradient-0)" d="M 72.542 303.312 L 76.77 313.694 L 80.33 321.991 L 83.448 328.395 L 90.729 341.162 L 99.204 353.077 L 111.625 367.241 L 120.437 375.622 L 129.805 383.099 L 137.204 388.217 L 143.936 392.35 L 151.057 396.343 L 158.031 399.911 L 166.117 403.21 L 175.109 406.811 L 183.38 409.327 L 198.491 412.874 L 204.901 413.981 L 212.72 414.837 L 221.108 415.598 L 228.8 415.781 L 243.741 415.687 C 243.741 415.687 258.231 414.1 258.231 414.081 C 258.231 414.062 274.01 411.363 274.01 411.363 L 290.393 406.544 L 303.286 401.255 L 315.498 394.92 L 325.314 388.745 L 337.463 379.276 L 346.638 370.979 L 359.59 355.879 L 367.837 343.606 L 374.164 332.801 L 379.208 321.532 L 384.378 307.908 L 385.909 302.413 L 72.542 303.312 Z"/>
</svg>