<?xml version="1.0" encoding="utf-8"?>
<svg xmlns="http://www.w3.org/2000/svg" viewBox="0 0 500 500">
  <path d="M 17.905 191.799 C 17.895 188.74 17.454 191.185 18.061 191.183 C 19.047 191.186 18.198 191.262 18.902 191.262 C 20.838 191.26 30.992 188.821 32.929 188.823 C 35.02 188.825 389.572 188.451 427.904 188.46 C 428.056 191.407 428.896 185.858 428.833 194.912 C 428.827 196.327 428.822 197.743 428.819 199.158 C 428.807 202.527 428.79 205.898 428.767 209.268 C 429.349 209.265 429.349 209.265 429.945 209.263 C 448.506 209.218 467.174 212.78 481.526 225.255 C 482.048 225.67 482.569 226.084 483.106 226.511 C 491.276 233.32 496.493 244.927 497.917 255.322 C 499.507 278.831 491.172 299.705 476.883 318.162 C 476.21 319.034 475.549 319.915 474.892 320.797 C 470.264 326.973 465.256 332.898 459.676 338.236 C 459.236 338.676 458.797 339.116 458.344 339.569 C 457.904 340.008 457.464 340.448 457.012 340.902 C 456.714 341.212 456.415 341.522 456.108 341.842 C 453.504 344.52 450.743 346.91 447.814 349.227 C 447.143 349.757 446.474 350.29 445.806 350.824 C 440.652 354.939 435.462 358.785 429.832 362.218 C 429.261 362.586 428.689 362.953 428.1 363.332 C 417.544 370.037 405.385 375.982 393.079 378.533 C 389.684 379.226 389.684 379.226 387.325 381.583 C 386.964 382.291 386.622 383.009 386.299 383.736 C 385.907 384.513 385.514 385.291 385.12 386.067 C 384.932 386.453 384.745 386.838 384.551 387.235 C 375.934 404.42 362.536 420.818 348.827 434.164 C 347.483 435.499 346.147 436.844 344.826 438.202 C 342.034 441.053 339.195 443.704 336.066 446.19 C 334.866 447.146 333.685 448.113 332.51 449.1 C 328.276 452.638 323.936 455.849 319.297 458.841 C 318.907 459.093 318.518 459.344 318.117 459.602 C 317.769 459.824 317.421 460.045 317.064 460.273 C 316.817 460.45 316.572 460.627 316.318 460.81 C 316.318 460.986 316.318 461.162 316.318 461.343 C 350.261 461.343 384.203 461.343 419.174 461.343 C 421.101 467.126 421.907 472.188 419.236 477.843 C 417.304 481.369 414.519 483.213 411.18 485.325 C 410.751 485.612 410.323 485.899 409.881 486.196 C 403.687 489.705 396.736 488.966 389.832 488.928 C 388.35 488.93 386.868 488.937 385.385 488.944 C 382.168 488.955 378.951 488.954 375.734 488.947 C 370.949 488.934 366.165 488.941 361.38 488.951 C 352.833 488.967 344.288 488.966 335.741 488.956 C 328.261 488.949 320.782 488.947 313.302 488.951 C 312.806 488.951 312.31 488.951 311.798 488.951 C 309.784 488.952 307.768 488.953 305.753 488.954 C 286.854 488.964 267.956 488.955 249.057 488.938 C 232.272 488.923 215.488 488.924 198.704 488.939 C 179.84 488.956 160.977 488.963 142.113 488.953 C 140.101 488.953 138.089 488.952 136.078 488.951 C 135.583 488.95 135.088 488.95 134.577 488.95 C 127.103 488.946 119.63 488.95 112.156 488.958 C 103.657 488.967 95.156 488.965 86.657 488.948 C 81.902 488.938 77.147 488.938 72.387 488.95 C 69.217 488.957 66.037 488.953 62.858 488.938 C 61.046 488.931 59.235 488.93 57.433 488.94 C 43.654 489.008 43.654 489.008 37.594 485.325 C 37.083 485.024 36.572 484.723 36.042 484.412 C 32.053 481.973 28.932 478.434 27.775 473.834 C 27.13 469.849 27.149 465.712 28.536 461.876 C 30.165 461.063 31.851 461.272 33.634 461.279 C 34.27 461.278 34.27 461.278 34.915 461.278 C 36.331 461.277 37.748 461.28 39.164 461.283 C 40.176 461.283 41.188 461.283 42.209 461.283 C 44.965 461.282 47.72 461.286 50.476 461.289 C 53.357 461.292 56.238 461.292 59.119 461.293 C 64.573 461.295 70.036 461.299 75.49 461.305 C 81.7 461.311 87.911 461.314 94.122 461.316 C 106.901 461.322 119.679 461.331 132.459 461.343 C 132.171 461.164 131.884 460.985 131.588 460.801 C 130.269 459.976 128.951 459.149 127.633 458.323 C 126.956 457.901 126.956 457.901 126.266 457.47 C 122.45 455.073 118.918 452.442 115.405 449.618 C 114.572 448.974 113.74 448.329 112.906 447.686 C 112.14 447.087 111.374 446.488 110.608 445.888 C 110.12 445.513 109.632 445.137 109.13 444.749 C 108.64 444.367 108.149 443.984 107.644 443.59 C 107.193 443.241 106.741 442.891 106.276 442.53 C 105.947 442.232 105.618 441.933 105.279 441.625 C 105.279 441.273 105.279 440.921 105.279 440.559 C 104.984 440.438 104.689 440.316 104.385 440.191 C 102.788 439.291 101.682 438.157 100.389 436.857 C 100.129 436.597 99.868 436.337 99.6 436.068 C 99.051 435.517 98.502 434.964 97.954 434.41 C 97.13 433.575 96.3 432.745 95.47 431.915 C 92.591 429.025 89.794 426.09 87.159 422.973 C 86.648 422.378 86.137 421.785 85.625 421.19 C 85.148 420.63 84.671 420.069 84.195 419.508 C 83.943 419.213 83.691 418.917 83.432 418.613 C 81.776 416.655 80.23 414.653 78.801 412.522 C 77.921 411.591 77.213 411.449 75.967 411.247 C 76.319 410.896 76.671 410.544 77.034 410.182 C 76.672 409.704 76.31 409.226 75.939 408.733 C 69.043 399.523 62.27 389.389 57.462 378.927 C 56.874 377.501 56.874 377.501 55.188 377.14 C 55.217 376.776 55.255 376.412 55.294 376.037 C 55.149 374.016 54.33 372.558 53.386 370.812 C 48.135 360.68 44.069 350.047 40.263 339.302 C 40.099 338.831 39.925 338.36 39.752 337.874 C 39.608 337.448 39.463 337.022 39.309 336.584 C 39.184 336.218 39.058 335.852 38.923 335.475 C 38.663 334.506 38.663 334.506 38.663 332.907 C 38.133 332.732 37.603 332.555 37.064 332.374 C 37.42 332.374 37.767 332.374 38.133 332.374 C 37.7 331.153 37.266 329.932 36.833 328.71 C 36.707 328.363 36.582 328.016 36.457 327.659 C 35.773 325.721 35.773 325.721 34.934 323.847 C 34.761 323.143 34.597 322.434 34.453 321.723 C 33.865 318.998 33.181 316.304 32.477 313.606 C 24.731 283.45 19.957 252.773 18.791 221.617 C 18.772 221.049 18.753 220.482 18.733 219.897 C 18.695 218.835 18.666 217.772 18.637 216.711 C 18.618 216.242 18.608 215.774 18.589 215.292 C 18.579 214.886 18.57 214.479 18.56 214.06 C 18.464 212.831 18.464 212.831 17.346 211.4 C 18.136 211.136 18.136 211.136 18.936 210.867 C 18.416 210.867 17.886 210.867 17.346 210.867 C 17.433 210.569 17.519 210.272 17.606 209.966 C 17.895 208.636 17.943 207.457 17.934 206.095 C 17.934 205.573 17.934 205.051 17.934 204.512 C 17.934 203.952 17.934 203.392 17.924 202.815 C 17.924 202.237 17.924 201.661 17.924 201.067 C 17.924 199.226 17.914 197.386 17.905 195.545 C 17.905 194.297 17.905 193.048 17.905 191.799 Z M 37.594 189.017 C 37.594 185.675 36.755 205.302 37.796 231.684 C 37.835 232.181 37.864 232.678 37.902 233.19 C 38.249 238.264 38.75 243.295 39.453 248.333 C 39.752 250.468 40.003 252.606 40.243 254.748 C 40.282 255.124 40.33 255.5 40.369 255.887 C 40.542 257.417 40.716 258.947 40.889 260.477 C 41.429 265.408 42.151 270.255 43.115 275.121 C 43.491 277.119 43.693 279.093 43.866 281.115 C 44.03 282.641 44.387 284.115 44.724 285.609 C 45.109 287.307 45.466 289.009 45.832 290.712 C 51.498 317.389 59.62 342.856 71.173 367.547 C 71.395 368.034 71.626 368.52 71.857 369.021 C 77.238 380.486 83.824 391.525 91.423 401.655 C 91.649 401.961 91.875 402.266 92.109 402.58 C 100.098 413.351 109.264 424.116 119.805 432.462 C 120.775 433.237 121.727 434.033 122.661 434.848 C 130.118 441.344 138.649 446.612 147.38 451.218 C 147.731 451.405 148.081 451.593 148.443 451.787 C 155.434 455.52 162.627 458.758 170.666 458.757 C 171.376 458.76 171.376 458.76 172.098 458.763 C 173.686 458.769 175.274 458.771 176.861 458.773 C 177.999 458.776 179.136 458.779 180.273 458.783 C 184.012 458.795 187.751 458.8 191.49 458.805 C 192.779 458.807 194.068 458.809 195.356 458.812 C 201.413 458.822 207.471 458.83 213.527 458.834 C 220.51 458.839 227.492 458.854 234.474 458.875 C 239.875 458.891 245.278 458.899 250.679 458.901 C 253.902 458.902 257.126 458.907 260.349 458.92 C 263.386 458.933 266.424 458.935 269.461 458.929 C 270.57 458.929 271.68 458.933 272.79 458.939 C 280.903 458.99 287.909 458.117 295.368 454.682 C 295.957 454.414 295.957 454.414 296.558 454.141 C 304.601 450.373 311.968 445.437 318.983 440.026 C 319.618 439.544 320.254 439.063 320.89 438.581 C 324.759 435.622 328.376 432.467 331.911 429.117 C 333.372 427.768 333.372 427.768 334.634 426.853 C 334.921 426.627 335.208 426.402 335.504 426.17 C 335.504 425.818 335.504 425.466 335.504 425.104 C 335.799 424.987 336.095 424.872 336.399 424.752 C 338.025 423.813 339.14 422.532 340.367 421.14 C 340.891 420.554 341.416 419.969 341.941 419.383 C 342.203 419.089 342.465 418.795 342.734 418.491 C 343.42 417.73 344.12 416.981 344.821 416.236 C 348.808 411.989 352.3 407.404 355.755 402.721 C 356.026 402.354 356.297 401.987 356.576 401.609 C 372.28 380.175 384.403 355.686 391.994 330.243 C 392.17 329.73 392.345 329.219 392.525 328.692 C 393.39 326.028 394.047 323.31 394.735 320.597 C 395.301 318.409 395.929 316.347 396.791 314.255 C 396.972 313.012 397.149 311.768 397.324 310.524 C 397.672 309.456 398.028 308.39 398.389 307.326 C 398.56 306.618 398.721 305.907 398.875 305.195 C 399.277 303.349 399.686 301.505 400.105 299.661 C 401.294 294.356 402.395 289.108 402.994 283.701 C 403.186 282.279 403.186 282.279 403.719 281.214 C 403.815 280.405 403.89 279.594 403.952 278.782 C 404.113 277.019 404.338 275.34 404.751 273.619 C 405.957 268.508 406.472 263.289 406.785 258.056 C 406.916 256.698 406.916 256.698 407.449 255.633 C 407.57 254.804 407.665 253.971 407.746 253.137 C 407.823 252.357 407.823 252.357 407.902 251.56 C 407.956 250.993 408.01 250.426 408.065 249.841 C 408.123 249.253 408.18 248.664 408.238 248.058 C 408.36 246.805 408.479 245.551 408.599 244.298 C 408.778 242.417 408.961 240.536 409.146 238.656 C 409.264 237.432 409.38 236.21 409.498 234.986 C 409.552 234.438 409.606 233.89 409.661 233.326 C 411.046 218.54 410.646 203.904 410.646 189.017 C 287.54 189.017 164.433 189.017 37.594 189.017 Z M 428.234 231.118 C 428.18 231.764 428.127 232.409 428.072 233.074 C 425.964 258.384 425.964 258.384 423.97 270.555 C 423.838 271.372 423.838 271.372 423.703 272.206 C 422.41 279.982 420.563 287.606 418.607 295.236 C 418.493 295.68 418.38 296.124 418.262 296.583 C 417.037 301.341 415.759 306.066 414.27 310.75 C 414.024 311.543 413.791 312.34 413.592 313.145 C 413.32 314.222 413.005 315.272 412.668 316.33 C 412.539 316.734 412.41 317.138 412.277 317.554 C 412.137 317.991 411.996 318.427 411.852 318.876 C 411.704 319.336 411.557 319.796 411.405 320.27 C 410.92 321.773 410.434 323.278 409.948 324.78 C 409.782 325.29 409.617 325.801 409.447 326.326 C 406.545 335.266 403.388 344.081 399.985 352.841 C 399.607 353.826 399.256 354.822 398.922 355.823 C 412.261 352.012 425.361 343.037 435.694 333.973 C 435.961 333.742 436.228 333.509 436.503 333.27 C 439.092 331.023 439.092 331.023 441.557 328.643 C 441.557 328.292 441.557 327.94 441.557 327.578 C 442.002 327.397 442.002 327.397 442.455 327.212 C 444.034 326.317 445.084 325.143 446.353 323.847 C 446.985 323.234 446.985 323.234 447.629 322.609 C 450.668 319.639 453.377 316.569 455.946 313.189 C 456.192 312.869 456.438 312.548 456.692 312.217 C 460.026 307.872 463.279 303.521 466.072 298.8 C 466.256 298.49 466.441 298.179 466.631 297.86 C 473.877 285.606 480.173 271.416 477.197 256.865 C 475.074 248.849 470.343 242.571 463.407 238.046 C 457.167 234.449 450.821 232.477 443.689 231.651 C 443.18 231.591 442.671 231.532 442.148 231.47 C 438.945 231.15 435.77 231.092 432.555 231.106 C 431.93 231.107 431.93 231.107 431.291 231.108 C 430.272 231.111 429.253 231.115 428.234 231.118 Z" fill="#E9E8E6" style=""/>
  <path d="M 56.412 330.229 C 167.209 330.229 278.005 330.229 392.158 330.229 C 381.33 362.713 366.098 393.46 342.531 418.638 C 340.816 420.474 339.173 422.37 337.546 424.284 C 336.734 425.089 336.734 425.089 335.668 425.089 C 335.668 425.441 335.668 425.793 335.668 426.155 C 334.941 426.888 334.941 426.888 333.903 427.754 C 332.105 429.278 330.365 430.845 328.64 432.451 C 325.447 435.354 322.084 437.985 318.614 440.545 C 318.113 440.917 318.113 440.917 317.603 441.298 C 303.204 451.978 289.613 458.917 271.543 458.887 C 270.406 458.891 269.269 458.896 268.132 458.902 C 265.061 458.913 261.989 458.914 258.919 458.913 C 256.347 458.913 253.775 458.918 251.204 458.923 C 245.132 458.933 239.06 458.935 232.989 458.931 C 226.743 458.928 220.499 458.939 214.253 458.96 C 208.874 458.976 203.495 458.982 198.116 458.98 C 194.911 458.979 191.706 458.982 188.501 458.994 C 185.485 459.007 182.469 459.005 179.452 458.994 C 178.352 458.992 177.251 458.995 176.15 459.003 C 154.091 459.147 133.566 444.937 117.813 430.433 C 116.773 429.48 115.712 428.565 114.636 427.654 C 109.744 423.378 105.198 418.722 101.175 413.623 C 100.199 412.406 99.179 411.273 98.115 410.134 C 94.705 406.337 91.846 402.082 88.922 397.91 C 88.573 397.418 88.573 397.418 88.218 396.916 C 77.433 381.599 56.412 350.257 56.412 330.229 Z" fill="#594223" style=""/>
  <path d="M 18.936 183.155 C 19.119 183.155 19.292 183.155 19.475 183.155 C 19.87 190.633 20.131 198.105 20.275 205.592 C 20.304 207.24 20.343 208.889 20.381 210.536 C 20.506 216.865 20.574 223.189 20.535 229.519 C 20.362 229.519 20.188 229.519 20.005 229.519 C 20.005 228.112 20.005 226.705 20.005 225.255 C 19.658 225.255 19.302 225.255 18.936 225.255 C 18.926 224.893 18.917 224.53 18.907 224.156 C 18.859 222.513 18.801 220.87 18.743 219.227 C 18.724 218.656 18.705 218.085 18.695 217.496 C 18.666 216.948 18.647 216.4 18.628 215.836 C 18.608 215.331 18.599 214.826 18.579 214.305 C 18.483 212.863 18.483 212.863 17.346 211.4 C 18.136 211.136 18.136 211.136 18.936 210.867 C 18.416 210.867 17.886 210.867 17.346 210.867 C 17.423 210.565 17.51 210.264 17.587 209.952 C 18.888 204.387 18.57 198.335 18.705 192.647 C 18.733 191.724 18.753 190.8 18.782 189.877 C 18.83 187.636 18.888 185.396 18.936 183.155 Z" fill="#F1EFED" style=""/>
  <path d="M 19.475 159.705 C 19.649 159.705 19.822 159.705 20.005 159.705 C 20.005 164.806 20.005 169.906 20.005 175.16 C 19.832 175.16 19.658 175.16 19.475 175.16 C 19.398 174.578 19.321 173.995 19.244 173.395 C 19.003 171.467 19.003 171.467 18.406 169.831 C 18.059 169.831 17.703 169.831 17.346 169.831 C 17.519 169.479 17.693 169.127 17.876 168.765 C 18.223 168.942 18.579 169.117 18.936 169.298 C 18.589 168.946 18.242 168.595 17.876 168.232 C 17.703 167.881 17.519 167.529 17.346 167.167 C 17.866 167.167 18.396 167.167 18.936 167.167 C 18.936 166.639 18.936 166.112 18.936 165.568 C 18.416 165.392 17.886 165.216 17.346 165.034 C 17.519 163.804 17.693 162.573 17.876 161.305 C 18.049 161.305 18.223 161.305 18.406 161.305 C 18.579 162.183 18.762 163.063 18.936 163.969 C 19.119 162.562 19.292 161.155 19.475 159.705 Z" fill="#F4F2F1" style=""/>
  <path d="M 33.701 461.276 C 34.067 461.274 34.443 461.272 34.819 461.27 C 37.218 461.275 39.492 461.485 41.862 461.876 C 41.862 462.052 41.862 462.228 41.862 462.409 C 37.642 462.409 33.422 462.409 29.066 462.409 C 29.77 462.761 30.473 463.112 31.205 463.475 C 30.473 464.274 30.473 464.274 29.606 465.073 C 29.25 465.073 28.903 465.073 28.536 465.073 C 28.363 465.601 28.19 466.128 28.007 466.673 C 28.064 465.884 28.132 465.095 28.209 464.307 C 28.238 463.869 28.276 463.429 28.315 462.978 C 28.392 462.613 28.459 462.25 28.536 461.876 C 30.174 461.055 31.899 461.266 33.701 461.276 Z" fill="#E0DEDC" style=""/>
  <path d="M 23.204 259.363 C 23.378 259.363 23.551 259.363 23.734 259.363 C 24.004 261.15 24.274 262.938 24.538 264.726 C 24.615 265.228 24.692 265.73 24.769 266.249 C 25.164 268.959 25.434 271.545 25.338 274.285 C 25.164 273.758 24.991 273.23 24.808 272.686 C 24.451 272.686 24.1 272.686 23.734 272.686 C 22.414 263.782 22.414 263.782 23.204 259.363 Z" fill="#F2F0EC" style=""/>
  <path d="M 22.135 245.507 C 23.358 254.412 23.358 254.412 23.204 258.831 C 23.031 258.831 22.848 258.831 22.674 258.831 C 22.491 257.951 22.318 257.071 22.135 256.165 C 21.961 256.165 21.788 256.165 21.605 256.165 C 21.248 252.824 20.901 249.482 20.535 246.04 C 21.605 245.507 21.605 245.507 22.135 245.507 Z" fill="#EFEDEB" style=""/>
  <path d="M 495.915 251.902 C 499.6 256.32 497.894 263.584 497.514 268.955 C 497.338 268.955 497.162 268.955 496.981 268.955 C 496.802 266.713 496.624 264.47 496.448 262.228 C 496.397 261.594 496.347 260.959 496.294 260.306 C 496.246 259.691 496.198 259.076 496.148 258.443 C 496.104 257.88 496.059 257.316 496.014 256.735 C 495.916 255.119 495.898 253.52 495.915 251.902 Z" fill="#F2EFED" style=""/>
  <path d="M 421.305 278.548 C 421.481 278.548 421.657 278.548 421.839 278.548 C 422.55 281.395 422.111 283.259 421.305 286.01 C 420.953 286.01 420.602 286.01 420.239 286.01 C 420.064 286.537 419.888 287.065 419.706 287.608 C 420.043 284.527 420.587 281.562 421.305 278.548 Z" fill="#F1EFED" style=""/>
  <path d="M 411.18 317.452 C 411.355 317.452 411.532 317.452 411.713 317.452 C 411.914 320.612 411.236 323.034 410.113 325.979 C 409.762 325.803 409.41 325.628 409.048 325.446 C 410.075 319.819 410.075 319.819 411.18 317.452 Z" fill="#F0EEEA" style=""/>
  <path d="M 424.503 259.363 C 424.679 259.363 424.855 259.363 425.036 259.363 C 425.48 262.178 425.699 264.539 425.036 267.357 C 424.212 268.263 424.212 268.263 423.437 268.955 C 423.951 262.204 423.951 262.204 424.503 259.363 Z" fill="#F3F0EE" style=""/>
  <path d="M 399.989 349.961 C 400.164 349.961 400.34 349.961 400.521 349.961 C 400.617 352.064 400.571 353.478 399.455 355.29 C 400.159 355.642 400.863 355.993 401.587 356.356 C 400.532 356.532 399.477 356.707 398.389 356.889 C 398.645 354.377 398.906 352.27 399.989 349.961 Z" fill="#EFEEEB" style=""/>
  <path d="M 33.865 314.788 C 35.146 316.07 35.349 316.98 35.83 318.718 C 36.052 319.482 36.052 319.482 36.274 320.263 C 36.524 321.7 36.476 322.488 35.994 323.847 C 35.994 323.32 35.994 322.792 35.994 322.249 C 35.647 322.249 35.291 322.249 34.934 322.249 C 34.086 319.652 33.749 317.555 33.865 314.788 Z" fill="#F3F0EC" style=""/>
  <path d="M 113.273 426.702 C 115.824 428.587 118.317 430.51 120.733 432.565 C 120.382 432.916 120.03 433.268 119.668 433.631 C 118.599 432.679 117.533 431.724 116.471 430.767 C 116.165 430.496 115.861 430.225 115.546 429.946 C 114.768 429.242 114.018 428.507 113.273 427.768 C 113.273 427.416 113.273 427.065 113.273 426.702 Z" fill="#F2F1EE" style=""/>
  <path d="M 426.101 241.243 C 426.278 241.243 426.453 241.243 426.634 241.243 C 426.811 244.058 426.986 246.871 427.167 249.77 C 426.992 249.77 426.815 249.77 426.634 249.77 C 426.459 251.002 426.283 252.232 426.101 253.501 C 425.926 253.501 425.75 253.501 425.569 253.501 C 425.485 249.389 425.742 245.339 426.101 241.243 Z" fill="#F3F1EE" style=""/>
  <path d="M 28.536 465.073 C 28.71 465.073 28.893 465.073 29.066 465.073 C 29.066 467.888 29.066 470.701 29.066 473.601 C 28.893 473.601 28.72 473.601 28.536 473.601 C 28.19 471.314 27.833 469.028 27.467 466.673 C 27.823 466.673 28.18 466.673 28.536 466.673 C 28.536 466.145 28.536 465.617 28.536 465.073 Z" fill="#F1EFED" style=""/>
  <path d="M 321.115 461.343 C 322.548 461.437 323.954 461.673 325.378 461.876 C 325.378 462.052 325.378 462.228 325.378 462.409 C 322.789 462.927 320.342 463.005 317.717 462.975 C 317.325 462.973 316.933 462.97 316.528 462.968 C 315.571 462.961 314.612 462.952 313.654 462.942 C 313.654 462.766 313.654 462.59 313.654 462.409 C 314.147 462.376 314.642 462.344 315.15 462.311 C 316.108 462.244 316.108 462.244 317.084 462.176 C 318.04 462.11 318.04 462.11 319.014 462.045 C 320.521 462.049 320.521 462.049 321.115 461.343 Z" fill="#F0EFED" style=""/>
  <path d="M 129.261 458.145 C 131.557 458.98 133.557 460.108 135.656 461.343 C 134.303 461.845 133.732 461.966 132.383 461.383 C 132.012 461.139 131.641 460.894 131.259 460.644 C 130.882 460.404 130.506 460.164 130.118 459.917 C 129.835 459.684 129.552 459.451 129.261 459.211 C 129.261 458.859 129.261 458.508 129.261 458.145 Z" fill="#F1EEEB" style=""/>
  <path d="M 26.937 284.943 C 27.833 286.523 28.18 287.806 28.334 289.607 C 28.373 290.033 28.421 290.459 28.459 290.897 C 28.488 291.219 28.508 291.541 28.536 291.872 C 28.363 291.52 28.19 291.169 28.007 290.805 C 27.65 290.805 27.303 290.805 26.937 290.805 C 26.253 286.847 26.253 286.847 26.937 284.943 Z" fill="#F1F0ED" style=""/>
  <path d="M 415.443 303.064 C 416.043 303.929 416.043 303.929 416.509 305.195 C 416.043 306.927 416.043 306.927 415.443 308.393 C 415.091 308.393 414.739 308.393 414.377 308.393 C 414.202 308.745 414.025 309.096 413.844 309.459 C 414.01 308.693 414.177 307.926 414.344 307.161 C 414.437 306.734 414.529 306.307 414.625 305.867 C 414.91 304.662 414.91 304.662 415.443 303.064 Z" fill="#F1EEEC" style=""/>
  <path d="M 422.904 269.489 C 423.08 269.489 423.256 269.489 423.437 269.489 C 423.437 271.775 423.437 274.061 423.437 276.417 C 423.086 276.417 422.734 276.417 422.372 276.417 C 422.195 276.944 422.02 277.472 421.839 278.016 C 421.914 277.094 421.992 276.172 422.072 275.251 C 422.114 274.738 422.158 274.225 422.203 273.696 C 422.359 272.267 422.599 270.892 422.904 269.489 Z" fill="#F4F2F0" style=""/>
  <path d="M 104.746 439.493 C 107.877 441.492 107.877 441.492 108.476 442.69 C 107.321 442.421 106.345 442.157 105.279 441.625 C 105.279 441.273 105.279 440.921 105.279 440.559 C 104.927 440.383 104.576 440.207 104.212 440.026 C 104.389 439.85 104.565 439.674 104.746 439.493 Z" fill="#F0EFEC" style=""/>
  <path d="M 413.311 309.991 C 413.487 309.991 413.663 309.991 413.844 309.991 C 414.021 311.398 414.196 312.805 414.377 314.255 C 413.322 314.782 413.322 314.782 412.246 315.321 C 412.597 313.562 412.949 311.803 413.311 309.991 Z" fill="#F2F0EE" style=""/>
  <path d="M 474.598 248.705 C 476.144 249.981 476.464 251.003 476.73 252.968 C 476.026 252.616 475.323 252.264 474.598 251.902 C 474.598 250.847 474.598 249.792 474.598 248.705 Z" fill="#F0EEEC" style=""/>
  <path d="M 20.535 251.369 C 20.718 251.369 20.892 251.369 21.075 251.369 C 21.075 252.952 21.075 254.535 21.075 256.165 C 20.892 256.165 20.718 256.165 20.535 256.165 C 20.535 254.582 20.535 253 20.535 251.369 Z" fill="#FFFFFF" style=""/>
  <path d="M 17.346 203.939 C 17.519 203.939 17.693 203.939 17.876 203.939 C 17.876 205.346 17.876 206.753 17.876 208.202 C 17.703 208.202 17.519 208.202 17.346 208.202 C 17.346 206.795 17.346 205.388 17.346 203.939 Z" fill="#FFFFFF" style=""/>
  <path d="M 17.346 170.897 C 17.519 170.897 17.693 170.897 17.876 170.897 C 17.876 171.953 17.876 173.008 17.876 174.094 C 17.703 174.094 17.519 174.094 17.346 174.094 C 17.346 173.039 17.346 171.984 17.346 170.897 Z" fill="#FFFFFF" style=""/>
  <path d="M 446.886 320.65 C 447.414 320.825 447.941 321.002 448.484 321.183 C 447.957 321.359 447.429 321.535 446.886 321.716 C 446.886 321.364 446.886 321.012 446.886 320.65 Z" fill="#FFFFFF" style=""/>
  <path d="M 22.135 265.226 C 22.318 265.929 22.491 266.632 22.674 267.357 C 22.318 266.83 21.971 266.302 21.605 265.758 C 21.778 265.582 21.952 265.407 22.135 265.226 Z" fill="#FFFFFF" style=""/>
  <path d="M 17.346 183.155 C 17.519 183.155 17.693 183.155 17.876 183.155 C 17.876 184.033 17.876 184.913 17.876 185.819 C 17.703 185.819 17.519 185.819 17.346 185.819 C 17.346 184.94 17.346 184.06 17.346 183.155 Z" fill="#FFFFFF" style=""/>
  <path d="M 115.405 460.81 C 117.536 461.343 117.536 461.343 117.536 461.343 L 115.405 460.81 Z" fill="#FFFFFF" style=""/>
  <path d="M 414.377 346.764 C 414.729 346.939 415.081 347.115 415.443 347.297 C 414.916 347.297 414.388 347.297 413.844 347.297 C 414.021 347.12 414.196 346.945 414.377 346.764 Z" fill="#FFFFFF" style=""/>
  <path d="M 24.808 286.543 C 25.154 286.895 25.511 287.246 25.867 287.608 C 25.347 287.872 25.347 287.872 24.808 288.141 C 24.808 287.613 24.808 287.086 24.808 286.543 Z" fill="#FFFFFF" style=""/>
  <path d="M 498.047 255.1 C 498.58 257.231 498.58 257.231 498.58 257.231 L 498.047 255.1 Z" fill="#FFFFFF" style=""/>
  <path d="M 433.563 231.651 C 435.694 232.184 435.694 232.184 435.694 232.184 L 433.563 231.651 Z" fill="#FFFFFF" style=""/>
  <path d="M 17.876 218.86 C 18.406 220.993 18.406 220.993 18.406 220.993 L 17.876 218.86 Z" fill="#FFFFFF" style=""/>
  <path d="M 17.346 201.274 C 17.876 203.405 17.876 203.405 17.876 203.405 L 17.346 201.274 Z" fill="#FFFFFF" style=""/>
  <path d="M 17.346 195.945 C 17.876 198.076 17.876 198.076 17.876 198.076 L 17.346 195.945 Z" fill="#FFFFFF" style=""/>
  <path d="M 103.147 460.81 C 104.746 461.343 104.746 461.343 104.746 461.343 L 103.147 460.81 Z" fill="#FFFFFF" style=""/>
  <path d="M 417.042 460.277 C 418.641 460.811 418.641 460.811 418.641 460.811 L 417.042 460.277 Z" fill="#FFFFFF" style=""/>
  <path d="M 112.207 448.02 C 112.559 448.371 112.91 448.723 113.273 449.085 C 112.921 449.085 112.569 449.085 112.207 449.085 C 112.207 448.734 112.207 448.382 112.207 448.02 Z" fill="#FFFFFF" style=""/>
  <path d="M 59.447 385.135 C 59.977 385.398 59.977 385.398 60.516 385.667 C 59.986 385.931 59.986 385.931 59.447 386.2 C 59.447 385.849 59.447 385.497 59.447 385.135 Z" fill="#FFFFFF" style=""/>
  <path fill="#FFFFFF"/>
  <path d="M 33.335 320.65 C 33.682 320.65 34.038 320.65 34.395 320.65 C 34.221 321.002 34.048 321.353 33.865 321.716 C 33.691 321.364 33.518 321.012 33.335 320.65 Z" fill="#FFFFFF" style=""/>
  <path fill="#FFFFFF"/>
  <path d="M 455.946 235.381 C 456.121 235.733 456.298 236.084 456.479 236.447 C 456.127 236.271 455.775 236.095 455.413 235.914 C 455.588 235.739 455.765 235.562 455.946 235.381 Z" fill="#FFFFFF" style=""/>
  <path d="M 17.876 214.064 C 18.049 214.416 18.223 214.767 18.406 215.13 C 18.059 214.954 17.703 214.779 17.346 214.598 C 17.519 214.421 17.693 214.245 17.876 214.064 Z" fill="#FFFFFF" style=""/>
  <path d="M 438.359 208.735 C 439.958 209.268 439.958 209.268 439.958 209.268 L 438.359 208.735 Z" fill="#FFFFFF" style=""/>
  <path fill="#FFFFFF"/>
  <path d="M 42.392 487.989 C 43.462 488.523 43.462 488.523 43.462 488.523 L 42.392 487.989 Z" fill="#FFFFFF" style=""/>
  <path fill="#D4D4D4"/>
  <path fill="#FFFFD4"/>
  <path d="M 107.943 460.81 C 109.009 461.343 109.009 461.343 109.009 461.343 L 107.943 460.81 Z" fill="#FFFFFF" style=""/>
  <path d="M 74.372 460.81 C 75.435 461.343 75.435 461.343 75.435 461.343 L 74.372 460.81 Z" fill="#FFFFFF" style=""/>
  <path d="M 61.046 460.81 C 62.116 461.343 62.116 461.343 62.116 461.343 L 61.046 460.81 Z" fill="#FFFFFF" style=""/>
  <path d="M 409.581 460.277 C 410.646 460.811 410.646 460.811 410.646 460.811 L 409.581 460.277 Z" fill="#FFFFFF" style=""/>
  <path d="M 404.784 460.277 C 405.851 460.811 405.851 460.811 405.851 460.811 L 404.784 460.277 Z" fill="#FFFFFF" style=""/>
  <path d="M 33.865 460.277 C 34.934 460.811 34.934 460.811 34.934 460.811 L 33.865 460.277 Z" fill="#FFFFFF" style=""/>
  <path d="M 30.136 460.277 C 31.205 460.811 31.205 460.811 31.205 460.811 L 30.136 460.277 Z" fill="#FFFFFF" style=""/>
  <path d="M 323.78 458.678 C 324.846 459.211 324.846 459.211 324.846 459.211 L 323.78 458.678 Z" fill="#FFFFFF" style=""/>
  <path d="M 95.153 433.631 C 96.219 434.164 96.219 434.164 96.219 434.164 L 95.153 433.631 Z" fill="#FFFFFF" style=""/>
  <path fill="#FFFFFF"/>
  <path d="M 67.974 398.457 C 69.043 398.99 69.043 398.99 69.043 398.99 L 67.974 398.457 Z" fill="#FFFFFF" style=""/>
  <path fill="#FFFFFF"/>
  <path fill="#FFFFFF"/>
  <path fill="#FFFFFF"/>
  <path fill="#FFFFFF"/>
  <path fill="#FFFFFF"/>
  <path fill="#FFFFFF"/>
  <path fill="#FFFFFF"/>
  <path fill="#FFFFFF"/>
  <path fill="#FFFFFF"/>
  <path fill="#FFFFFF"/>
  <path fill="#FFFFFF"/>
  <path d="M 30.136 309.459 C 31.205 309.991 31.205 309.991 31.205 309.991 L 30.136 309.459 Z" fill="#FFFFFF" style=""/>
  <path fill="#FFFFFF"/>
  <path fill="#FFFFFF"/>
  <path fill="#EDEDED"/>
  <path fill="#FFFFFF"/>
  <path fill="#FFFFFF"/>
  <path fill="#FFFFFF"/>
  <path fill="#FFFFFF"/>
  <path fill="#FFFFFF"/>
  <path fill="#FFFFFF"/>
  <path fill="#FFFFFF"/>
  <path fill="#FFFFFF"/>
  <path fill="#FFFFFF"/>
  <path fill="#FFFFFF"/>
  <path fill="#FFFFFF"/>
  <path d="M 471.934 250.303 C 473 250.836 473 250.836 473 250.836 L 471.934 250.303 Z" fill="#FFFFFF" style=""/>
  <path d="M 471.401 249.238 C 472.467 249.77 472.467 249.77 472.467 249.77 L 471.401 249.238 Z" fill="#FFFFFF" style=""/>
  <path fill="#FFFFFF"/>
  <path d="M 442.089 232.184 C 443.155 232.717 443.155 232.717 443.155 232.717 L 442.089 232.184 Z" fill="#FFFFFF" style=""/>
  <path d="M 430.365 231.651 C 431.431 232.184 431.431 232.184 431.431 232.184 L 430.365 231.651 Z" fill="#FFFFFF" style=""/>
  <path fill="#FFFFFF"/>
  <path d="M 436.227 208.735 C 437.293 209.268 437.293 209.268 437.293 209.268 L 436.227 208.735 Z" fill="#FFFFFF" style=""/>
  <path fill="#FFFFFF"/>
  <path fill="#FFFFFF"/>
  <path fill="#FFFFFF"/>
  <path fill="#FFFFFF"/>
  <path fill="#FFFFFF"/>
  <path fill="#FFFFFF"/>
  <path fill="#FFFFFF"/>
  <path fill="#FFFFFF"/>
  <path fill="#FFFFFF"/>
  <path fill="#FFFFFF"/>
  <path fill="#FFFFAA"/>
  <path fill="#FFFFFF"/>
  <path fill="#BFBFBF"/>
  <path fill="#FFFFFF"/>
  <path fill="#FFFFFF"/>
  <path fill="#FFFFFF"/>
  <path fill="#FFFFFF"/>
  <path fill="#FFAAAA"/>
  <path fill="#FFFFFF"/>
  <path fill="#FFFFFF"/>
  <path fill="#FFFFFF"/>
  <path fill="#FFFFFF"/>
  <path fill="#FFFFFF"/>
  <path fill="#FFFFFF"/>
  <path fill="#FFFFFF"/>
  <path fill="#FFFFFF"/>
  <path fill="#FFFFFF"/>
  <path fill="#FFFFFF"/>
  <path fill="#FFFFFF"/>
  <path fill="#FFFFFF"/>
  <path fill="#FFFFFF"/>
  <path fill="#FFFFFF"/>
  <path fill="#FFFFFF"/>
  <path fill="#FFFFFF"/>
  <path fill="#FFFFFF"/>
  <path fill="#FFFFFF"/>
  <path fill="#FFFFFF"/>
  <path fill="#FFFFFF"/>
  <path fill="#FFFFFF"/>
  <path fill="#FFFFFF"/>
  <path fill="#FFFFFF"/>
  <path fill="#FFFFFF"/>
  <path fill="#FFFFFF"/>
  <path fill="#FFFFFF"/>
  <path fill="#FFFFFF"/>
  <path fill="#FFFFFF"/>
  <path fill="#FFFFFF"/>
  <path fill="#FFFFFF"/>
  <path fill="#FFFFFF"/>
  <path fill="#FFFFFF"/>
  <path fill="#FFFFFF"/>
  <path fill="#FFFFFF"/>
  <path fill="#FFFFFF"/>
  <path fill="#FFFFFF"/>
  <path fill="#FFFFFF"/>
  <path fill="#FFFFFF"/>
  <path fill="#FFFFFF"/>
  <path fill="#FFFFFF"/>
  <path fill="#FFFFFF"/>
  <path fill="#FFFFFF"/>
  <path fill="#FFFFFF"/>
  <path fill="#FFFFFF"/>
  <path fill="#FFFFFF"/>
  <path fill="#FFFFFF"/>
  <path fill="#FFFFFF"/>
  <path fill="#FFFFFF"/>
  <path fill="#FFFFFF"/>
  <path fill="#FFFFFF"/>
  <path fill="#FFFFFF"/>
  <path fill="#FFFFFF"/>
  <path fill="#FFFFFF"/>
  <path fill="#FFFFFF"/>
  <path fill="#FFFFFF"/>
  <path fill="#FFFFFF"/>
  <path fill="#FFFFFF"/>
  <path fill="#FFFFFF"/>
  <path fill="#FFFFFF"/>
  <path fill="#FFFFFF"/>
  <path fill="#FFFFFF"/>
  <path fill="#FFD5D5"/>
  <path fill="#FFFFFF"/>
  <path fill="#FFFFFF"/>
  <path fill="#FFFFFF"/>
  <path fill="#FFFFFF"/>
  <path fill="#FFFFFF"/>
  <path fill="#FFFFFF"/>
  <path fill="#D5D5D5"/>
  <path fill="#FFFFFF"/>
  <path fill="#FFFFFF"/>
  <path fill="#FFFFFF"/>
  <path fill="#FFFFFF"/>
  <path fill="#FFFFFF"/>
  <path fill="#FFFFFF"/>
  <path fill="#FFFFFF"/>
  <path fill="#D5D5D5"/>
  <path fill="#FFFFFF"/>
  <path fill="#FFFFFF"/>
  <path fill="#FFFFFF"/>
  <path fill="#FFFFFF"/>
  <path fill="#FFFFFF"/>
  <path fill="#FFFFFF"/>
  <path fill="#FFFFFF"/>
  <path fill="#FFFFFF"/>
  <path fill="#FFFFCC"/>
  <path fill="#FFFFFF"/>
  <path fill="#FFFFFF"/>
  <path fill="#FFFFFF"/>
  <path fill="#FFFFFF"/>
  <path fill="#FFFFFF"/>
  <path fill="#FFFFFF"/>
  <path fill="#FFFFFF"/>
  <path fill="#FFFFFF"/>
  <path fill="#FFFFFF"/>
  <path fill="#FFFFFF"/>
  <path fill="#FFFFFF"/>
  <path fill="#FFFFFF"/>
  <path fill="#FFFFFF"/>
  <path fill="#FFFFFF"/>
  <path fill="#FFFFFF"/>
  <path fill="#FFFFFF"/>
  <path fill="#FFFFFF"/>
  <path fill="#FFFFFF"/>
  <path fill="#FFFFFF"/>
  <path fill="#FFFFFF"/>
  <path fill="#FFFFFF"/>
  <path fill="#FFFFFF"/>
  <path fill="#FFFFFF"/>
  <path fill="#FFFFFF"/>
  <path fill="#FFFFFF"/>
  <path fill="#FFFFFF"/>
  <path fill="#FFFFFF"/>
  <path fill="#FFFFFF"/>
  <path fill="#FFFFFF"/>
  <path fill="#FFFFFF"/>
  <path fill="#FFFFFF"/>
  <path fill="#FFFFFF"/>
  <path fill="#FFFFFF"/>
  <path fill="#FFFFFF"/>
  <path fill="#FFFFFF"/>
  <path fill="#FFFFFF"/>
  <path fill="#FFFFFF"/>
  <path fill="#FFFFFF"/>
  <path fill="#FFFFFF"/>
  <path fill="#FFFFFF"/>
  <path fill="#FFFFFF"/>
  <path fill="#FFFFFF"/>
  <path fill="#FFFFFF"/>
  <path fill="#FFFFFF"/>
  <path fill="#D5D5D5"/>
  <path fill="#FFFFFF"/>
  <path fill="#FFFFFF"/>
  <path fill="#FFFFFF"/>
  <path fill="#FFFFFF"/>
  <path fill="#FFFFFF"/>
  <path fill="#FFFFFF"/>
  <path fill="#FFFFFF"/>
  <path fill="#FFFFFF"/>
  <path fill="#FFFFFF"/>
  <path fill="#FFFFFF"/>
  <path fill="#FFFFFF"/>
  <path fill="#FFFFFF"/>
  <path fill="#FFFFFF"/>
  <path fill="#FFFFFF"/>
  <path fill="#FFFFFF"/>
  <path fill="#FFFFFF"/>
  <path fill="#FFFFFF"/>
  <path fill="#FFFFFF"/>
  <path fill="#FFFFFF"/>
  <path fill="#FFFFFF"/>
  <path fill="#FFFFFF"/>
  <path fill="#FFFFFF"/>
  <path fill="#FFFFCC"/>
  <path fill="#FFFFFF"/>
  <path fill="#FFFFFF"/>
  <path fill="#FFFFFF"/>
  <path fill="#FFFFFF"/>
  <path fill="#FFFFFF"/>
  <path fill="#FFFFFF"/>
  <path fill="#FFFFFF"/>
  <path fill="#FFFFFF"/>
  <path fill="#FFFFFF"/>
  <path fill="#FFFFFF"/>
  <path fill="#FFFFFF"/>
  <path fill="#FFFFFF"/>
  <path fill="#FFFFFF"/>
  <path fill="#FFFFFF"/>
  <path fill="#FFFFFF"/>
  <path fill="#FFFFFF"/>
  <path fill="#FFFFFF"/>
  <path fill="#DBDBDB"/>
  <path fill="#FFFFFF"/>
  <path fill="#FFFFFF"/>
  <path fill="#FFFFFF"/>
  <path fill="#FFFFFF"/>
  <path fill="#FFFFFF"/>
  <path fill="#FFFFFF"/>
  <path fill="#FFFFFF"/>
  <path fill="#FFCCCC"/>
  <path fill="#FFFFFF"/>
  <path fill="#FFFFFF"/>
  <path fill="#FFFFFF"/>
  <path fill="#FFFFFF"/>
  <path fill="#FFFFFF"/>
  <path fill="#FFFFFF"/>
  <path fill="#FFFFFF"/>
  <path fill="#FFFFFF"/>
  <path fill="#FFFFFF"/>
  <path fill="#FFFFFF"/>
  <path fill="#FFFFFF"/>
  <path fill="#FFFFFF"/>
  <path fill="#FFFFFF"/>
  <path fill="#FFFFFF"/>
  <path fill="#FFFFFF"/>
  <path fill="#FFFFFF"/>
  <path fill="#FFFFFF"/>
  <path fill="#FFFFFF"/>
  <path fill="#FFFFFF"/>
  <path fill="#FFFFFF"/>
  <path fill="#FFFFFF"/>
  <path fill="#FFFFFF"/>
  <path fill="#FFFFFF"/>
  <path fill="#FFFFFF"/>
  <path fill="#FFFFFF"/>
  <path fill="#FFFFFF"/>
  <path fill="#FFFFFF"/>
  <path fill="#FFFFFF"/>
  <path fill="#FFFFFF"/>
  <path fill="#FFFFFF"/>
  <path fill="#FFFFFF"/>
  <path fill="#FFFFFF"/>
  <path fill="#FFFFFF"/>
  <path fill="#FFFFFF"/>
  <path fill="#FFFFFF"/>
  <path fill="#FFFFFF"/>
  <path fill="#FFFFFF"/>
  <path fill="#FFFFFF"/>
  <path fill="#FFFFFF"/>
  <path fill="#FFFFFF"/>
  <path fill="#FFFFFF"/>
  <path fill="#FFFFFF"/>
  <path fill="#FFFFFF"/>
  <path fill="#FFFFFF"/>
  <path fill="#FFFFFF"/>
  <path fill="#FFFFFF"/>
  <path fill="#FFFFFF"/>
  <path fill="#FFFFFF"/>
  <path fill="#FFFFFF"/>
  <path fill="#FFFFFF"/>
  <path fill="#FFFFFF"/>
  <path fill="#FFFFFF"/>
  <path fill="#FFFFFF"/>
  <path fill="#FFFFFF"/>
  <path fill="#FFFFFF"/>
  <path fill="#FFFFFF"/>
  <path fill="#FFFFFF"/>
  <path fill="#FFFFFF"/>
  <path fill="#FFFFFF"/>
  <path fill="#FFFFFF"/>
  <path fill="#FFFFFF"/>
  <path fill="#FFFFFF"/>
  <path fill="#FFFFFF"/>
  <path fill="#FFFFFF"/>
  <path fill="#FFFFFF"/>
  <path fill="#CCCCCC"/>
  <path fill="#FFFFFF"/>
  <path fill="#FFFFFF"/>
  <path fill="#FFFFFF"/>
  <path fill="#FFFFFF"/>
  <path fill="#FFFFFF"/>
  <path fill="#FFFFFF"/>
  <path fill="#FFFFFF"/>
  <path fill="#FFFFFF"/>
  <path fill="#FFFFFF"/>
  <path fill="#FFFFFF"/>
  <path fill="#FFFFFF"/>
  <path fill="#FFFFFF"/>
  <path fill="#FFFFFF"/>
  <path fill="#FFFFFF"/>
  <path fill="#FFFFFF"/>
  <path fill="#FFFFFF"/>
  <path fill="#FFFFFF"/>
  <path fill="#FFFFFF"/>
  <path fill="#FFFFFF"/>
  <path fill="#FFFFFF"/>
  <path fill="#FED8B2" fill-rule="nonzero" paint-order="stroke markers" d="M 39.179 188.656 L 410.575 188.391 C 415.188 188.861 398.98 331.214 390.722 330.352 L 57.121 330.54 C 47.92 332.395 30.56 190.384 39.179 188.656 Z" style=""/>
  <path d="M 288.093 62.869 C 289.958 63.524 291.829 63.967 293.756 64.429 C 300.865 66.376 307.13 70.082 313.179 73.888 C 313.552 74.12 313.925 74.361 314.31 74.601 C 316.246 75.864 317.384 76.875 318.322 78.831 C 319.62 79.294 319.62 79.294 320.854 79.41 C 320.854 79.776 320.854 80.151 320.854 80.556 C 321.21 80.681 321.566 80.797 321.933 80.932 C 323.795 81.886 324.969 83.09 326.392 84.536 C 326.898 85.027 327.404 85.547 327.926 86.058 C 329.083 87.368 329.083 87.368 329.083 88.515 C 329.709 88.698 330.336 88.891 330.982 89.093 C 332.092 90.269 332.092 90.269 333.236 91.752 C 333.805 92.475 333.805 92.475 334.386 93.217 C 335.454 94.836 336.088 96.387 336.678 98.189 C 337.351 98.208 338.023 98.237 338.716 98.256 C 347.688 98.603 347.688 98.603 351.869 100.472 C 353.016 100.935 354.163 101.397 355.31 101.86 C 355.896 102.101 356.48 102.342 357.082 102.592 C 359.553 103.613 362.04 104.596 364.529 105.589 C 364.529 105.965 364.529 106.34 364.529 106.726 C 364.96 106.87 365.391 107.005 365.834 107.159 C 368.053 108.007 370.046 109.048 372.124 110.146 C 372.124 110.522 372.124 110.898 372.124 111.283 C 372.561 111.399 372.997 111.514 373.447 111.63 C 375.93 112.7 377.541 114.222 379.443 115.976 C 379.8 116.294 380.157 116.612 380.525 116.949 C 382.677 118.905 384.417 120.89 386.05 123.231 C 386.583 123.934 386.583 123.934 387.127 124.647 C 387.45 125.071 387.774 125.495 388.107 125.939 C 388.436 126.372 388.766 126.806 389.105 127.249 C 389.847 128.357 389.847 128.357 389.847 129.494 C 390.474 129.687 391.101 129.87 391.745 130.063 C 395.167 136.634 396.916 143.918 397.443 151.125 C 402.038 151.308 406.634 151.501 411.368 151.694 C 411.453 153.101 411.536 154.507 411.623 155.953 C 411.706 157.34 411.79 158.718 411.875 160.106 C 411.932 161.05 411.989 162.004 412.045 162.958 C 412.127 164.335 412.211 165.713 412.296 167.091 C 412.323 167.544 412.351 167.987 412.379 168.45 C 412.528 170.81 412.728 173.161 413.01 175.512 C 413.389 179 413.188 182.452 412.99 185.949 C 412.957 186.605 412.924 187.25 412.889 187.925 C 412.809 189.505 412.724 191.095 412.634 192.675 C 413.311 192.627 37.743 194.152 37.517 191.463 C 36.854 182.589 38.551 154.565 39.183 151.694 C 44.82 151.694 50.467 151.694 56.275 151.694 C 56.339 150.441 56.404 149.179 56.478 147.888 C 57.4 139.149 63.979 129.86 70.204 123.231 C 70.623 123.231 71.041 123.231 71.469 123.231 C 71.608 122.913 71.748 122.605 71.897 122.277 C 72.969 120.591 74.362 119.473 75.894 118.115 C 76.419 117.623 76.944 117.132 77.48 116.621 C 81.766 112.651 86.203 108.923 91.763 106.427 C 93.586 105.675 93.586 105.675 94.85 104.722 C 96.628 103.575 98.472 103.084 100.539 102.457 C 103.69 101.513 103.69 101.513 106.626 100.154 C 114.898 95.77 127.574 96.676 136.662 98.189 C 137.81 98.459 138.956 98.738 140.104 99.008 C 142.452 99.461 143.539 99.287 145.562 98.121 C 146.395 97.572 147.225 97.033 148.054 96.483 C 153.245 93.757 159.327 92.986 165.145 91.926 C 165.145 91.743 165.145 91.55 165.145 91.357 C 166.951 91.232 168.758 91.116 170.565 91.001 C 171.071 90.972 171.578 90.933 172.098 90.895 C 175.371 90.702 177.819 91.001 180.968 91.926 C 182.021 92.157 183.075 92.369 184.132 92.581 C 184.694 92.697 185.257 92.812 185.836 92.928 C 186.992 93.159 188.15 93.39 189.307 93.622 C 192.977 94.373 196.024 95.423 199.325 97.052 C 200.844 95.414 202.156 93.882 203.122 91.926 C 203.54 91.926 203.958 91.926 204.389 91.926 C 204.604 91.492 204.604 91.492 204.824 91.039 C 207.205 87.06 210.596 83.052 215.265 81.105 C 216.638 80.585 216.638 80.585 217.048 78.831 C 217.466 78.831 217.883 78.831 218.313 78.831 C 218.522 78.273 218.731 77.714 218.947 77.126 C 221.5 74.621 224.738 72.867 227.986 71.191 C 229.161 70.584 230.321 69.957 231.467 69.302 C 235.652 66.961 239.837 65.403 244.517 64.121 C 246.519 63.562 248.447 62.917 250.397 62.233 C 261.856 58.513 276.802 58.812 288.093 62.869 Z M 62.364 178.2 C 62.354 181.341 55.611 176.187 55.611 179.33 C 55.599 180.399 55.599 181.469 55.599 182.539 C 55.589 184.071 211.853 190.289 211.853 191.83 C 211.853 192.302 37.704 192.355 37.693 192.847 C 37.618 195.255 54.424 174.387 55.206 176.632 C 54.803 172.233 395.602 180.901 395.544 172.188 C 395.127 172.188 394.708 172.188 394.278 172.188 C 394.278 173.874 394.278 175.561 394.278 177.305 C 282.946 177.305 171.614 177.305 56.907 177.305 C 56.907 174.867 56.907 172.419 56.907 169.905 C 56.488 169.905 62.793 178.2 62.364 178.2 Z" fill="#FEF0D5" style=""/>
  <path d="M 34.727 -12.412 C 35.103 -12.412 35.479 -12.412 35.864 -12.412 C 35.864 -9.219 35.864 -6.026 35.864 -2.736 C 35.681 -2.736 35.488 -2.736 35.296 -2.736 C 35.113 -4.427 34.92 -6.117 34.727 -7.859 C 34.544 -7.859 34.351 -7.859 34.159 -7.859 C 34.13 -9.187 34.139 -10.515 34.159 -11.844 C 34.342 -12.031 34.534 -12.218 34.727 -12.412 Z" fill="#D6D4D3" style=""/>
  <path d="M 241.96 -129.63 C 243.714 -129.63 245.469 -129.63 247.276 -129.63 C 246.691 -129.34 246.691 -129.34 246.095 -129.04 C 246.095 -128.65 246.095 -128.26 246.095 -127.86 C 244.73 -127.86 243.366 -127.86 241.96 -127.86 C 241.96 -128.44 241.96 -129.03 241.96 -129.63 Z" fill="#9F8D7D"/>
  <path fill="#FFFFFF"/>
  <path d="M 284.594 208.995 C 285.732 209.564 285.732 209.564 285.732 209.564 L 284.594 208.995 Z" fill="#FFFFFF" style=""/>
  <path fill="#FFFFFF"/>
  <path d="M 401.273 79.793 C 402.412 80.363 402.412 80.363 402.412 80.363 L 401.273 79.793 Z" fill="#000000" style=""/>
  <path fill="#000000"/>
  <path d="M 266.179 -129.04 C 267.36 -128.45 267.36 -128.45 267.36 -128.45 L 266.179 -129.04 Z" fill="#000000"/>
  <path fill="#FFFFFF"/>
  <path fill="#FFFFFF"/>
  <path fill="#FFFFFF"/>
  <path fill="#FFFFFF"/>
  <path fill="#000000"/>
  <path fill="#FFFFFF"/>
  <path fill="#FFFFFF"/>
  <path fill="#FFFFFF"/>
  <path fill="#000000"/>
  <path fill="#FFFFFF"/>
  <path fill="#FFFFFF"/>
  <path fill="#FFFFFF"/>
  <path fill="#000000"/>
  <path fill="#FFFFFF"/>
  <path fill="#FFFFFF"/>
  <path fill="#000000"/>
  <path fill="#FFFFFF"/>
  <path fill="#000000"/>
  <path fill="#000000"/>
  <path fill="#FFFFFF"/>
  <path fill="#000000"/>
  <path fill="#FFFFFF"/>
  <path fill="#FFFFFF"/>
  <path fill="#000000"/>
  <path fill="#000000"/>
  <path fill="#000000"/>
  <path fill="#FFFFFF"/>
  <path fill="#FFFFFF"/>
  <path fill="#000000"/>
  <path fill="#FFFFFF"/>
  <path fill="#FFFFFF"/>
  <path fill="#000000"/>
  <path fill="#FFFFFF"/>
  <path fill="#000000"/>
  <path fill="#FFFFFF"/>
  <path fill="#FFFFFF"/>
  <path fill="#FFFFFF"/>
  <path fill="#FFFFFF"/>
</svg>