<?xml version="1.0" encoding="utf-8"?>
<svg xmlns="http://www.w3.org/2000/svg" viewBox="0 0 500 500">
  <defs>
    <linearGradient id="gradient-0" gradientUnits="userSpaceOnUse" x1="229.226" y1="302.413" x2="229.226" y2="415.781" gradientTransform="matrix(1, 0, 0, 1, -24.283882, -52.06868)">
      <stop offset="0" style="stop-color:rgb(35.686% 26.275% 13.725%)">
        <animate attributeName="stop-color" values="rgb(35.686% 26.275% 13.725%);&#10;                         rgb(24.025% 15.729% 2.8983%);&#10;                         rgb(35.686% 26.275% 13.725%)" dur="4s" repeatCount="indefinite"/>
      </stop>
      <stop offset="1" style="stop-color:rgb(24.025% 15.729% 2.8983%)">
        <animate attributeName="stop-color" values="rgb(24.025% 15.729% 2.8983%);&#10;                         rgb(35.686% 26.275% 13.725%);&#10;                         rgb(24.025% 15.729% 2.8983%)" dur="4s" repeatCount="indefinite"/>
      </stop>
    </linearGradient>
    <linearGradient gradientUnits="userSpaceOnUse" x1="-352.936" y1="156.973" x2="-352.936" y2="248.626" id="gradient-1" spreadMethod="pad" gradientTransform="matrix(0.999848, -0.01742, 0.028119, 1.613951, 80.143117, -71.503268)">
      <stop offset="0" style="stop-color: rgb(99.608% 84.706% 69.804%)"/>
      <stop offset="1" style="stop-color: rgb(60.212% 47.364% 33.886%)"/>
    </linearGradient>
  </defs>
  <g id="svg" transform="matrix(1, 0, 0, 1, -24.28388, -52.06868)">
    <g id="svgg" transform="matrix(1, 0, 0, 1, 107.328941, -1.26808)">
      <path id="path0" d="M -64.662 226.391 C -64.339 270.363 -64.236 271.804 -59.962 291.161 C -47.156 349.162 -8.67 397.249 42.486 419.179 C 45.578 420.503 46.923 421.54 47.511 423.046 C 48.373 425.255 47.906 436.307 46.913 437.297 C 46.595 437.612 30.633 437.969 11.44 438.091 C -20.436 438.295 -23.624 438.426 -25.43 439.609 C -31.729 443.739 -31.734 453.234 -25.439 457.123 L -22.956 458.658 L 129.354 458.541 C 213.124 458.476 282.411 458.14 283.329 457.79 C 290.249 455.159 291.233 444.43 284.965 439.958 C 282.668 438.319 282.581 438.314 243.766 437.947 L 204.865 437.581 L 204.865 429.146 L 204.865 420.712 L 213.503 416.129 C 242.527 400.729 259.691 384.139 280.343 351.526 C 282.17 348.643 282.555 348.408 285.496 348.408 C 294.47 348.408 315.118 347.69 318.127 347.273 C 380.735 338.594 406.175 260.057 362.264 211.014 C 347.041 194.01 328.414 186.956 298.708 186.946 L 286.13 186.942 L 285.758 226.024 C 285.318 272.197 284.52 280.318 278.255 302.552 C 262.126 359.78 218.017 401.429 161.719 412.59 C 66.791 431.405 -19.242 377.849 -39.459 287.358 C -43.384 269.789 -43.739 264.914 -44.1 223.823 L -44.437 185.473 L -54.701 185.473 L -64.963 185.473 L -64.662 226.391 M 320.42 209.771 C 368.561 222.677 378.658 290.729 336.582 318.7 C 327.445 324.776 319.899 326.819 303.862 327.568 C 291.081 328.162 291.441 328.349 293.707 322.332 C 303.605 296.031 306.46 277.024 306.494 237.18 C 306.512 215.849 306.732 209.034 307.433 208.324 C 308.535 207.208 312.519 207.652 320.42 209.771" stroke="none" fill-rule="evenodd" style="fill: rgb(235, 233, 228);"/>
      <g id="svg-1" transform="matrix(1, 0, 0, 1, 504.739319, 1.899784)">
        <g id="group-1" transform="matrix(1, 0, 0, 1, -30.992184, 54.093948)">
          <path fill="#FFFFFF"/>
          <path fill="#FFFFFF"/>
          <path fill="#FFFFFF"/>
          <path fill="#D4D4D4"/>
          <path fill="#FFFFD4"/>
          <path fill="#FFFFFF"/>
          <path fill="#FFFFFF"/>
          <path fill="#FFFFFF"/>
          <path fill="#FFFFFF"/>
          <path fill="#FFFFFF"/>
          <path fill="#FFFFFF"/>
          <path fill="#FFFFFF"/>
          <path fill="#FFFFFF"/>
          <path fill="#FFFFFF"/>
          <path fill="#FFFFFF"/>
          <path fill="#FFFFFF"/>
          <path fill="#FFFFFF"/>
          <path fill="#FFFFFF"/>
          <path fill="#FFFFFF"/>
          <path fill="#EDEDED"/>
          <path fill="#FFFFFF"/>
          <path fill="#FFFFFF"/>
          <path fill="#FFFFFF"/>
          <path fill="#FFFFFF"/>
          <path fill="#FFFFFF"/>
          <path fill="#FFFFFF"/>
          <path fill="#FFFFFF"/>
          <path fill="#FFFFFF"/>
          <path fill="#FFFFFF"/>
          <path fill="#FFFFFF"/>
          <path fill="#FFFFFF"/>
          <path fill="#FFFFFF"/>
          <path fill="#FFFFFF"/>
          <path fill="#FFFFFF"/>
          <path fill="#FFFFFF"/>
          <path fill="#FFFFFF"/>
          <path fill="#FFFFFF"/>
          <path fill="#FFFFFF"/>
          <path fill="#FFFFFF"/>
          <path fill="#FFFFFF"/>
          <path fill="#FFFFFF"/>
          <path fill="#FFFFFF"/>
          <path fill="#FFFFFF"/>
          <path fill="#FFFFAA"/>
          <path fill="#FFFFFF"/>
          <path fill="#BFBFBF"/>
          <path fill="#FFFFFF"/>
          <path fill="#FFFFFF"/>
          <path fill="#FFFFFF"/>
          <path fill="#FFFFFF"/>
          <path fill="#FFAAAA"/>
          <path fill="#FFFFFF"/>
          <path fill="#FFFFFF"/>
          <path fill="#FFFFFF"/>
          <path fill="#FFFFFF"/>
          <path fill="#FFFFFF"/>
          <path fill="#FFFFFF"/>
          <path fill="#FFFFFF"/>
          <path fill="#FFFFFF"/>
          <path fill="#FFFFFF"/>
          <path fill="#FFFFFF"/>
          <path fill="#FFFFFF"/>
          <path fill="#FFFFFF"/>
          <path fill="#FFFFFF"/>
          <path fill="#FFFFFF"/>
          <path fill="#FFFFFF"/>
          <path fill="#FFFFFF"/>
          <path fill="#FFFFFF"/>
          <path fill="#FFFFFF"/>
          <path fill="#FFFFFF"/>
          <path fill="#FFFFFF"/>
          <path fill="#FFFFFF"/>
          <path fill="#FFFFFF"/>
          <path fill="#FFFFFF"/>
          <path fill="#FFFFFF"/>
          <path fill="#FFFFFF"/>
          <path fill="#FFFFFF"/>
          <path fill="#FFFFFF"/>
          <path fill="#FFFFFF"/>
          <path fill="#FFFFFF"/>
          <path fill="#FFFFFF"/>
          <path fill="#FFFFFF"/>
          <path fill="#FFFFFF"/>
          <path fill="#FFFFFF"/>
          <path fill="#FFFFFF"/>
          <path fill="#FFFFFF"/>
          <path fill="#FFFFFF"/>
          <path fill="#FFFFFF"/>
          <path fill="#FFFFFF"/>
          <path fill="#FFFFFF"/>
          <path fill="#FFFFFF"/>
          <path fill="#FFFFFF"/>
          <path fill="#FFFFFF"/>
          <path fill="#FFFFFF"/>
          <path fill="#FFFFFF"/>
          <path fill="#FFFFFF"/>
          <path fill="#FFFFFF"/>
          <path fill="#FFFFFF"/>
          <path fill="#FFFFFF"/>
          <path fill="#FFFFFF"/>
          <path fill="#FFFFFF"/>
          <path fill="#FFFFFF"/>
          <path fill="#FFFFFF"/>
          <path fill="#FFFFFF"/>
          <path fill="#FFFFFF"/>
          <path fill="#FFFFFF"/>
          <path fill="#FFFFFF"/>
          <path fill="#FFFFFF"/>
          <path fill="#FFFFFF"/>
          <path fill="#FFFFFF"/>
          <path fill="#FFFFFF"/>
          <path fill="#FFFFFF"/>
          <path fill="#FFD5D5"/>
          <path fill="#FFFFFF"/>
          <path fill="#FFFFFF"/>
          <path fill="#FFFFFF"/>
          <path fill="#FFFFFF"/>
          <path fill="#FFFFFF"/>
          <path fill="#FFFFFF"/>
          <path fill="#D5D5D5"/>
          <path fill="#FFFFFF"/>
          <path fill="#FFFFFF"/>
          <path fill="#FFFFFF"/>
          <path fill="#FFFFFF"/>
          <path fill="#FFFFFF"/>
          <path fill="#FFFFFF"/>
          <path fill="#FFFFFF"/>
          <path fill="#D5D5D5"/>
          <path fill="#FFFFFF"/>
          <path fill="#FFFFFF"/>
          <path fill="#FFFFFF"/>
          <path fill="#FFFFFF"/>
          <path fill="#FFFFFF"/>
          <path fill="#FFFFFF"/>
          <path fill="#FFFFFF"/>
          <path fill="#FFFFFF"/>
          <path fill="#FFFFCC"/>
          <path fill="#FFFFFF"/>
          <path fill="#FFFFFF"/>
          <path fill="#FFFFFF"/>
          <path fill="#FFFFFF"/>
          <path fill="#FFFFFF"/>
          <path fill="#FFFFFF"/>
          <path fill="#FFFFFF"/>
          <path fill="#FFFFFF"/>
          <path fill="#FFFFFF"/>
          <path fill="#FFFFFF"/>
          <path fill="#FFFFFF"/>
          <path fill="#FFFFFF"/>
          <path fill="#FFFFFF"/>
          <path fill="#FFFFFF"/>
          <path fill="#FFFFFF"/>
          <path fill="#FFFFFF"/>
          <path fill="#FFFFFF"/>
          <path fill="#FFFFFF"/>
          <path fill="#FFFFFF"/>
          <path fill="#FFFFFF"/>
          <path fill="#FFFFFF"/>
          <path fill="#FFFFFF"/>
          <path fill="#FFFFFF"/>
          <path fill="#FFFFFF"/>
          <path fill="#FFFFFF"/>
          <path fill="#FFFFFF"/>
          <path fill="#FFFFFF"/>
          <path fill="#FFFFFF"/>
          <path fill="#FFFFFF"/>
          <path fill="#FFFFFF"/>
          <path fill="#FFFFFF"/>
          <path fill="#FFFFFF"/>
          <path fill="#FFFFFF"/>
          <path fill="#FFFFFF"/>
          <path fill="#FFFFFF"/>
          <path fill="#FFFFFF"/>
          <path fill="#FFFFFF"/>
          <path fill="#FFFFFF"/>
          <path fill="#FFFFFF"/>
          <path fill="#FFFFFF"/>
          <path fill="#FFFFFF"/>
          <path fill="#FFFFFF"/>
          <path fill="#FFFFFF"/>
          <path fill="#FFFFFF"/>
          <path fill="#D5D5D5"/>
          <path fill="#FFFFFF"/>
          <path fill="#FFFFFF"/>
          <path fill="#FFFFFF"/>
          <path fill="#FFFFFF"/>
          <path fill="#FFFFFF"/>
          <path fill="#FFFFFF"/>
          <path fill="#FFFFFF"/>
          <path fill="#FFFFFF"/>
          <path fill="#FFFFFF"/>
          <path fill="#FFFFFF"/>
          <path fill="#FFFFFF"/>
          <path fill="#FFFFFF"/>
          <path fill="#FFFFFF"/>
          <path fill="#FFFFFF"/>
          <path fill="#FFFFFF"/>
          <path fill="#FFFFFF"/>
          <path fill="#FFFFFF"/>
          <path fill="#FFFFFF"/>
          <path fill="#FFFFFF"/>
          <path fill="#FFFFFF"/>
          <path fill="#FFFFFF"/>
          <path fill="#FFFFFF"/>
          <path fill="#FFFFCC"/>
          <path fill="#FFFFFF"/>
          <path fill="#FFFFFF"/>
          <path fill="#FFFFFF"/>
          <path fill="#FFFFFF"/>
          <path fill="#FFFFFF"/>
          <path fill="#FFFFFF"/>
          <path fill="#FFFFFF"/>
          <path fill="#FFFFFF"/>
          <path fill="#FFFFFF"/>
          <path fill="#FFFFFF"/>
          <path fill="#FFFFFF"/>
          <path fill="#FFFFFF"/>
          <path fill="#FFFFFF"/>
          <path fill="#FFFFFF"/>
          <path fill="#FFFFFF"/>
          <path fill="#FFFFFF"/>
          <path fill="#FFFFFF"/>
          <path fill="#DBDBDB"/>
          <path fill="#FFFFFF"/>
          <path fill="#FFFFFF"/>
          <path fill="#FFFFFF"/>
          <path fill="#FFFFFF"/>
          <path fill="#FFFFFF"/>
          <path fill="#FFFFFF"/>
          <path fill="#FFFFFF"/>
          <path fill="#FFCCCC"/>
          <path fill="#FFFFFF"/>
          <path fill="#FFFFFF"/>
          <path fill="#FFFFFF"/>
          <path fill="#FFFFFF"/>
          <path fill="#FFFFFF"/>
          <path fill="#FFFFFF"/>
          <path fill="#FFFFFF"/>
          <path fill="#FFFFFF"/>
          <path fill="#FFFFFF"/>
          <path fill="#FFFFFF"/>
          <path fill="#FFFFFF"/>
          <path fill="#FFFFFF"/>
          <path fill="#FFFFFF"/>
          <path fill="#FFFFFF"/>
          <path fill="#FFFFFF"/>
          <path fill="#FFFFFF"/>
          <path fill="#FFFFFF"/>
          <path fill="#FFFFFF"/>
          <path fill="#FFFFFF"/>
          <path fill="#FFFFFF"/>
          <path fill="#FFFFFF"/>
          <path fill="#FFFFFF"/>
          <path fill="#FFFFFF"/>
          <path fill="#FFFFFF"/>
          <path fill="#FFFFFF"/>
          <path fill="#FFFFFF"/>
          <path fill="#FFFFFF"/>
          <path fill="#FFFFFF"/>
          <path fill="#FFFFFF"/>
          <path fill="#FFFFFF"/>
          <path fill="#FFFFFF"/>
          <path fill="#FFFFFF"/>
          <path fill="#FFFFFF"/>
          <path fill="#FFFFFF"/>
          <path fill="#FFFFFF"/>
          <path fill="#FFFFFF"/>
          <path fill="#FFFFFF"/>
          <path fill="#FFFFFF"/>
          <path fill="#FFFFFF"/>
          <path fill="#FFFFFF"/>
          <path fill="#FFFFFF"/>
          <path fill="#FFFFFF"/>
          <path fill="#FFFFFF"/>
          <path fill="#FFFFFF"/>
          <path fill="#FFFFFF"/>
          <path fill="#FFFFFF"/>
          <path fill="#FFFFFF"/>
          <path fill="#FFFFFF"/>
          <path fill="#FFFFFF"/>
          <path fill="#FFFFFF"/>
          <path fill="#FFFFFF"/>
          <path fill="#FFFFFF"/>
          <path fill="#FFFFFF"/>
          <path fill="#FFFFFF"/>
          <path fill="#FFFFFF"/>
          <path fill="#FFFFFF"/>
          <path fill="#FFFFFF"/>
          <path fill="#FFFFFF"/>
          <path fill="#FFFFFF"/>
          <path fill="#FFFFFF"/>
          <path fill="#FFFFFF"/>
          <path fill="#FFFFFF"/>
          <path fill="#FFFFFF"/>
          <path fill="#FFFFFF"/>
          <path fill="#FFFFFF"/>
          <path fill="#CCCCCC"/>
          <path fill="#FFFFFF"/>
          <path fill="#FFFFFF"/>
          <path fill="#FFFFFF"/>
          <path fill="#FFFFFF"/>
          <path fill="#FFFFFF"/>
          <path fill="#FFFFFF"/>
          <path fill="#FFFFFF"/>
          <path fill="#FFFFFF"/>
          <path fill="#FFFFFF"/>
          <path fill="#FFFFFF"/>
          <path fill="#FFFFFF"/>
          <path fill="#FFFFFF"/>
          <path fill="#FFFFFF"/>
          <path fill="#FFFFFF"/>
          <path fill="#FFFFFF"/>
          <path fill="#FFFFFF"/>
          <path fill="#FFFFFF"/>
          <path fill="#FFFFFF"/>
          <path fill="#FFFFFF"/>
          <path fill="#FFFFFF"/>
          <path fill="url(#gradient-1)" stroke="none" d="M -508.471 248.626 L -511.962 237.438 L -514.874 223.95 L -516.687 212.403 L -517.392 199.001 L -517.657 188.634 L -517.806 176.846 L -517.976 159.279 L -187.906 156.973 L -187.895 180.715 L -188.432 200.105 L -189.025 212.09 L -189.819 221.396 L -191.401 230.428 L -193.329 239.473 L -195.617 247.782 L -508.471 248.626 Z"/>
        </g>
      </g>
    </g>
  </g>
  <path d="M 48.258 251.244 L 52.486 261.626 L 56.046 269.923 L 59.164 276.327 L 66.445 289.094 L 74.92 301.009 L 87.341 315.173 L 96.153 323.554 L 105.521 331.031 L 112.92 336.149 L 119.652 340.282 L 126.773 344.275 L 133.747 347.843 L 141.833 351.142 L 150.825 354.743 L 159.096 357.259 L 174.207 360.806 L 180.617 361.913 L 188.436 362.769 L 196.824 363.53 L 204.516 363.713 L 219.457 363.619 C 219.457 363.619 233.947 362.032 233.947 362.013 C 233.947 361.994 249.726 359.295 249.726 359.295 L 266.109 354.476 L 279.002 349.187 L 291.214 342.852 L 301.03 336.677 L 313.179 327.208 L 322.354 318.911 L 335.306 303.811 L 343.553 291.538 L 349.88 280.733 L 354.924 269.464 L 360.094 255.84 L 361.625 250.345 L 48.258 251.244 Z" fill="url(#gradient-0)" fill-rule="nonzero" stroke="rgba(0,0,0,0)"/>
  <path d="M 821 197.391 C 820.992 194.918 820.636 196.894 821.126 196.893 C 821.923 196.895 821.237 196.957 821.806 196.957 C 823.371 196.955 831.577 194.984 833.143 194.985 C 834.833 194.987 1121.39 194.685 1152.37 194.692 C 1152.49 197.074 1153.17 192.589 1153.12 199.907 C 1153.11 201.05 1153.11 202.195 1153.11 203.338 C 1153.1 206.061 1153.08 208.786 1153.07 211.509 C 1153.54 211.507 1153.54 211.507 1154.02 211.505 C 1169.02 211.469 1184.11 214.348 1195.7 224.43 C 1196.13 224.766 1196.55 225.1 1196.98 225.445 C 1203.59 230.948 1207.8 240.329 1208.95 248.731 C 1210.24 267.731 1203.5 284.602 1191.95 299.519 C 1191.41 300.224 1190.88 300.936 1190.34 301.649 C 1186.6 306.64 1182.56 311.429 1178.05 315.743 C 1177.69 316.099 1177.34 316.454 1176.97 316.82 C 1176.61 317.175 1176.26 317.531 1175.89 317.898 C 1175.65 318.148 1175.41 318.399 1175.16 318.657 C 1173.06 320.822 1170.83 322.753 1168.46 324.626 C 1167.92 325.054 1167.38 325.485 1166.84 325.917 C 1162.67 329.243 1158.48 332.351 1153.92 335.126 C 1153.46 335.423 1153 335.72 1152.53 336.026 C 1143.99 341.445 1134.17 346.25 1124.22 348.312 C 1121.48 348.872 1121.48 348.872 1119.57 350.777 C 1119.28 351.349 1119 351.929 1118.74 352.517 C 1118.42 353.145 1118.11 353.774 1117.79 354.401 C 1117.64 354.713 1117.48 355.024 1117.33 355.345 C 1110.36 369.234 1099.54 382.487 1088.46 393.273 C 1087.37 394.352 1086.29 395.439 1085.22 396.537 C 1082.97 398.841 1080.67 400.984 1078.14 402.993 C 1077.17 403.766 1076.22 404.547 1075.27 405.345 C 1071.85 408.204 1068.34 410.799 1064.59 413.218 C 1064.27 413.421 1063.96 413.624 1063.64 413.833 C 1063.36 414.012 1063.07 414.191 1062.79 414.375 C 1062.59 414.518 1062.39 414.661 1062.18 414.809 C 1062.18 414.951 1062.18 415.094 1062.18 415.24 C 1089.62 415.24 1117.05 415.24 1145.31 415.24 C 1146.87 419.914 1147.52 424.005 1145.36 428.575 C 1143.8 431.425 1141.55 432.915 1138.85 434.622 C 1138.5 434.854 1138.16 435.086 1137.8 435.326 C 1132.8 438.162 1127.18 437.565 1121.6 437.534 C 1120.4 437.536 1119.2 437.542 1118 437.547 C 1115.4 437.556 1112.8 437.555 1110.2 437.55 C 1106.34 437.539 1102.47 437.545 1098.6 437.553 C 1091.69 437.566 1084.79 437.565 1077.88 437.557 C 1071.83 437.551 1065.79 437.55 1059.74 437.553 C 1059.34 437.553 1058.94 437.553 1058.53 437.553 C 1056.9 437.554 1055.27 437.555 1053.64 437.555 C 1038.37 437.564 1023.1 437.556 1007.82 437.542 C 994.255 437.53 980.69 437.531 967.125 437.543 C 951.878 437.557 936.633 437.563 921.387 437.555 C 919.761 437.555 918.135 437.554 916.509 437.553 C 916.109 437.552 915.709 437.552 915.296 437.552 C 909.256 437.549 903.216 437.552 897.175 437.559 C 890.306 437.566 883.436 437.564 876.567 437.551 C 872.723 437.542 868.88 437.542 865.033 437.552 C 862.471 437.558 859.901 437.555 857.332 437.542 C 855.867 437.537 854.404 437.536 852.947 437.544 C 841.811 437.599 841.811 437.599 836.913 434.622 C 836.5 434.379 836.087 434.136 835.659 433.885 C 832.435 431.913 829.912 429.053 828.977 425.335 C 828.456 422.114 828.471 418.771 829.592 415.671 C 830.909 415.014 832.272 415.182 833.713 415.188 C 834.227 415.187 834.227 415.187 834.748 415.187 C 835.892 415.186 837.038 415.189 838.182 415.191 C 839 415.191 839.818 415.191 840.643 415.191 C 842.87 415.191 845.097 415.194 847.325 415.196 C 849.653 415.199 851.981 415.199 854.31 415.199 C 858.718 415.201 863.133 415.204 867.541 415.209 C 872.56 415.214 877.58 415.216 882.6 415.218 C 892.928 415.223 903.255 415.23 913.584 415.24 C 913.352 415.095 913.12 414.95 912.88 414.802 C 911.814 414.135 910.749 413.467 909.684 412.799 C 909.137 412.458 909.137 412.458 908.579 412.11 C 905.495 410.172 902.64 408.046 899.801 405.764 C 899.128 405.243 898.455 404.722 897.781 404.202 C 897.162 403.718 896.543 403.234 895.924 402.749 C 895.53 402.446 895.135 402.142 894.73 401.828 C 894.334 401.52 893.937 401.21 893.529 400.892 C 893.164 400.61 892.799 400.327 892.423 400.035 C 892.157 399.794 891.891 399.552 891.617 399.303 C 891.617 399.019 891.617 398.734 891.617 398.442 C 891.379 398.344 891.14 398.246 890.895 398.144 C 889.604 397.417 888.71 396.501 887.665 395.45 C 887.455 395.24 887.244 395.03 887.027 394.812 C 886.584 394.367 886.14 393.92 885.697 393.472 C 885.031 392.797 884.36 392.127 883.689 391.456 C 881.362 389.12 879.102 386.748 876.972 384.229 C 876.559 383.748 876.146 383.268 875.732 382.788 C 875.347 382.335 874.961 381.882 874.577 381.428 C 874.373 381.19 874.169 380.951 873.96 380.705 C 872.622 379.122 871.372 377.504 870.217 375.782 C 869.506 375.03 868.934 374.915 867.927 374.752 C 868.211 374.468 868.496 374.183 868.789 373.891 C 868.497 373.504 868.204 373.118 867.904 372.72 C 862.331 365.276 856.857 357.086 852.971 348.63 C 852.496 347.478 852.496 347.478 851.133 347.186 C 851.156 346.892 851.187 346.597 851.219 346.294 C 851.101 344.661 850.439 343.483 849.676 342.071 C 845.433 333.883 842.146 325.289 839.07 316.605 C 838.938 316.224 838.797 315.843 838.657 315.45 C 838.541 315.106 838.424 314.762 838.299 314.408 C 838.198 314.112 838.096 313.816 837.987 313.512 C 837.777 312.728 837.777 312.728 837.777 311.436 C 837.349 311.295 836.92 311.152 836.485 311.005 C 836.773 311.005 837.053 311.005 837.349 311.005 C 836.999 310.018 836.648 309.032 836.298 308.044 C 836.196 307.764 836.095 307.483 835.994 307.195 C 835.441 305.628 835.441 305.628 834.763 304.114 C 834.623 303.545 834.491 302.972 834.375 302.397 C 833.899 300.195 833.347 298.017 832.778 295.837 C 826.517 271.464 822.659 246.671 821.716 221.49 C 821.701 221.031 821.686 220.573 821.669 220.1 C 821.639 219.241 821.615 218.382 821.592 217.525 C 821.576 217.146 821.568 216.768 821.553 216.378 C 821.545 216.05 821.538 215.721 821.53 215.382 C 821.452 214.389 821.452 214.389 820.548 213.232 C 821.187 213.019 821.187 213.019 821.833 212.802 C 821.413 212.802 820.985 212.802 820.548 212.802 C 820.619 212.561 820.688 212.321 820.759 212.073 C 820.992 210.998 821.031 210.046 821.024 208.945 C 821.024 208.523 821.024 208.101 821.024 207.665 C 821.024 207.213 821.024 206.76 821.016 206.294 C 821.016 205.827 821.016 205.361 821.016 204.881 C 821.016 203.393 821.007 201.906 821 200.418 C 821 199.41 821 198.4 821 197.391 Z M 836.913 195.142 C 836.913 192.441 836.235 208.304 837.076 229.626 C 837.108 230.028 837.131 230.43 837.162 230.843 C 837.443 234.944 837.847 239.01 838.416 243.082 C 838.657 244.808 838.86 246.536 839.054 248.267 C 839.086 248.571 839.124 248.875 839.156 249.187 C 839.296 250.424 839.436 251.661 839.576 252.897 C 840.013 256.882 840.596 260.8 841.375 264.733 C 841.679 266.347 841.842 267.943 841.982 269.577 C 842.115 270.81 842.403 272.002 842.676 273.209 C 842.987 274.581 843.275 275.957 843.571 277.333 C 848.151 298.894 854.715 319.477 864.052 339.433 C 864.232 339.826 864.418 340.219 864.605 340.624 C 868.954 349.89 874.277 358.812 880.419 366.999 C 880.601 367.246 880.784 367.493 880.973 367.747 C 887.43 376.452 894.838 385.152 903.357 391.898 C 904.141 392.524 904.911 393.167 905.665 393.826 C 911.692 399.076 918.587 403.334 925.644 407.057 C 925.927 407.208 926.21 407.36 926.503 407.517 C 932.153 410.534 937.967 413.151 944.464 413.15 C 945.038 413.152 945.038 413.152 945.621 413.155 C 946.905 413.159 948.188 413.161 949.471 413.163 C 950.39 413.165 951.309 413.168 952.228 413.171 C 955.25 413.18 958.272 413.185 961.294 413.189 C 962.336 413.19 963.378 413.192 964.419 413.194 C 969.314 413.202 974.21 413.209 979.105 413.212 C 984.748 413.216 990.391 413.228 996.034 413.245 C 1000.4 413.258 1004.77 413.265 1009.13 413.266 C 1011.74 413.267 1014.34 413.271 1016.95 413.282 C 1019.4 413.292 1021.86 413.294 1024.31 413.289 C 1025.21 413.289 1026.11 413.292 1027 413.297 C 1033.56 413.338 1039.22 412.633 1045.25 409.856 C 1045.73 409.64 1045.73 409.64 1046.21 409.419 C 1052.71 406.374 1058.67 402.384 1064.34 398.011 C 1064.85 397.622 1065.36 397.233 1065.88 396.843 C 1069 394.452 1071.93 391.902 1074.78 389.194 C 1075.96 388.104 1075.96 388.104 1076.98 387.365 C 1077.22 387.182 1077.45 387 1077.69 386.813 C 1077.69 386.528 1077.69 386.244 1077.69 385.951 C 1077.93 385.856 1078.17 385.763 1078.41 385.666 C 1079.73 384.908 1080.63 383.872 1081.62 382.747 C 1082.04 382.274 1082.47 381.801 1082.89 381.327 C 1083.1 381.09 1083.31 380.852 1083.53 380.606 C 1084.09 379.991 1084.65 379.386 1085.22 378.784 C 1088.44 375.351 1091.26 371.646 1094.06 367.861 C 1094.27 367.564 1094.49 367.267 1094.72 366.962 C 1107.41 349.639 1117.21 329.846 1123.34 309.283 C 1123.49 308.868 1123.63 308.455 1123.77 308.029 C 1124.47 305.876 1125 303.68 1125.56 301.487 C 1126.02 299.719 1126.53 298.052 1127.22 296.361 C 1127.37 295.357 1127.51 294.351 1127.65 293.346 C 1127.93 292.483 1128.22 291.621 1128.51 290.761 C 1128.65 290.189 1128.78 289.614 1128.91 289.039 C 1129.23 287.547 1129.56 286.057 1129.9 284.566 C 1130.86 280.279 1131.75 276.037 1132.23 271.667 C 1132.39 270.518 1132.39 270.518 1132.82 269.657 C 1132.9 269.003 1132.96 268.348 1133.01 267.691 C 1133.14 266.267 1133.32 264.91 1133.65 263.519 C 1134.63 259.388 1135.05 255.17 1135.3 250.94 C 1135.4 249.843 1135.4 249.843 1135.84 248.982 C 1135.93 248.312 1136.01 247.639 1136.08 246.965 C 1136.14 246.334 1136.14 246.334 1136.2 245.69 C 1136.24 245.232 1136.29 244.774 1136.33 244.301 C 1136.38 243.826 1136.43 243.35 1136.47 242.86 C 1136.57 241.847 1136.67 240.834 1136.77 239.821 C 1136.91 238.301 1137.06 236.781 1137.21 235.261 C 1137.3 234.272 1137.4 233.284 1137.49 232.295 C 1137.54 231.852 1137.58 231.409 1137.62 230.953 C 1138.74 219.003 1138.42 207.174 1138.42 195.142 C 1038.92 195.142 939.426 195.142 836.913 195.142 Z M 1152.63 229.169 C 1152.59 229.691 1152.55 230.212 1152.5 230.75 C 1150.8 251.206 1150.8 251.206 1149.19 261.042 C 1149.08 261.703 1149.08 261.703 1148.97 262.377 C 1147.93 268.661 1146.43 274.823 1144.85 280.99 C 1144.76 281.349 1144.67 281.708 1144.57 282.078 C 1143.58 285.924 1142.55 289.743 1141.35 293.528 C 1141.15 294.169 1140.96 294.814 1140.8 295.464 C 1140.58 296.335 1140.33 297.183 1140.05 298.038 C 1139.95 298.365 1139.85 298.691 1139.74 299.028 C 1139.62 299.381 1139.51 299.733 1139.39 300.096 C 1139.27 300.468 1139.15 300.84 1139.03 301.223 C 1138.64 302.437 1138.25 303.654 1137.86 304.868 C 1137.72 305.28 1137.59 305.693 1137.45 306.117 C 1135.11 313.343 1132.55 320.467 1129.8 327.547 C 1129.5 328.343 1129.21 329.148 1128.94 329.957 C 1139.72 326.877 1150.31 319.623 1158.66 312.298 C 1158.88 312.111 1159.1 311.923 1159.32 311.729 C 1161.41 309.913 1161.41 309.913 1163.4 307.99 C 1163.4 307.706 1163.4 307.422 1163.4 307.129 C 1163.76 306.983 1163.76 306.983 1164.13 306.833 C 1165.4 306.11 1166.25 305.161 1167.28 304.114 C 1167.79 303.618 1167.79 303.618 1168.31 303.113 C 1170.77 300.713 1172.95 298.231 1175.03 295.5 C 1175.23 295.241 1175.43 294.982 1175.63 294.714 C 1178.33 291.202 1180.96 287.686 1183.21 283.87 C 1183.36 283.62 1183.51 283.368 1183.67 283.111 C 1189.52 273.207 1194.61 261.738 1192.21 249.978 C 1190.49 243.499 1186.67 238.425 1181.06 234.768 C 1176.02 231.861 1170.89 230.267 1165.13 229.6 C 1164.71 229.551 1164.3 229.503 1163.88 229.453 C 1161.29 229.195 1158.72 229.148 1156.13 229.159 C 1155.62 229.16 1155.62 229.16 1155.11 229.161 C 1154.28 229.163 1153.46 229.166 1152.63 229.169 Z" fill="#E9E8E6" style=""/>
  <path d="M 852.122 309.272 C 941.67 309.272 1031.22 309.272 1123.48 309.272 C 1114.72 335.526 1102.41 360.376 1083.37 380.725 C 1081.98 382.209 1080.65 383.741 1079.34 385.288 C 1078.68 385.939 1078.68 385.939 1077.82 385.939 C 1077.82 386.223 1077.82 386.508 1077.82 386.8 C 1077.23 387.393 1077.23 387.393 1076.39 388.093 C 1074.94 389.324 1073.54 390.591 1072.14 391.889 C 1069.56 394.235 1066.84 396.362 1064.04 398.431 C 1063.63 398.731 1063.63 398.731 1063.22 399.039 C 1051.58 407.671 1040.6 413.279 1025.99 413.255 C 1025.08 413.258 1024.16 413.262 1023.24 413.267 C 1020.75 413.276 1018.27 413.277 1015.79 413.276 C 1013.71 413.276 1011.63 413.28 1009.56 413.284 C 1004.65 413.292 999.741 413.294 994.834 413.29 C 989.786 413.288 984.74 413.297 979.691 413.314 C 975.344 413.327 970.997 413.332 966.649 413.33 C 964.059 413.329 961.469 413.332 958.878 413.341 C 956.441 413.352 954.003 413.35 951.565 413.341 C 950.676 413.34 949.786 413.342 948.896 413.349 C 931.068 413.465 914.479 401.98 901.747 390.258 C 900.907 389.488 900.049 388.748 899.18 388.012 C 895.226 384.556 891.552 380.793 888.3 376.672 C 887.511 375.688 886.687 374.773 885.827 373.852 C 883.071 370.783 880.76 367.344 878.397 363.972 C 878.115 363.575 878.115 363.575 877.828 363.169 C 869.112 350.79 852.122 325.459 852.122 309.272 Z" fill="#594223" style=""/>
  <path d="M 821.833 190.404 C 821.981 190.404 822.121 190.404 822.269 190.404 C 822.588 196.448 822.799 202.487 822.916 208.538 C 822.939 209.87 822.971 211.203 823.001 212.534 C 823.102 217.649 823.157 222.76 823.126 227.876 C 822.986 227.876 822.845 227.876 822.697 227.876 C 822.697 226.739 822.697 225.602 822.697 224.43 C 822.417 224.43 822.129 224.43 821.833 224.43 C 821.825 224.138 821.818 223.844 821.81 223.542 C 821.771 222.214 821.724 220.886 821.678 219.558 C 821.662 219.097 821.647 218.635 821.639 218.159 C 821.615 217.716 821.6 217.273 821.585 216.818 C 821.568 216.409 821.561 216.001 821.545 215.58 C 821.467 214.415 821.467 214.415 820.548 213.232 C 821.187 213.019 821.187 213.019 821.833 212.802 C 821.413 212.802 820.985 212.802 820.548 212.802 C 820.611 212.558 820.681 212.314 820.743 212.062 C 821.795 207.564 821.538 202.673 821.647 198.076 C 821.669 197.33 821.686 196.583 821.709 195.837 C 821.748 194.026 821.795 192.216 821.833 190.404 Z" fill="#F1EFED" style=""/>
  <path d="M 822.269 171.452 C 822.41 171.452 822.55 171.452 822.697 171.452 C 822.697 175.574 822.697 179.696 822.697 183.943 C 822.558 183.943 822.417 183.943 822.269 183.943 C 822.207 183.472 822.145 183.001 822.082 182.516 C 821.888 180.958 821.888 180.958 821.405 179.636 C 821.125 179.636 820.837 179.636 820.548 179.636 C 820.688 179.351 820.829 179.067 820.977 178.774 C 821.257 178.917 821.545 179.059 821.833 179.205 C 821.553 178.92 821.273 178.637 820.977 178.343 C 820.837 178.06 820.688 177.775 820.548 177.483 C 820.969 177.483 821.397 177.483 821.833 177.483 C 821.833 177.056 821.833 176.63 821.833 176.19 C 821.413 176.048 820.985 175.906 820.548 175.759 C 820.688 174.765 820.829 173.77 820.977 172.745 C 821.117 172.745 821.257 172.745 821.405 172.745 C 821.545 173.455 821.693 174.166 821.833 174.898 C 821.981 173.761 822.121 172.624 822.269 171.452 Z" fill="#F4F2F1" style=""/>
  <path d="M 833.767 415.186 C 834.063 415.184 834.366 415.182 834.67 415.181 C 836.609 415.185 838.447 415.355 840.363 415.671 C 840.363 415.813 840.363 415.955 840.363 416.101 C 836.952 416.101 833.541 416.101 830.021 416.101 C 830.59 416.386 831.158 416.67 831.749 416.963 C 831.158 417.609 831.158 417.609 830.457 418.254 C 830.169 418.254 829.889 418.254 829.592 418.254 C 829.453 418.681 829.313 419.107 829.165 419.548 C 829.211 418.91 829.266 418.272 829.328 417.635 C 829.351 417.281 829.382 416.926 829.414 416.561 C 829.476 416.266 829.53 415.973 829.592 415.671 C 830.916 415.007 832.31 415.178 833.767 415.186 Z" fill="#E0DEDC" style=""/>
  <path d="M 825.283 251.997 C 825.424 251.997 825.563 251.997 825.711 251.997 C 825.93 253.441 826.148 254.886 826.361 256.331 C 826.423 256.737 826.486 257.143 826.548 257.562 C 826.867 259.752 827.085 261.842 827.008 264.057 C 826.867 263.631 826.727 263.204 826.579 262.765 C 826.291 262.765 826.007 262.765 825.711 262.765 C 824.644 255.568 824.644 255.568 825.283 251.997 Z" fill="#F2F0EC" style=""/>
  <path d="M 824.419 240.798 C 825.407 247.995 825.407 247.995 825.283 251.567 C 825.143 251.567 824.995 251.567 824.855 251.567 C 824.707 250.856 824.567 250.144 824.419 249.412 C 824.278 249.412 824.139 249.412 823.991 249.412 C 823.702 246.712 823.422 244.011 823.126 241.229 C 823.991 240.798 823.991 240.798 824.419 240.798 Z" fill="#EFEDEB" style=""/>
  <path d="M 1207.34 245.967 C 1210.31 249.537 1208.93 255.408 1208.63 259.749 C 1208.48 259.749 1208.34 259.749 1208.2 259.749 C 1208.05 257.937 1207.91 256.124 1207.77 254.312 C 1207.72 253.8 1207.68 253.287 1207.64 252.759 C 1207.6 252.262 1207.56 251.765 1207.52 251.253 C 1207.49 250.798 1207.45 250.342 1207.41 249.873 C 1207.34 248.567 1207.32 247.274 1207.34 245.967 Z" fill="#F2EFED" style=""/>
  <path d="M 1147.03 267.502 C 1147.18 267.502 1147.32 267.502 1147.46 267.502 C 1148.04 269.803 1147.68 271.31 1147.03 273.533 C 1146.75 273.533 1146.47 273.533 1146.17 273.533 C 1146.03 273.959 1145.89 274.386 1145.74 274.825 C 1146.01 272.335 1146.45 269.938 1147.03 267.502 Z" fill="#F1EFED" style=""/>
  <path d="M 1138.85 298.945 C 1138.99 298.945 1139.13 298.945 1139.28 298.945 C 1139.44 301.499 1138.9 303.457 1137.99 305.837 C 1137.7 305.694 1137.42 305.553 1137.13 305.406 C 1137.96 300.858 1137.96 300.858 1138.85 298.945 Z" fill="#F0EEEA" style=""/>
  <path d="M 1149.62 251.997 C 1149.76 251.997 1149.9 251.997 1150.05 251.997 C 1150.41 254.272 1150.59 256.18 1150.05 258.458 C 1149.38 259.19 1149.38 259.19 1148.76 259.749 C 1149.17 254.293 1149.17 254.293 1149.62 251.997 Z" fill="#F3F0EE" style=""/>
  <path d="M 1129.81 325.219 C 1129.95 325.219 1130.09 325.219 1130.24 325.219 C 1130.31 326.919 1130.28 328.062 1129.37 329.526 C 1129.94 329.811 1130.51 330.094 1131.1 330.388 C 1130.24 330.53 1129.39 330.672 1128.51 330.819 C 1128.72 328.788 1128.93 327.085 1129.81 325.219 Z" fill="#EFEEEB" style=""/>
  <path d="M 833.899 296.792 C 834.935 297.828 835.099 298.564 835.487 299.968 C 835.667 300.586 835.667 300.586 835.846 301.217 C 836.048 302.378 836.01 303.015 835.62 304.114 C 835.62 303.688 835.62 303.261 835.62 302.822 C 835.34 302.822 835.052 302.822 834.763 302.822 C 834.078 300.723 833.806 299.028 833.899 296.792 Z" fill="#F3F0EC" style=""/>
  <path d="M 898.078 387.242 C 900.14 388.766 902.155 390.32 904.107 391.981 C 903.824 392.265 903.539 392.549 903.247 392.843 C 902.383 392.073 901.521 391.301 900.663 390.528 C 900.415 390.309 900.17 390.09 899.915 389.864 C 899.286 389.295 898.68 388.701 898.078 388.104 C 898.078 387.82 898.078 387.536 898.078 387.242 Z" fill="#F2F1EE" style=""/>
  <path d="M 1150.91 237.352 C 1151.05 237.352 1151.19 237.352 1151.34 237.352 C 1151.48 239.627 1151.63 241.901 1151.77 244.244 C 1151.63 244.244 1151.49 244.244 1151.34 244.244 C 1151.2 245.239 1151.06 246.233 1150.91 247.259 C 1150.77 247.259 1150.63 247.259 1150.48 247.259 C 1150.41 243.936 1150.62 240.662 1150.91 237.352 Z" fill="#F3F1EE" style=""/>
  <path d="M 829.592 418.254 C 829.733 418.254 829.881 418.254 830.021 418.254 C 830.021 420.53 830.021 422.803 830.021 425.147 C 829.881 425.147 829.741 425.147 829.592 425.147 C 829.313 423.299 829.024 421.451 828.728 419.548 C 829.016 419.548 829.305 419.548 829.592 419.548 C 829.592 419.121 829.592 418.694 829.592 418.254 Z" fill="#F1EFED" style=""/>
  <path d="M 1066.06 415.24 C 1067.22 415.316 1068.35 415.507 1069.5 415.671 C 1069.5 415.813 1069.5 415.955 1069.5 416.101 C 1067.41 416.52 1065.43 416.583 1063.31 416.559 C 1063 416.557 1062.68 416.555 1062.35 416.553 C 1061.58 416.548 1060.8 416.54 1060.03 416.532 C 1060.03 416.39 1060.03 416.248 1060.03 416.101 C 1060.43 416.075 1060.83 416.049 1061.24 416.022 C 1062.01 415.968 1062.01 415.968 1062.8 415.913 C 1063.57 415.86 1063.57 415.86 1064.36 415.807 C 1065.58 415.81 1065.58 415.81 1066.06 415.24 Z" fill="#F0EFED" style=""/>
  <path d="M 911 412.655 C 912.855 413.33 914.472 414.242 916.168 415.24 C 915.075 415.646 914.613 415.743 913.523 415.272 C 913.223 415.075 912.923 414.877 912.615 414.675 C 912.31 414.481 912.006 414.287 911.692 414.087 C 911.464 413.899 911.235 413.711 911 413.517 C 911 413.232 911 412.949 911 412.655 Z" fill="#F1EEEB" style=""/>
  <path d="M 828.3 272.671 C 829.024 273.948 829.305 274.985 829.429 276.44 C 829.461 276.785 829.499 277.129 829.53 277.483 C 829.554 277.743 829.57 278.003 829.592 278.271 C 829.453 277.986 829.313 277.703 829.165 277.409 C 828.876 277.409 828.596 277.409 828.3 277.409 C 827.747 274.21 827.747 274.21 828.3 272.671 Z" fill="#F1F0ED" style=""/>
  <path d="M 1142.3 287.317 C 1142.78 288.016 1142.78 288.016 1143.16 289.039 C 1142.78 290.439 1142.78 290.439 1142.3 291.623 C 1142.01 291.623 1141.73 291.623 1141.43 291.623 C 1141.29 291.908 1141.15 292.192 1141 292.485 C 1141.14 291.866 1141.27 291.246 1141.41 290.628 C 1141.48 290.283 1141.56 289.938 1141.63 289.582 C 1141.87 288.608 1141.87 288.608 1142.3 287.317 Z" fill="#F1EEEC" style=""/>
  <path d="M 1148.33 260.181 C 1148.47 260.181 1148.61 260.181 1148.76 260.181 C 1148.76 262.028 1148.76 263.876 1148.76 265.78 C 1148.47 265.78 1148.19 265.78 1147.9 265.78 C 1147.75 266.206 1147.61 266.633 1147.46 267.072 C 1147.53 266.327 1147.59 265.582 1147.65 264.838 C 1147.69 264.423 1147.72 264.008 1147.76 263.581 C 1147.89 262.426 1148.08 261.315 1148.33 260.181 Z" fill="#F4F2F0" style=""/>
  <path d="M 891.186 397.58 C 893.717 399.196 893.717 399.196 894.201 400.164 C 893.267 399.947 892.479 399.733 891.617 399.303 C 891.617 399.019 891.617 398.734 891.617 398.442 C 891.333 398.3 891.049 398.157 890.755 398.011 C 890.898 397.869 891.04 397.727 891.186 397.58 Z" fill="#F0EFEC" style=""/>
  <path d="M 1140.57 292.915 C 1140.71 292.915 1140.86 292.915 1141 292.915 C 1141.15 294.052 1141.29 295.189 1141.43 296.361 C 1140.58 296.787 1140.58 296.787 1139.71 297.223 C 1140 295.801 1140.28 294.38 1140.57 292.915 Z" fill="#F2F0EE" style=""/>
  <path d="M 1190.11 243.383 C 1191.36 244.414 1191.61 245.24 1191.83 246.828 C 1191.26 246.544 1190.69 246.259 1190.11 245.967 C 1190.11 245.114 1190.11 244.261 1190.11 243.383 Z" fill="#F0EEEC" style=""/>
  <path d="M 823.126 245.536 C 823.274 245.536 823.414 245.536 823.562 245.536 C 823.562 246.815 823.562 248.095 823.562 249.412 C 823.414 249.412 823.274 249.412 823.126 249.412 C 823.126 248.133 823.126 246.854 823.126 245.536 Z" fill="#FFFFFF" style=""/>
  <path d="M 820.548 207.202 C 820.688 207.202 820.829 207.202 820.977 207.202 C 820.977 208.339 820.977 209.477 820.977 210.648 C 820.837 210.648 820.688 210.648 820.548 210.648 C 820.548 209.511 820.548 208.373 820.548 207.202 Z" fill="#FFFFFF" style=""/>
  <path d="M 820.548 180.497 C 820.688 180.497 820.829 180.497 820.977 180.497 C 820.977 181.351 820.977 182.203 820.977 183.081 C 820.837 183.081 820.688 183.081 820.548 183.081 C 820.548 182.228 820.548 181.376 820.548 180.497 Z" fill="#FFFFFF" style=""/>
  <path d="M 1167.71 301.53 C 1168.13 301.671 1168.56 301.814 1169 301.961 C 1168.57 302.103 1168.15 302.245 1167.71 302.391 C 1167.71 302.107 1167.71 301.822 1167.71 301.53 Z" fill="#FFFFFF" style=""/>
  <path d="M 824.419 256.735 C 824.567 257.303 824.707 257.872 824.855 258.458 C 824.567 258.032 824.286 257.605 823.991 257.165 C 824.13 257.023 824.271 256.882 824.419 256.735 Z" fill="#FFFFFF" style=""/>
  <path d="M 820.548 190.404 C 820.688 190.404 820.829 190.404 820.977 190.404 C 820.977 191.114 820.977 191.825 820.977 192.557 C 820.837 192.557 820.688 192.557 820.548 192.557 C 820.548 191.847 820.548 191.136 820.548 190.404 Z" fill="#FFFFFF" style=""/>
  <path d="M 899.801 414.809 C 901.523 415.24 901.523 415.24 901.523 415.24 L 899.801 414.809 Z" fill="#FFFFFF" style=""/>
  <path d="M 1141.43 322.635 C 1141.72 322.777 1142 322.919 1142.3 323.066 C 1141.87 323.066 1141.44 323.066 1141 323.066 C 1141.15 322.923 1141.29 322.782 1141.43 322.635 Z" fill="#FFFFFF" style=""/>
  <path d="M 826.579 273.964 C 826.859 274.249 827.147 274.532 827.435 274.825 C 827.015 275.038 827.015 275.038 826.579 275.256 C 826.579 274.829 826.579 274.403 826.579 273.964 Z" fill="#FFFFFF" style=""/>
  <path d="M 1209.06 248.551 C 1209.49 250.274 1209.49 250.274 1209.49 250.274 L 1209.06 248.551 Z" fill="#FFFFFF" style=""/>
  <path d="M 1156.94 229.6 C 1158.66 230.03 1158.66 230.03 1158.66 230.03 L 1156.94 229.6 Z" fill="#FFFFFF" style=""/>
  <path d="M 820.977 219.262 C 821.405 220.986 821.405 220.986 821.405 220.986 L 820.977 219.262 Z" fill="#FFFFFF" style=""/>
  <path d="M 820.548 205.048 C 820.977 206.771 820.977 206.771 820.977 206.771 L 820.548 205.048 Z" fill="#FFFFFF" style=""/>
  <path d="M 820.548 200.741 C 820.977 202.464 820.977 202.464 820.977 202.464 L 820.548 200.741 Z" fill="#FFFFFF" style=""/>
  <path d="M 889.894 414.809 C 891.186 415.24 891.186 415.24 891.186 415.24 L 889.894 414.809 Z" fill="#FFFFFF" style=""/>
  <path d="M 1143.59 414.378 C 1144.88 414.81 1144.88 414.81 1144.88 414.81 L 1143.59 414.378 Z" fill="#FFFFFF" style=""/>
  <path d="M 897.216 404.472 C 897.501 404.756 897.785 405.04 898.078 405.333 C 897.793 405.333 897.509 405.333 897.216 405.333 C 897.216 405.049 897.216 404.765 897.216 404.472 Z" fill="#FFFFFF" style=""/>
  <path d="M 854.575 353.647 C 855.003 353.86 855.003 353.86 855.439 354.077 C 855.011 354.291 855.011 354.291 854.575 354.508 C 854.575 354.225 854.575 353.94 854.575 353.647 Z" fill="#FFFFFF" style=""/>
  <path fill="#FFFFFF"/>
  <path d="M 833.471 301.53 C 833.751 301.53 834.039 301.53 834.328 301.53 C 834.187 301.814 834.047 302.098 833.899 302.391 C 833.759 302.107 833.619 301.822 833.471 301.53 Z" fill="#FFFFFF" style=""/>
  <path fill="#FFFFFF"/>
  <path d="M 1175.03 232.614 C 1175.17 232.899 1175.32 233.182 1175.46 233.476 C 1175.18 233.333 1174.89 233.191 1174.6 233.045 C 1174.74 232.904 1174.88 232.76 1175.03 232.614 Z" fill="#FFFFFF" style=""/>
  <path d="M 820.977 215.385 C 821.117 215.67 821.257 215.954 821.405 216.247 C 821.125 216.105 820.837 215.963 820.548 215.817 C 820.688 215.674 820.829 215.532 820.977 215.385 Z" fill="#FFFFFF" style=""/>
  <path d="M 1160.82 211.079 C 1162.11 211.509 1162.11 211.509 1162.11 211.509 L 1160.82 211.079 Z" fill="#FFFFFF" style=""/>
  <path fill="#FFFFFF"/>
  <path d="M 840.791 436.775 C 841.656 437.207 841.656 437.207 841.656 437.207 L 840.791 436.775 Z" fill="#FFFFFF" style=""/>
  <path fill="#D4D4D4"/>
  <path fill="#FFFFD4"/>
  <path d="M 893.77 414.809 C 894.632 415.24 894.632 415.24 894.632 415.24 L 893.77 414.809 Z" fill="#FFFFFF" style=""/>
  <path d="M 866.638 414.809 C 867.497 415.24 867.497 415.24 867.497 415.24 L 866.638 414.809 Z" fill="#FFFFFF" style=""/>
  <path d="M 855.867 414.809 C 856.732 415.24 856.732 415.24 856.732 415.24 L 855.867 414.809 Z" fill="#FFFFFF" style=""/>
  <path d="M 1137.56 414.378 C 1138.42 414.81 1138.42 414.81 1138.42 414.81 L 1137.56 414.378 Z" fill="#FFFFFF" style=""/>
  <path d="M 1133.68 414.378 C 1134.54 414.81 1134.54 414.81 1134.54 414.81 L 1133.68 414.378 Z" fill="#FFFFFF" style=""/>
  <path d="M 833.899 414.378 C 834.763 414.81 834.763 414.81 834.763 414.81 L 833.899 414.378 Z" fill="#FFFFFF" style=""/>
  <path d="M 830.885 414.378 C 831.749 414.81 831.749 414.81 831.749 414.81 L 830.885 414.378 Z" fill="#FFFFFF" style=""/>
  <path d="M 1068.21 413.086 C 1069.07 413.517 1069.07 413.517 1069.07 413.517 L 1068.21 413.086 Z" fill="#FFFFFF" style=""/>
  <path d="M 883.433 392.843 C 884.295 393.273 884.295 393.273 884.295 393.273 L 883.433 392.843 Z" fill="#FFFFFF" style=""/>
  <path fill="#FFFFFF"/>
  <path d="M 861.467 364.414 C 862.331 364.845 862.331 364.845 862.331 364.845 L 861.467 364.414 Z" fill="#FFFFFF" style=""/>
  <path fill="#FFFFFF"/>
  <path fill="#FFFFFF"/>
  <path fill="#FFFFFF"/>
  <path fill="#FFFFFF"/>
  <path fill="#FFFFFF"/>
  <path fill="#FFFFFF"/>
  <path fill="#FFFFFF"/>
  <path fill="#FFFFFF"/>
  <path fill="#FFFFFF"/>
  <path fill="#FFFFFF"/>
  <path fill="#FFFFFF"/>
  <path d="M 830.885 292.485 C 831.749 292.915 831.749 292.915 831.749 292.915 L 830.885 292.485 Z" fill="#FFFFFF" style=""/>
  <path fill="#FFFFFF"/>
  <path fill="#FFFFFF"/>
  <path fill="#EDEDED"/>
  <path fill="#FFFFFF"/>
  <path fill="#FFFFFF"/>
  <path fill="#FFFFFF"/>
  <path fill="#FFFFFF"/>
  <path fill="#FFFFFF"/>
  <path fill="#FFFFFF"/>
  <path fill="#FFFFFF"/>
  <path fill="#FFFFFF"/>
  <path fill="#FFFFFF"/>
  <path fill="#FFFFFF"/>
  <path fill="#FFFFFF"/>
  <path d="M 1187.95 244.674 C 1188.81 245.105 1188.81 245.105 1188.81 245.105 L 1187.95 244.674 Z" fill="#FFFFFF" style=""/>
  <path d="M 1187.52 243.814 C 1188.38 244.244 1188.38 244.244 1188.38 244.244 L 1187.52 243.814 Z" fill="#FFFFFF" style=""/>
  <path fill="#FFFFFF"/>
  <path d="M 1163.83 230.03 C 1164.69 230.461 1164.69 230.461 1164.69 230.461 L 1163.83 230.03 Z" fill="#FFFFFF" style=""/>
  <path d="M 1154.36 229.6 C 1155.22 230.03 1155.22 230.03 1155.22 230.03 L 1154.36 229.6 Z" fill="#FFFFFF" style=""/>
  <path fill="#FFFFFF"/>
  <path d="M 1159.09 211.079 C 1159.95 211.509 1159.95 211.509 1159.95 211.509 L 1159.09 211.079 Z" fill="#FFFFFF" style=""/>
  <path fill="#FFFFFF"/>
  <path fill="#FFFFFF"/>
  <path fill="#FFFFFF"/>
  <path fill="#FFFFFF"/>
  <path fill="#FFFFFF"/>
  <path fill="#FFFFFF"/>
  <path fill="#FFFFFF"/>
  <path fill="#FFFFFF"/>
  <path fill="#FFFFFF"/>
  <path fill="#FFFFFF"/>
  <path fill="#FFFFAA"/>
  <path fill="#FFFFFF"/>
  <path fill="#BFBFBF"/>
  <path fill="#FFFFFF"/>
  <path fill="#FFFFFF"/>
  <path fill="#FFFFFF"/>
  <path fill="#FFFFFF"/>
  <path fill="#FFAAAA"/>
  <path fill="#FFFFFF"/>
  <path fill="#FFFFFF"/>
  <path fill="#FFFFFF"/>
  <path fill="#FFFFFF"/>
  <path fill="#FFFFFF"/>
  <path fill="#FFFFFF"/>
  <path fill="#FFFFFF"/>
  <path fill="#FFFFFF"/>
  <path fill="#FFFFFF"/>
  <path fill="#FFFFFF"/>
  <path fill="#FFFFFF"/>
  <path fill="#FFFFFF"/>
  <path fill="#FFFFFF"/>
  <path fill="#FFFFFF"/>
  <path fill="#FFFFFF"/>
  <path fill="#FFFFFF"/>
  <path fill="#FFFFFF"/>
  <path fill="#FFFFFF"/>
  <path fill="#FFFFFF"/>
  <path fill="#FFFFFF"/>
  <path fill="#FFFFFF"/>
  <path fill="#FFFFFF"/>
  <path fill="#FFFFFF"/>
  <path fill="#FFFFFF"/>
  <path fill="#FFFFFF"/>
  <path fill="#FFFFFF"/>
  <path fill="#FFFFFF"/>
  <path fill="#FFFFFF"/>
  <path fill="#FFFFFF"/>
  <path fill="#FFFFFF"/>
  <path fill="#FFFFFF"/>
  <path fill="#FFFFFF"/>
  <path fill="#FFFFFF"/>
  <path fill="#FFFFFF"/>
  <path fill="#FFFFFF"/>
  <path fill="#FFFFFF"/>
  <path fill="#FFFFFF"/>
  <path fill="#FFFFFF"/>
  <path fill="#FFFFFF"/>
  <path fill="#FFFFFF"/>
  <path fill="#FFFFFF"/>
  <path fill="#FFFFFF"/>
  <path fill="#FFFFFF"/>
  <path fill="#FFFFFF"/>
  <path fill="#FFFFFF"/>
  <path fill="#FFFFFF"/>
  <path fill="#FFFFFF"/>
  <path fill="#FFFFFF"/>
  <path fill="#FFFFFF"/>
  <path fill="#FFFFFF"/>
  <path fill="#FFFFFF"/>
  <path fill="#FFFFFF"/>
  <path fill="#FFFFFF"/>
  <path fill="#FFFFFF"/>
  <path fill="#FFFFFF"/>
  <path fill="#FFFFFF"/>
  <path fill="#FFFFFF"/>
  <path fill="#FFFFFF"/>
  <path fill="#FFFFFF"/>
  <path fill="#FFFFFF"/>
  <path fill="#FFFFFF"/>
  <path fill="#FFD5D5"/>
  <path fill="#FFFFFF"/>
  <path fill="#FFFFFF"/>
  <path fill="#FFFFFF"/>
  <path fill="#FFFFFF"/>
  <path fill="#FFFFFF"/>
  <path fill="#FFFFFF"/>
  <path fill="#D5D5D5"/>
  <path fill="#FFFFFF"/>
  <path fill="#FFFFFF"/>
  <path fill="#FFFFFF"/>
  <path fill="#FFFFFF"/>
  <path fill="#FFFFFF"/>
  <path fill="#FFFFFF"/>
  <path fill="#FFFFFF"/>
  <path fill="#D5D5D5"/>
  <path fill="#FFFFFF"/>
  <path fill="#FFFFFF"/>
  <path fill="#FFFFFF"/>
  <path fill="#FFFFFF"/>
  <path fill="#FFFFFF"/>
  <path fill="#FFFFFF"/>
  <path fill="#FFFFFF"/>
  <path fill="#FFFFFF"/>
  <path fill="#FFFFCC"/>
  <path fill="#FFFFFF"/>
  <path fill="#FFFFFF"/>
  <path fill="#FFFFFF"/>
  <path fill="#FFFFFF"/>
  <path fill="#FFFFFF"/>
  <path fill="#FFFFFF"/>
  <path fill="#FFFFFF"/>
  <path fill="#FFFFFF"/>
  <path fill="#FFFFFF"/>
  <path fill="#FFFFFF"/>
  <path fill="#FFFFFF"/>
  <path fill="#FFFFFF"/>
  <path fill="#FFFFFF"/>
  <path fill="#FFFFFF"/>
  <path fill="#FFFFFF"/>
  <path fill="#FFFFFF"/>
  <path fill="#FFFFFF"/>
  <path fill="#FFFFFF"/>
  <path fill="#FFFFFF"/>
  <path fill="#FFFFFF"/>
  <path fill="#FFFFFF"/>
  <path fill="#FFFFFF"/>
  <path fill="#FFFFFF"/>
  <path fill="#FFFFFF"/>
  <path fill="#FFFFFF"/>
  <path fill="#FFFFFF"/>
  <path fill="#FFFFFF"/>
  <path fill="#FFFFFF"/>
  <path fill="#FFFFFF"/>
  <path fill="#FFFFFF"/>
  <path fill="#FFFFFF"/>
  <path fill="#FFFFFF"/>
  <path fill="#FFFFFF"/>
  <path fill="#FFFFFF"/>
  <path fill="#FFFFFF"/>
  <path fill="#FFFFFF"/>
  <path fill="#FFFFFF"/>
  <path fill="#FFFFFF"/>
  <path fill="#FFFFFF"/>
  <path fill="#FFFFFF"/>
  <path fill="#FFFFFF"/>
  <path fill="#FFFFFF"/>
  <path fill="#FFFFFF"/>
  <path fill="#FFFFFF"/>
  <path fill="#D5D5D5"/>
  <path fill="#FFFFFF"/>
  <path fill="#FFFFFF"/>
  <path fill="#FFFFFF"/>
  <path fill="#FFFFFF"/>
  <path fill="#FFFFFF"/>
  <path fill="#FFFFFF"/>
  <path fill="#FFFFFF"/>
  <path fill="#FFFFFF"/>
  <path fill="#FFFFFF"/>
  <path fill="#FFFFFF"/>
  <path fill="#FFFFFF"/>
  <path fill="#FFFFFF"/>
  <path fill="#FFFFFF"/>
  <path fill="#FFFFFF"/>
  <path fill="#FFFFFF"/>
  <path fill="#FFFFFF"/>
  <path fill="#FFFFFF"/>
  <path fill="#FFFFFF"/>
  <path fill="#FFFFFF"/>
  <path fill="#FFFFFF"/>
  <path fill="#FFFFFF"/>
  <path fill="#FFFFFF"/>
  <path fill="#FFFFCC"/>
  <path fill="#FFFFFF"/>
  <path fill="#FFFFFF"/>
  <path fill="#FFFFFF"/>
  <path fill="#FFFFFF"/>
  <path fill="#FFFFFF"/>
  <path fill="#FFFFFF"/>
  <path fill="#FFFFFF"/>
  <path fill="#FFFFFF"/>
  <path fill="#FFFFFF"/>
  <path fill="#FFFFFF"/>
  <path fill="#FFFFFF"/>
  <path fill="#FFFFFF"/>
  <path fill="#FFFFFF"/>
  <path fill="#FFFFFF"/>
  <path fill="#FFFFFF"/>
  <path fill="#FFFFFF"/>
  <path fill="#FFFFFF"/>
  <path fill="#DBDBDB"/>
  <path fill="#FFFFFF"/>
  <path fill="#FFFFFF"/>
  <path fill="#FFFFFF"/>
  <path fill="#FFFFFF"/>
  <path fill="#FFFFFF"/>
  <path fill="#FFFFFF"/>
  <path fill="#FFFFFF"/>
  <path fill="#FFCCCC"/>
  <path fill="#FFFFFF"/>
  <path fill="#FFFFFF"/>
  <path fill="#FFFFFF"/>
  <path fill="#FFFFFF"/>
  <path fill="#FFFFFF"/>
  <path fill="#FFFFFF"/>
  <path fill="#FFFFFF"/>
  <path fill="#FFFFFF"/>
  <path fill="#FFFFFF"/>
  <path fill="#FFFFFF"/>
  <path fill="#FFFFFF"/>
  <path fill="#FFFFFF"/>
  <path fill="#FFFFFF"/>
  <path fill="#FFFFFF"/>
  <path fill="#FFFFFF"/>
  <path fill="#FFFFFF"/>
  <path fill="#FFFFFF"/>
  <path fill="#FFFFFF"/>
  <path fill="#FFFFFF"/>
  <path fill="#FFFFFF"/>
  <path fill="#FFFFFF"/>
  <path fill="#FFFFFF"/>
  <path fill="#FFFFFF"/>
  <path fill="#FFFFFF"/>
  <path fill="#FFFFFF"/>
  <path fill="#FFFFFF"/>
  <path fill="#FFFFFF"/>
  <path fill="#FFFFFF"/>
  <path fill="#FFFFFF"/>
  <path fill="#FFFFFF"/>
  <path fill="#FFFFFF"/>
  <path fill="#FFFFFF"/>
  <path fill="#FFFFFF"/>
  <path fill="#FFFFFF"/>
  <path fill="#FFFFFF"/>
  <path fill="#FFFFFF"/>
  <path fill="#FFFFFF"/>
  <path fill="#FFFFFF"/>
  <path fill="#FFFFFF"/>
  <path fill="#FFFFFF"/>
  <path fill="#FFFFFF"/>
  <path fill="#FFFFFF"/>
  <path fill="#FFFFFF"/>
  <path fill="#FFFFFF"/>
  <path fill="#FFFFFF"/>
  <path fill="#FFFFFF"/>
  <path fill="#FFFFFF"/>
  <path fill="#FFFFFF"/>
  <path fill="#FFFFFF"/>
  <path fill="#FFFFFF"/>
  <path fill="#FFFFFF"/>
  <path fill="#FFFFFF"/>
  <path fill="#FFFFFF"/>
  <path fill="#FFFFFF"/>
  <path fill="#FFFFFF"/>
  <path fill="#FFFFFF"/>
  <path fill="#FFFFFF"/>
  <path fill="#FFFFFF"/>
  <path fill="#FFFFFF"/>
  <path fill="#FFFFFF"/>
  <path fill="#FFFFFF"/>
  <path fill="#FFFFFF"/>
  <path fill="#FFFFFF"/>
  <path fill="#FFFFFF"/>
  <path fill="#FFFFFF"/>
  <path fill="#CCCCCC"/>
  <path fill="#FFFFFF"/>
  <path fill="#FFFFFF"/>
  <path fill="#FFFFFF"/>
  <path fill="#FFFFFF"/>
  <path fill="#FFFFFF"/>
  <path fill="#FFFFFF"/>
  <path fill="#FFFFFF"/>
  <path fill="#FFFFFF"/>
  <path fill="#FFFFFF"/>
  <path fill="#FFFFFF"/>
  <path fill="#FFFFFF"/>
  <path fill="#FFFFFF"/>
  <path fill="#FFFFFF"/>
  <path fill="#FFFFFF"/>
  <path fill="#FFFFFF"/>
  <path fill="#FFFFFF"/>
  <path fill="#FFFFFF"/>
  <path fill="#FFFFFF"/>
  <path fill="#FFFFFF"/>
  <path fill="#FFFFFF"/>
  <path fill="#FED8B2" fill-rule="nonzero" paint-order="stroke markers" d="M 838.194 194.85 L 1138.36 194.636 C 1142.09 195.016 1128.99 310.068 1122.32 309.371 L 852.695 309.523 C 845.259 311.022 831.228 196.247 838.194 194.85 Z" style=""/>
  <path d="M 259.416 18.931 C 261.064 19.653 262.713 20.142 264.416 20.651 C 270.682 22.798 276.217 26.885 281.544 31.082 C 281.883 31.339 282.21 31.605 282.549 31.87 C 284.252 33.261 285.256 34.376 286.086 36.533 C 287.232 37.044 287.232 37.044 288.324 37.172 C 288.324 37.576 288.324 37.989 288.324 38.436 C 288.64 38.573 288.946 38.702 289.274 38.85 C 290.911 39.902 291.948 41.23 293.204 42.825 C 293.651 43.367 294.099 43.94 294.557 44.503 C 295.584 45.948 295.584 45.948 295.584 47.213 C 296.14 47.415 296.686 47.628 297.254 47.851 C 298.237 49.148 298.237 49.148 299.252 50.783 C 299.754 51.581 299.754 51.581 300.267 52.399 C 301.206 54.185 301.763 55.894 302.287 57.882 C 302.876 57.903 303.466 57.934 304.077 57.956 C 312.003 58.338 312.003 58.338 315.682 60.4 C 316.697 60.91 317.712 61.419 318.728 61.931 C 319.241 62.196 319.754 62.462 320.289 62.737 C 322.472 63.863 324.656 64.948 326.861 66.042 C 326.861 66.457 326.861 66.87 326.861 67.296 C 327.232 67.456 327.614 67.605 328.007 67.774 C 329.961 68.71 331.73 69.857 333.564 71.068 C 333.564 71.482 333.564 71.897 333.564 72.322 C 333.946 72.45 334.328 72.577 334.721 72.705 C 336.916 73.885 338.335 75.564 340.016 77.497 C 340.333 77.848 340.649 78.199 340.977 78.571 C 342.865 80.728 344.405 82.917 345.846 85.499 C 346.315 86.274 346.315 86.274 346.795 87.06 C 347.079 87.528 347.363 87.996 347.658 88.486 C 347.953 88.963 348.236 89.441 348.542 89.929 C 349.197 91.152 349.197 91.152 349.197 92.406 C 349.754 92.619 350.3 92.821 350.867 93.033 C 353.891 100.279 356.283 125.564 356.752 133.512 C 360.802 133.714 364.887 133.247 369.057 133.46 C 369.133 135.011 368.924 132.349 369.001 133.868 C 369.022 134.367 369.055 134.856 369.077 135.367 C 369.208 137.969 369.383 140.562 369.634 143.155 C 369.972 147.001 369.787 150.808 369.612 154.665 C 369.59 155.389 369.557 156.1 369.525 156.845 C 369.459 158.587 369.383 160.34 369.306 162.083 C 369.896 162.03 38.525 163.711 38.325 160.746 C 37.74 150.959 37.059 134.992 37.616 131.825 C 42.589 131.825 48.272 131.355 53.396 131.355 C 53.453 129.973 54.99 114.115 55.054 112.691 C 55.869 103.053 61.673 92.81 67.166 85.499 C 67.536 85.499 67.904 85.499 68.282 85.499 C 68.405 85.148 68.528 84.808 68.659 84.447 C 69.606 82.587 70.835 81.355 72.187 79.856 C 72.649 79.315 73.112 78.773 73.586 78.21 C 77.368 73.831 81.283 69.72 86.188 66.967 C 87.797 66.138 87.797 66.138 88.911 65.087 C 90.48 63.822 92.108 63.28 93.931 62.589 C 96.712 61.548 96.712 61.548 99.302 60.049 C 106.6 55.215 117.785 56.214 125.803 57.882 C 126.816 58.18 127.827 58.487 128.84 58.786 C 130.912 59.285 131.871 59.093 133.656 57.807 C 134.392 57.202 135.123 56.607 135.855 56.001 C 140.435 52.995 145.801 52.145 150.935 50.975 C 150.935 50.773 150.935 50.561 150.935 50.348 C 152.528 50.21 154.123 50.082 155.717 49.955 C 156.164 49.923 156.611 49.88 157.07 49.839 C 159.957 49.626 162.118 49.955 164.896 50.975 C 165.825 51.231 166.755 51.464 167.688 51.697 C 168.183 51.825 168.68 51.952 169.191 52.081 C 170.212 52.334 171.233 52.59 172.254 52.846 C 175.492 53.674 178.18 54.831 181.093 56.628 C 182.433 54.822 183.59 53.133 184.443 50.975 C 184.812 50.975 185.181 50.975 185.561 50.975 C 185.751 50.496 185.751 50.496 185.945 49.997 C 188.046 45.609 191.038 41.189 195.157 39.041 C 196.369 38.468 196.369 38.468 196.73 36.533 C 197.099 36.533 197.467 36.533 197.847 36.533 C 198.031 35.918 198.216 35.301 198.406 34.653 C 200.659 31.891 203.516 29.956 206.382 28.109 C 207.418 27.439 208.442 26.747 209.453 26.025 C 213.145 23.444 216.839 21.726 220.966 20.311 C 222.734 19.695 224.437 18.983 226.151 18.23 C 236.261 14.127 249.448 14.457 259.416 18.931 Z M 60.249 146.12 C 60.24 149.583 54.29 143.9 54.29 147.365 C 54.279 148.544 54.279 149.725 54.279 150.905 C 54.271 152.594 192.147 159.451 192.147 161.151 C 192.147 161.671 38.49 161.73 38.48 162.273 C 38.415 164.928 53.242 141.914 53.932 144.389 C 53.577 139.539 354.274 149.098 354.219 139.489 C 353.859 139.489 353.488 139.489 353.105 139.489 C 353.105 141.348 353.105 143.209 353.105 145.132 C 254.874 145.132 156.643 145.132 55.433 145.132 C 55.433 142.444 55.433 139.743 55.433 136.972 C 55.064 136.972 60.626 146.12 60.249 146.12 Z" fill="#FEF0D5" style=""/>
  <path d="M 834.596 32.344 C 834.9 32.344 835.204 32.344 835.515 32.344 C 835.515 34.925 835.515 37.506 835.515 40.165 C 835.367 40.165 835.211 40.165 835.056 40.165 C 834.908 38.798 834.752 37.432 834.596 36.024 C 834.448 36.024 834.292 36.024 834.137 36.024 C 834.113 34.951 834.121 33.878 834.137 32.803 C 834.285 32.652 834.44 32.501 834.596 32.344 Z" fill="#D6D4D3" style=""/>
  <path d="M 1002.09 -62.393 C 1003.5 -62.393 1004.92 -62.393 1006.38 -62.393 C 1005.91 -62.158 1005.91 -62.158 1005.43 -61.916 C 1005.43 -61.601 1005.43 -61.286 1005.43 -60.962 C 1004.32 -60.962 1003.22 -60.962 1002.09 -60.962 C 1002.09 -61.431 1002.09 -61.908 1002.09 -62.393 Z" fill="#9F8D7D"/>
  <path fill="#FFFFFF"/>
  <path d="M 1036.54 211.289 C 1037.46 211.749 1037.46 211.749 1037.46 211.749 L 1036.54 211.289 Z" fill="#FFFFFF" style=""/>
  <path fill="#FFFFFF"/>
  <path d="M 1130.84 106.866 C 1131.76 107.326 1131.76 107.326 1131.76 107.326 L 1130.84 106.866 Z" fill="#000000" style=""/>
  <path fill="#000000"/>
  <path d="M 1021.66 -61.916 C 1022.61 -61.439 1022.61 -61.439 1022.61 -61.439 L 1021.66 -61.916 Z" fill="#000000"/>
  <path fill="#FFFFFF"/>
  <path fill="#FFFFFF"/>
  <path fill="#FFFFFF"/>
  <path fill="#FFFFFF"/>
  <path fill="#000000"/>
  <path fill="#FFFFFF"/>
  <path fill="#FFFFFF"/>
  <path fill="#FFFFFF"/>
  <path fill="#000000"/>
  <path fill="#FFFFFF"/>
  <path fill="#FFFFFF"/>
  <path fill="#FFFFFF"/>
  <path fill="#000000"/>
  <path fill="#FFFFFF"/>
  <path fill="#FFFFFF"/>
  <path fill="#000000"/>
  <path fill="#FFFFFF"/>
  <path fill="#000000"/>
  <path fill="#000000"/>
  <path fill="#FFFFFF"/>
  <path fill="#000000"/>
  <path fill="#FFFFFF"/>
  <path fill="#FFFFFF"/>
  <path fill="#000000"/>
  <path fill="#000000"/>
  <path fill="#000000"/>
  <path fill="#FFFFFF"/>
  <path fill="#FFFFFF"/>
  <path fill="#000000"/>
  <path fill="#FFFFFF"/>
  <path fill="#FFFFFF"/>
  <path fill="#000000"/>
  <path fill="#FFFFFF"/>
  <path fill="#000000"/>
  <path fill="#FFFFFF"/>
  <path fill="#FFFFFF"/>
  <path fill="#FFFFFF"/>
  <path fill="#FFFFFF"/>
</svg>