<?xml version="1.0" encoding="utf-8"?>
<svg xmlns="http://www.w3.org/2000/svg" viewBox="0 0 500 500">
  <path d="M 53.706 272.272 C 164.727 272.272 275.743 272.272 390.128 272.272 C 379.277 304.821 364.015 335.631 340.401 360.86 C 338.682 362.7 337.036 364.6 335.404 366.516 C 334.591 367.325 334.591 367.325 333.522 367.325 C 333.522 367.677 333.522 368.029 333.522 368.392 C 332.794 369.127 332.794 369.127 331.754 369.994 C 329.953 371.521 328.209 373.091 326.481 374.701 C 323.281 377.61 319.912 380.247 316.435 382.811 C 315.933 383.185 315.933 383.185 315.421 383.566 C 300.993 394.268 287.375 401.22 269.268 401.191 C 268.128 401.195 266.99 401.2 265.851 401.205 C 262.773 401.217 259.696 401.219 256.618 401.217 C 254.042 401.217 251.465 401.221 248.888 401.226 C 242.804 401.238 236.72 401.239 230.637 401.235 C 224.379 401.23 218.121 401.243 211.862 401.263 C 206.473 401.279 201.083 401.285 195.693 401.283 C 192.482 401.282 189.269 401.285 186.058 401.297 C 183.035 401.31 180.014 401.309 176.992 401.297 C 175.888 401.296 174.785 401.299 173.683 401.306 C 151.579 401.45 131.008 387.213 115.229 372.678 C 114.188 371.724 113.119 370.807 112.046 369.895 C 107.144 365.61 102.59 360.944 98.557 355.835 C 97.58 354.616 96.555 353.48 95.492 352.34 C 92.074 348.535 89.206 344.271 86.28 340.09 C 85.927 339.596 85.927 339.596 85.57 339.093 C 74.767 323.746 53.706 292.341 53.706 272.272 Z" fill="#594223" style=""/>
  <path d="M 41.443 226.375 C 223.567 226.64 213.312 225.825 399.12 226.094 C 399.139 230.366 405.46 197.51 404.929 198.578 C 404.828 199.301 404.752 200.028 404.692 200.755 C 404.652 201.196 404.613 201.636 404.572 202.092 C 404.533 202.561 404.493 203.033 404.451 203.517 C 403.341 215.794 403.341 215.794 402.345 217.802 C 402.204 219.065 402.118 220.327 402.031 221.594 C 401.829 223.191 401.453 224.703 401.055 226.259 C 400.588 228.258 400.326 230.288 400.04 232.32 C 399.434 236.435 398.632 240.459 397.657 244.503 C 397.469 245.382 397.284 246.26 397.101 247.139 C 396.816 248.471 396.485 249.682 396.051 250.977 C 395.501 252.529 395.501 252.529 395.33 254.283 C 395.039 256.251 395.039 256.251 393.458 261.057 C 392.593 264.582 391.728 268.106 390.836 271.736 C 279.641 271.913 168.447 272.09 53.882 272.272 C 50.032 260.254 50.032 260.254 48.496 254.549 C 48.311 253.882 48.132 253.216 47.948 252.53 C 46.02 245.319 44.418 238.037 42.848 230.741 C 42.531 229.282 42.198 227.827 41.856 226.374 C 41.387 224.328 41.107 222.289 40.867 220.205 C 40.501 217.157 40.029 214.145 39.46 211.127 C 38.897 208.12 38.393 205.114 37.983 202.083 C 37.895 201.433 37.807 200.784 37.719 200.116 C 37.494 197.653 41.454 228.846 41.443 226.375 Z" fill="#FED8B2" style=""/>
  <path d="M 35.549 97.651 C 158.553 97.651 281.553 97.651 408.284 97.651 C 408.721 99.398 408.881 100.576 408.871 102.332 C 408.869 102.807 408.867 103.282 408.866 103.771 C 408.861 104.262 408.856 104.754 408.851 105.261 C 408.849 105.76 408.846 106.259 408.844 106.775 C 408.838 108.005 408.829 109.235 408.819 110.467 C 408.642 110.467 408.466 110.467 408.284 110.467 C 408.108 107.824 407.932 105.18 407.751 102.456 C 407.573 104.043 407.397 105.629 407.216 107.262 C 407.04 107.262 406.864 107.262 406.682 107.262 C 406.682 104.267 406.682 101.271 406.682 98.185 C 284.208 98.185 161.73 98.185 35.549 98.185 C 35.549 98.008 35.549 97.832 35.549 97.651 Z" fill="#FDF0D6" style=""/>
  <path d="M 16.325 124.885 C 16.496 124.885 16.673 124.885 16.859 124.885 C 17.254 132.378 17.516 139.866 17.661 147.368 C 17.692 149.02 17.724 150.671 17.762 152.322 C 17.889 158.664 17.954 165.002 17.927 171.344 C 17.746 171.344 17.57 171.344 17.393 171.344 C 17.393 169.934 17.393 168.524 17.393 167.071 C 17.035 167.071 16.688 167.071 16.325 167.071 C 16.309 166.708 16.299 166.344 16.294 165.97 C 16.24 164.323 16.181 162.677 16.122 161.032 C 16.106 160.458 16.09 159.886 16.074 159.296 C 16.053 158.747 16.032 158.199 16.01 157.632 C 15.994 157.126 15.978 156.621 15.957 156.099 C 15.872 154.654 15.872 154.654 14.723 153.187 C 15.514 152.923 15.514 152.923 16.325 152.654 C 15.797 152.654 15.263 152.654 14.723 152.654 C 14.803 152.351 14.884 152.049 14.969 151.737 C 16.271 146.16 15.957 140.096 16.09 134.397 C 16.111 133.472 16.134 132.546 16.159 131.621 C 16.213 129.376 16.271 127.13 16.325 124.885 Z" fill="#F1EFED" style=""/>
  <path d="M 16.859 101.389 C 17.03 101.389 17.206 101.389 17.393 101.389 C 17.393 106.499 17.393 111.61 17.393 116.874 C 17.212 116.874 17.035 116.874 16.859 116.874 C 16.779 116.291 16.704 115.708 16.624 115.106 C 16.384 113.174 16.384 113.174 15.791 111.535 C 15.434 111.535 15.087 111.535 14.723 111.535 C 14.894 111.183 15.07 110.83 15.258 110.467 C 15.605 110.644 15.963 110.819 16.325 111.001 C 15.968 110.649 15.62 110.296 15.258 109.933 C 15.075 109.58 14.899 109.228 14.723 108.865 C 15.251 108.865 15.776 108.865 16.325 108.865 C 16.325 108.337 16.325 107.808 16.325 107.262 C 15.797 107.087 15.263 106.91 14.723 106.729 C 14.894 105.495 15.07 104.262 15.258 102.991 C 15.429 102.991 15.605 102.991 15.791 102.991 C 15.963 103.872 16.138 104.753 16.325 105.66 C 16.496 104.251 16.673 102.842 16.859 101.389 Z" fill="#F4F2F1" style=""/>
  <path d="M 31.107 403.57 C 31.48 403.568 31.849 403.566 32.234 403.565 C 34.637 403.569 36.917 403.779 39.288 404.171 C 39.288 404.348 39.288 404.523 39.288 404.705 C 35.054 404.705 30.824 404.705 26.471 404.705 C 27.177 405.057 27.876 405.409 28.607 405.774 C 27.87 406.574 27.87 406.574 27.006 407.375 C 26.647 407.375 26.301 407.375 25.937 407.375 C 25.756 407.904 25.579 408.433 25.404 408.977 C 25.463 408.187 25.531 407.397 25.601 406.607 C 25.639 406.168 25.675 405.727 25.713 405.275 C 25.787 404.91 25.857 404.546 25.937 404.171 C 27.582 403.348 29.306 403.561 31.107 403.57 Z" fill="#E0DEDC" style=""/>
  <path d="M 20.598 201.248 C 20.769 201.248 20.944 201.248 21.131 201.248 C 21.398 203.039 21.665 204.831 21.932 206.622 C 22.007 207.124 22.082 207.628 22.162 208.147 C 22.558 210.864 22.824 213.454 22.733 216.2 C 22.552 215.671 22.376 215.143 22.2 214.599 C 21.841 214.599 21.494 214.599 21.131 214.599 C 19.802 205.676 19.802 205.676 20.598 201.248 Z" fill="#F2F0EC" style=""/>
  <path d="M 19.529 187.365 C 20.753 196.286 20.753 196.286 20.598 200.715 C 20.416 200.715 20.24 200.715 20.064 200.715 C 19.881 199.833 19.705 198.952 19.529 198.045 C 19.347 198.045 19.171 198.045 18.995 198.045 C 18.637 194.696 18.291 191.348 17.927 187.898 C 18.995 187.365 18.995 187.365 19.529 187.365 Z" fill="#EFEDEB" style=""/>
  <path d="M 425.373 109.399 C 425.548 109.399 425.725 109.399 425.906 109.399 C 425.938 109.869 425.97 110.339 426.005 110.824 C 426.049 111.444 426.094 112.064 426.139 112.703 C 426.183 113.316 426.227 113.93 426.271 114.561 C 426.403 116.286 426.403 116.286 426.724 117.743 C 426.983 119.057 427.029 120.244 427.008 121.58 C 427.003 122.003 426.998 122.425 426.993 122.86 C 426.987 123.176 426.981 123.492 426.975 123.816 C 426.622 123.993 426.269 124.169 425.906 124.352 C 425.34 122.654 425.311 121.454 425.32 119.672 C 425.322 119.075 425.323 118.478 425.326 117.863 C 425.33 117.24 425.335 116.616 425.339 115.975 C 425.342 115.029 425.342 115.029 425.346 114.067 C 425.353 112.511 425.361 110.954 425.373 109.399 Z" fill="#F1EFEC" style=""/>
  <path d="M 494.259 193.772 C 497.951 198.198 496.243 205.477 495.862 210.861 C 495.685 210.861 495.509 210.861 495.328 210.861 C 495.147 208.613 494.97 206.366 494.793 204.118 C 494.742 203.483 494.692 202.848 494.639 202.193 C 494.59 201.577 494.542 200.961 494.494 200.325 C 494.448 199.762 494.404 199.196 494.357 198.614 C 494.26 196.995 494.243 195.393 494.259 193.772 Z" fill="#F2EFED" style=""/>
  <path d="M 345.27 353.974 C 345.27 355.807 345.1 355.96 343.908 357.233 C 343.481 357.69 343.481 357.69 343.046 358.159 C 342.744 358.474 342.443 358.789 342.134 359.114 C 341.689 359.593 341.689 359.593 341.234 360.082 C 339.022 362.439 339.022 362.439 337.795 363.052 C 338.7 361.04 339.933 359.698 341.456 358.13 C 342.202 357.198 342.202 357.198 341.894 355.993 C 341.715 355.523 341.715 355.523 341.533 355.042 C 341.952 355.064 342.37 355.087 342.802 355.109 C 344.289 355.195 344.289 355.195 345.27 353.974 Z" fill="#2B1B0D" style=""/>
  <path d="M 408.284 169.208 C 408.807 170.903 408.819 172.246 408.636 174.005 C 408.586 174.505 408.537 175.004 408.486 175.518 C 408.402 176.294 408.402 176.294 408.318 177.085 C 408.264 177.609 408.21 178.134 408.155 178.676 C 408.024 179.971 407.889 181.264 407.751 182.558 C 407.573 182.558 407.397 182.558 407.216 182.558 C 407.185 180.633 407.166 178.708 407.15 176.784 C 407.14 176.237 407.131 175.69 407.122 175.127 C 407.118 174.602 407.115 174.077 407.111 173.537 C 407.107 173.053 407.1 172.568 407.095 172.07 C 407.216 170.81 407.216 170.81 408.284 169.208 Z" fill="#F7F1EA" style=""/>
  <path d="M 33.948 122.749 C 34.295 122.749 34.652 122.749 35.016 122.749 C 35.026 123.795 35.036 124.84 35.047 125.886 C 35.054 126.469 35.058 127.051 35.064 127.651 C 35.016 129.158 35.016 129.158 34.481 130.225 C 34.124 130.225 33.777 130.225 33.413 130.225 C 33.397 129.08 33.387 127.933 33.377 126.788 C 33.371 126.15 33.365 125.511 33.361 124.853 C 33.413 123.283 33.413 123.283 33.948 122.749 Z" fill="#D2E5E7" style=""/>
  <path d="M 419.499 220.472 C 419.675 220.472 419.851 220.472 420.032 220.472 C 420.745 223.323 420.306 225.193 419.499 227.948 C 419.146 227.948 418.793 227.948 418.43 227.948 C 418.254 228.478 418.077 229.006 417.896 229.55 C 418.233 226.464 418.778 223.492 419.499 220.472 Z" fill="#F1EFED" style=""/>
  <path d="M 409.352 259.455 C 409.528 259.455 409.704 259.455 409.885 259.455 C 410.088 262.622 409.408 265.047 408.284 267.999 C 407.932 267.824 407.58 267.647 407.216 267.466 C 408.244 261.828 408.244 261.828 409.352 259.455 Z" fill="#F0EEEA" style=""/>
  <path d="M 422.702 201.248 C 422.879 201.248 423.055 201.248 423.236 201.248 C 423.681 204.069 423.901 206.434 423.236 209.258 C 422.411 210.166 422.411 210.166 421.634 210.861 C 422.149 204.094 422.149 204.094 422.702 201.248 Z" fill="#F3F0EE" style=""/>
  <path d="M 33.948 143.575 C 35.016 144.643 35.016 144.643 35.155 145.995 C 35.149 146.779 35.149 146.779 35.149 147.581 C 35.149 148.104 35.155 148.627 35.155 149.166 C 35.016 150.517 35.016 150.517 33.948 151.585 C 33.408 148.73 33.493 146.446 33.948 143.575 Z" fill="#D0DCE2" style=""/>
  <path d="M 398.137 292.03 C 398.314 292.03 398.491 292.03 398.673 292.03 C 398.768 294.137 398.722 295.552 397.604 297.37 C 398.309 297.722 399.014 298.075 399.74 298.437 C 398.683 298.614 397.625 298.789 396.536 298.972 C 396.793 296.454 397.053 294.343 398.137 292.03 Z" fill="#EFEEEB" style=""/>
  <path d="M 31.277 256.785 C 32.559 258.07 32.767 258.982 33.242 260.724 C 33.462 261.49 33.462 261.49 33.686 262.271 C 33.942 263.711 33.889 264.501 33.413 265.863 C 33.413 265.335 33.413 264.807 33.413 264.261 C 33.056 264.261 32.708 264.261 32.346 264.261 C 31.491 261.659 31.16 259.557 31.277 256.785 Z" fill="#F3F0EC" style=""/>
  <path d="M 110.844 368.927 C 113.397 370.815 115.897 372.742 118.321 374.8 C 117.963 375.152 117.611 375.505 117.253 375.869 C 116.179 374.915 115.112 373.958 114.048 372.998 C 113.739 372.727 113.434 372.456 113.119 372.176 C 112.34 371.471 111.587 370.735 110.844 369.994 C 110.844 369.642 110.844 369.29 110.844 368.927 Z" fill="#F2F1EE" style=""/>
  <path d="M 424.305 183.092 C 424.481 183.092 424.657 183.092 424.838 183.092 C 425.015 185.912 425.19 188.731 425.373 191.636 C 425.196 191.636 425.02 191.636 424.838 191.636 C 424.663 192.87 424.486 194.104 424.305 195.373 C 424.128 195.373 423.952 195.373 423.77 195.373 C 423.687 191.254 423.944 187.196 424.305 183.092 Z" fill="#F3F1EE" style=""/>
  <path d="M 25.937 407.375 C 26.108 407.375 26.284 407.375 26.471 407.375 C 26.471 410.194 26.471 413.014 26.471 415.919 C 26.289 415.919 26.114 415.919 25.937 415.919 C 25.579 413.628 25.233 411.337 24.87 408.977 C 25.217 408.977 25.575 408.977 25.937 408.977 C 25.937 408.448 25.937 407.921 25.937 407.375 Z" fill="#F1EFED" style=""/>
  <path d="M 319.105 403.638 C 320.542 403.732 321.95 403.967 323.377 404.171 C 323.377 404.348 323.377 404.523 323.377 404.705 C 320.783 405.224 318.33 405.303 315.7 405.273 C 315.308 405.27 314.915 405.268 314.51 405.265 C 313.549 405.26 312.589 405.249 311.629 405.239 C 311.629 405.063 311.629 404.887 311.629 404.705 C 312.125 404.673 312.618 404.64 313.128 404.607 C 314.088 404.54 314.088 404.54 315.067 404.472 C 316.023 404.407 316.023 404.407 317.001 404.34 C 318.51 404.344 318.51 404.344 319.105 403.638 Z" fill="#F0EFED" style=""/>
  <path d="M 126.865 400.433 C 129.162 401.269 131.169 402.399 133.274 403.638 C 131.917 404.141 131.345 404.261 129.988 403.677 C 129.62 403.433 129.247 403.188 128.867 402.936 C 128.489 402.696 128.109 402.456 127.719 402.208 C 127.437 401.975 127.153 401.74 126.865 401.501 C 126.865 401.149 126.865 400.795 126.865 400.433 Z" fill="#F1EEEB" style=""/>
  <path d="M 24.335 226.88 C 25.227 228.461 25.575 229.748 25.735 231.553 C 25.772 231.979 25.815 232.406 25.857 232.847 C 25.878 233.168 25.906 233.49 25.937 233.823 C 25.756 233.47 25.579 233.118 25.404 232.755 C 25.046 232.755 24.699 232.755 24.335 232.755 C 23.646 228.787 23.646 228.787 24.335 226.88 Z" fill="#F1F0ED" style=""/>
  <path d="M 413.625 245.037 C 414.225 245.905 414.225 245.905 414.693 247.173 C 414.225 248.908 414.225 248.908 413.625 250.376 C 413.271 250.376 412.919 250.376 412.557 250.376 C 412.38 250.729 412.204 251.082 412.022 251.445 C 412.188 250.677 412.355 249.91 412.523 249.143 C 412.615 248.715 412.708 248.288 412.805 247.847 C 413.09 246.639 413.09 246.639 413.625 245.037 Z" fill="#F1EEEC" style=""/>
  <path d="M 421.1 211.394 C 421.277 211.394 421.452 211.394 421.634 211.394 C 421.634 213.685 421.634 215.976 421.634 218.336 C 421.281 218.336 420.929 218.336 420.567 218.336 C 420.39 218.865 420.214 219.394 420.032 219.938 C 420.108 219.015 420.187 218.09 420.266 217.169 C 420.309 216.655 420.353 216.14 420.397 215.61 C 420.553 214.178 420.794 212.801 421.1 211.394 Z" fill="#F4F2F0" style=""/>
  <path d="M 102.3 381.743 C 105.436 383.745 105.436 383.745 106.038 384.946 C 104.88 384.676 103.903 384.412 102.834 383.879 C 102.834 383.527 102.834 383.174 102.834 382.811 C 102.477 382.634 102.125 382.458 101.767 382.277 C 101.938 382.1 102.119 381.924 102.3 381.743 Z" fill="#F0EFEC" style=""/>
  <path d="M 411.488 251.979 C 411.664 251.979 411.84 251.979 412.022 251.979 C 412.198 253.389 412.376 254.799 412.557 256.251 C 411.499 256.78 411.499 256.78 410.421 257.319 C 410.773 255.557 411.125 253.795 411.488 251.979 Z" fill="#F2F0EE" style=""/>
  <path d="M 472.899 190.567 C 474.447 191.847 474.769 192.871 475.035 194.84 C 474.329 194.488 473.625 194.135 472.899 193.772 C 472.899 192.714 472.899 191.657 472.899 190.567 Z" fill="#F0EEEC" style=""/>
  <path d="M 17.927 193.238 C 18.098 193.238 18.275 193.238 18.462 193.238 C 18.462 194.824 18.462 196.41 18.462 198.045 C 18.28 198.045 18.104 198.045 17.927 198.045 C 17.927 196.458 17.927 194.871 17.927 193.238 Z" fill="#FFFFFF" style=""/>
  <path d="M 14.723 145.711 C 14.894 145.711 15.07 145.711 15.258 145.711 C 15.258 147.121 15.258 148.531 15.258 149.984 C 15.075 149.984 14.899 149.984 14.723 149.984 C 14.723 148.574 14.723 147.164 14.723 145.711 Z" fill="#FFFFFF" style=""/>
  <path d="M 14.723 112.603 C 14.894 112.603 15.07 112.603 15.258 112.603 C 15.258 113.661 15.258 114.717 15.258 115.807 C 15.075 115.807 14.899 115.807 14.723 115.807 C 14.723 114.75 14.723 113.692 14.723 112.603 Z" fill="#FFFFFF" style=""/>
  <path d="M 445.131 262.66 C 445.659 262.835 446.188 263.012 446.732 263.193 C 446.204 263.37 445.675 263.545 445.131 263.727 C 445.131 263.374 445.131 263.022 445.131 262.66 Z" fill="#FFFFFF" style=""/>
  <path d="M 19.529 207.121 C 19.7 207.828 19.876 208.532 20.064 209.258 C 19.705 208.729 19.358 208.201 18.995 207.657 C 19.166 207.48 19.342 207.305 19.529 207.121 Z" fill="#FFFFFF" style=""/>
  <path d="M 14.723 124.885 C 14.894 124.885 15.07 124.885 15.258 124.885 C 15.258 125.766 15.258 126.647 15.258 127.556 C 15.075 127.556 14.899 127.556 14.723 127.556 C 14.723 126.674 14.723 125.792 14.723 124.885 Z" fill="#FFFFFF" style=""/>
  <path d="M 112.981 403.102 C 115.117 403.638 115.117 403.638 115.117 403.638 L 112.981 403.102 Z" fill="#FFFFFF" style=""/>
  <path d="M 412.557 288.826 C 412.909 289.002 413.261 289.178 413.625 289.359 C 413.096 289.359 412.567 289.359 412.022 289.359 C 412.198 289.183 412.376 289.007 412.557 288.826 Z" fill="#FFFFFF" style=""/>
  <path d="M 22.2 228.483 C 22.547 228.835 22.904 229.187 23.268 229.55 C 22.739 229.815 22.739 229.815 22.2 230.084 C 22.2 229.556 22.2 229.027 22.2 228.483 Z" fill="#FFFFFF" style=""/>
  <path d="M 496.395 196.976 C 496.93 199.113 496.93 199.113 496.93 199.113 L 496.395 196.976 Z" fill="#FFFFFF" style=""/>
  <path d="M 431.78 173.48 C 433.917 174.014 433.917 174.014 433.917 174.014 L 431.78 173.48 Z" fill="#FFFFFF" style=""/>
  <path d="M 15.258 160.663 C 15.791 162.8 15.791 162.8 15.791 162.8 L 15.258 160.663 Z" fill="#FFFFFF" style=""/>
  <path d="M 14.723 143.042 C 15.258 145.178 15.258 145.178 15.258 145.178 L 14.723 143.042 Z" fill="#FFFFFF" style=""/>
  <path d="M 14.723 137.701 C 15.258 139.837 15.258 139.837 15.258 139.837 L 14.723 137.701 Z" fill="#FFFFFF" style=""/>
  <path d="M 100.699 403.102 C 102.3 403.638 102.3 403.638 102.3 403.638 L 100.699 403.102 Z" fill="#FFFFFF" style=""/>
  <path d="M 415.227 402.569 C 416.827 403.102 416.827 403.102 416.827 403.102 L 415.227 402.569 Z" fill="#FFFFFF" style=""/>
  <path d="M 109.777 390.287 C 110.13 390.64 110.482 390.992 110.844 391.354 C 110.487 391.354 110.134 391.354 109.777 391.354 C 109.777 391.002 109.777 390.65 109.777 390.287 Z" fill="#FFFFFF" style=""/>
  <path d="M 56.911 327.274 C 57.438 327.539 57.438 327.539 57.977 327.808 C 57.45 328.073 57.45 328.073 56.911 328.342 C 56.911 327.989 56.911 327.637 56.911 327.274 Z" fill="#FFFFFF" style=""/>
  <path d="M 30.743 262.66 C 31.09 262.66 31.448 262.66 31.812 262.66 C 31.63 263.012 31.454 263.364 31.277 263.727 C 31.095 263.374 30.92 263.022 30.743 262.66 Z" fill="#FFFFFF" style=""/>
  <path d="M 454.209 177.217 C 454.385 177.571 454.561 177.923 454.743 178.286 C 454.39 178.11 454.038 177.934 453.675 177.752 C 453.851 177.576 454.028 177.4 454.209 177.217 Z" fill="#FFFFFF" style=""/>
  <path d="M 15.258 155.858 C 15.429 156.21 15.605 156.562 15.791 156.926 C 15.434 156.75 15.087 156.573 14.723 156.391 C 14.894 156.214 15.07 156.039 15.258 155.858 Z" fill="#FFFFFF" style=""/>
  <path d="M 436.586 150.517 C 438.189 151.052 438.189 151.052 438.189 151.052 L 436.586 150.517 Z" fill="#FFFFFF" style=""/>
  <path d="M 39.821 430.338 C 40.89 430.871 40.89 430.871 40.89 430.871 L 39.821 430.338 Z" fill="#FFFFFF" style=""/>
  <path d="M 105.505 403.102 C 106.573 403.638 106.573 403.638 106.573 403.638 L 105.505 403.102 Z" fill="#FFFFFF" style=""/>
  <path d="M 71.862 403.102 C 72.93 403.638 72.93 403.638 72.93 403.638 L 71.862 403.102 Z" fill="#FFFFFF" style=""/>
  <path d="M 58.512 403.102 C 59.58 403.638 59.58 403.638 59.58 403.638 L 58.512 403.102 Z" fill="#FFFFFF" style=""/>
  <path d="M 407.751 402.569 C 408.819 403.102 408.819 403.102 408.819 403.102 L 407.751 402.569 Z" fill="#FFFFFF" style=""/>
  <path d="M 402.944 402.569 C 404.012 403.102 404.012 403.102 404.012 403.102 L 402.944 402.569 Z" fill="#FFFFFF" style=""/>
  <path d="M 31.277 402.569 C 32.346 403.102 32.346 403.102 32.346 403.102 L 31.277 402.569 Z" fill="#FFFFFF" style=""/>
  <path d="M 27.539 402.569 C 28.607 403.102 28.607 403.102 28.607 403.102 L 27.539 402.569 Z" fill="#FFFFFF" style=""/>
  <path d="M 321.774 400.966 C 322.843 401.501 322.843 401.501 322.843 401.501 L 321.774 400.966 Z" fill="#FFFFFF" style=""/>
  <path d="M 92.688 375.869 C 93.757 376.403 93.757 376.403 93.757 376.403 L 92.688 375.869 Z" fill="#FFFFFF" style=""/>
  <path d="M 65.454 340.624 C 66.523 341.159 66.523 341.159 66.523 341.159 L 65.454 340.624 Z" fill="#FFFFFF" style=""/>
  <path d="M 27.539 251.445 C 28.607 251.979 28.607 251.979 28.607 251.979 L 27.539 251.445 Z" fill="#FFFFFF" style=""/>
  <path d="M 470.23 192.17 C 471.297 192.704 471.297 192.704 471.297 192.704 L 470.23 192.17 Z" fill="#FFFFFF" style=""/>
  <path d="M 469.694 191.102 C 470.763 191.636 470.763 191.636 470.763 191.636 L 469.694 191.102 Z" fill="#FFFFFF" style=""/>
  <path d="M 440.325 174.014 C 441.392 174.548 441.392 174.548 441.392 174.548 L 440.325 174.014 Z" fill="#FFFFFF" style=""/>
  <path d="M 428.577 173.48 C 429.644 174.014 429.644 174.014 429.644 174.014 L 428.577 173.48 Z" fill="#FFFFFF" style=""/>
  <path d="M 434.45 150.517 C 435.519 151.052 435.519 151.052 435.519 151.052 L 434.45 150.517 Z" fill="#FFFFFF" style=""/>
  <path d="M 13.244 117.274 C 11.978 124.771 427.885 117.835 425.643 119.515 C 424.459 120.4 425.633 122.464 425.62 123.938 C 425.611 127.445 425.6 130.956 425.579 134.464 C 426.16 134.462 426.16 134.462 426.753 134.458 C 445.354 134.411 464.063 138.119 478.442 151.108 C 478.966 151.539 479.488 151.97 480.026 152.414 C 488.213 159.505 493.441 171.588 494.869 182.41 C 496.463 206.885 488.108 228.616 473.79 247.832 C 473.116 248.74 472.453 249.657 471.796 250.577 C 467.159 257.005 462.139 263.175 456.546 268.732 C 456.107 269.188 455.667 269.647 455.213 270.119 C 454.773 270.578 454.331 271.033 453.879 271.508 C 453.58 271.828 453.281 272.152 452.971 272.484 C 450.364 275.273 447.596 277.763 444.661 280.174 C 443.989 280.726 443.319 281.282 442.65 281.837 C 437.485 286.122 432.28 290.125 426.645 293.7 C 426.074 294.082 425.492 294.466 424.91 294.859 C 414.33 301.84 402.143 308.03 389.817 310.685 C 386.414 311.406 386.414 311.406 384.042 313.861 C 383.687 314.598 383.342 315.343 383.019 316.1 C 382.621 316.91 382.232 317.72 381.834 318.528 C 381.65 318.93 381.457 319.332 381.263 319.745 C 372.632 337.636 359.208 354.709 345.47 368.601 C 344.123 369.992 342.786 371.39 341.462 372.805 C 338.659 375.773 335.815 378.534 332.681 381.123 C 331.473 382.117 330.299 383.124 329.114 384.152 C 324.881 387.834 320.526 391.178 315.883 394.293 C 315.483 394.556 315.096 394.817 314.697 395.086 C 314.343 395.316 313.997 395.545 313.641 395.783 C 313.393 395.969 313.147 396.154 312.888 396.342 C 312.888 396.528 312.888 396.712 312.888 396.899 C 346.902 396.899 380.917 396.899 415.956 396.899 C 417.896 402.917 418.705 408.188 416.022 414.075 C 414.093 417.748 411.302 419.667 407.95 421.865 C 407.52 422.165 407.09 422.462 406.647 422.772 C 400.442 426.425 393.481 425.657 386.564 425.618 C 385.078 425.618 383.591 425.625 382.103 425.633 C 378.881 425.644 375.649 425.643 372.427 425.636 C 367.633 425.623 362.839 425.631 358.044 425.639 C 349.49 425.658 340.923 425.657 332.357 425.645 C 324.858 425.638 317.369 425.636 309.87 425.639 C 309.375 425.639 308.88 425.639 308.363 425.639 C 306.346 425.64 304.322 425.64 302.307 425.643 C 283.365 425.653 264.434 425.644 245.494 425.627 C 228.672 425.611 211.854 425.612 195.031 425.628 C 176.137 425.645 157.212 425.652 138.325 425.643 C 136.301 425.64 134.282 425.64 132.269 425.639 C 131.767 425.638 131.286 425.638 130.768 425.638 C 123.281 425.635 115.795 425.638 108.297 425.647 C 99.791 425.658 91.257 425.656 82.75 425.638 C 77.988 425.627 73.208 425.627 68.45 425.638 C 65.267 425.646 62.09 425.64 58.886 425.627 C 57.076 425.619 55.265 425.618 53.46 425.63 C 39.651 425.699 39.651 425.699 33.584 421.865 C 33.071 421.553 32.564 421.239 32.036 420.915 C 28.031 418.375 24.902 414.691 23.743 409.902 C 23.097 405.753 23.107 401.446 24.496 397.453 C 26.141 396.607 27.822 396.825 29.622 396.831 C 30.247 396.829 30.247 396.829 30.899 396.829 C 32.314 396.827 33.723 396.832 35.144 396.836 C 36.17 396.836 37.178 396.836 38.198 396.836 C 40.965 396.834 43.726 396.837 46.475 396.842 C 49.386 396.845 52.269 396.845 55.153 396.845 C 60.605 396.848 66.095 396.853 71.541 396.859 C 77.779 396.864 83.99 396.866 90.227 396.871 C 103.038 396.877 115.837 396.886 128.643 396.899 C 128.355 396.712 128.072 396.526 127.767 396.334 C 126.454 395.475 125.124 394.613 123.81 393.753 C 123.131 393.314 123.131 393.314 122.427 392.866 C 118.62 390.371 115.063 387.632 111.555 384.692 C 110.728 384.02 109.878 383.349 109.04 382.68 C 108.281 382.057 107.518 381.432 106.743 380.807 C 106.252 380.416 105.772 380.025 105.275 379.621 C 104.778 379.225 104.276 378.826 103.774 378.415 C 103.331 378.052 102.872 377.687 102.402 377.311 C 102.065 377.002 101.745 376.69 101.409 376.368 C 101.409 376.003 101.409 375.637 101.409 375.26 C 101.099 375.133 100.816 375.006 100.501 374.876 C 98.91 373.939 97.809 372.758 96.502 371.405 C 96.251 371.134 95.978 370.865 95.711 370.583 C 95.161 370.01 94.617 369.433 94.071 368.859 C 93.244 367.989 92.416 367.125 91.583 366.26 C 88.688 363.251 85.886 360.196 83.252 356.951 C 82.729 356.332 82.227 355.713 81.715 355.095 C 81.245 354.511 80.753 353.928 80.272 353.343 C 80.026 353.035 79.776 352.729 79.514 352.412 C 77.869 350.373 76.295 348.289 74.884 346.071 C 73.993 345.101 73.288 344.952 72.033 344.743 C 72.386 344.376 72.738 344.011 73.107 343.633 C 72.738 343.138 72.37 342.64 72.012 342.126 C 65.096 332.537 58.32 321.987 53.492 311.093 C 52.9 309.61 52.9 309.61 51.222 309.235 C 51.244 308.854 51.271 308.475 51.324 308.085 C 51.175 305.982 50.358 304.463 49.407 302.646 C 44.142 292.098 40.072 281.028 36.255 269.84 C 36.089 269.351 35.918 268.861 35.747 268.354 C 35.609 267.911 35.448 267.469 35.298 267.011 C 35.176 266.63 35.054 266.249 34.924 265.856 C 34.647 264.846 34.647 264.846 34.647 263.184 C 34.124 263 33.584 262.817 33.045 262.628 C 33.418 262.628 33.755 262.628 34.124 262.628 C 33.692 261.356 33.248 260.085 32.82 258.813 C 32.692 258.454 32.57 258.091 32.442 257.719 C 31.769 255.702 31.769 255.702 30.914 253.751 C 30.728 253.02 30.567 252.279 30.434 251.54 C 29.841 248.703 29.163 245.896 28.453 243.089 C 20.698 211.694 15.913 179.755 14.739 147.32 C 14.718 146.729 14.697 146.139 14.681 145.529 C 14.653 144.424 14.622 143.317 14.59 142.21 C 14.557 141.725 14.541 141.237 14.541 140.735 C 14.531 140.311 14.52 139.89 14.504 139.453 C 14.419 138.17 14.419 138.17 13.281 136.681 C 14.088 136.407 14.088 136.407 14.884 136.128 C 14.376 136.128 13.827 136.128 13.281 136.128 C 13.373 135.818 13.463 135.508 13.549 135.189 C 13.837 133.806 13.902 132.579 13.891 131.16 C 13.891 130.616 13.891 130.072 13.891 129.512 C 13.891 128.928 13.891 128.345 13.868 127.743 C 13.868 127.145 13.868 126.544 13.868 125.925 C 13.868 124.008 13.868 122.091 13.858 120.176 C 13.858 118.876 13.943 113.246 13.244 117.274 Z M 33.088 117.99 C 36.211 116.108 32.751 130.334 33.793 157.799 C 33.825 158.317 33.845 158.836 33.889 159.368 C 34.247 164.65 34.738 169.887 35.437 175.132 C 35.747 177.357 35.992 179.581 36.233 181.811 C 36.282 182.205 36.319 182.596 36.361 182.999 C 36.532 184.591 36.698 186.183 36.874 187.777 C 37.423 192.91 38.146 197.957 39.112 203.023 C 39.48 205.103 39.677 207.158 39.859 209.263 C 40.041 210.853 40.388 212.386 40.724 213.941 C 41.114 215.71 41.471 217.481 41.84 219.254 C 47.512 247.027 55.639 273.541 67.222 299.248 C 67.462 299.755 67.686 300.26 67.926 300.781 C 73.309 312.719 79.91 324.21 87.514 334.758 C 87.749 335.074 87.968 335.393 88.208 335.72 C 96.213 346.934 105.392 358.143 115.966 366.83 C 116.943 367.636 117.888 368.466 118.828 369.313 C 126.304 376.078 134.843 381.561 143.579 386.356 C 143.947 386.552 144.3 386.747 144.658 386.949 C 151.68 390.834 158.879 394.208 166.936 394.207 C 167.642 394.21 167.642 394.21 168.378 394.212 C 169.954 394.218 171.552 394.22 173.136 394.221 C 174.275 394.224 175.428 394.229 176.568 394.232 C 180.314 394.246 184.049 394.25 187.797 394.256 C 189.097 394.258 190.391 394.26 191.682 394.263 C 197.75 394.272 203.817 394.28 209.876 394.286 C 216.883 394.292 223.877 394.308 230.88 394.329 C 236.294 394.345 241.699 394.353 247.12 394.355 C 250.35 394.356 253.573 394.362 256.805 394.374 C 259.855 394.387 262.893 394.391 265.943 394.385 C 267.053 394.385 268.163 394.387 269.273 394.396 C 277.407 394.448 284.42 393.539 291.899 389.963 C 292.49 389.684 292.49 389.684 293.095 389.398 C 301.155 385.478 308.535 380.339 315.56 374.705 C 316.195 374.203 316.842 373.702 317.478 373.2 C 321.344 370.119 324.976 366.835 328.522 363.346 C 329.987 361.942 329.987 361.942 331.247 360.991 C 331.538 360.754 331.82 360.521 332.12 360.279 C 332.12 359.912 332.12 359.547 332.12 359.169 C 332.411 359.047 332.713 358.928 333.014 358.802 C 334.641 357.825 335.762 356.493 336.989 355.042 C 337.518 354.431 338.046 353.823 338.573 353.215 C 338.832 352.908 339.091 352.601 339.362 352.285 C 340.051 351.492 340.751 350.713 341.452 349.935 C 345.449 345.515 348.949 340.742 352.408 335.867 C 352.689 335.484 352.957 335.102 353.239 334.709 C 368.969 312.395 381.123 286.897 388.73 260.41 C 388.902 259.875 389.075 259.344 389.257 258.793 C 390.13 256.021 390.777 253.192 391.478 250.368 C 392.037 248.089 392.673 245.944 393.535 243.765 C 393.719 242.47 393.89 241.176 394.063 239.881 C 394.417 238.769 394.774 237.659 395.129 236.553 C 395.302 235.815 395.463 235.074 395.625 234.333 C 396.024 232.41 396.435 230.49 396.853 228.572 C 398.039 223.049 399.147 217.586 399.753 211.956 C 399.935 210.475 399.935 210.475 400.475 209.365 C 400.572 208.524 400.647 207.68 400.71 206.833 C 400.871 204.999 401.098 203.251 401.509 201.458 C 402.714 196.137 403.232 190.704 403.545 185.256 C 403.674 183.843 403.674 183.843 404.213 182.732 C 404.332 181.87 404.427 181.005 404.514 180.136 C 404.59 179.322 404.59 179.322 404.666 178.492 C 404.719 177.904 404.773 177.312 404.827 176.702 C 404.891 176.091 404.946 175.478 404.999 174.848 C 405.128 173.542 405.246 172.237 405.366 170.932 C 405.548 168.974 405.731 167.015 405.915 165.058 C 406.034 163.785 406.153 162.511 406.27 161.239 C 406.325 160.666 406.366 160.098 406.432 159.51 C 407.822 144.116 410.548 109.078 410.678 118.213 C 410.71 121.043 26.658 121.857 33.088 117.99 Z M 425.039 157.212 C 424.986 157.884 424.932 158.555 424.878 159.248 C 422.767 185.596 422.767 185.596 420.762 198.268 C 420.632 199.118 420.632 199.118 420.503 199.989 C 419.2 208.084 417.358 216.02 415.397 223.964 C 415.278 224.426 415.171 224.89 415.052 225.368 C 413.823 230.32 412.541 235.24 411.044 240.115 C 410.806 240.941 410.569 241.771 410.366 242.609 C 410.096 243.731 409.784 244.824 409.437 245.926 C 409.309 246.346 409.18 246.766 409.051 247.199 C 408.91 247.654 408.769 248.108 408.62 248.575 C 408.479 249.054 408.328 249.534 408.178 250.028 C 407.693 251.591 407.208 253.159 406.712 254.722 C 406.55 255.254 406.39 255.785 406.216 256.332 C 403.308 265.64 400.14 274.818 396.735 283.935 C 396.358 284.962 396.002 285.999 395.669 287.04 C 409.028 283.074 422.163 273.73 432.517 264.292 C 432.786 264.052 433.056 263.81 433.326 263.562 C 435.921 261.223 435.921 261.223 438.39 258.745 C 438.39 258.378 438.39 258.011 438.39 257.636 C 438.837 257.448 438.837 257.448 439.292 257.254 C 440.873 256.322 441.927 255.099 443.197 253.751 C 443.831 253.113 443.831 253.113 444.475 252.463 C 447.521 249.37 450.236 246.175 452.81 242.654 C 453.055 242.322 453.303 241.988 453.557 241.643 C 456.899 237.118 460.157 232.591 462.957 227.675 C 463.14 227.351 463.326 227.029 463.517 226.695 C 470.779 213.937 477.088 199.166 474.105 184.015 C 471.979 175.671 467.238 169.135 460.287 164.424 C 454.034 160.679 447.674 158.627 440.528 157.768 C 440.017 157.704 439.507 157.642 438.984 157.578 C 435.775 157.244 432.593 157.183 429.371 157.199 C 428.746 157.199 428.746 157.199 428.098 157.2 C 427.087 157.203 426.063 157.209 425.039 157.212 Z" fill="#E9E8E6" style=""/>
  <path d="M 458.917 347.207 C 459.098 347.206 459.285 347.205 459.472 347.204 C 460.663 347.207 461.79 347.314 462.969 347.518 C 462.969 347.608 462.969 347.699 462.969 347.792 C 460.871 347.792 458.778 347.792 456.616 347.792 C 456.962 347.974 457.315 348.155 457.678 348.341 C 457.315 348.755 457.315 348.755 456.882 349.167 C 456.706 349.167 456.535 349.167 456.348 349.167 C 456.263 349.439 456.177 349.711 456.087 349.993 C 456.118 349.585 456.15 349.177 456.188 348.771 C 456.204 348.545 456.22 348.319 456.241 348.085 C 456.279 347.897 456.31 347.71 456.348 347.518 C 457.165 347.094 458.019 347.202 458.917 347.207 Z" fill="#E0DEDC" style=""/>
  <path d="M 453.705 243.022 C 453.79 243.022 453.876 243.022 453.967 243.022 C 454.1 243.945 454.234 244.867 454.367 245.79 C 454.404 246.05 454.441 246.309 454.479 246.576 C 454.677 247.974 454.811 249.309 454.762 250.722 C 454.677 250.45 454.591 250.178 454.5 249.898 C 454.319 249.898 454.148 249.898 453.967 249.898 C 453.309 245.303 453.309 245.303 453.705 243.022 Z" fill="#F2F0EC" style=""/>
  <path d="M 453.171 235.873 C 453.78 240.469 453.78 240.469 453.705 242.748 C 453.62 242.748 453.529 242.748 453.443 242.748 C 453.353 242.295 453.268 241.841 453.171 241.373 C 453.085 241.373 453 241.373 452.91 241.373 C 452.732 239.65 452.561 237.924 452.38 236.148 C 452.91 235.873 452.91 235.873 453.171 235.873 Z" fill="#EFEDEB" style=""/>
  <path d="M 458.997 271.622 C 459.633 272.283 459.733 272.752 459.974 273.65 C 460.081 274.043 460.081 274.043 460.194 274.447 C 460.316 275.189 460.295 275.594 460.054 276.296 C 460.054 276.024 460.054 275.751 460.054 275.471 C 459.883 275.471 459.707 275.471 459.531 275.471 C 459.109 274.132 458.938 273.05 458.997 271.622 Z" fill="#F3F0EC" style=""/>
  <path d="M 498.434 329.368 C 499.699 330.34 500.943 331.333 502.145 332.392 C 501.963 332.574 501.793 332.755 501.611 332.943 C 501.083 332.452 500.553 331.959 500.024 331.465 C 499.875 331.326 499.721 331.186 499.565 331.041 C 499.181 330.679 498.807 330.299 498.434 329.918 C 498.434 329.736 498.434 329.554 498.434 329.368 Z" fill="#F2F1EE" style=""/>
  <path d="M 456.348 349.167 C 456.439 349.167 456.53 349.167 456.616 349.167 C 456.616 350.619 456.616 352.071 456.616 353.567 C 456.53 353.567 456.445 353.567 456.348 353.567 C 456.177 352.388 456.002 351.207 455.818 349.993 C 455.996 349.993 456.173 349.993 456.348 349.993 C 456.348 349.719 456.348 349.447 456.348 349.167 Z" fill="#F1EFED" style=""/>
  <path d="M 506.379 345.592 C 507.517 346.022 508.51 346.605 509.551 347.243 C 508.879 347.501 508.595 347.563 507.928 347.263 C 507.741 347.137 507.559 347.011 507.367 346.881 C 507.18 346.757 506.994 346.633 506.801 346.507 C 506.663 346.386 506.518 346.266 506.379 346.142 C 506.379 345.961 506.379 345.779 506.379 345.592 Z" fill="#F1EEEB" style=""/>
  <path d="M 455.558 256.222 C 456.002 257.037 456.173 257.699 456.252 258.628 C 456.268 258.848 456.295 259.069 456.31 259.294 C 456.326 259.46 456.338 259.626 456.348 259.797 C 456.263 259.615 456.177 259.434 456.087 259.247 C 455.911 259.247 455.74 259.247 455.558 259.247 C 455.216 257.204 455.216 257.204 455.558 256.222 Z" fill="#F1F0ED" style=""/>
  <path d="M 494.203 335.968 C 495.752 336.998 495.752 336.998 496.057 337.617 C 495.48 337.479 494.995 337.343 494.465 337.068 C 494.465 336.887 494.465 336.705 494.465 336.518 C 494.289 336.426 494.118 336.336 493.936 336.243 C 494.022 336.152 494.113 336.062 494.203 335.968 Z" fill="#F0EFEC" style=""/>
  <path d="M 452.38 238.898 C 452.471 238.898 452.557 238.898 452.647 238.898 C 452.647 239.715 452.647 240.531 452.647 241.373 C 452.557 241.373 452.471 241.373 452.38 241.373 C 452.38 240.557 452.38 239.74 452.38 238.898 Z" fill="#FFFFFF" style=""/>
  <path d="M 450.794 214.425 C 450.88 214.425 450.965 214.425 451.056 214.425 C 451.056 215.151 451.056 215.876 451.056 216.624 C 450.971 216.624 450.88 216.624 450.794 216.624 C 450.794 215.898 450.794 215.172 450.794 214.425 Z" fill="#FFFFFF" style=""/>
  <path d="M 453.171 246.049 C 453.268 246.41 453.353 246.774 453.443 247.147 C 453.268 246.875 453.091 246.603 452.91 246.323 C 452.995 246.232 453.081 246.142 453.171 246.049 Z" fill="#FFFFFF" style=""/>
  <path d="M 450.794 203.701 C 450.88 203.701 450.965 203.701 451.056 203.701 C 451.056 204.155 451.056 204.607 451.056 205.075 C 450.971 205.075 450.88 205.075 450.794 205.075 C 450.794 204.622 450.794 204.167 450.794 203.701 Z" fill="#FFFFFF" style=""/>
  <path d="M 499.496 346.967 C 500.553 347.243 500.553 347.243 500.553 347.243 L 499.496 346.967 Z" fill="#FFFFFF" style=""/>
  <path d="M 454.5 257.047 C 454.671 257.228 454.848 257.41 455.023 257.597 C 454.767 257.733 454.767 257.733 454.5 257.873 C 454.5 257.599 454.5 257.327 454.5 257.047 Z" fill="#FFFFFF" style=""/>
  <path d="M 451.056 222.124 C 451.323 223.224 451.323 223.224 451.323 223.224 L 451.056 222.124 Z" fill="#FFFFFF" style=""/>
  <path d="M 450.794 213.05 C 451.056 214.149 451.056 214.149 451.056 214.149 L 450.794 213.05 Z" fill="#FFFFFF" style=""/>
  <path d="M 450.794 210.301 C 451.056 211.399 451.056 211.399 451.056 211.399 L 450.794 210.301 Z" fill="#FFFFFF" style=""/>
  <path d="M 493.408 346.967 C 494.203 347.243 494.203 347.243 494.203 347.243 L 493.408 346.967 Z" fill="#FFFFFF" style=""/>
  <path d="M 497.905 340.367 C 498.081 340.549 498.257 340.731 498.434 340.918 C 498.263 340.918 498.087 340.918 497.905 340.918 C 497.905 340.736 497.905 340.554 497.905 340.367 Z" fill="#FFFFFF" style=""/>
  <path d="M 471.701 307.92 C 471.963 308.055 471.963 308.055 472.235 308.194 C 471.968 308.33 471.968 308.33 471.701 308.47 C 471.701 308.288 471.701 308.106 471.701 307.92 Z" fill="#FFFFFF" style=""/>
  <path d="M 458.736 274.646 C 458.907 274.646 459.082 274.646 459.259 274.646 C 459.173 274.827 459.088 275.01 458.997 275.197 C 458.911 275.015 458.826 274.834 458.736 274.646 Z" fill="#FFFFFF" style=""/>
  <path d="M 451.056 219.65 C 451.142 219.831 451.233 220.012 451.323 220.199 C 451.147 220.108 450.971 220.018 450.794 219.925 C 450.88 219.834 450.965 219.743 451.056 219.65 Z" fill="#FFFFFF" style=""/>
  <path d="M 463.231 360.991 C 463.766 361.266 463.766 361.266 463.766 361.266 L 463.231 360.991 Z" fill="#FFFFFF" style=""/>
  <path d="M 495.79 346.967 C 496.318 347.243 496.318 347.243 496.318 347.243 L 495.79 346.967 Z" fill="#FFFFFF" style=""/>
  <path d="M 479.113 346.967 C 479.648 347.243 479.648 347.243 479.648 347.243 L 479.113 346.967 Z" fill="#FFFFFF" style=""/>
  <path d="M 472.497 346.967 C 473.03 347.243 473.03 347.243 473.03 347.243 L 472.497 346.967 Z" fill="#FFFFFF" style=""/>
  <path d="M 458.997 346.692 C 459.531 346.967 459.531 346.967 459.531 346.967 L 458.997 346.692 Z" fill="#FFFFFF" style=""/>
  <path d="M 457.143 346.692 C 457.678 346.967 457.678 346.967 457.678 346.967 L 457.143 346.692 Z" fill="#FFFFFF" style=""/>
  <path d="M 489.435 332.943 C 489.969 333.218 489.969 333.218 489.969 333.218 L 489.435 332.943 Z" fill="#FFFFFF" style=""/>
  <path d="M 475.935 314.794 C 476.469 315.068 476.469 315.068 476.469 315.068 L 475.935 314.794 Z" fill="#FFFFFF" style=""/>
  <path d="M 457.143 268.871 C 457.678 269.146 457.678 269.146 457.678 269.146 L 457.143 268.871 Z" fill="#FFFFFF" style=""/>
</svg>