<svg viewBox="17 133 452 273" xmlns="http://www.w3.org/2000/svg" style="max-height: 500px" width="452" height="273">
  <defs>
    <linearGradient gradientTransform="matrix(1, 0, 0, 1, -24.283882, -52.06868)" y2="415.781" x2="229.226" y1="302.413" x1="229.226" gradientUnits="userSpaceOnUse" id="gradient-0">
      <stop style="stop-color:rgb(35.686% 26.275% 13.725%)" offset="0">
        
      </stop>
      <stop style="stop-color:rgb(24.025% 15.729% 2.8983%)" offset="1">
        
      </stop>
    </linearGradient>
    <linearGradient gradientTransform="matrix(0.999848, -0.01742, 0.028119, 1.613951, 80.143117, -71.503268)" spreadMethod="pad" id="gradient-1" y2="248.626" x2="-352.936" y1="156.973" x1="-352.936" gradientUnits="userSpaceOnUse">
      <stop style="stop-color: rgb(99.608% 84.706% 69.804%)" offset="0">
        
      </stop>
      <stop style="stop-color: rgb(60.212% 47.364% 33.886%)" offset="1">
        
      </stop>
    </linearGradient>
    <linearGradient gradientTransform="matrix(0.995697, -0.092671, 0.62692, 6.735894, -82.394471, -742.986826)" id="gradient-2" y2="162.237" x2="203.891" y1="132.827" x1="203.891" gradientUnits="userSpaceOnUse">
      <stop style="stop-color: rgb(99.608% 94.118% 83.529%)" offset="0">
        
      </stop>
      <stop style="stop-color: rgb(58.022% 53.275% 43.713%)" offset="1">
        
      </stop>
    </linearGradient>
  </defs>
  <g transform="matrix(1, 0, 0, 1, -24.28388, -52.06868)" id="svg">
    <g transform="matrix(1, 0, 0, 1, 107.328941, -1.26808)" id="svgg">
      <path style="fill: rgb(235, 233, 228);" fill-rule="evenodd" stroke="none" d="M -64.662 226.391 C -64.339 270.363 -64.236 271.804 -59.962 291.161 C -47.156 349.162 -8.67 397.249 42.486 419.179 C 45.578 420.503 46.923 421.54 47.511 423.046 C 48.373 425.255 47.906 436.307 46.913 437.297 C 46.595 437.612 30.633 437.969 11.44 438.091 C -20.436 438.295 -23.624 438.426 -25.43 439.609 C -31.729 443.739 -31.734 453.234 -25.439 457.123 L -22.956 458.658 L 129.354 458.541 C 213.124 458.476 282.411 458.14 283.329 457.79 C 290.249 455.159 291.233 444.43 284.965 439.958 C 282.668 438.319 282.581 438.314 243.766 437.947 L 204.865 437.581 L 204.865 429.146 L 204.865 420.712 L 213.503 416.129 C 242.527 400.729 259.691 384.139 280.343 351.526 C 282.17 348.643 282.555 348.408 285.496 348.408 C 294.47 348.408 315.118 347.69 318.127 347.273 C 380.735 338.594 406.175 260.057 362.264 211.014 C 347.041 194.01 328.414 186.956 298.708 186.946 L 286.13 186.942 L 285.758 226.024 C 285.318 272.197 284.52 280.318 278.255 302.552 C 262.126 359.78 218.017 401.429 161.719 412.59 C 66.791 431.405 -19.242 377.849 -39.459 287.358 C -43.384 269.789 -43.739 264.914 -44.1 223.823 L -44.437 185.473 L -54.701 185.473 L -64.963 185.473 L -64.662 226.391 M 320.42 209.771 C 368.561 222.677 378.658 290.729 336.582 318.7 C 327.445 324.776 319.899 326.819 303.862 327.568 C 291.081 328.162 291.441 328.349 293.707 322.332 C 303.605 296.031 306.46 277.024 306.494 237.18 C 306.512 215.849 306.732 209.034 307.433 208.324 C 308.535 207.208 312.519 207.652 320.42 209.771" id="path0"/>
      <g transform="matrix(1, 0, 0, 1, 504.739319, 1.899784)" id="svg-1">
        <g transform="matrix(1, 0, 0, 1, -30.992184, 54.093948)" id="group-1">
          <path stroke-opacity="0" stroke="rgb(0,0,0)" fill="url(#gradient-1)" d="M -508.471 248.626 L -511.962 237.438 L -514.874 223.95 L -516.687 212.403 L -517.392 199.001 L -517.657 188.634 L -517.806 176.846 L -517.976 159.279 L -187.906 156.973 L -187.895 180.715 L -188.432 200.105 L -189.025 212.09 L -189.819 221.396 L -191.401 230.428 L -193.329 239.473 L -195.617 247.782 L -508.471 248.626 Z"/>
        </g>
      </g>
    </g>
  </g>
  <path stroke="rgba(0,0,0,0)" fill-rule="nonzero" fill="url(#gradient-0)" d="M 48.258 251.244 L 52.486 261.626 L 56.046 269.923 L 59.164 276.327 L 66.445 289.094 L 74.92 301.009 L 87.341 315.173 L 96.153 323.554 L 105.521 331.031 L 112.92 336.149 L 119.652 340.282 L 126.773 344.275 L 133.747 347.843 L 141.833 351.142 L 150.825 354.743 L 159.096 357.259 L 174.207 360.806 L 180.617 361.913 L 188.436 362.769 L 196.824 363.53 L 204.516 363.713 L 219.457 363.619 C 219.457 363.619 233.947 362.032 233.947 362.013 C 233.947 361.994 249.726 359.295 249.726 359.295 L 266.109 354.476 L 279.002 349.187 L 291.214 342.852 L 301.03 336.677 L 313.179 327.208 L 322.354 318.911 L 335.306 303.811 L 343.553 291.538 L 349.88 280.733 L 354.924 269.464 L 360.094 255.84 L 361.625 250.345 L 48.258 251.244 Z"/>
  <rect stroke-opacity="0" stroke="rgb(0,0,0)" fill="url(#gradient-2)" height="29.41" width="330.581" y="132.827" x="38.601"/>
</svg>