<?xml version="1.0" encoding="utf-8"?>
<svg xmlns="http://www.w3.org/2000/svg" viewBox="0 0 500 500">
  <path d="M 5.383 64.799 C 5.913 64.799 6.443 64.799 6.983 64.799 C 7.593 64.798 8.203 64.797 8.833 64.795 C 9.853 64.798 9.853 64.798 10.883 64.8 C 11.603 64.799 12.323 64.798 13.053 64.798 C 15.063 64.796 17.063 64.798 19.073 64.8 C 21.243 64.802 23.423 64.801 25.593 64.8 C 29.413 64.799 33.233 64.8 37.053 64.802 C 42.723 64.805 48.403 64.805 54.083 64.805 C 63.627 64.804 73.174 64.806 82.722 64.809 C 92.18 64.813 101.638 64.815 111.096 64.815 C 111.977 64.815 111.977 64.815 112.876 64.815 C 115.858 64.816 118.841 64.816 121.823 64.816 C 142.967 64.817 164.111 64.821 185.255 64.826 C 205.801 64.831 226.346 64.835 246.892 64.837 C 247.841 64.838 247.841 64.838 248.809 64.838 C 255.165 64.838 261.521 64.839 267.877 64.84 C 280.825 64.841 293.774 64.843 306.722 64.844 C 307.317 64.844 307.913 64.845 308.526 64.845 C 348.309 64.85 388.091 64.858 427.874 64.868 C 428.032 67.926 428.187 70.984 428.34 74.043 C 428.393 75.079 428.445 76.115 428.499 77.151 C 428.984 86.535 429.114 95.882 429.049 105.278 C 429.043 106.747 429.038 108.216 429.034 109.685 C 429.022 113.182 429.004 116.68 428.98 120.178 C 429.585 120.175 429.585 120.175 430.203 120.172 C 449.467 120.126 468.841 123.823 483.736 136.77 C 484.278 137.2 484.819 137.63 485.376 138.073 C 493.855 145.14 499.27 157.186 500.748 167.975 C 502.398 192.373 493.747 214.037 478.917 233.193 C 478.219 234.098 477.533 235.012 476.851 235.928 C 472.048 242.337 466.85 248.487 461.059 254.027 C 460.603 254.483 460.147 254.94 459.677 255.41 C 459.22 255.866 458.764 256.322 458.294 256.793 C 457.985 257.115 457.675 257.437 457.356 257.769 C 454.654 260.548 451.788 263.029 448.748 265.433 C 448.052 265.984 447.358 266.537 446.664 267.091 C 441.315 271.362 435.929 275.353 430.086 278.916 C 429.493 279.298 428.9 279.679 428.288 280.072 C 417.333 287.031 404.714 293.201 391.942 295.849 C 388.418 296.568 388.418 296.568 385.97 299.014 C 385.595 299.749 385.24 300.494 384.905 301.248 C 384.498 302.055 384.091 302.862 383.682 303.668 C 383.487 304.068 383.292 304.468 383.091 304.88 C 374.148 322.715 360.243 339.734 346.015 353.585 C 344.62 354.971 343.234 356.366 341.863 357.776 C 338.965 360.735 336.019 363.486 332.771 366.066 C 331.526 367.058 330.3 368.062 329.081 369.086 C 324.686 372.758 320.182 376.091 315.367 379.196 C 314.963 379.457 314.559 379.718 314.143 379.986 C 313.782 380.216 313.421 380.445 313.05 380.682 C 312.794 380.866 312.539 381.05 312.276 381.239 C 312.276 381.422 312.276 381.605 312.276 381.793 C 347.503 381.793 382.73 381.793 419.024 381.793 C 421.024 387.794 421.861 393.048 419.089 398.917 C 417.084 402.576 414.193 404.49 410.728 406.682 C 410.283 406.98 409.838 407.278 409.38 407.586 C 402.951 411.228 395.737 410.461 388.572 410.422 C 387.034 410.424 385.496 410.431 383.957 410.438 C 380.618 410.45 377.279 410.449 373.94 410.441 C 368.974 410.428 364.009 410.435 359.043 410.445 C 350.173 410.462 341.304 410.461 332.434 410.451 C 324.671 410.443 316.909 410.441 309.146 410.445 C 308.631 410.445 308.116 410.445 307.585 410.445 C 305.494 410.446 303.402 410.447 301.311 410.449 C 281.697 410.459 262.083 410.45 242.469 410.432 C 225.049 410.416 207.63 410.417 190.211 410.433 C 170.633 410.451 151.056 410.458 131.478 410.448 C 129.39 410.447 127.302 410.446 125.215 410.445 C 124.701 410.444 124.187 410.444 123.657 410.444 C 115.9 410.44 108.144 410.444 100.387 410.453 C 91.566 410.462 82.744 410.46 73.923 410.442 C 68.988 410.432 64.053 410.432 59.113 410.444 C 55.823 410.452 52.523 410.447 49.223 410.432 C 47.343 410.425 45.463 410.424 43.593 410.434 C 29.293 410.505 29.293 410.505 23.003 406.682 C 22.473 406.37 21.943 406.057 21.393 405.735 C 17.253 403.203 14.013 399.53 12.813 394.756 C 12.143 390.62 12.163 386.327 13.603 382.346 C 15.293 381.502 17.043 381.719 18.893 381.726 C 19.553 381.725 19.553 381.725 20.223 381.725 C 21.693 381.724 23.163 381.727 24.633 381.73 C 25.683 381.73 26.733 381.73 27.793 381.73 C 30.653 381.729 33.513 381.733 36.373 381.737 C 39.363 381.74 42.353 381.74 45.343 381.741 C 51.003 381.743 56.673 381.747 62.333 381.753 C 68.779 381.759 75.225 381.762 81.671 381.765 C 94.933 381.771 108.195 381.78 121.458 381.793 C 121.16 381.607 120.862 381.421 120.555 381.23 C 119.186 380.374 117.818 379.516 116.45 378.658 C 115.747 378.22 115.747 378.22 115.031 377.773 C 111.071 375.285 107.405 372.555 103.759 369.624 C 102.895 368.955 102.031 368.286 101.166 367.619 C 100.371 366.997 99.576 366.375 98.781 365.753 C 98.274 365.363 97.768 364.973 97.247 364.571 C 96.738 364.174 96.229 363.777 95.704 363.368 C 95.236 363.005 94.767 362.642 94.285 362.268 C 93.943 361.958 93.602 361.648 93.25 361.328 C 93.25 360.963 93.25 360.598 93.25 360.222 C 92.944 360.096 92.638 359.97 92.322 359.84 C 90.665 358.906 89.517 357.729 88.175 356.38 C 87.905 356.11 87.634 355.84 87.356 355.561 C 86.786 354.989 86.216 354.415 85.648 353.84 C 84.792 352.974 83.931 352.112 83.07 351.251 C 80.082 348.252 77.179 345.205 74.444 341.97 C 73.914 341.353 73.383 340.737 72.852 340.12 C 72.357 339.539 71.862 338.957 71.368 338.374 C 71.106 338.068 70.845 337.761 70.576 337.445 C 68.857 335.413 67.253 333.336 65.77 331.124 C 64.856 330.158 64.122 330.01 62.829 329.801 C 63.194 329.436 63.559 329.071 63.936 328.695 C 63.56 328.199 63.185 327.703 62.799 327.192 C 55.643 317.633 48.613 307.115 43.623 296.257 C 43.013 294.778 43.013 294.778 41.263 294.403 C 41.293 294.025 41.333 293.647 41.373 293.258 C 41.223 291.161 40.373 289.647 39.393 287.835 C 33.943 277.32 29.723 266.285 25.773 255.133 C 25.603 254.644 25.423 254.155 25.243 253.651 C 25.093 253.209 24.943 252.767 24.783 252.312 C 24.653 251.932 24.523 251.552 24.383 251.161 C 24.113 250.155 24.113 250.155 24.113 248.496 C 23.563 248.314 23.013 248.131 22.453 247.943 C 22.823 247.943 23.183 247.943 23.563 247.943 C 23.113 246.675 22.663 245.408 22.213 244.14 C 22.083 243.78 21.953 243.42 21.823 243.049 C 21.113 241.038 21.113 241.038 20.243 239.093 C 20.063 238.362 19.893 237.626 19.743 236.889 C 19.133 234.06 18.423 231.264 17.693 228.464 C 9.653 197.167 4.703 165.329 3.493 132.994 C 3.473 132.405 3.453 131.816 3.433 131.209 C 3.393 130.107 3.363 129.004 3.333 127.902 C 3.313 127.416 3.303 126.93 3.283 126.43 C 3.273 126.008 3.263 125.586 3.253 125.151 C 3.153 123.875 3.153 123.875 1.993 122.39 C 2.813 122.116 2.813 122.116 3.643 121.837 C 3.103 121.837 2.553 121.837 1.993 121.837 C 2.083 121.528 2.173 121.22 2.263 120.902 C 2.563 119.522 2.613 118.298 2.603 116.885 C 2.603 116.343 2.603 115.801 2.603 115.242 C 2.603 114.66 2.603 114.079 2.593 113.48 C 2.593 112.881 2.593 112.283 2.593 111.666 C 2.593 109.756 2.583 107.846 2.573 105.935 C 2.573 104.64 2.573 103.344 2.573 102.048 C 2.563 98.873 2.553 95.698 2.543 92.523 C 2.363 92.523 2.173 92.523 1.993 92.523 C 1.993 91.61 1.993 90.697 1.993 89.757 C 2.173 89.757 2.353 89.757 2.543 89.757 C 2.723 86.289 2.903 82.821 3.093 79.248 C 2.733 79.248 2.363 79.248 1.993 79.248 C 2.173 78.883 2.353 78.518 2.543 78.142 C 2.903 78.325 3.273 78.507 3.643 78.695 C 3.283 78.33 2.923 77.965 2.543 77.589 C 2.363 77.224 2.173 76.859 1.993 76.483 C 2.533 76.483 3.083 76.483 3.643 76.483 C 3.643 75.935 3.643 75.388 3.643 74.824 C 3.103 74.641 2.553 74.459 1.993 74.27 C 2.173 72.993 2.353 71.715 2.543 70.399 C 2.723 70.399 2.903 70.399 3.093 70.399 C 3.133 70.046 3.163 69.693 3.193 69.329 C 3.243 68.872 3.293 68.415 3.333 67.944 C 3.383 67.489 3.423 67.033 3.473 66.564 C 3.713 65.01 3.803 64.891 5.383 64.799 Z M 22.453 88.651 C 22.133 116.062 22.133 116.062 23.213 143.442 C 23.253 143.958 23.283 144.474 23.323 145.005 C 23.683 150.271 24.203 155.492 24.933 160.721 C 25.243 162.937 25.503 165.156 25.753 167.379 C 25.793 167.769 25.843 168.159 25.883 168.561 C 26.063 170.149 26.243 171.737 26.423 173.325 C 26.983 178.442 27.733 183.473 28.733 188.523 C 29.123 190.597 29.333 192.645 29.513 194.744 C 29.683 196.328 30.053 197.857 30.403 199.408 C 30.803 201.17 31.173 202.937 31.553 204.704 C 37.433 232.391 45.863 258.821 57.853 284.447 C 58.083 284.952 58.323 285.457 58.563 285.977 C 64.148 297.876 70.983 309.332 78.869 319.846 C 79.104 320.163 79.339 320.48 79.581 320.806 C 87.873 331.984 97.386 343.157 108.326 351.819 C 109.332 352.623 110.32 353.449 111.29 354.295 C 119.029 361.037 127.883 366.504 136.944 371.284 C 137.308 371.479 137.672 371.674 138.047 371.875 C 145.303 375.749 152.768 379.11 161.111 379.109 C 161.848 379.112 161.848 379.112 162.598 379.115 C 164.246 379.121 165.894 379.123 167.541 379.125 C 168.722 379.128 169.902 379.132 171.082 379.136 C 174.963 379.148 178.843 379.153 182.724 379.159 C 184.061 379.161 185.399 379.163 186.736 379.166 C 193.022 379.176 199.309 379.184 205.595 379.189 C 212.842 379.194 220.088 379.209 227.334 379.231 C 232.94 379.248 238.547 379.256 244.153 379.258 C 247.498 379.259 250.844 379.264 254.189 379.278 C 257.341 379.291 260.493 379.293 263.645 379.287 C 264.796 379.287 265.948 379.291 267.1 379.298 C 275.52 379.351 282.792 378.445 290.533 374.879 C 291.144 374.601 291.144 374.601 291.768 374.318 C 300.115 370.407 307.761 365.285 315.042 359.669 C 315.701 359.169 316.361 358.669 317.021 358.169 C 321.036 355.098 324.79 351.824 328.459 348.347 C 329.975 346.947 329.975 346.947 331.285 345.997 C 331.583 345.763 331.881 345.529 332.188 345.288 C 332.188 344.923 332.188 344.558 332.188 344.182 C 332.494 344.061 332.801 343.941 333.117 343.817 C 334.804 342.842 335.961 341.513 337.235 340.068 C 337.779 339.46 338.324 338.853 338.868 338.245 C 339.14 337.939 339.412 337.634 339.692 337.319 C 340.403 336.529 341.13 335.752 341.858 334.978 C 345.995 330.571 349.62 325.812 353.205 320.952 C 353.487 320.571 353.768 320.19 354.057 319.798 C 370.356 297.553 382.938 272.137 390.816 245.731 C 390.998 245.199 391.18 244.668 391.367 244.121 C 392.265 241.357 392.946 238.536 393.661 235.72 C 394.248 233.449 394.9 231.309 395.794 229.138 C 395.982 227.848 396.166 226.557 396.347 225.266 C 396.709 224.157 397.078 223.051 397.453 221.947 C 397.63 221.212 397.797 220.474 397.957 219.735 C 398.374 217.819 398.799 215.905 399.234 213.992 C 400.468 208.486 401.61 203.039 402.232 197.428 C 402.431 195.952 402.431 195.952 402.984 194.846 C 403.084 194.007 403.162 193.165 403.226 192.322 C 403.393 190.493 403.627 188.75 404.056 186.964 C 405.307 181.66 405.842 176.243 406.167 170.812 C 406.303 169.403 406.303 169.403 406.856 168.297 C 406.981 167.437 407.08 166.572 407.164 165.707 C 407.244 164.897 407.244 164.897 407.326 164.07 C 407.382 163.482 407.438 162.893 407.495 162.286 C 407.555 161.676 407.614 161.065 407.675 160.436 C 407.801 159.135 407.925 157.834 408.049 156.533 C 408.235 154.581 408.425 152.629 408.617 150.678 C 408.739 149.408 408.86 148.139 408.982 146.869 C 409.038 146.3 409.094 145.732 409.151 145.146 C 410.589 129.801 410.174 114.611 410.174 99.16 C 282.409 99.16 154.643 99.16 23.003 99.16 C 23.003 95.692 23.003 92.224 23.003 88.651 C 22.823 88.651 22.643 88.651 22.453 88.651 Z M 428.427 142.855 C 428.371 143.525 428.316 144.194 428.259 144.885 C 426.071 171.152 426.071 171.152 424.002 183.784 C 423.865 184.632 423.865 184.632 423.725 185.498 C 422.383 193.568 420.466 201.48 418.436 209.399 C 418.318 209.86 418.2 210.321 418.078 210.797 C 416.807 215.735 415.48 220.639 413.935 225.5 C 413.68 226.323 413.438 227.15 413.231 227.986 C 412.949 229.104 412.622 230.193 412.272 231.291 C 412.138 231.711 412.004 232.13 411.866 232.562 C 411.721 233.015 411.575 233.468 411.425 233.934 C 411.272 234.411 411.119 234.889 410.961 235.381 C 410.458 236.941 409.954 238.502 409.449 240.061 C 409.277 240.591 409.106 241.121 408.929 241.666 C 405.917 250.944 402.641 260.093 399.109 269.184 C 398.717 270.207 398.353 271.24 398.006 272.279 C 411.85 268.324 425.446 259.009 436.17 249.602 C 436.447 249.362 436.724 249.121 437.009 248.873 C 439.696 246.541 439.696 246.541 442.254 244.071 C 442.254 243.706 442.254 243.341 442.254 242.965 C 442.716 242.777 442.716 242.777 443.187 242.585 C 444.825 241.656 445.915 240.438 447.232 239.093 C 447.888 238.457 447.888 238.457 448.556 237.808 C 451.71 234.726 454.522 231.54 457.188 228.032 C 457.443 227.699 457.699 227.366 457.962 227.023 C 461.423 222.513 464.799 217.998 467.697 213.098 C 467.888 212.776 468.08 212.454 468.277 212.123 C 475.798 199.405 482.332 184.678 479.243 169.576 C 477.04 161.257 472.13 154.741 464.931 150.045 C 458.455 146.312 451.869 144.265 444.467 143.408 C 443.939 143.346 443.411 143.284 442.868 143.22 C 439.544 142.888 436.248 142.828 432.912 142.842 C 432.263 142.843 432.263 142.843 431.6 142.844 C 430.542 142.847 429.485 142.851 428.427 142.855 Z" fill="#E9E8E6"/>
  <path d="M 42.533 245.716 C 157.524 245.716 272.513 245.716 390.986 245.716 C 379.748 279.43 363.94 311.341 339.481 337.471 C 337.701 339.377 335.996 341.345 334.307 343.331 C 333.464 344.167 333.464 344.167 332.358 344.167 C 332.358 344.532 332.358 344.897 332.358 345.273 C 331.604 346.034 331.604 346.034 330.526 346.932 C 328.66 348.514 326.854 350.14 325.064 351.807 C 321.75 354.82 318.26 357.551 314.659 360.207 C 314.139 360.594 314.139 360.594 313.609 360.989 C 298.665 372.073 284.56 379.275 265.806 379.244 C 264.626 379.248 263.446 379.253 262.266 379.259 C 259.079 379.271 255.891 379.272 252.704 379.271 C 250.035 379.271 247.366 379.276 244.697 379.281 C 238.396 379.291 232.094 379.293 225.793 379.289 C 219.311 379.286 212.83 379.298 206.348 379.319 C 200.765 379.336 195.183 379.342 189.6 379.34 C 186.274 379.339 182.948 379.342 179.621 379.355 C 176.491 379.368 173.361 379.366 170.23 379.355 C 169.088 379.353 167.946 379.356 166.803 379.364 C 143.909 379.513 122.607 364.766 106.258 349.713 C 105.179 348.724 104.078 347.774 102.961 346.829 C 97.884 342.391 93.166 337.559 88.991 332.267 C 87.978 331.004 86.919 329.828 85.815 328.646 C 82.276 324.705 79.309 320.289 76.274 315.959 C 75.912 315.448 75.912 315.448 75.543 314.927 C 64.35 299.031 42.533 266.502 42.533 245.716 Z" fill="#594223"/>
  <path d="M 23.003 64.868 C 150.589 64.868 278.172 64.868 409.621 64.868 C 410.074 66.678 410.24 67.899 410.228 69.716 C 410.227 70.208 410.225 70.7 410.223 71.207 C 410.218 71.716 410.214 72.225 410.209 72.749 C 410.207 73.267 410.204 73.785 410.201 74.318 C 410.195 75.593 410.186 76.867 410.174 78.142 C 409.992 78.142 409.809 78.142 409.621 78.142 C 409.621 80.697 409.621 83.253 409.621 85.885 C 409.804 83.513 409.986 81.14 410.174 78.695 C 410.357 78.695 410.54 78.695 410.728 78.695 C 411.194 87.353 409.893 114.071 410.174 99.16 C 282.409 99.16 154.643 99.16 23.003 99.16 C 22.823 109.929 21.453 85.791 21.863 76.725 C 21.893 76.183 21.913 75.641 21.933 75.083 C 22.003 73.567 22.083 72.051 22.153 70.535 C 22.183 70.086 22.203 69.637 22.223 69.174 C 22.393 66.104 22.393 66.104 23.003 64.868 Z" fill="#FEF0D5"/>
  <path d="M 3.643 93.076 C 3.833 93.076 4.013 93.076 4.203 93.076 C 4.613 100.837 4.883 108.592 5.033 116.363 C 5.063 118.073 5.103 119.784 5.143 121.494 C 5.273 128.062 5.343 134.626 5.303 141.195 C 5.123 141.195 4.943 141.195 4.753 141.195 C 4.753 139.735 4.753 138.275 4.753 136.77 C 4.393 136.77 4.023 136.77 3.643 136.77 C 3.633 136.394 3.623 136.017 3.613 135.629 C 3.563 133.924 3.503 132.219 3.443 130.514 C 3.423 129.921 3.403 129.328 3.393 128.717 C 3.363 128.148 3.343 127.58 3.323 126.994 C 3.303 126.47 3.293 125.946 3.273 125.405 C 3.173 123.909 3.173 123.909 1.993 122.39 C 2.813 122.116 2.813 122.116 3.643 121.837 C 3.103 121.837 2.553 121.837 1.993 121.837 C 2.073 121.524 2.163 121.211 2.243 120.888 C 3.593 115.112 3.263 108.831 3.403 102.928 C 3.433 101.97 3.453 101.011 3.483 100.053 C 3.533 97.727 3.593 95.402 3.643 93.076 Z" fill="#F1EFED"/>
  <path d="M 4.203 68.739 C 4.383 68.739 4.563 68.739 4.753 68.739 C 4.753 74.033 4.753 79.326 4.753 84.779 C 4.573 84.779 4.393 84.779 4.203 84.779 C 4.123 84.175 4.043 83.57 3.963 82.947 C 3.713 80.946 3.713 80.946 3.093 79.248 C 2.733 79.248 2.363 79.248 1.993 79.248 C 2.173 78.883 2.353 78.518 2.543 78.142 C 2.903 78.325 3.273 78.507 3.643 78.695 C 3.283 78.33 2.923 77.965 2.543 77.589 C 2.363 77.224 2.173 76.859 1.993 76.483 C 2.533 76.483 3.083 76.483 3.643 76.483 C 3.643 75.935 3.643 75.388 3.643 74.824 C 3.103 74.641 2.553 74.459 1.993 74.27 C 2.173 72.993 2.353 71.715 2.543 70.399 C 2.723 70.399 2.903 70.399 3.093 70.399 C 3.273 71.311 3.463 72.224 3.643 73.164 C 3.833 71.704 4.013 70.244 4.203 68.739 Z" fill="#F4F2F1"/>
  <path d="M 18.963 381.723 C 19.343 381.721 19.733 381.719 20.123 381.717 C 22.613 381.722 24.973 381.94 27.433 382.346 C 27.433 382.528 27.433 382.711 27.433 382.899 C 23.053 382.899 18.673 382.899 14.153 382.899 C 14.883 383.264 15.613 383.629 16.373 384.005 C 15.613 384.835 15.613 384.835 14.713 385.664 C 14.343 385.664 13.983 385.664 13.603 385.664 C 13.423 386.212 13.243 386.759 13.053 387.324 C 13.113 386.505 13.183 385.687 13.263 384.869 C 13.293 384.414 13.333 383.958 13.373 383.489 C 13.453 383.111 13.523 382.734 13.603 382.346 C 15.303 381.494 17.093 381.713 18.963 381.723 Z" fill="#E0DEDC"/>
  <path d="M 8.073 172.169 C 8.253 172.169 8.433 172.169 8.623 172.169 C 8.903 174.023 9.183 175.879 9.453 177.734 C 9.533 178.256 9.613 178.777 9.693 179.315 C 10.103 182.128 10.383 184.812 10.283 187.655 C 10.103 187.108 9.923 186.56 9.733 185.996 C 9.363 185.996 9.003 185.996 8.623 185.996 C 7.253 176.755 7.253 176.755 8.073 172.169 Z" fill="#F2F0EC"/>
  <path d="M 6.963 157.788 C 8.233 167.03 8.233 167.03 8.073 171.616 C 7.893 171.616 7.703 171.616 7.523 171.616 C 7.333 170.703 7.153 169.79 6.963 168.85 C 6.783 168.85 6.603 168.85 6.413 168.85 C 6.043 165.382 5.683 161.914 5.303 158.341 C 6.413 157.788 6.413 157.788 6.963 157.788 Z" fill="#EFEDEB"/>
  <path d="M 427.32 77.036 C 427.503 77.036 427.686 77.036 427.874 77.036 C 427.907 77.523 427.941 78.01 427.975 78.512 C 428.021 79.154 428.068 79.796 428.116 80.458 C 428.16 81.093 428.205 81.729 428.252 82.383 C 428.389 84.17 428.389 84.17 428.721 85.678 C 428.989 87.039 429.035 88.268 429.014 89.653 C 429.009 90.091 429.004 90.528 428.999 90.978 C 428.993 91.305 428.986 91.632 428.98 91.97 C 428.615 92.152 428.25 92.335 427.874 92.523 C 427.288 90.765 427.257 89.522 427.266 87.677 C 427.268 87.058 427.27 86.44 427.272 85.802 C 427.277 85.157 427.281 84.511 427.286 83.846 C 427.29 82.868 427.29 82.868 427.293 81.87 C 427.3 80.259 427.309 78.647 427.32 77.036 Z" fill="#F1EFEC"/>
  <path d="M 498.67 164.425 C 502.494 169.01 500.724 176.549 500.329 182.124 C 500.147 182.124 499.964 182.124 499.776 182.124 C 499.59 179.797 499.406 177.469 499.223 175.142 C 499.17 174.484 499.118 173.825 499.063 173.147 C 499.013 172.509 498.963 171.871 498.912 171.214 C 498.866 170.629 498.819 170.044 498.772 169.441 C 498.671 167.764 498.652 166.104 498.67 164.425 Z" fill="#F2EFED"/>
  <path d="M 421.236 192.08 C 421.419 192.08 421.601 192.08 421.79 192.08 C 422.528 195.034 422.073 196.969 421.236 199.824 C 420.871 199.824 420.506 199.824 420.13 199.824 C 419.948 200.371 419.765 200.919 419.577 201.483 C 419.926 198.285 420.491 195.208 421.236 192.08 Z" fill="#F1EFED"/>
  <path d="M 410.728 232.456 C 410.91 232.456 411.093 232.456 411.281 232.456 C 411.49 235.736 410.786 238.249 409.621 241.306 C 409.256 241.123 408.891 240.941 408.515 240.753 C 409.581 234.913 409.581 234.913 410.728 232.456 Z" fill="#F0EEEA"/>
  <path d="M 424.555 172.169 C 424.738 172.169 424.92 172.169 425.108 172.169 C 425.569 175.09 425.796 177.54 425.108 180.465 C 424.253 181.405 424.253 181.405 423.449 182.124 C 423.982 175.117 423.982 175.117 424.555 172.169 Z" fill="#F3F0EE"/>
  <path d="M 399.113 266.195 C 399.295 266.195 399.478 266.195 399.666 266.195 C 399.765 268.378 399.717 269.845 398.559 271.726 C 399.29 272.091 400.02 272.456 400.772 272.832 C 399.677 273.015 398.582 273.197 397.453 273.385 C 397.718 270.778 397.989 268.592 399.113 266.195 Z" fill="#EFEEEB"/>
  <path d="M 19.133 229.691 C 20.463 231.022 20.673 231.966 21.173 233.77 C 21.403 234.563 21.403 234.563 21.633 235.373 C 21.893 236.865 21.843 237.683 21.343 239.093 C 21.343 238.546 21.343 237.998 21.343 237.434 C 20.983 237.434 20.613 237.434 20.243 237.434 C 19.363 234.739 19.013 232.563 19.133 229.691 Z" fill="#F3F0EC"/>
  <path d="M 101.546 345.841 C 104.194 347.797 106.781 349.793 109.289 351.925 C 108.924 352.29 108.559 352.655 108.183 353.032 C 107.074 352.044 105.968 351.053 104.865 350.059 C 104.548 349.778 104.232 349.497 103.905 349.207 C 103.098 348.477 102.32 347.714 101.546 346.947 C 101.546 346.582 101.546 346.217 101.546 345.841 Z" fill="#F2F1EE"/>
  <path d="M 426.214 153.363 C 426.397 153.363 426.579 153.363 426.767 153.363 C 426.95 156.284 427.132 159.204 427.32 162.213 C 427.138 162.213 426.955 162.213 426.767 162.213 C 426.585 163.491 426.402 164.768 426.214 166.085 C 426.032 166.085 425.849 166.085 425.661 166.085 C 425.574 161.817 425.841 157.614 426.214 153.363 Z" fill="#F3F1EE"/>
  <path d="M 13.603 385.664 C 13.783 385.664 13.973 385.664 14.153 385.664 C 14.153 388.585 14.153 391.505 14.153 394.514 C 13.973 394.514 13.793 394.514 13.603 394.514 C 13.243 392.141 12.873 389.768 12.493 387.324 C 12.863 387.324 13.233 387.324 13.603 387.324 C 13.603 386.776 13.603 386.228 13.603 385.664 Z" fill="#F1EFED"/>
  <path d="M 317.254 381.793 C 318.742 381.89 320.201 382.135 321.679 382.346 C 321.679 382.528 321.679 382.711 321.679 382.899 C 318.992 383.437 316.452 383.518 313.728 383.486 C 313.321 383.484 312.914 383.481 312.494 383.479 C 311.5 383.472 310.505 383.463 309.511 383.452 C 309.511 383.269 309.511 383.087 309.511 382.899 C 310.023 382.865 310.536 382.832 311.064 382.797 C 312.058 382.728 312.058 382.728 313.071 382.657 C 314.063 382.589 314.063 382.589 315.074 382.521 C 316.638 382.525 316.638 382.525 317.254 381.793 Z" fill="#F0EFED"/>
  <path d="M 118.139 378.474 C 120.522 379.34 122.598 380.511 124.776 381.793 C 123.372 382.314 122.78 382.439 121.38 381.834 C 120.995 381.581 120.61 381.327 120.213 381.067 C 119.822 380.818 119.432 380.569 119.029 380.313 C 118.735 380.071 118.442 379.829 118.139 379.58 C 118.139 379.215 118.139 378.85 118.139 378.474 Z" fill="#F1EEEB"/>
  <path d="M 11.943 198.717 C 12.873 200.356 13.233 201.688 13.393 203.557 C 13.433 203.999 13.483 204.441 13.523 204.896 C 13.553 205.23 13.573 205.564 13.603 205.908 C 13.423 205.543 13.243 205.178 13.053 204.801 C 12.683 204.801 12.323 204.801 11.943 204.801 C 11.233 200.693 11.233 200.693 11.943 198.717 Z" fill="#F1F0ED"/>
  <path d="M 415.152 217.523 C 415.775 218.421 415.775 218.421 416.259 219.735 C 415.775 221.533 415.775 221.533 415.152 223.054 C 414.787 223.054 414.422 223.054 414.046 223.054 C 413.864 223.419 413.681 223.784 413.493 224.16 C 413.665 223.365 413.838 222.569 414.012 221.775 C 414.108 221.332 414.204 220.889 414.303 220.433 C 414.599 219.182 414.599 219.182 415.152 217.523 Z" fill="#F1EEEC"/>
  <path d="M 422.896 182.678 C 423.078 182.678 423.261 182.678 423.449 182.678 C 423.449 185.05 423.449 187.423 423.449 189.868 C 423.084 189.868 422.719 189.868 422.343 189.868 C 422.16 190.415 421.978 190.963 421.79 191.527 C 421.868 190.571 421.949 189.614 422.032 188.658 C 422.076 188.125 422.121 187.593 422.168 187.044 C 422.33 185.561 422.579 184.134 422.896 182.678 Z" fill="#F4F2F0"/>
  <path d="M 92.697 359.116 C 95.946 361.19 95.946 361.19 96.568 362.434 C 95.369 362.154 94.356 361.881 93.25 361.328 C 93.25 360.963 93.25 360.598 93.25 360.222 C 92.885 360.039 92.52 359.857 92.143 359.669 C 92.326 359.486 92.509 359.304 92.697 359.116 Z" fill="#F0EFEC"/>
  <path d="M 412.94 224.713 C 413.122 224.713 413.305 224.713 413.493 224.713 C 413.676 226.173 413.858 227.633 414.046 229.138 C 412.951 229.685 412.951 229.685 411.834 230.244 C 412.199 228.419 412.564 226.593 412.94 224.713 Z" fill="#F2F0EE"/>
  <path d="M 476.546 161.107 C 478.15 162.431 478.483 163.492 478.759 165.532 C 478.028 165.166 477.298 164.801 476.546 164.425 C 476.546 163.33 476.546 162.235 476.546 161.107 Z" fill="#F0EEEC"/>
  <path d="M 5.303 163.872 C 5.493 163.872 5.673 163.872 5.863 163.872 C 5.863 165.515 5.863 167.158 5.863 168.85 C 5.673 168.85 5.493 168.85 5.303 168.85 C 5.303 167.207 5.303 165.565 5.303 163.872 Z" fill="#FFFFFF"/>
  <path d="M 1.993 114.647 C 2.173 114.647 2.353 114.647 2.543 114.647 C 2.543 116.107 2.543 117.567 2.543 119.071 C 2.363 119.071 2.173 119.071 1.993 119.071 C 1.993 117.611 1.993 116.151 1.993 114.647 Z" fill="#FFFFFF"/>
  <path d="M 1.993 80.355 C 2.173 80.355 2.353 80.355 2.543 80.355 C 2.543 81.45 2.543 82.545 2.543 83.673 C 2.363 83.673 2.173 83.673 1.993 83.673 C 1.993 82.578 1.993 81.483 1.993 80.355 Z" fill="#FFFFFF"/>
  <path d="M 447.785 235.775 C 448.333 235.957 448.88 236.14 449.444 236.328 C 448.897 236.511 448.349 236.693 447.785 236.881 C 447.785 236.516 447.785 236.151 447.785 235.775 Z" fill="#FFFFFF"/>
  <path d="M 6.963 178.253 C 7.153 178.983 7.333 179.713 7.523 180.465 C 7.153 179.918 6.793 179.37 6.413 178.806 C 6.593 178.623 6.773 178.441 6.963 178.253 Z" fill="#FFFFFF"/>
  <path d="M 1.993 93.076 C 2.173 93.076 2.353 93.076 2.543 93.076 C 2.543 93.988 2.543 94.901 2.543 95.841 C 2.363 95.841 2.173 95.841 1.993 95.841 C 1.993 94.929 1.993 94.016 1.993 93.076 Z" fill="#FFFFFF"/>
  <path d="M 103.759 381.239 C 105.971 381.793 105.971 381.793 105.971 381.793 L 103.759 381.239 Z" fill="#FFFFFF"/>
  <path d="M 414.046 262.877 C 414.411 263.059 414.776 263.242 415.152 263.43 C 414.605 263.43 414.057 263.43 413.493 263.43 C 413.676 263.247 413.858 263.065 414.046 262.877 Z" fill="#FFFFFF"/>
  <path d="M 9.733 200.377 C 10.093 200.742 10.463 201.107 10.833 201.483 C 10.293 201.757 10.293 201.757 9.733 202.036 C 9.733 201.488 9.733 200.941 9.733 200.377 Z" fill="#FFFFFF"/>
  <path d="M 500.882 167.744 C 501.436 169.956 501.436 169.956 501.436 169.956 L 500.882 167.744 Z" fill="#FFFFFF"/>
  <path d="M 433.958 143.408 C 436.17 143.961 436.17 143.961 436.17 143.961 L 433.958 143.408 Z" fill="#FFFFFF"/>
  <path d="M 2.543 130.133 C 3.093 132.346 3.093 132.346 3.093 132.346 L 2.543 130.133 Z" fill="#FFFFFF"/>
  <path d="M 1.993 111.881 C 2.543 114.093 2.543 114.093 2.543 114.093 L 1.993 111.881 Z" fill="#FFFFFF"/>
  <path d="M 1.993 106.35 C 2.543 108.562 2.543 108.562 2.543 108.562 L 1.993 106.35 Z" fill="#FFFFFF"/>
  <path d="M 91.037 381.239 C 92.697 381.793 92.697 381.793 92.697 381.793 L 91.037 381.239 Z" fill="#FFFFFF"/>
  <path d="M 416.812 380.686 C 418.471 381.24 418.471 381.24 418.471 381.24 L 416.812 380.686 Z" fill="#FFFFFF"/>
  <path d="M 100.44 367.965 C 100.805 368.33 101.17 368.695 101.546 369.071 C 101.181 369.071 100.816 369.071 100.44 369.071 C 100.44 368.706 100.44 368.341 100.44 367.965 Z" fill="#FFFFFF"/>
  <path d="M 45.683 302.7 C 46.233 302.973 46.233 302.973 46.793 303.253 C 46.243 303.527 46.243 303.527 45.683 303.806 C 45.683 303.441 45.683 303.076 45.683 302.7 Z" fill="#FFFFFF"/>
  <path fill="#FFFFFF"/>
  <path d="M 18.583 235.775 C 18.943 235.775 19.313 235.775 19.683 235.775 C 19.503 236.14 19.323 236.505 19.133 236.881 C 18.953 236.516 18.773 236.151 18.583 235.775 Z" fill="#FFFFFF"/>
  <path fill="#FFFFFF"/>
  <path d="M 457.188 147.279 C 457.37 147.644 457.553 148.009 457.741 148.385 C 457.376 148.203 457.011 148.02 456.635 147.832 C 456.817 147.65 457 147.467 457.188 147.279 Z" fill="#FFFFFF"/>
  <path d="M 2.543 125.155 C 2.723 125.52 2.903 125.885 3.093 126.262 C 2.733 126.079 2.363 125.897 1.993 125.709 C 2.173 125.526 2.353 125.343 2.543 125.155 Z" fill="#FFFFFF"/>
  <path d="M 438.936 119.624 C 440.595 120.178 440.595 120.178 440.595 120.178 L 438.936 119.624 Z" fill="#FFFFFF"/>
  <path fill="#FFFFFF"/>
  <path d="M 27.983 409.447 C 29.093 410.001 29.093 410.001 29.093 410.001 L 27.983 409.447 Z" fill="#FFFFFF"/>
  <path fill="#D4D4D4"/>
  <path fill="#FFFFD4"/>
  <path d="M 96.015 381.239 C 97.121 381.793 97.121 381.793 97.121 381.793 L 96.015 381.239 Z" fill="#FFFFFF"/>
  <path d="M 61.173 381.239 C 62.276 381.793 62.276 381.793 62.276 381.793 L 61.173 381.239 Z" fill="#FFFFFF"/>
  <path d="M 47.343 381.239 C 48.453 381.793 48.453 381.793 48.453 381.793 L 47.343 381.239 Z" fill="#FFFFFF"/>
  <path d="M 409.068 380.686 C 410.174 381.24 410.174 381.24 410.174 381.24 L 409.068 380.686 Z" fill="#FFFFFF"/>
  <path d="M 404.09 380.686 C 405.197 381.24 405.197 381.24 405.197 381.24 L 404.09 380.686 Z" fill="#FFFFFF"/>
  <path d="M 19.133 380.686 C 20.243 381.24 20.243 381.24 20.243 381.24 L 19.133 380.686 Z" fill="#FFFFFF"/>
  <path d="M 15.263 380.686 C 16.373 381.24 16.373 381.24 16.373 381.24 L 15.263 380.686 Z" fill="#FFFFFF"/>
  <path d="M 320.02 379.027 C 321.126 379.58 321.126 379.58 321.126 379.58 L 320.02 379.027 Z" fill="#FFFFFF"/>
  <path d="M 82.741 353.032 C 83.847 353.585 83.847 353.585 83.847 353.585 L 82.741 353.032 Z" fill="#FFFFFF"/>
  <path fill="#FFFFFF"/>
  <path d="M 54.533 316.527 C 55.643 317.08 55.643 317.08 55.643 317.08 L 54.533 316.527 Z" fill="#FFFFFF"/>
  <path fill="#FFFFFF"/>
  <path fill="#FFFFFF"/>
  <path fill="#FFFFFF"/>
  <path fill="#FFFFFF"/>
  <path fill="#FFFFFF"/>
  <path fill="#FFFFFF"/>
  <path fill="#FFFFFF"/>
  <path fill="#FFFFFF"/>
  <path fill="#FFFFFF"/>
  <path fill="#FFFFFF"/>
  <path fill="#FFFFFF"/>
  <path d="M 15.263 224.16 C 16.373 224.713 16.373 224.713 16.373 224.713 L 15.263 224.16 Z" fill="#FFFFFF"/>
  <path fill="#FFFFFF"/>
  <path fill="#FFFFFF"/>
  <path fill="#EDEDED"/>
  <path fill="#FFFFFF"/>
  <path fill="#FFFFFF"/>
  <path fill="#FFFFFF"/>
  <path fill="#FFFFFF"/>
  <path fill="#FFFFFF"/>
  <path fill="#FFFFFF"/>
  <path fill="#FFFFFF"/>
  <path fill="#FFFFFF"/>
  <path fill="#FFFFFF"/>
  <path fill="#FFFFFF"/>
  <path fill="#FFFFFF"/>
  <path d="M 473.781 162.766 C 474.887 163.319 474.887 163.319 474.887 163.319 L 473.781 162.766 Z" fill="#FFFFFF"/>
  <path d="M 473.228 161.66 C 474.334 162.213 474.334 162.213 474.334 162.213 L 473.228 161.66 Z" fill="#FFFFFF"/>
  <path fill="#FFFFFF"/>
  <path d="M 442.807 143.961 C 443.913 144.514 443.913 144.514 443.913 144.514 L 442.807 143.961 Z" fill="#FFFFFF"/>
  <path d="M 430.639 143.408 C 431.745 143.961 431.745 143.961 431.745 143.961 L 430.639 143.408 Z" fill="#FFFFFF"/>
  <path fill="#FFFFFF"/>
  <path d="M 436.723 119.624 C 437.829 120.178 437.829 120.178 437.829 120.178 L 436.723 119.624 Z" fill="#FFFFFF"/>
  <path fill="#FFFFFF"/>
  <path fill="#FFFFFF"/>
  <path fill="#FFFFFF"/>
  <path fill="#FFFFFF"/>
  <path fill="#FFFFFF"/>
  <path fill="#FFFFFF"/>
  <path fill="#FFFFFF"/>
  <path fill="#FFFFFF"/>
  <path fill="#FFFFFF"/>
  <path fill="#FFFFFF"/>
  <path fill="#FFFFAA"/>
  <path fill="#FFFFFF"/>
  <path fill="#BFBFBF"/>
  <path fill="#FFFFFF"/>
  <path fill="#FFFFFF"/>
  <path fill="#FFFFFF"/>
  <path fill="#FFFFFF"/>
  <path fill="#FFAAAA"/>
  <path fill="#FFFFFF"/>
  <path fill="#FFFFFF"/>
  <path fill="#FFFFFF"/>
  <path fill="#FFFFFF"/>
  <path fill="#FFFFFF"/>
  <path fill="#FFFFFF"/>
  <path fill="#FFFFFF"/>
  <path fill="#FFFFFF"/>
  <path fill="#FFFFFF"/>
  <path fill="#FFFFFF"/>
  <path fill="#FFFFFF"/>
  <path fill="#FFFFFF"/>
  <path fill="#FFFFFF"/>
  <path fill="#FFFFFF"/>
  <path fill="#FFFFFF"/>
  <path fill="#FFFFFF"/>
  <path fill="#FFFFFF"/>
  <path fill="#FFFFFF"/>
  <path fill="#FFFFFF"/>
  <path fill="#FFFFFF"/>
  <path fill="#FFFFFF"/>
  <path fill="#FFFFFF"/>
  <path fill="#FFFFFF"/>
  <path fill="#FFFFFF"/>
  <path fill="#FFFFFF"/>
  <path fill="#FFFFFF"/>
  <path fill="#FFFFFF"/>
  <path fill="#FFFFFF"/>
  <path fill="#FFFFFF"/>
  <path fill="#FFFFFF"/>
  <path fill="#FFFFFF"/>
  <path fill="#FFFFFF"/>
  <path fill="#FFFFFF"/>
  <path fill="#FFFFFF"/>
  <path fill="#FFFFFF"/>
  <path fill="#FFFFFF"/>
  <path fill="#FFFFFF"/>
  <path fill="#FFFFFF"/>
  <path fill="#FFFFFF"/>
  <path fill="#FFFFFF"/>
  <path fill="#FFFFFF"/>
  <path fill="#FFFFFF"/>
  <path fill="#FFFFFF"/>
  <path fill="#FFFFFF"/>
  <path fill="#FFFFFF"/>
  <path fill="#FFFFFF"/>
  <path fill="#FFFFFF"/>
  <path fill="#FFFFFF"/>
  <path fill="#FFFFFF"/>
  <path fill="#FFFFFF"/>
  <path fill="#FFFFFF"/>
  <path fill="#FFFFFF"/>
  <path fill="#FFFFFF"/>
  <path fill="#FFFFFF"/>
  <path fill="#FFFFFF"/>
  <path fill="#FFFFFF"/>
  <path fill="#FFFFFF"/>
  <path fill="#FFFFFF"/>
  <path fill="#FFFFFF"/>
  <path fill="#FFFFFF"/>
  <path fill="#FFFFFF"/>
  <path fill="#FFD5D5"/>
  <path fill="#FFFFFF"/>
  <path fill="#FFFFFF"/>
  <path fill="#FFFFFF"/>
  <path fill="#FFFFFF"/>
  <path fill="#FFFFFF"/>
  <path fill="#FFFFFF"/>
  <path fill="#D5D5D5"/>
  <path fill="#FFFFFF"/>
  <path fill="#FFFFFF"/>
  <path fill="#FFFFFF"/>
  <path fill="#FFFFFF"/>
  <path fill="#FFFFFF"/>
  <path fill="#FFFFFF"/>
  <path fill="#FFFFFF"/>
  <path fill="#D5D5D5"/>
  <path fill="#FFFFFF"/>
  <path fill="#FFFFFF"/>
  <path fill="#FFFFFF"/>
  <path fill="#FFFFFF"/>
  <path fill="#FFFFFF"/>
  <path fill="#FFFFFF"/>
  <path fill="#FFFFFF"/>
  <path fill="#FFFFFF"/>
  <path fill="#FFFFCC"/>
  <path fill="#FFFFFF"/>
  <path fill="#FFFFFF"/>
  <path fill="#FFFFFF"/>
  <path fill="#FFFFFF"/>
  <path fill="#FFFFFF"/>
  <path fill="#FFFFFF"/>
  <path fill="#FFFFFF"/>
  <path fill="#FFFFFF"/>
  <path fill="#FFFFFF"/>
  <path fill="#FFFFFF"/>
  <path fill="#FFFFFF"/>
  <path fill="#FFFFFF"/>
  <path fill="#FFFFFF"/>
  <path fill="#FFFFFF"/>
  <path fill="#FFFFFF"/>
  <path fill="#FFFFFF"/>
  <path fill="#FFFFFF"/>
  <path fill="#FFFFFF"/>
  <path fill="#FFFFFF"/>
  <path fill="#FFFFFF"/>
  <path fill="#FFFFFF"/>
  <path fill="#FFFFFF"/>
  <path fill="#FFFFFF"/>
  <path fill="#FFFFFF"/>
  <path fill="#FFFFFF"/>
  <path fill="#FFFFFF"/>
  <path fill="#FFFFFF"/>
  <path fill="#FFFFFF"/>
  <path fill="#FFFFFF"/>
  <path fill="#FFFFFF"/>
  <path fill="#FFFFFF"/>
  <path fill="#FFFFFF"/>
  <path fill="#FFFFFF"/>
  <path fill="#FFFFFF"/>
  <path fill="#FFFFFF"/>
  <path fill="#FFFFFF"/>
  <path fill="#FFFFFF"/>
  <path fill="#FFFFFF"/>
  <path fill="#FFFFFF"/>
  <path fill="#FFFFFF"/>
  <path fill="#FFFFFF"/>
  <path fill="#FFFFFF"/>
  <path fill="#FFFFFF"/>
  <path fill="#FFFFFF"/>
  <path fill="#D5D5D5"/>
  <path fill="#FFFFFF"/>
  <path fill="#FFFFFF"/>
  <path fill="#FFFFFF"/>
  <path fill="#FFFFFF"/>
  <path fill="#FFFFFF"/>
  <path fill="#FFFFFF"/>
  <path fill="#FFFFFF"/>
  <path fill="#FFFFFF"/>
  <path fill="#FFFFFF"/>
  <path fill="#FFFFFF"/>
  <path fill="#FFFFFF"/>
  <path fill="#FFFFFF"/>
  <path fill="#FFFFFF"/>
  <path fill="#FFFFFF"/>
  <path fill="#FFFFFF"/>
  <path fill="#FFFFFF"/>
  <path fill="#FFFFFF"/>
  <path fill="#FFFFFF"/>
  <path fill="#FFFFFF"/>
  <path fill="#FFFFFF"/>
  <path fill="#FFFFFF"/>
  <path fill="#FFFFFF"/>
  <path fill="#FFFFCC"/>
  <path fill="#FFFFFF"/>
  <path fill="#FFFFFF"/>
  <path fill="#FFFFFF"/>
  <path fill="#FFFFFF"/>
  <path fill="#FFFFFF"/>
  <path fill="#FFFFFF"/>
  <path fill="#FFFFFF"/>
  <path fill="#FFFFFF"/>
  <path fill="#FFFFFF"/>
  <path fill="#FFFFFF"/>
  <path fill="#FFFFFF"/>
  <path fill="#FFFFFF"/>
  <path fill="#FFFFFF"/>
  <path fill="#FFFFFF"/>
  <path fill="#FFFFFF"/>
  <path fill="#FFFFFF"/>
  <path fill="#FFFFFF"/>
  <path fill="#DBDBDB"/>
  <path fill="#FFFFFF"/>
  <path fill="#FFFFFF"/>
  <path fill="#FFFFFF"/>
  <path fill="#FFFFFF"/>
  <path fill="#FFFFFF"/>
  <path fill="#FFFFFF"/>
  <path fill="#FFFFFF"/>
  <path fill="#FFCCCC"/>
  <path fill="#FFFFFF"/>
  <path fill="#FFFFFF"/>
  <path fill="#FFFFFF"/>
  <path fill="#FFFFFF"/>
  <path fill="#FFFFFF"/>
  <path fill="#FFFFFF"/>
  <path fill="#FFFFFF"/>
  <path fill="#FFFFFF"/>
  <path fill="#FFFFFF"/>
  <path fill="#FFFFFF"/>
  <path fill="#FFFFFF"/>
  <path fill="#FFFFFF"/>
  <path fill="#FFFFFF"/>
  <path fill="#FFFFFF"/>
  <path fill="#FFFFFF"/>
  <path fill="#FFFFFF"/>
  <path fill="#FFFFFF"/>
  <path fill="#FFFFFF"/>
  <path fill="#FFFFFF"/>
  <path fill="#FFFFFF"/>
  <path fill="#FFFFFF"/>
  <path fill="#FFFFFF"/>
  <path fill="#FFFFFF"/>
  <path fill="#FFFFFF"/>
  <path fill="#FFFFFF"/>
  <path fill="#FFFFFF"/>
  <path fill="#FFFFFF"/>
  <path fill="#FFFFFF"/>
  <path fill="#FFFFFF"/>
  <path fill="#FFFFFF"/>
  <path fill="#FFFFFF"/>
  <path fill="#FFFFFF"/>
  <path fill="#FFFFFF"/>
  <path fill="#FFFFFF"/>
  <path fill="#FFFFFF"/>
  <path fill="#FFFFFF"/>
  <path fill="#FFFFFF"/>
  <path fill="#FFFFFF"/>
  <path fill="#FFFFFF"/>
  <path fill="#FFFFFF"/>
  <path fill="#FFFFFF"/>
  <path fill="#FFFFFF"/>
  <path fill="#FFFFFF"/>
  <path fill="#FFFFFF"/>
  <path fill="#FFFFFF"/>
  <path fill="#FFFFFF"/>
  <path fill="#FFFFFF"/>
  <path fill="#FFFFFF"/>
  <path fill="#FFFFFF"/>
  <path fill="#FFFFFF"/>
  <path fill="#FFFFFF"/>
  <path fill="#FFFFFF"/>
  <path fill="#FFFFFF"/>
  <path fill="#FFFFFF"/>
  <path fill="#FFFFFF"/>
  <path fill="#FFFFFF"/>
  <path fill="#FFFFFF"/>
  <path fill="#FFFFFF"/>
  <path fill="#FFFFFF"/>
  <path fill="#FFFFFF"/>
  <path fill="#FFFFFF"/>
  <path fill="#FFFFFF"/>
  <path fill="#FFFFFF"/>
  <path fill="#FFFFFF"/>
  <path fill="#FFFFFF"/>
  <path fill="#CCCCCC"/>
  <path fill="#FFFFFF"/>
  <path fill="#FFFFFF"/>
  <path fill="#FFFFFF"/>
  <path fill="#FFFFFF"/>
  <path fill="#FFFFFF"/>
  <path fill="#FFFFFF"/>
  <path fill="#FFFFFF"/>
  <path fill="#FFFFFF"/>
  <path fill="#FFFFFF"/>
  <path fill="#FFFFFF"/>
  <path fill="#FFFFFF"/>
  <path fill="#FFFFFF"/>
  <path fill="#FFFFFF"/>
  <path fill="#FFFFFF"/>
  <path fill="#FFFFFF"/>
  <path fill="#FFFFFF"/>
  <path fill="#FFFFFF"/>
  <path fill="#FFFFFF"/>
  <path fill="#FFFFFF"/>
  <path fill="#FFFFFF"/>
 <path fill="#FED8B2" fill-rule="nonzero" paint-order="stroke markers" d="M 24.416 98.761 L 409.868 98.486 C 414.656 98.973 397.834 246.714 389.264 245.819 L 43.037 246.014 C 33.488 247.94 15.471 100.554 24.416 98.761 Z"/>
</svg>