<?xml version="1.0" encoding="utf-8"?>
<svg xmlns="http://www.w3.org/2000/svg" viewBox="0 0 500 500">
  <path d="M 18.718 180.596 C 17.534 187.554 403.533 181.116 401.452 182.677 C 400.358 183.498 401.442 185.412 401.438 186.781 C 401.428 190.036 401.412 193.293 401.39 196.55 C 401.932 196.547 401.932 196.547 402.486 196.544 C 419.749 196.501 437.111 199.943 450.458 211.997 C 450.944 212.397 451.428 212.798 451.928 213.21 C 459.526 219.79 464.379 231.004 465.703 241.049 C 467.182 263.765 459.43 283.934 446.14 301.769 C 445.514 302.611 444.899 303.462 444.289 304.315 C 439.985 310.282 435.326 316.008 430.136 321.166 C 429.728 321.59 429.319 322.015 428.898 322.453 C 428.489 322.878 428.08 323.302 427.659 323.741 C 427.382 324.04 427.104 324.34 426.818 324.649 C 424.397 327.236 421.829 329.547 419.105 331.785 C 418.481 332.298 417.859 332.813 417.237 333.329 C 412.444 337.305 407.617 341.021 402.381 344.338 C 401.85 344.693 401.318 345.049 400.77 345.414 C 390.953 351.893 379.644 357.638 368.199 360.102 C 365.042 360.772 365.042 360.772 362.848 363.05 C 362.511 363.734 362.193 364.427 361.894 365.13 C 361.529 365.881 361.163 366.632 360.797 367.382 C 360.622 367.755 360.448 368.127 360.268 368.511 C 352.254 385.116 339.793 400.961 327.043 413.856 C 325.793 415.146 324.551 416.445 323.322 417.758 C 320.725 420.513 318.085 423.074 315.175 425.476 C 314.059 426.4 312.961 427.335 311.868 428.288 C 307.93 431.706 303.894 434.809 299.579 437.7 C 299.217 437.944 298.855 438.186 298.482 438.436 C 298.159 438.65 297.835 438.863 297.503 439.084 C 297.273 439.255 297.045 439.427 296.809 439.603 C 296.809 439.773 296.809 439.944 296.809 440.119 C 328.377 440.119 359.944 440.119 392.468 440.119 C 394.26 445.705 395.01 450.597 392.527 456.061 C 390.73 459.468 388.139 461.249 385.034 463.29 C 384.635 463.568 384.236 463.845 383.826 464.132 C 378.064 467.523 371.6 466.809 365.18 466.773 C 363.802 466.774 362.423 466.781 361.044 466.788 C 358.052 466.798 355.059 466.797 352.067 466.791 C 347.617 466.778 343.168 466.785 338.717 466.793 C 330.769 466.81 322.822 466.809 314.873 466.799 C 307.916 466.792 300.96 466.791 294.003 466.793 C 293.542 466.793 293.081 466.793 292.605 466.793 C 290.731 466.794 288.857 466.795 286.983 466.797 C 269.406 466.807 251.83 466.798 234.253 466.782 C 218.642 466.767 203.033 466.768 187.423 466.783 C 169.879 466.799 152.336 466.806 134.794 466.796 C 132.921 466.795 131.048 466.794 129.175 466.793 C 128.718 466.792 128.261 466.792 127.786 466.792 C 120.833 466.79 113.879 466.792 106.934 466.801 C 99.021 466.81 91.117 466.808 83.213 466.792 C 78.796 466.782 74.368 466.782 69.942 466.792 C 66.994 466.8 64.037 466.795 61.078 466.782 C 59.394 466.775 57.709 466.774 56.033 466.784 C 43.219 466.849 43.219 466.849 37.582 463.29 C 37.107 463 36.633 462.709 36.14 462.409 C 32.429 460.051 29.526 456.632 28.451 452.187 C 27.85 448.336 27.869 444.34 29.159 440.634 C 30.673 439.848 32.241 440.049 33.9 440.056 C 34.491 440.055 34.491 440.055 35.091 440.055 C 36.408 440.054 37.726 440.057 39.044 440.06 C 39.984 440.06 40.925 440.06 41.875 440.06 C 44.438 440.059 47.001 440.062 49.563 440.066 C 52.243 440.069 54.922 440.069 57.602 440.07 C 62.674 440.072 67.755 440.076 72.827 440.082 C 78.607 440.086 84.378 440.089 90.158 440.092 C 102.041 440.098 113.924 440.106 125.815 440.119 C 125.546 439.945 125.278 439.772 125 439.594 C 123.781 438.797 122.553 437.999 121.325 437.2 C 120.698 436.792 120.698 436.792 120.052 436.376 C 116.504 434.06 113.215 431.518 109.954 428.789 C 109.173 428.166 108.403 427.543 107.624 426.922 C 106.915 426.343 106.199 425.764 105.491 425.184 C 105.034 424.821 104.586 424.458 104.12 424.084 C 103.662 423.715 103.205 423.345 102.731 422.964 C 102.31 422.627 101.898 422.288 101.458 421.94 C 101.154 421.652 100.849 421.363 100.535 421.065 C 100.535 420.725 100.535 420.385 100.535 420.036 C 100.257 419.918 99.989 419.801 99.702 419.679 C 98.214 418.81 97.192 417.714 95.983 416.458 C 95.741 416.207 95.499 415.956 95.248 415.695 C 94.737 415.163 94.235 414.628 93.725 414.094 C 92.954 413.287 92.183 412.485 91.413 411.683 C 88.733 408.891 86.134 406.054 83.679 403.043 C 83.204 402.468 82.73 401.895 82.254 401.32 C 81.815 400.779 81.367 400.237 80.928 399.694 C 80.686 399.409 80.453 399.123 80.211 398.83 C 78.679 396.938 77.236 395.003 75.91 392.945 C 75.085 392.045 74.431 391.907 73.275 391.712 C 73.598 391.373 73.929 391.033 74.269 390.683 C 73.929 390.222 73.589 389.76 73.249 389.284 C 66.832 380.384 60.532 370.592 56.061 360.482 C 55.514 359.106 55.514 359.106 53.946 358.756 C 53.973 358.404 54.008 358.053 54.044 357.69 C 53.91 355.738 53.148 354.328 52.27 352.642 C 47.386 342.852 43.605 332.578 40.064 322.195 C 39.913 321.74 39.751 321.285 39.59 320.815 C 39.456 320.404 39.322 319.993 39.178 319.569 C 39.061 319.215 38.945 318.861 38.819 318.497 C 38.578 317.56 38.578 317.56 38.578 316.016 C 38.084 315.846 37.592 315.676 37.09 315.501 C 37.422 315.501 37.744 315.501 38.084 315.501 C 37.681 314.32 37.278 313.141 36.874 311.96 C 36.758 311.626 36.641 311.29 36.525 310.945 C 35.889 309.073 35.889 309.073 35.11 307.262 C 34.948 306.582 34.795 305.896 34.661 305.21 C 34.115 302.576 33.479 299.972 32.824 297.366 C 25.62 268.228 21.183 238.586 20.099 208.482 C 20.081 207.933 20.064 207.385 20.045 206.82 C 20.01 205.794 19.982 204.767 19.956 203.74 C 19.938 203.288 19.928 202.836 19.911 202.37 C 19.902 201.977 19.893 201.585 19.884 201.18 C 19.794 199.991 19.794 199.991 18.755 198.609 C 19.49 198.354 19.49 198.354 20.234 198.094 C 19.749 198.094 19.257 198.094 18.755 198.094 C 18.836 197.807 18.916 197.52 18.997 197.223 C 19.266 195.939 19.311 194.8 19.302 193.484 C 19.302 192.979 19.302 192.475 19.302 191.954 C 19.302 191.412 19.302 190.871 19.292 190.313 C 19.292 189.756 19.292 189.2 19.292 188.625 C 19.292 186.846 19.283 185.068 19.275 183.289 C 19.275 182.083 19.354 176.857 18.718 180.596 Z M 37.118 181.262 C 40.023 179.515 36.803 192.718 37.771 218.209 C 37.806 218.689 37.834 219.17 37.869 219.664 C 38.192 224.566 38.658 229.427 39.312 234.296 C 39.59 236.359 39.823 238.425 40.047 240.494 C 40.083 240.858 40.127 241.221 40.163 241.596 C 40.325 243.074 40.486 244.552 40.647 246.031 C 41.149 250.795 41.821 255.479 42.717 260.18 C 43.067 262.111 43.255 264.018 43.416 265.972 C 43.569 267.447 43.901 268.87 44.214 270.314 C 44.572 271.955 44.904 273.6 45.245 275.245 C 50.514 301.022 58.068 325.629 68.812 349.488 C 69.019 349.958 69.233 350.427 69.449 350.912 C 74.458 361.99 80.578 372.655 87.649 382.445 C 87.855 382.739 88.07 383.035 88.286 383.338 C 95.714 393.746 104.236 404.148 114.04 412.212 C 114.945 412.96 115.832 413.73 116.702 414.517 C 123.637 420.794 131.568 425.884 139.687 430.334 C 140.018 430.516 140.342 430.697 140.678 430.884 C 147.18 434.491 153.87 437.621 161.346 437.62 C 162.007 437.623 162.007 437.623 162.679 437.625 C 164.156 437.63 165.633 437.632 167.108 437.634 C 168.167 437.637 169.224 437.641 170.281 437.644 C 173.759 437.656 177.236 437.661 180.714 437.666 C 181.912 437.668 183.111 437.67 184.309 437.673 C 189.943 437.681 195.577 437.689 201.209 437.694 C 207.704 437.699 214.197 437.713 220.69 437.733 C 225.714 437.749 230.738 437.757 235.762 437.758 C 238.76 437.759 241.758 437.764 244.755 437.776 C 247.58 437.789 250.404 437.791 253.229 437.785 C 254.261 437.785 255.293 437.789 256.325 437.795 C 263.87 437.845 270.388 437.001 277.325 433.681 C 277.872 433.422 277.872 433.422 278.431 433.159 C 285.911 429.518 292.763 424.749 299.287 419.521 C 299.878 419.055 300.47 418.59 301.061 418.124 C 304.659 415.265 308.023 412.217 311.311 408.979 C 312.669 407.676 312.669 407.676 313.843 406.792 C 314.11 406.573 314.377 406.356 314.652 406.131 C 314.652 405.791 314.652 405.452 314.652 405.101 C 314.926 404.989 315.201 404.877 315.485 404.762 C 316.997 403.854 318.033 402.617 319.176 401.272 C 319.663 400.705 320.151 400.14 320.639 399.575 C 320.883 399.29 321.126 399.005 321.377 398.712 C 322.014 397.976 322.665 397.253 323.318 396.532 C 327.025 392.43 330.274 387.999 333.486 383.474 C 333.739 383.119 333.991 382.765 334.25 382.4 C 348.855 361.689 360.131 338.026 367.19 313.441 C 367.354 312.946 367.516 312.452 367.684 311.943 C 368.489 309.369 369.099 306.743 369.74 304.122 C 370.266 302.007 370.85 300.015 371.651 297.993 C 371.819 296.792 371.985 295.59 372.147 294.389 C 372.471 293.356 372.802 292.327 373.138 291.299 C 373.296 290.615 373.446 289.927 373.59 289.239 C 373.963 287.455 374.344 285.673 374.734 283.892 C 375.839 278.767 376.863 273.695 377.42 268.471 C 377.598 267.097 377.598 267.097 378.095 266.067 C 378.184 265.286 378.254 264.502 378.311 263.717 C 378.461 262.014 378.67 260.392 379.055 258.728 C 380.176 253.79 380.655 248.747 380.947 243.691 C 381.068 242.379 381.068 242.379 381.564 241.349 C 381.676 240.548 381.764 239.744 381.84 238.938 C 381.912 238.184 381.912 238.184 381.986 237.414 C 382.036 236.867 382.085 236.318 382.136 235.753 C 382.19 235.185 382.243 234.616 382.298 234.031 C 382.411 232.819 382.522 231.608 382.634 230.397 C 382.8 228.58 382.97 226.762 383.143 224.945 C 383.251 223.763 383.36 222.581 383.47 221.4 C 383.52 220.869 383.569 220.341 383.62 219.796 C 384.909 205.509 387.44 172.99 387.561 181.468 C 387.598 184.094 31.155 184.849 37.118 181.262 Z M 400.894 217.663 C 400.844 218.286 400.795 218.909 400.743 219.552 C 398.783 244.007 398.783 244.007 396.929 255.768 C 396.806 256.557 396.806 256.557 396.681 257.364 C 395.478 264.877 393.76 272.243 391.942 279.616 C 391.836 280.045 391.73 280.475 391.621 280.918 C 390.481 285.515 389.293 290.081 387.908 294.606 C 387.68 295.373 387.462 296.142 387.277 296.921 C 387.024 297.962 386.731 298.976 386.418 299.998 C 386.298 300.389 386.177 300.779 386.054 301.181 C 385.924 301.603 385.793 302.025 385.658 302.459 C 385.521 302.903 385.384 303.348 385.242 303.806 C 384.792 305.258 384.341 306.712 383.888 308.163 C 383.734 308.657 383.58 309.15 383.422 309.657 C 380.723 318.296 377.787 326.814 374.622 335.277 C 374.27 336.229 373.944 337.191 373.633 338.158 C 386.039 334.476 398.223 325.804 407.833 317.046 C 408.081 316.822 408.33 316.598 408.585 316.367 C 410.993 314.196 410.993 314.196 413.285 311.897 C 413.285 311.556 413.285 311.217 413.285 310.867 C 413.7 310.692 413.7 310.692 414.121 310.513 C 415.589 309.648 416.566 308.514 417.746 307.262 C 418.334 306.67 418.334 306.67 418.932 306.066 C 421.758 303.196 424.279 300.23 426.668 296.963 C 426.896 296.654 427.125 296.344 427.361 296.025 C 430.463 291.825 433.488 287.622 436.085 283.06 C 436.256 282.76 436.428 282.461 436.605 282.152 C 443.345 270.311 449.2 256.6 446.432 242.54 C 444.458 234.795 440.058 228.729 433.606 224.356 C 427.803 220.881 421.901 218.975 415.269 218.178 C 414.795 218.12 414.322 218.062 413.836 218.002 C 410.857 217.693 407.903 217.637 404.913 217.65 C 404.332 217.651 404.332 217.651 403.738 217.652 C 402.79 217.655 401.843 217.659 400.894 217.663 Z" fill="#E9E8E6" style=""/>
  <path d="M 55.084 313.428 C 158.132 313.428 261.177 313.428 367.343 313.428 C 357.272 344.817 343.107 374.526 321.188 398.853 C 319.593 400.628 318.065 402.46 316.551 404.309 C 315.796 405.088 315.796 405.088 314.805 405.088 C 314.805 405.427 314.805 405.768 314.805 406.117 C 314.129 406.826 314.129 406.826 313.163 407.662 C 311.491 409.135 309.873 410.648 308.268 412.201 C 305.298 415.006 302.171 417.548 298.945 420.021 C 298.479 420.381 298.479 420.381 298.003 420.749 C 284.611 431.069 271.971 437.774 255.165 437.745 C 254.108 437.749 253.051 437.754 251.994 437.759 C 249.138 437.77 246.28 437.771 243.425 437.77 C 241.033 437.77 238.641 437.775 236.25 437.779 C 230.603 437.789 224.956 437.791 219.309 437.787 C 213.501 437.784 207.693 437.795 201.885 437.815 C 196.881 437.831 191.879 437.836 186.876 437.834 C 183.895 437.833 180.915 437.836 177.933 437.849 C 175.129 437.861 172.324 437.859 169.518 437.849 C 168.495 437.847 167.471 437.85 166.447 437.857 C 145.931 437.996 126.846 424.266 112.194 410.251 C 111.226 409.331 110.24 408.446 109.237 407.566 C 104.684 403.434 100.455 398.935 96.718 394.009 C 95.813 392.832 94.863 391.738 93.868 390.638 C 90.704 386.968 88.043 382.857 85.319 378.826 C 84.997 378.35 84.997 378.35 84.665 377.865 C 74.638 363.065 55.084 332.78 55.084 313.428 Z" fill="#594223" style=""/>
  <path d="M 48.038 286.71 C 162.373 286.71 257.958 284.698 375.753 284.698 C 376.158 286.383 371.996 295.049 371.996 297.501 C 372.16 295.292 364.694 327.141 364.946 313.258 C 250.452 313.258 173.066 313.78 55.097 313.78 C 54.937 323.807 48.865 305.966 49.233 297.526 C 49.26 297.022 47.492 287.86 48.038 286.71 Z" fill="#FEF0D5" style=""/>
  <path d="M 33.962 440.053 C 34.303 440.051 34.652 440.049 35.002 440.047 C 37.233 440.052 39.348 440.255 41.552 440.634 C 41.552 440.803 41.552 440.973 41.552 441.148 C 37.627 441.148 33.702 441.148 29.651 441.148 C 30.306 441.488 30.96 441.828 31.641 442.177 C 30.96 442.951 30.96 442.951 30.154 443.722 C 29.822 443.722 29.5 443.722 29.159 443.722 C 28.998 444.233 28.836 444.742 28.666 445.268 C 28.72 444.505 28.782 443.743 28.855 442.982 C 28.881 442.558 28.917 442.134 28.953 441.698 C 29.025 441.345 29.088 440.995 29.159 440.634 C 30.682 439.84 32.286 440.043 33.962 440.053 Z" fill="#E0DEDC" style=""/>
  <path d="M 24.203 244.954 C 24.365 244.954 24.526 244.954 24.696 244.954 C 24.947 246.681 25.198 248.408 25.44 250.135 C 25.512 250.622 25.583 251.106 25.655 251.607 C 26.023 254.227 26.273 256.725 26.184 259.372 C 26.023 258.863 25.861 258.353 25.691 257.828 C 25.359 257.828 25.037 257.828 24.696 257.828 C 23.469 249.224 23.469 249.224 24.203 244.954 Z" fill="#F2F0EC" style=""/>
  <path d="M 23.209 231.565 C 24.347 240.169 24.347 240.169 24.203 244.439 C 24.043 244.439 23.872 244.439 23.711 244.439 C 23.54 243.59 23.379 242.739 23.209 241.864 C 23.047 241.864 22.887 241.864 22.716 241.864 C 22.384 238.636 22.061 235.406 21.721 232.08 C 22.716 231.565 22.716 231.565 23.209 231.565 Z" fill="#EFEDEB" style=""/>
  <path d="M 399.903 156.383 C 400.066 156.383 400.23 156.383 400.399 156.383 C 400.428 156.837 400.459 157.29 400.489 157.758 C 400.531 158.356 400.573 158.953 400.616 159.57 C 400.655 160.161 400.695 160.753 400.738 161.362 C 400.861 163.025 400.861 163.025 401.157 164.43 C 401.398 165.696 401.439 166.841 401.421 168.13 C 401.416 168.538 401.412 168.945 401.407 169.364 C 401.401 169.668 401.395 169.973 401.39 170.287 C 401.063 170.456 400.736 170.627 400.399 170.802 C 399.874 169.165 399.846 168.008 399.854 166.29 C 399.856 165.714 399.858 165.138 399.86 164.545 C 399.863 163.944 399.867 163.343 399.872 162.724 C 399.875 161.813 399.875 161.813 399.878 160.884 C 399.885 159.385 399.893 157.883 399.903 156.383 Z" fill="#F1EFEC" style=""/>
  <path d="M 463.841 237.745 C 467.267 242.014 465.682 249.032 465.327 254.223 C 465.165 254.223 465 254.223 464.832 254.223 C 464.665 252.056 464.5 249.888 464.337 247.722 C 464.289 247.109 464.243 246.496 464.193 245.864 C 464.149 245.271 464.104 244.677 464.058 244.065 C 464.016 243.52 463.974 242.976 463.932 242.415 C 463.842 240.853 463.825 239.308 463.841 237.745 Z" fill="#F2EFED" style=""/>
  <path d="M 394.45 263.492 C 394.615 263.492 394.777 263.492 394.947 263.492 C 395.608 266.242 395.2 268.043 394.45 270.702 C 394.123 270.702 393.796 270.702 393.46 270.702 C 393.296 271.211 393.132 271.721 392.963 272.246 C 393.277 269.269 393.783 266.404 394.45 263.492 Z" fill="#F1EFED" style=""/>
  <path d="M 385.034 301.082 C 385.197 301.082 385.361 301.082 385.529 301.082 C 385.717 304.136 385.086 306.476 384.042 309.322 C 383.715 309.152 383.387 308.983 383.051 308.808 C 384.006 303.37 384.006 303.37 385.034 301.082 Z" fill="#F0EEEA" style=""/>
  <path d="M 397.425 244.954 C 397.589 244.954 397.752 244.954 397.92 244.954 C 398.333 247.673 398.537 249.955 397.92 252.678 C 397.154 253.553 397.154 253.553 396.434 254.223 C 396.911 247.699 396.911 247.699 397.425 244.954 Z" fill="#F3F0EE" style=""/>
  <path d="M 374.626 332.494 C 374.788 332.494 374.953 332.494 375.121 332.494 C 375.21 334.527 375.167 335.892 374.129 337.644 C 374.784 337.983 375.438 338.323 376.113 338.673 C 375.131 338.844 374.15 339.013 373.138 339.188 C 373.376 336.761 373.618 334.726 374.626 332.494 Z" fill="#EFEEEB" style=""/>
  <path d="M 34.115 298.508 C 35.306 299.747 35.494 300.626 35.943 302.306 C 36.149 303.044 36.149 303.044 36.355 303.799 C 36.588 305.188 36.544 305.949 36.095 307.262 C 36.095 306.753 36.095 306.242 36.095 305.717 C 35.772 305.717 35.44 305.717 35.11 305.717 C 34.321 303.209 34.007 301.182 34.115 298.508 Z" fill="#F3F0EC" style=""/>
  <path d="M 107.965 406.646 C 110.339 408.468 112.66 410.325 114.91 412.31 C 114.578 412.65 114.255 412.99 113.914 413.341 C 112.92 412.421 111.934 411.499 110.939 410.573 C 110.661 410.312 110.374 410.05 110.079 409.78 C 109.362 409.101 108.663 408.39 107.965 407.676 C 107.965 407.336 107.965 406.996 107.965 406.646 Z" fill="#F2F1EE" style=""/>
  <path d="M 398.911 227.445 C 399.075 227.445 399.238 227.445 399.407 227.445 C 399.571 230.165 399.734 232.884 399.903 235.685 C 399.739 235.685 399.576 235.685 399.407 235.685 C 399.244 236.875 399.079 238.064 398.911 239.29 C 398.749 239.29 398.584 239.29 398.416 239.29 C 398.337 235.316 398.577 231.403 398.911 227.445 Z" fill="#F3F1EE" style=""/>
  <path d="M 29.159 443.722 C 29.321 443.722 29.491 443.722 29.651 443.722 C 29.651 446.442 29.651 449.16 29.651 451.962 C 29.491 451.962 29.329 451.962 29.159 451.962 C 28.836 449.753 28.505 447.543 28.165 445.268 C 28.495 445.268 28.827 445.268 29.159 445.268 C 29.159 444.758 29.159 444.248 29.159 443.722 Z" fill="#F1EFED" style=""/>
  <path d="M 301.269 440.119 C 302.603 440.209 303.91 440.437 305.235 440.634 C 305.235 440.803 305.235 440.973 305.235 441.148 C 302.827 441.649 300.551 441.724 298.11 441.695 C 297.746 441.693 297.38 441.69 297.005 441.688 C 296.114 441.682 295.222 441.673 294.331 441.662 C 294.331 441.492 294.331 441.323 294.331 441.148 C 294.789 441.116 295.249 441.086 295.722 441.053 C 296.613 440.989 296.613 440.989 297.521 440.922 C 298.41 440.86 298.41 440.86 299.316 440.796 C 300.717 440.8 300.717 440.8 301.269 440.119 Z" fill="#F0EFED" style=""/>
  <path d="M 122.84 437.028 C 124.972 437.834 126.837 438.925 128.781 440.119 C 127.527 440.603 126.997 440.72 125.743 440.157 C 125.394 439.921 125.053 439.684 124.695 439.442 C 124.346 439.21 123.996 438.978 123.637 438.741 C 123.369 438.515 123.108 438.29 122.84 438.058 C 122.84 437.719 122.84 437.378 122.84 437.028 Z" fill="#F1EEEB" style=""/>
  <path d="M 27.671 269.671 C 28.505 271.197 28.827 272.437 28.971 274.177 C 29.006 274.589 29.051 275 29.088 275.424 C 29.114 275.735 29.132 276.045 29.159 276.365 C 28.998 276.026 28.836 275.686 28.666 275.336 C 28.335 275.336 28.012 275.336 27.671 275.336 C 27.035 271.51 27.035 271.51 27.671 269.671 Z" fill="#F1F0ED" style=""/>
  <path d="M 388.998 287.18 C 389.557 288.016 389.557 288.016 389.991 289.239 C 389.557 290.913 389.557 290.913 388.998 292.33 C 388.671 292.33 388.344 292.33 388.008 292.33 C 387.844 292.669 387.681 293.009 387.511 293.359 C 387.666 292.618 387.821 291.877 387.977 291.138 C 388.062 290.726 388.149 290.313 388.238 289.889 C 388.503 288.724 388.503 288.724 388.998 287.18 Z" fill="#F1EEEC" style=""/>
  <path d="M 395.938 254.739 C 396.101 254.739 396.265 254.739 396.434 254.739 C 396.434 256.947 396.434 259.156 396.434 261.432 C 396.107 261.432 395.78 261.432 395.442 261.432 C 395.278 261.942 395.115 262.452 394.947 262.977 C 395.017 262.087 395.09 261.196 395.164 260.305 C 395.203 259.809 395.243 259.314 395.285 258.803 C 395.431 257.423 395.654 256.094 395.938 254.739 Z" fill="#F4F2F0" style=""/>
  <path d="M 100.043 419.006 C 102.946 420.936 102.946 420.936 103.511 422.095 C 102.435 421.834 101.521 421.58 100.535 421.065 C 100.535 420.725 100.535 420.385 100.535 420.036 C 100.203 419.865 99.881 419.695 99.541 419.521 C 99.702 419.35 99.872 419.181 100.043 419.006 Z" fill="#F0EFEC" style=""/>
  <path d="M 387.016 293.874 C 387.179 293.874 387.343 293.874 387.511 293.874 C 387.676 295.233 387.839 296.592 388.008 297.993 C 387.026 298.503 387.026 298.503 386.025 299.023 C 386.352 297.324 386.679 295.624 387.016 293.874 Z" fill="#F2F0EE" style=""/>
  <path d="M 444.015 234.656 C 445.453 235.888 445.751 236.876 445.998 238.776 C 445.343 238.434 444.689 238.094 444.015 237.745 C 444.015 236.725 444.015 235.706 444.015 234.656 Z" fill="#F0EEEC" style=""/>
  <path d="M 21.721 237.23 C 21.891 237.23 22.053 237.23 22.223 237.23 C 22.223 238.759 22.223 240.289 22.223 241.864 C 22.053 241.864 21.891 241.864 21.721 241.864 C 21.721 240.335 21.721 238.806 21.721 237.23 Z" fill="#FFFFFF" style=""/>
  <path d="M 18.755 191.4 C 18.916 191.4 19.078 191.4 19.248 191.4 C 19.248 192.76 19.248 194.118 19.248 195.519 C 19.087 195.519 18.916 195.519 18.755 195.519 C 18.755 194.159 18.755 192.801 18.755 191.4 Z" fill="#FFFFFF" style=""/>
  <path d="M 418.241 304.173 C 418.733 304.342 419.223 304.512 419.728 304.688 C 419.238 304.858 418.747 305.027 418.241 305.202 C 418.241 304.863 418.241 304.523 418.241 304.173 Z" fill="#FFFFFF" style=""/>
  <path d="M 23.209 250.619 C 23.379 251.298 23.54 251.978 23.711 252.678 C 23.379 252.169 23.056 251.658 22.716 251.134 C 22.877 250.963 23.038 250.794 23.209 250.619 Z" fill="#FFFFFF" style=""/>
  <path d="M 18.755 171.317 C 18.916 171.317 19.078 171.317 19.248 171.317 C 19.248 172.167 19.248 173.016 19.248 173.891 C 19.087 173.891 18.916 173.891 18.755 173.891 C 18.755 173.043 18.755 172.192 18.755 171.317 Z" fill="#FFFFFF" style=""/>
  <path d="M 109.954 439.603 C 111.934 440.119 111.934 440.119 111.934 440.119 L 109.954 439.603 Z" fill="#FFFFFF" style=""/>
  <path d="M 388.008 329.406 C 388.334 329.575 388.661 329.745 388.998 329.92 C 388.508 329.92 388.017 329.92 387.511 329.92 C 387.676 329.75 387.839 329.58 388.008 329.406 Z" fill="#FFFFFF" style=""/>
  <path d="M 25.691 271.217 C 26.014 271.556 26.345 271.896 26.677 272.246 C 26.193 272.501 26.193 272.501 25.691 272.761 C 25.691 272.25 25.691 271.741 25.691 271.217 Z" fill="#FFFFFF" style=""/>
  <path d="M 465.823 240.834 C 466.32 242.894 466.32 242.894 466.32 242.894 L 465.823 240.834 Z" fill="#FFFFFF" style=""/>
  <path d="M 405.851 218.178 C 407.833 218.692 407.833 218.692 407.833 218.692 L 405.851 218.178 Z" fill="#FFFFFF" style=""/>
  <path d="M 19.248 205.818 C 19.741 207.878 19.741 207.878 19.741 207.878 L 19.248 205.818 Z" fill="#FFFFFF" style=""/>
  <path d="M 18.755 188.825 C 19.248 190.884 19.248 190.884 19.248 190.884 L 18.755 188.825 Z" fill="#FFFFFF" style=""/>
  <path d="M 18.755 183.676 C 19.248 185.734 19.248 185.734 19.248 185.734 L 18.755 183.676 Z" fill="#FFFFFF" style=""/>
  <path d="M 98.555 439.603 C 100.043 440.119 100.043 440.119 100.043 440.119 L 98.555 439.603 Z" fill="#FFFFFF" style=""/>
  <path d="M 390.486 439.088 C 391.973 439.604 391.973 439.604 391.973 439.604 L 390.486 439.088 Z" fill="#FFFFFF" style=""/>
  <path d="M 106.979 427.244 C 107.301 427.584 107.633 427.924 107.965 428.274 C 107.642 428.274 107.31 428.274 106.979 428.274 C 106.979 427.934 106.979 427.594 106.979 427.244 Z" fill="#FFFFFF" style=""/>
  <path d="M 57.907 366.482 C 58.399 366.735 58.399 366.735 58.902 366.996 C 58.408 367.251 58.408 367.251 57.907 367.511 C 57.907 367.171 57.907 366.831 57.907 366.482 Z" fill="#FFFFFF" style=""/>
  <path fill="#FFFFFF" style=""/>
  <path d="M 33.622 304.173 C 33.945 304.173 34.276 304.173 34.607 304.173 C 34.446 304.512 34.284 304.852 34.115 305.202 C 33.953 304.863 33.792 304.523 33.622 304.173 Z" fill="#FFFFFF" style=""/>
  <path fill="#FFFFFF" style=""/>
  <path d="M 426.668 221.781 C 426.831 222.121 426.995 222.461 427.164 222.81 C 426.837 222.641 426.509 222.471 426.172 222.296 C 426.336 222.126 426.499 221.956 426.668 221.781 Z" fill="#FFFFFF" style=""/>
  <path d="M 19.248 201.184 C 19.409 201.523 19.57 201.863 19.741 202.214 C 19.418 202.043 19.087 201.874 18.755 201.699 C 18.916 201.528 19.078 201.358 19.248 201.184 Z" fill="#FFFFFF" style=""/>
  <path d="M 410.312 196.034 C 411.799 196.55 411.799 196.55 411.799 196.55 L 410.312 196.034 Z" fill="#FFFFFF" style=""/>
  <path fill="#FFFFFF" style=""/>
  <path d="M 42.046 465.865 C 43.04 466.38 43.04 466.38 43.04 466.38 L 42.046 465.865 Z" fill="#FFFFFF" style=""/>
  <path fill="#D4D4D4" style=""/>
  <path fill="#FFFFD4" style=""/>
  <path d="M 103.009 439.603 C 104.003 440.119 104.003 440.119 104.003 440.119 L 103.009 439.603 Z" fill="#FFFFFF" style=""/>
  <path d="M 71.787 439.603 C 72.783 440.119 72.783 440.119 72.783 440.119 L 71.787 439.603 Z" fill="#FFFFFF" style=""/>
  <path d="M 59.394 439.603 C 60.389 440.119 60.389 440.119 60.389 440.119 L 59.394 439.603 Z" fill="#FFFFFF" style=""/>
  <path d="M 383.546 439.088 C 384.538 439.604 384.538 439.604 384.538 439.604 L 383.546 439.088 Z" fill="#FFFFFF" style=""/>
  <path d="M 379.085 439.088 C 380.078 439.604 380.078 439.604 380.078 439.604 L 379.085 439.088 Z" fill="#FFFFFF" style=""/>
  <path d="M 34.115 439.088 C 35.11 439.604 35.11 439.604 35.11 439.604 L 34.115 439.088 Z" fill="#FFFFFF" style=""/>
  <path d="M 30.647 439.088 C 31.641 439.604 31.641 439.604 31.641 439.604 L 30.647 439.088 Z" fill="#FFFFFF" style=""/>
  <path d="M 303.748 437.543 C 304.739 438.058 304.739 438.058 304.739 438.058 L 303.748 437.543 Z" fill="#FFFFFF" style=""/>
  <path d="M 91.117 413.341 C 92.112 413.856 92.112 413.856 92.112 413.856 L 91.117 413.341 Z" fill="#FFFFFF" style=""/>
  <path fill="#FFFFFF" style=""/>
  <path d="M 65.838 379.354 C 66.832 379.869 66.832 379.869 66.832 379.869 L 65.838 379.354 Z" fill="#FFFFFF" style=""/>
  <path fill="#FFFFFF" style=""/>
  <path fill="#FFFFFF" style=""/>
  <path fill="#FFFFFF" style=""/>
  <path fill="#FFFFFF" style=""/>
  <path fill="#FFFFFF" style=""/>
  <path fill="#FFFFFF" style=""/>
  <path fill="#FFFFFF" style=""/>
  <path fill="#FFFFFF" style=""/>
  <path fill="#FFFFFF" style=""/>
  <path fill="#FFFFFF" style=""/>
  <path fill="#FFFFFF" style=""/>
  <path d="M 30.647 293.359 C 31.641 293.874 31.641 293.874 31.641 293.874 L 30.647 293.359 Z" fill="#FFFFFF" style=""/>
  <path fill="#FFFFFF" style=""/>
  <path fill="#FFFFFF" style=""/>
  <path fill="#EDEDED" style=""/>
  <path fill="#FFFFFF" style=""/>
  <path fill="#FFFFFF" style=""/>
  <path fill="#FFFFFF" style=""/>
  <path fill="#FFFFFF" style=""/>
  <path fill="#FFFFFF" style=""/>
  <path fill="#FFFFFF" style=""/>
  <path fill="#FFFFFF" style=""/>
  <path fill="#FFFFFF" style=""/>
  <path fill="#FFFFFF" style=""/>
  <path fill="#FFFFFF" style=""/>
  <path fill="#FFFFFF" style=""/>
  <path d="M 441.537 236.2 C 442.529 236.715 442.529 236.715 442.529 236.715 L 441.537 236.2 Z" fill="#FFFFFF" style=""/>
  <path d="M 441.042 235.17 C 442.032 235.685 442.032 235.685 442.032 235.685 L 441.042 235.17 Z" fill="#FFFFFF" style=""/>
  <path fill="#FFFFFF" style=""/>
  <path d="M 413.781 218.692 C 414.771 219.207 414.771 219.207 414.771 219.207 L 413.781 218.692 Z" fill="#FFFFFF" style=""/>
  <path d="M 402.876 218.178 C 403.868 218.692 403.868 218.692 403.868 218.692 L 402.876 218.178 Z" fill="#FFFFFF" style=""/>
  <path fill="#FFFFFF" style=""/>
  <path d="M 408.329 196.034 C 409.32 196.55 409.32 196.55 409.32 196.55 L 408.329 196.034 Z" fill="#FFFFFF" style=""/>
  <path fill="#FFFFFF" style=""/>
  <path fill="#FFFFFF" style=""/>
  <path fill="#FFFFFF" style=""/>
  <path fill="#FFFFFF" style=""/>
  <path fill="#FFFFFF" style=""/>
  <path fill="#FFFFFF" style=""/>
  <path fill="#FFFFFF" style=""/>
  <path fill="#FFFFFF" style=""/>
  <path fill="#FFFFFF" style=""/>
  <path fill="#FFFFFF" style=""/>
  <path fill="#FFFFAA" style=""/>
  <path fill="#FFFFFF" style=""/>
  <path fill="#BFBFBF" style=""/>
  <path fill="#FFFFFF" style=""/>
  <path fill="#FFFFFF" style=""/>
  <path fill="#FFFFFF" style=""/>
  <path fill="#FFFFFF" style=""/>
  <path fill="#FFAAAA" style=""/>
  <path fill="#FFFFFF" style=""/>
  <path fill="#FFFFFF" style=""/>
  <path fill="#FFFFFF" style=""/>
  <path fill="#FFFFFF" style=""/>
  <path fill="#FFFFFF" style=""/>
  <path fill="#FFFFFF" style=""/>
  <path fill="#FFFFFF" style=""/>
  <path fill="#FFFFFF" style=""/>
  <path fill="#FFFFFF" style=""/>
  <path fill="#FFFFFF" style=""/>
  <path fill="#FFFFFF" style=""/>
  <path fill="#FFFFFF" style=""/>
  <path fill="#FFFFFF" style=""/>
  <path fill="#FFFFFF" style=""/>
  <path fill="#FFFFFF" style=""/>
  <path fill="#FFFFFF" style=""/>
  <path fill="#FFFFFF" style=""/>
  <path fill="#FFFFFF" style=""/>
  <path fill="#FFFFFF" style=""/>
  <path fill="#FFFFFF" style=""/>
  <path fill="#FFFFFF" style=""/>
  <path fill="#FFFFFF" style=""/>
  <path fill="#FFFFFF" style=""/>
  <path fill="#FFFFFF" style=""/>
  <path fill="#FFFFFF" style=""/>
  <path fill="#FFFFFF" style=""/>
  <path fill="#FFFFFF" style=""/>
  <path fill="#FFFFFF" style=""/>
  <path fill="#FFFFFF" style=""/>
  <path fill="#FFFFFF" style=""/>
  <path fill="#FFFFFF" style=""/>
  <path fill="#FFFFFF" style=""/>
  <path fill="#FFFFFF" style=""/>
  <path fill="#FFFFFF" style=""/>
  <path fill="#FFFFFF" style=""/>
  <path fill="#FFFFFF" style=""/>
  <path fill="#FFFFFF" style=""/>
  <path fill="#FFFFFF" style=""/>
  <path fill="#FFFFFF" style=""/>
  <path fill="#FFFFFF" style=""/>
  <path fill="#FFFFFF" style=""/>
  <path fill="#FFFFFF" style=""/>
  <path fill="#FFFFFF" style=""/>
  <path fill="#FFFFFF" style=""/>
  <path fill="#FFFFFF" style=""/>
  <path fill="#FFFFFF" style=""/>
  <path fill="#FFFFFF" style=""/>
  <path fill="#FFFFFF" style=""/>
  <path fill="#FFFFFF" style=""/>
  <path fill="#FFFFFF" style=""/>
  <path fill="#FFFFFF" style=""/>
  <path fill="#FFFFFF" style=""/>
  <path fill="#FFFFFF" style=""/>
  <path fill="#FFFFFF" style=""/>
  <path fill="#FFFFFF" style=""/>
  <path fill="#FFFFFF" style=""/>
  <path fill="#FFFFFF" style=""/>
  <path fill="#FFFFFF" style=""/>
  <path fill="#FFFFFF" style=""/>
  <path fill="#FFFFFF" style=""/>
  <path fill="#FFFFFF" style=""/>
  <path fill="#FFD5D5" style=""/>
  <path fill="#FFFFFF" style=""/>
  <path fill="#FFFFFF" style=""/>
  <path fill="#FFFFFF" style=""/>
  <path fill="#FFFFFF" style=""/>
  <path fill="#FFFFFF" style=""/>
  <path fill="#FFFFFF" style=""/>
  <path fill="#D5D5D5" style=""/>
  <path fill="#FFFFFF" style=""/>
  <path fill="#FFFFFF" style=""/>
  <path fill="#FFFFFF" style=""/>
  <path fill="#FFFFFF" style=""/>
  <path fill="#FFFFFF" style=""/>
  <path fill="#FFFFFF" style=""/>
  <path fill="#FFFFFF" style=""/>
  <path fill="#D5D5D5" style=""/>
  <path fill="#FFFFFF" style=""/>
  <path fill="#FFFFFF" style=""/>
  <path fill="#FFFFFF" style=""/>
  <path fill="#FFFFFF" style=""/>
  <path fill="#FFFFFF" style=""/>
  <path fill="#FFFFFF" style=""/>
  <path fill="#FFFFFF" style=""/>
  <path fill="#FFFFFF" style=""/>
  <path fill="#FFFFCC" style=""/>
  <path fill="#FFFFFF" style=""/>
  <path fill="#FFFFFF" style=""/>
  <path fill="#FFFFFF" style=""/>
  <path fill="#FFFFFF" style=""/>
  <path fill="#FFFFFF" style=""/>
  <path fill="#FFFFFF" style=""/>
  <path fill="#FFFFFF" style=""/>
  <path fill="#FFFFFF" style=""/>
  <path fill="#FFFFFF" style=""/>
  <path fill="#FFFFFF" style=""/>
  <path fill="#FFFFFF" style=""/>
  <path fill="#FFFFFF" style=""/>
  <path fill="#FFFFFF" style=""/>
  <path fill="#FFFFFF" style=""/>
  <path fill="#FFFFFF" style=""/>
  <path fill="#FFFFFF" style=""/>
  <path fill="#FFFFFF" style=""/>
  <path fill="#FFFFFF" style=""/>
  <path fill="#FFFFFF" style=""/>
  <path fill="#FFFFFF" style=""/>
  <path fill="#FFFFFF" style=""/>
  <path fill="#FFFFFF" style=""/>
  <path fill="#FFFFFF" style=""/>
  <path fill="#FFFFFF" style=""/>
  <path fill="#FFFFFF" style=""/>
  <path fill="#FFFFFF" style=""/>
  <path fill="#FFFFFF" style=""/>
  <path fill="#FFFFFF" style=""/>
  <path fill="#FFFFFF" style=""/>
  <path fill="#FFFFFF" style=""/>
  <path fill="#FFFFFF" style=""/>
  <path fill="#FFFFFF" style=""/>
  <path fill="#FFFFFF" style=""/>
  <path fill="#FFFFFF" style=""/>
  <path fill="#FFFFFF" style=""/>
  <path fill="#FFFFFF" style=""/>
  <path fill="#FFFFFF" style=""/>
  <path fill="#FFFFFF" style=""/>
  <path fill="#FFFFFF" style=""/>
  <path fill="#FFFFFF" style=""/>
  <path fill="#FFFFFF" style=""/>
  <path fill="#FFFFFF" style=""/>
  <path fill="#FFFFFF" style=""/>
  <path fill="#FFFFFF" style=""/>
  <path fill="#D5D5D5" style=""/>
  <path fill="#FFFFFF" style=""/>
  <path fill="#FFFFFF" style=""/>
  <path fill="#FFFFFF" style=""/>
  <path fill="#FFFFFF" style=""/>
  <path fill="#FFFFFF" style=""/>
  <path fill="#FFFFFF" style=""/>
  <path fill="#FFFFFF" style=""/>
  <path fill="#FFFFFF" style=""/>
  <path fill="#FFFFFF" style=""/>
  <path fill="#FFFFFF" style=""/>
  <path fill="#FFFFFF" style=""/>
  <path fill="#FFFFFF" style=""/>
  <path fill="#FFFFFF" style=""/>
  <path fill="#FFFFFF" style=""/>
  <path fill="#FFFFFF" style=""/>
  <path fill="#FFFFFF" style=""/>
  <path fill="#FFFFFF" style=""/>
  <path fill="#FFFFFF" style=""/>
  <path fill="#FFFFFF" style=""/>
  <path fill="#FFFFFF" style=""/>
  <path fill="#FFFFFF" style=""/>
  <path fill="#FFFFFF" style=""/>
  <path fill="#FFFFCC" style=""/>
  <path fill="#FFFFFF" style=""/>
  <path fill="#FFFFFF" style=""/>
  <path fill="#FFFFFF" style=""/>
  <path fill="#FFFFFF" style=""/>
  <path fill="#FFFFFF" style=""/>
  <path fill="#FFFFFF" style=""/>
  <path fill="#FFFFFF" style=""/>
  <path fill="#FFFFFF" style=""/>
  <path fill="#FFFFFF" style=""/>
  <path fill="#FFFFFF" style=""/>
  <path fill="#FFFFFF" style=""/>
  <path fill="#FFFFFF" style=""/>
  <path fill="#FFFFFF" style=""/>
  <path fill="#FFFFFF" style=""/>
  <path fill="#FFFFFF" style=""/>
  <path fill="#FFFFFF" style=""/>
  <path fill="#FFFFFF" style=""/>
  <path fill="#DBDBDB" style=""/>
  <path fill="#FFFFFF" style=""/>
  <path fill="#FFFFFF" style=""/>
  <path fill="#FFFFFF" style=""/>
  <path fill="#FFFFFF" style=""/>
  <path fill="#FFFFFF" style=""/>
  <path fill="#FFFFFF" style=""/>
  <path fill="#FFFFFF" style=""/>
  <path fill="#FFCCCC" style=""/>
  <path fill="#FFFFFF" style=""/>
  <path fill="#FFFFFF" style=""/>
  <path fill="#FFFFFF" style=""/>
  <path fill="#FFFFFF" style=""/>
  <path fill="#FFFFFF" style=""/>
  <path fill="#FFFFFF" style=""/>
  <path fill="#FFFFFF" style=""/>
  <path fill="#FFFFFF" style=""/>
  <path fill="#FFFFFF" style=""/>
  <path fill="#FFFFFF" style=""/>
  <path fill="#FFFFFF" style=""/>
  <path fill="#FFFFFF" style=""/>
  <path fill="#FFFFFF" style=""/>
  <path fill="#FFFFFF" style=""/>
  <path fill="#FFFFFF" style=""/>
  <path fill="#FFFFFF" style=""/>
  <path fill="#FFFFFF" style=""/>
  <path fill="#FFFFFF" style=""/>
  <path fill="#FFFFFF" style=""/>
  <path fill="#FFFFFF" style=""/>
  <path fill="#FFFFFF" style=""/>
  <path fill="#FFFFFF" style=""/>
  <path fill="#FFFFFF" style=""/>
  <path fill="#FFFFFF" style=""/>
  <path fill="#FFFFFF" style=""/>
  <path fill="#FFFFFF" style=""/>
  <path fill="#FFFFFF" style=""/>
  <path fill="#FFFFFF" style=""/>
  <path fill="#FFFFFF" style=""/>
  <path fill="#FFFFFF" style=""/>
  <path fill="#FFFFFF" style=""/>
  <path fill="#FFFFFF" style=""/>
  <path fill="#FFFFFF" style=""/>
  <path fill="#FFFFFF" style=""/>
  <path fill="#FFFFFF" style=""/>
  <path fill="#FFFFFF" style=""/>
  <path fill="#FFFFFF" style=""/>
  <path fill="#FFFFFF" style=""/>
  <path fill="#FFFFFF" style=""/>
  <path fill="#FFFFFF" style=""/>
  <path fill="#FFFFFF" style=""/>
  <path fill="#FFFFFF" style=""/>
  <path fill="#FFFFFF" style=""/>
  <path fill="#FFFFFF" style=""/>
  <path fill="#FFFFFF" style=""/>
  <path fill="#FFFFFF" style=""/>
  <path fill="#FFFFFF" style=""/>
  <path fill="#FFFFFF" style=""/>
  <path fill="#FFFFFF" style=""/>
  <path fill="#FFFFFF" style=""/>
  <path fill="#FFFFFF" style=""/>
  <path fill="#FFFFFF" style=""/>
  <path fill="#FFFFFF" style=""/>
  <path fill="#FFFFFF" style=""/>
  <path fill="#FFFFFF" style=""/>
  <path fill="#FFFFFF" style=""/>
  <path fill="#FFFFFF" style=""/>
  <path fill="#FFFFFF" style=""/>
  <path fill="#FFFFFF" style=""/>
  <path fill="#FFFFFF" style=""/>
  <path fill="#FFFFFF" style=""/>
  <path fill="#FFFFFF" style=""/>
  <path fill="#FFFFFF" style=""/>
  <path fill="#FFFFFF" style=""/>
  <path fill="#FFFFFF" style=""/>
  <path fill="#CCCCCC" style=""/>
  <path fill="#FFFFFF" style=""/>
  <path fill="#FFFFFF" style=""/>
  <path fill="#FFFFFF" style=""/>
  <path fill="#FFFFFF" style=""/>
  <path fill="#FFFFFF" style=""/>
  <path fill="#FFFFFF" style=""/>
  <path fill="#FFFFFF" style=""/>
  <path fill="#FFFFFF" style=""/>
  <path fill="#FFFFFF" style=""/>
  <path fill="#FFFFFF" style=""/>
  <path fill="#FFFFFF" style=""/>
  <path fill="#FFFFFF" style=""/>
  <path fill="#FFFFFF" style=""/>
  <path fill="#FFFFFF" style=""/>
  <path fill="#FFFFFF" style=""/>
  <path fill="#FFFFFF" style=""/>
  <path fill="#FFFFFF" style=""/>
  <path fill="#FFFFFF" style=""/>
  <path fill="#FFFFFF" style=""/>
  <path fill="#FFFFFF" style=""/>
</svg>