<?xml version="1.0" encoding="utf-8"?>
<svg xmlns="http://www.w3.org/2000/svg" viewBox="0 0 500 500">
  <path d="M 41.104 221.577 C 39.953 228.337 414.964 222.082 412.943 223.599 C 411.88 224.396 412.933 226.256 412.929 227.586 C 412.919 230.748 412.904 233.913 412.882 237.077 C 413.409 237.074 413.409 237.074 413.947 237.071 C 430.719 237.029 447.586 240.373 460.554 252.084 C 461.026 252.473 461.496 252.862 461.982 253.263 C 469.363 259.655 474.078 270.55 475.365 280.309 C 476.801 302.378 469.27 321.973 456.358 339.301 C 455.75 340.119 455.153 340.945 454.56 341.774 C 450.379 347.571 445.852 353.134 440.81 358.145 C 440.414 358.557 440.016 358.97 439.607 359.396 C 439.21 359.809 438.813 360.221 438.404 360.647 C 438.134 360.938 437.864 361.229 437.586 361.529 C 435.234 364.043 432.74 366.288 430.093 368.462 C 429.487 368.961 428.883 369.461 428.278 369.962 C 423.622 373.825 418.932 377.435 413.845 380.658 C 413.329 381.003 412.812 381.349 412.28 381.703 C 402.742 387.998 391.755 393.579 380.636 395.973 C 377.569 396.624 377.569 396.624 375.438 398.837 C 375.11 399.502 374.801 400.175 374.511 400.858 C 374.156 401.588 373.8 402.317 373.445 403.046 C 373.275 403.408 373.106 403.77 372.931 404.143 C 365.145 420.275 353.039 435.669 340.652 448.197 C 339.437 449.45 338.231 450.712 337.037 451.988 C 334.514 454.664 331.949 457.152 329.122 459.486 C 328.037 460.384 326.971 461.292 325.909 462.218 C 322.083 465.539 318.162 468.553 313.97 471.362 C 313.618 471.599 313.266 471.834 312.904 472.077 C 312.59 472.285 312.275 472.492 311.953 472.707 C 311.729 472.873 311.508 473.04 311.278 473.211 C 311.278 473.376 311.278 473.542 311.278 473.712 C 341.948 473.712 372.616 473.712 404.214 473.712 C 405.955 479.139 406.684 483.892 404.272 489.2 C 402.526 492.51 400.009 494.241 396.992 496.224 C 396.604 496.494 396.217 496.763 395.818 497.042 C 390.22 500.336 383.94 499.642 377.703 499.607 C 376.364 499.608 375.025 499.615 373.685 499.622 C 370.778 499.632 367.87 499.631 364.963 499.625 C 360.64 499.612 356.318 499.619 351.993 499.627 C 344.272 499.643 336.551 499.642 328.828 499.633 C 322.069 499.626 315.311 499.625 308.552 499.627 C 308.104 499.627 307.657 499.627 307.194 499.627 C 305.373 499.628 303.553 499.629 301.732 499.631 C 284.656 499.64 267.58 499.632 250.503 499.616 C 235.337 499.602 220.172 499.603 205.006 499.617 C 187.962 499.633 170.918 499.64 153.875 499.63 C 152.056 499.629 150.236 499.628 148.416 499.627 C 147.972 499.626 147.528 499.626 147.067 499.626 C 140.312 499.624 133.556 499.626 126.809 499.635 C 119.121 499.643 111.442 499.641 103.763 499.626 C 99.472 499.616 95.17 499.616 90.87 499.626 C 88.006 499.634 85.133 499.629 82.258 499.616 C 80.622 499.609 78.985 499.608 77.357 499.618 C 64.907 499.681 64.907 499.681 59.431 496.224 C 58.969 495.942 58.509 495.659 58.03 495.368 C 54.424 493.077 51.604 489.755 50.56 485.437 C 49.976 481.695 49.994 477.813 51.248 474.213 C 52.718 473.449 54.242 473.644 55.854 473.651 C 56.428 473.65 56.428 473.65 57.011 473.65 C 58.29 473.649 59.571 473.652 60.851 473.655 C 61.764 473.655 62.679 473.655 63.602 473.655 C 66.092 473.654 68.582 473.657 71.071 473.661 C 73.674 473.664 76.277 473.664 78.881 473.665 C 83.808 473.667 88.745 473.67 93.672 473.676 C 99.288 473.68 104.895 473.683 110.51 473.686 C 122.055 473.692 133.6 473.7 145.152 473.712 C 144.891 473.543 144.63 473.375 144.36 473.202 C 143.176 472.428 141.983 471.653 140.79 470.876 C 140.181 470.48 140.181 470.48 139.553 470.076 C 136.106 467.826 132.911 465.356 129.743 462.705 C 128.984 462.099 128.236 461.494 127.479 460.891 C 126.79 460.328 126.094 459.766 125.407 459.202 C 124.963 458.85 124.527 458.497 124.075 458.134 C 123.63 457.775 123.186 457.416 122.725 457.046 C 122.316 456.718 121.916 456.389 121.488 456.051 C 121.193 455.771 120.897 455.49 120.592 455.201 C 120.592 454.87 120.592 454.54 120.592 454.201 C 120.322 454.086 120.061 453.973 119.782 453.854 C 118.337 453.01 117.344 451.945 116.169 450.725 C 115.934 450.481 115.699 450.237 115.455 449.983 C 114.959 449.467 114.471 448.947 113.976 448.428 C 113.227 447.644 112.477 446.865 111.729 446.086 C 109.126 443.373 106.601 440.617 104.216 437.692 C 103.754 437.133 103.294 436.576 102.831 436.018 C 102.405 435.492 101.969 434.966 101.543 434.438 C 101.308 434.161 101.081 433.883 100.846 433.599 C 99.358 431.76 97.956 429.881 96.668 427.881 C 95.866 427.007 95.231 426.873 94.108 426.683 C 94.422 426.354 94.743 426.024 95.073 425.683 C 94.743 425.236 94.413 424.787 94.082 424.324 C 87.848 415.678 81.727 406.164 77.384 396.342 C 76.852 395.005 76.852 395.005 75.329 394.665 C 75.355 394.323 75.389 393.982 75.424 393.63 C 75.294 391.733 74.554 390.363 73.701 388.725 C 68.956 379.214 65.282 369.233 61.842 359.145 C 61.695 358.703 61.538 358.261 61.382 357.804 C 61.251 357.405 61.121 357.006 60.981 356.594 C 60.868 356.25 60.755 355.906 60.633 355.552 C 60.398 354.642 60.398 354.642 60.398 353.142 C 59.918 352.977 59.44 352.812 58.953 352.642 C 59.275 352.642 59.588 352.642 59.918 352.642 C 59.527 351.494 59.135 350.349 58.743 349.201 C 58.63 348.877 58.517 348.551 58.404 348.215 C 57.786 346.397 57.786 346.397 57.029 344.637 C 56.872 343.977 56.723 343.31 56.593 342.644 C 56.062 340.085 55.445 337.555 54.808 335.023 C 47.809 306.714 43.499 277.916 42.445 248.669 C 42.428 248.136 42.411 247.603 42.393 247.054 C 42.359 246.058 42.332 245.06 42.307 244.062 C 42.289 243.623 42.279 243.184 42.263 242.731 C 42.254 242.349 42.245 241.969 42.237 241.575 C 42.149 240.42 42.149 240.42 41.14 239.077 C 41.854 238.829 41.854 238.829 42.577 238.577 C 42.105 238.577 41.627 238.577 41.14 238.577 C 41.218 238.298 41.296 238.019 41.375 237.731 C 41.636 236.483 41.68 235.377 41.671 234.098 C 41.671 233.607 41.671 233.118 41.671 232.612 C 41.671 232.085 41.671 231.559 41.661 231.017 C 41.661 230.476 41.661 229.936 41.661 229.377 C 41.661 227.649 41.653 225.922 41.645 224.193 C 41.645 223.022 41.722 217.944 41.104 221.577 Z M 58.98 222.224 C 61.802 220.527 58.674 233.354 59.614 258.119 C 59.648 258.586 59.676 259.053 59.71 259.533 C 60.023 264.295 60.476 269.018 61.112 273.748 C 61.382 275.753 61.608 277.76 61.826 279.77 C 61.861 280.124 61.903 280.476 61.938 280.841 C 62.096 282.276 62.252 283.712 62.409 285.149 C 62.896 289.778 63.549 294.328 64.42 298.895 C 64.76 300.772 64.942 302.624 65.099 304.523 C 65.247 305.956 65.57 307.338 65.874 308.741 C 66.222 310.335 66.544 311.933 66.876 313.532 C 71.995 338.575 79.334 362.481 89.772 385.661 C 89.973 386.118 90.181 386.573 90.391 387.045 C 95.257 397.807 101.203 408.169 108.073 417.68 C 108.273 417.966 108.482 418.253 108.691 418.548 C 115.908 428.659 124.187 438.765 133.712 446.6 C 134.592 447.326 135.453 448.074 136.298 448.839 C 143.036 454.937 150.741 459.882 158.629 464.206 C 158.951 464.383 159.266 464.558 159.592 464.74 C 165.909 468.244 172.408 471.285 179.672 471.284 C 180.314 471.287 180.314 471.287 180.967 471.289 C 182.402 471.294 183.837 471.296 185.27 471.298 C 186.298 471.301 187.325 471.305 188.352 471.308 C 191.731 471.319 195.109 471.324 198.488 471.329 C 199.652 471.331 200.817 471.333 201.981 471.336 C 207.455 471.344 212.928 471.351 218.4 471.356 C 224.71 471.361 231.018 471.375 237.326 471.394 C 242.207 471.41 247.088 471.417 251.969 471.418 C 254.882 471.419 257.795 471.424 260.706 471.436 C 263.451 471.449 266.194 471.45 268.939 471.445 C 269.942 471.445 270.944 471.449 271.947 471.454 C 279.277 471.503 285.61 470.683 292.349 467.457 C 292.881 467.206 292.881 467.206 293.424 466.95 C 300.691 463.413 307.348 458.78 313.686 453.701 C 314.26 453.248 314.835 452.796 315.409 452.343 C 318.905 449.566 322.173 446.604 325.368 443.459 C 326.687 442.193 326.687 442.193 327.828 441.334 C 328.087 441.121 328.346 440.91 328.613 440.692 C 328.613 440.361 328.613 440.032 328.613 439.691 C 328.88 439.582 329.147 439.473 329.423 439.362 C 330.892 438.48 331.898 437.278 333.009 435.971 C 333.482 435.42 333.956 434.871 334.43 434.322 C 334.667 434.045 334.903 433.769 335.147 433.484 C 335.766 432.769 336.398 432.066 337.033 431.366 C 340.634 427.381 343.791 423.076 346.911 418.68 C 347.157 418.335 347.402 417.991 347.654 417.636 C 361.843 397.515 372.798 374.525 379.656 350.64 C 379.815 350.159 379.973 349.679 380.136 349.185 C 380.918 346.684 381.511 344.133 382.133 341.587 C 382.644 339.532 383.212 337.597 383.99 335.632 C 384.153 334.465 384.314 333.297 384.472 332.131 C 384.787 331.127 385.108 330.127 385.435 329.129 C 385.588 328.464 385.734 327.796 385.874 327.127 C 386.236 325.394 386.606 323.663 386.985 321.932 C 388.059 316.953 389.054 312.026 389.595 306.95 C 389.768 305.616 389.768 305.616 390.25 304.615 C 390.337 303.856 390.405 303.094 390.46 302.332 C 390.606 300.677 390.809 299.101 391.183 297.485 C 392.272 292.687 392.738 287.788 393.021 282.876 C 393.139 281.601 393.139 281.601 393.621 280.601 C 393.73 279.822 393.815 279.041 393.889 278.258 C 393.959 277.526 393.959 277.526 394.031 276.778 C 394.079 276.246 394.127 275.713 394.176 275.164 C 394.229 274.612 394.28 274.059 394.334 273.491 C 394.444 272.313 394.551 271.137 394.66 269.96 C 394.822 268.195 394.987 266.429 395.155 264.664 C 395.26 263.515 395.366 262.367 395.472 261.219 C 395.521 260.704 395.569 260.191 395.618 259.661 C 396.871 245.781 399.329 214.188 399.447 222.424 C 399.483 224.975 53.187 225.709 58.98 222.224 Z M 412.4 257.589 C 412.352 258.194 412.304 258.799 412.254 259.424 C 410.35 283.183 410.35 283.183 408.548 294.609 C 408.429 295.376 408.429 295.376 408.307 296.16 C 407.139 303.459 405.47 310.615 403.703 317.778 C 403.6 318.195 403.497 318.613 403.391 319.043 C 402.284 323.509 401.13 327.945 399.784 332.341 C 399.563 333.087 399.351 333.834 399.171 334.591 C 398.925 335.602 398.641 336.587 398.337 337.58 C 398.22 337.96 398.102 338.339 397.983 338.729 C 397.857 339.139 397.729 339.549 397.598 339.971 C 397.465 340.402 397.332 340.835 397.194 341.28 C 396.757 342.69 396.319 344.103 395.879 345.513 C 395.729 345.993 395.579 346.471 395.426 346.964 C 392.804 355.357 389.951 363.633 386.876 371.855 C 386.534 372.78 386.218 373.714 385.915 374.654 C 397.968 371.077 409.805 362.651 419.142 354.143 C 419.383 353.925 419.625 353.707 419.873 353.483 C 422.212 351.374 422.212 351.374 424.439 349.14 C 424.439 348.809 424.439 348.48 424.439 348.14 C 424.842 347.97 424.842 347.97 425.251 347.796 C 426.677 346.955 427.626 345.854 428.773 344.637 C 429.344 344.062 429.344 344.062 429.925 343.475 C 432.671 340.687 435.12 337.805 437.441 334.631 C 437.662 334.331 437.885 334.03 438.114 333.72 C 441.128 329.64 444.067 325.556 446.59 321.124 C 446.756 320.833 446.923 320.542 447.095 320.242 C 453.643 308.738 459.331 295.417 456.642 281.758 C 454.724 274.233 450.45 268.34 444.181 264.091 C 438.543 260.715 432.809 258.863 426.366 258.089 C 425.906 258.033 425.446 257.976 424.974 257.918 C 422.08 257.618 419.21 257.564 416.305 257.576 C 415.741 257.577 415.741 257.577 415.164 257.578 C 414.242 257.581 413.322 257.585 412.4 257.589 Z" fill="#E9E8E6" style=""/>
  <path d="M 76.435 350.628 C 176.549 350.628 276.661 350.628 379.805 350.628 C 370.02 381.123 356.258 409.986 334.963 433.621 C 333.414 435.345 331.929 437.125 330.458 438.922 C 329.725 439.678 329.725 439.678 328.762 439.678 C 328.762 440.008 328.762 440.339 328.762 440.678 C 328.105 441.367 328.105 441.367 327.167 442.179 C 325.542 443.61 323.971 445.08 322.411 446.589 C 319.526 449.314 316.488 451.784 313.354 454.186 C 312.901 454.536 312.901 454.536 312.438 454.894 C 299.428 464.92 287.147 471.434 270.82 471.406 C 269.793 471.41 268.766 471.415 267.739 471.419 C 264.964 471.43 262.188 471.431 259.414 471.43 C 257.09 471.43 254.766 471.435 252.443 471.439 C 246.957 471.449 241.471 471.45 235.985 471.447 C 230.342 471.444 224.699 471.454 219.057 471.474 C 214.195 471.489 209.335 471.494 204.475 471.492 C 201.579 471.491 198.684 471.494 195.786 471.507 C 193.062 471.518 190.337 471.517 187.611 471.507 C 186.617 471.505 185.622 471.508 184.627 471.515 C 164.695 471.65 146.154 458.31 131.919 444.694 C 130.978 443.801 130.02 442.941 129.046 442.086 C 124.623 438.072 120.514 433.701 116.883 428.915 C 116.004 427.771 115.081 426.708 114.114 425.64 C 111.041 422.074 108.455 418.08 105.809 414.164 C 105.496 413.702 105.496 413.702 105.173 413.23 C 95.432 398.852 76.435 369.429 76.435 350.628 Z" fill="#594223" style=""/>
  <path d="M 61.912 279.407 C 172.992 279.407 280.009 279.762 394.45 279.762 C 394.844 281.399 384.325 332.772 384.325 335.154 C 384.484 333.008 377.231 363.95 377.476 350.463 C 266.241 350.463 191.058 350.97 76.447 350.97 C 76.292 360.711 70.393 343.378 70.75 335.178 C 70.776 334.689 61.382 280.524 61.912 279.407 Z" fill="#FED8B2" style=""/>
  <path d="M 55.914 473.648 C 56.245 473.646 56.584 473.644 56.924 473.642 C 59.092 473.647 61.147 473.844 63.288 474.213 C 63.288 474.377 63.288 474.542 63.288 474.712 C 59.474 474.712 55.661 474.712 51.726 474.712 C 52.362 475.042 52.997 475.373 53.659 475.712 C 52.997 476.464 52.997 476.464 52.214 477.213 C 51.892 477.213 51.579 477.213 51.248 477.213 C 51.091 477.709 50.934 478.204 50.769 478.715 C 50.821 477.973 50.881 477.233 50.952 476.494 C 50.977 476.082 51.012 475.67 51.047 475.246 C 51.117 474.903 51.179 474.563 51.248 474.213 C 52.727 473.441 54.286 473.638 55.914 473.648 Z" fill="#E0DEDC" style=""/>
  <path d="M 46.433 284.103 C 46.59 284.103 46.746 284.103 46.912 284.103 C 47.155 285.781 47.399 287.459 47.634 289.136 C 47.704 289.61 47.773 290.08 47.843 290.567 C 48.201 293.112 48.444 295.539 48.357 298.11 C 48.201 297.616 48.043 297.121 47.878 296.61 C 47.556 296.61 47.243 296.61 46.912 296.61 C 45.72 288.251 45.72 288.251 46.433 284.103 Z" fill="#F2F0EC" style=""/>
  <path d="M 45.467 271.095 C 46.573 279.454 46.573 279.454 46.433 283.603 C 46.277 283.603 46.111 283.603 45.955 283.603 C 45.789 282.778 45.632 281.951 45.467 281.101 C 45.31 281.101 45.154 281.101 44.988 281.101 C 44.665 277.965 44.352 274.827 44.021 271.595 C 44.988 271.095 44.988 271.095 45.467 271.095 Z" fill="#EFEDEB" style=""/>
  <path d="M 411.438 198.053 C 411.596 198.053 411.755 198.053 411.92 198.053 C 411.948 198.494 411.978 198.934 412.007 199.389 C 412.048 199.97 412.089 200.55 412.13 201.15 C 412.168 201.724 412.207 202.299 412.249 202.891 C 412.368 204.506 412.368 204.506 412.656 205.871 C 412.89 207.101 412.93 208.214 412.912 209.466 C 412.908 209.862 412.904 210.258 412.899 210.665 C 412.893 210.96 412.887 211.256 412.882 211.561 C 412.565 211.726 412.247 211.892 411.92 212.062 C 411.409 210.471 411.382 209.347 411.39 207.678 C 411.392 207.119 411.394 206.559 411.396 205.983 C 411.399 205.399 411.403 204.815 411.408 204.214 C 411.41 203.329 411.41 203.329 411.413 202.426 C 411.42 200.97 411.428 199.511 411.438 198.053 Z" fill="#F1EFEC" style=""/>
  <path d="M 473.556 277.099 C 476.884 281.247 475.344 288.065 474.999 293.108 C 474.842 293.108 474.682 293.108 474.518 293.108 C 474.356 291.003 474.196 288.896 474.037 286.792 C 473.991 286.197 473.946 285.601 473.898 284.987 C 473.855 284.411 473.811 283.834 473.766 283.239 C 473.726 282.71 473.685 282.181 473.644 281.636 C 473.557 280.119 473.54 278.618 473.556 277.099 Z" fill="#F2EFED" style=""/>
  <path d="M 406.14 302.113 C 406.3 302.113 406.458 302.113 406.623 302.113 C 407.265 304.785 406.869 306.535 406.14 309.118 C 405.822 309.118 405.505 309.118 405.178 309.118 C 405.019 309.612 404.859 310.108 404.695 310.618 C 405 307.726 405.492 304.942 406.14 302.113 Z" fill="#F1EFED" style=""/>
  <path d="M 396.992 338.633 C 397.15 338.633 397.31 338.633 397.473 338.633 C 397.656 341.6 397.042 343.874 396.028 346.639 C 395.71 346.473 395.392 346.309 395.065 346.139 C 395.993 340.856 395.993 340.856 396.992 338.633 Z" fill="#F0EEEA" style=""/>
  <path d="M 409.03 284.103 C 409.19 284.103 409.348 284.103 409.511 284.103 C 409.912 286.745 410.111 288.962 409.511 291.607 C 408.767 292.457 408.767 292.457 408.067 293.108 C 408.531 286.77 408.531 286.77 409.03 284.103 Z" fill="#F3F0EE" style=""/>
  <path d="M 386.88 369.151 C 387.038 369.151 387.198 369.151 387.361 369.151 C 387.448 371.126 387.406 372.452 386.397 374.154 C 387.034 374.484 387.669 374.814 388.325 375.154 C 387.371 375.32 386.418 375.484 385.435 375.654 C 385.666 373.296 385.901 371.319 386.88 369.151 Z" fill="#EFEEEB" style=""/>
  <path d="M 56.062 336.132 C 57.22 337.336 57.402 338.19 57.838 339.822 C 58.039 340.539 58.039 340.539 58.239 341.273 C 58.465 342.622 58.422 343.362 57.986 344.637 C 57.986 344.143 57.986 343.646 57.986 343.136 C 57.672 343.136 57.35 343.136 57.029 343.136 C 56.263 340.7 55.958 338.73 56.062 336.132 Z" fill="#F3F0EC" style=""/>
  <path d="M 127.81 441.192 C 130.117 442.962 132.372 444.766 134.558 446.695 C 134.235 447.025 133.921 447.355 133.59 447.696 C 132.624 446.803 131.666 445.907 130.7 445.007 C 130.429 444.754 130.151 444.499 129.864 444.237 C 129.167 443.577 128.488 442.886 127.81 442.193 C 127.81 441.862 127.81 441.532 127.81 441.192 Z" fill="#F2F1EE" style=""/>
  <path d="M 410.474 267.092 C 410.633 267.092 410.792 267.092 410.956 267.092 C 411.115 269.735 411.273 272.377 411.438 275.098 C 411.278 275.098 411.12 275.098 410.956 275.098 C 410.797 276.254 410.637 277.409 410.474 278.6 C 410.317 278.6 410.156 278.6 409.993 278.6 C 409.916 274.739 410.149 270.938 410.474 267.092 Z" fill="#F3F1EE" style=""/>
  <path d="M 51.248 477.213 C 51.405 477.213 51.57 477.213 51.726 477.213 C 51.726 479.855 51.726 482.496 51.726 485.218 C 51.57 485.218 51.413 485.218 51.248 485.218 C 50.934 483.072 50.612 480.925 50.282 478.715 C 50.602 478.715 50.925 478.715 51.248 478.715 C 51.248 478.219 51.248 477.724 51.248 477.213 Z" fill="#F1EFED" style=""/>
  <path d="M 315.611 473.712 C 316.907 473.8 318.177 474.021 319.465 474.213 C 319.465 474.377 319.465 474.542 319.465 474.712 C 317.125 475.199 314.914 475.272 312.542 475.243 C 312.189 475.241 311.833 475.238 311.469 475.237 C 310.603 475.231 309.737 475.222 308.871 475.211 C 308.871 475.046 308.871 474.882 308.871 474.712 C 309.316 474.681 309.763 474.652 310.222 474.62 C 311.088 474.557 311.088 474.557 311.97 474.492 C 312.834 474.432 312.834 474.432 313.714 474.37 C 315.075 474.374 315.075 474.374 315.611 473.712 Z" fill="#F0EFED" style=""/>
  <path d="M 142.262 470.709 C 144.333 471.492 146.145 472.552 148.034 473.712 C 146.815 474.182 146.3 474.296 145.082 473.749 C 144.743 473.52 144.412 473.29 144.064 473.054 C 143.725 472.829 143.385 472.604 143.036 472.373 C 142.776 472.154 142.522 471.935 142.262 471.71 C 142.262 471.381 142.262 471.049 142.262 470.709 Z" fill="#F1EEEB" style=""/>
  <path d="M 49.802 308.116 C 50.612 309.599 50.925 310.804 51.065 312.494 C 51.099 312.894 51.143 313.294 51.179 313.706 C 51.204 314.008 51.221 314.309 51.248 314.62 C 51.091 314.29 50.934 313.96 50.769 313.62 C 50.447 313.62 50.133 313.62 49.802 313.62 C 49.184 309.903 49.184 309.903 49.802 308.116 Z" fill="#F1F0ED" style=""/>
  <path d="M 400.843 325.127 C 401.386 325.939 401.386 325.939 401.808 327.127 C 401.386 328.754 401.386 328.754 400.843 330.13 C 400.525 330.13 400.208 330.13 399.881 330.13 C 399.722 330.46 399.564 330.79 399.398 331.13 C 399.549 330.41 399.7 329.69 399.851 328.972 C 399.934 328.572 400.018 328.171 400.105 327.759 C 400.362 326.627 400.362 326.627 400.843 325.127 Z" fill="#F1EEEC" style=""/>
  <path d="M 407.586 293.609 C 407.744 293.609 407.903 293.609 408.067 293.609 C 408.067 295.755 408.067 297.901 408.067 300.112 C 407.75 300.112 407.432 300.112 407.104 300.112 C 406.944 300.607 406.786 301.103 406.623 301.613 C 406.691 300.748 406.762 299.883 406.834 299.017 C 406.871 298.535 406.91 298.054 406.951 297.558 C 407.093 296.217 407.31 294.926 407.586 293.609 Z" fill="#F4F2F0" style=""/>
  <path d="M 120.114 453.2 C 122.934 455.075 122.934 455.075 123.483 456.201 C 122.438 455.948 121.55 455.701 120.592 455.201 C 120.592 454.87 120.592 454.54 120.592 454.201 C 120.269 454.035 119.956 453.87 119.626 453.701 C 119.782 453.534 119.948 453.37 120.114 453.2 Z" fill="#F0EFEC" style=""/>
  <path d="M 398.918 331.63 C 399.076 331.63 399.235 331.63 399.398 331.63 C 399.559 332.951 399.717 334.271 399.881 335.632 C 398.927 336.128 398.927 336.128 397.955 336.633 C 398.272 334.982 398.59 333.331 398.918 331.63 Z" fill="#F2F0EE" style=""/>
  <path d="M 454.294 274.098 C 455.691 275.295 455.981 276.255 456.22 278.101 C 455.584 277.769 454.949 277.438 454.294 277.099 C 454.294 276.108 454.294 275.118 454.294 274.098 Z" fill="#F0EEEC" style=""/>
  <path d="M 44.021 276.599 C 44.186 276.599 44.344 276.599 44.509 276.599 C 44.509 278.084 44.509 279.571 44.509 281.101 C 44.344 281.101 44.186 281.101 44.021 281.101 C 44.021 279.615 44.021 278.13 44.021 276.599 Z" fill="#FFFFFF" style=""/>
  <path d="M 41.14 232.073 C 41.296 232.073 41.454 232.073 41.619 232.073 C 41.619 233.395 41.619 234.714 41.619 236.075 C 41.462 236.075 41.296 236.075 41.14 236.075 C 41.14 234.754 41.14 233.435 41.14 232.073 Z" fill="#FFFFFF" style=""/>
  <path d="M 429.254 341.636 C 429.732 341.8 430.208 341.966 430.698 342.136 C 430.222 342.302 429.745 342.466 429.254 342.636 C 429.254 342.307 429.254 341.976 429.254 341.636 Z" fill="#FFFFFF" style=""/>
  <path d="M 45.467 289.607 C 45.632 290.266 45.789 290.927 45.955 291.607 C 45.632 291.113 45.318 290.616 44.988 290.107 C 45.144 289.941 45.301 289.777 45.467 289.607 Z" fill="#FFFFFF" style=""/>
  <path d="M 41.14 212.562 C 41.296 212.562 41.454 212.562 41.619 212.562 C 41.619 213.388 41.619 214.213 41.619 215.063 C 41.462 215.063 41.296 215.063 41.14 215.063 C 41.14 214.239 41.14 213.412 41.14 212.562 Z" fill="#FFFFFF" style=""/>
  <path d="M 129.743 473.211 C 131.666 473.712 131.666 473.712 131.666 473.712 L 129.743 473.211 Z" fill="#FFFFFF" style=""/>
  <path d="M 399.881 366.151 C 400.198 366.315 400.516 366.48 400.843 366.65 C 400.367 366.65 399.89 366.65 399.398 366.65 C 399.559 366.485 399.717 366.32 399.881 366.151 Z" fill="#FFFFFF" style=""/>
  <path d="M 47.878 309.618 C 48.192 309.948 48.514 310.278 48.836 310.618 C 48.366 310.866 48.366 310.866 47.878 311.118 C 47.878 310.622 47.878 310.127 47.878 309.618 Z" fill="#FFFFFF" style=""/>
  <path d="M 475.481 280.1 C 475.964 282.102 475.964 282.102 475.964 282.102 L 475.481 280.1 Z" fill="#FFFFFF" style=""/>
  <path d="M 417.216 258.089 C 419.142 258.589 419.142 258.589 419.142 258.589 L 417.216 258.089 Z" fill="#FFFFFF" style=""/>
  <path d="M 41.619 246.081 C 42.098 248.082 42.098 248.082 42.098 248.082 L 41.619 246.081 Z" fill="#FFFFFF" style=""/>
  <path d="M 41.14 229.572 C 41.619 231.572 41.619 231.572 41.619 231.572 L 41.14 229.572 Z" fill="#FFFFFF" style=""/>
  <path d="M 41.14 224.569 C 41.619 226.569 41.619 226.569 41.619 226.569 L 41.14 224.569 Z" fill="#FFFFFF" style=""/>
  <path d="M 118.668 473.211 C 120.114 473.712 120.114 473.712 120.114 473.712 L 118.668 473.211 Z" fill="#FFFFFF" style=""/>
  <path d="M 402.289 472.711 C 403.733 473.212 403.733 473.212 403.733 473.212 L 402.289 472.711 Z" fill="#FFFFFF" style=""/>
  <path d="M 126.852 461.204 C 127.165 461.534 127.488 461.864 127.81 462.204 C 127.496 462.204 127.174 462.204 126.852 462.204 C 126.852 461.874 126.852 461.544 126.852 461.204 Z" fill="#FFFFFF" style=""/>
  <path d="M 79.177 402.171 C 79.655 402.417 79.655 402.417 80.144 402.671 C 79.664 402.919 79.664 402.919 79.177 403.171 C 79.177 402.841 79.177 402.51 79.177 402.171 Z" fill="#FFFFFF" style=""/>
  <path fill="#FFFFFF" style=""/>
  <path d="M 55.584 341.636 C 55.897 341.636 56.219 341.636 56.54 341.636 C 56.384 341.966 56.227 342.296 56.062 342.636 C 55.905 342.307 55.749 341.976 55.584 341.636 Z" fill="#FFFFFF" style=""/>
  <path fill="#FFFFFF" style=""/>
  <path d="M 437.441 261.59 C 437.599 261.92 437.758 262.25 437.923 262.589 C 437.605 262.425 437.286 262.26 436.959 262.09 C 437.118 261.925 437.277 261.76 437.441 261.59 Z" fill="#FFFFFF" style=""/>
  <path d="M 41.619 241.579 C 41.775 241.908 41.932 242.239 42.098 242.58 C 41.784 242.413 41.462 242.249 41.14 242.079 C 41.296 241.913 41.454 241.748 41.619 241.579 Z" fill="#FFFFFF" style=""/>
  <path d="M 421.55 236.576 C 422.995 237.077 422.995 237.077 422.995 237.077 L 421.55 236.576 Z" fill="#FFFFFF" style=""/>
  <path fill="#FFFFFF" style=""/>
  <path d="M 63.768 498.725 C 64.733 499.226 64.733 499.226 64.733 499.226 L 63.768 498.725 Z" fill="#FFFFFF" style=""/>
  <path fill="#D4D4D4" style=""/>
  <path fill="#FFFFD4" style=""/>
  <path d="M 122.995 473.211 C 123.961 473.712 123.961 473.712 123.961 473.712 L 122.995 473.211 Z" fill="#FFFFFF" style=""/>
  <path d="M 92.662 473.211 C 93.63 473.712 93.63 473.712 93.63 473.712 L 92.662 473.211 Z" fill="#FFFFFF" style=""/>
  <path d="M 80.622 473.211 C 81.589 473.712 81.589 473.712 81.589 473.712 L 80.622 473.211 Z" fill="#FFFFFF" style=""/>
  <path d="M 395.546 472.711 C 396.51 473.212 396.51 473.212 396.51 473.212 L 395.546 472.711 Z" fill="#FFFFFF" style=""/>
  <path d="M 391.212 472.711 C 392.177 473.212 392.177 473.212 392.177 473.212 L 391.212 472.711 Z" fill="#FFFFFF" style=""/>
  <path d="M 56.062 472.711 C 57.029 473.212 57.029 473.212 57.029 473.212 L 56.062 472.711 Z" fill="#FFFFFF" style=""/>
  <path d="M 52.693 472.711 C 53.659 473.212 53.659 473.212 53.659 473.212 L 52.693 472.711 Z" fill="#FFFFFF" style=""/>
  <path d="M 318.02 471.21 C 318.983 471.71 318.983 471.71 318.983 471.71 L 318.02 471.21 Z" fill="#FFFFFF" style=""/>
  <path d="M 111.442 447.696 C 112.408 448.197 112.408 448.197 112.408 448.197 L 111.442 447.696 Z" fill="#FFFFFF" style=""/>
  <path fill="#FFFFFF" style=""/>
  <path d="M 86.882 414.677 C 87.848 415.177 87.848 415.177 87.848 415.177 L 86.882 414.677 Z" fill="#FFFFFF" style=""/>
  <path fill="#FFFFFF" style=""/>
  <path fill="#FFFFFF" style=""/>
  <path fill="#FFFFFF" style=""/>
  <path fill="#FFFFFF" style=""/>
  <path fill="#FFFFFF" style=""/>
  <path fill="#FFFFFF" style=""/>
  <path fill="#FFFFFF" style=""/>
  <path fill="#FFFFFF" style=""/>
  <path fill="#FFFFFF" style=""/>
  <path fill="#FFFFFF" style=""/>
  <path fill="#FFFFFF" style=""/>
  <path d="M 52.693 331.13 C 53.659 331.63 53.659 331.63 53.659 331.63 L 52.693 331.13 Z" fill="#FFFFFF" style=""/>
  <path fill="#FFFFFF" style=""/>
  <path fill="#FFFFFF" style=""/>
  <path fill="#EDEDED" style=""/>
  <path fill="#FFFFFF" style=""/>
  <path fill="#FFFFFF" style=""/>
  <path fill="#FFFFFF" style=""/>
  <path fill="#FFFFFF" style=""/>
  <path fill="#FFFFFF" style=""/>
  <path fill="#FFFFFF" style=""/>
  <path fill="#FFFFFF" style=""/>
  <path fill="#FFFFFF" style=""/>
  <path fill="#FFFFFF" style=""/>
  <path fill="#FFFFFF" style=""/>
  <path fill="#FFFFFF" style=""/>
  <path d="M 451.886 275.598 C 452.85 276.098 452.85 276.098 452.85 276.098 L 451.886 275.598 Z" fill="#FFFFFF" style=""/>
  <path d="M 451.406 274.597 C 452.367 275.098 452.367 275.098 452.367 275.098 L 451.406 274.597 Z" fill="#FFFFFF" style=""/>
  <path fill="#FFFFFF" style=""/>
  <path d="M 424.921 258.589 C 425.882 259.089 425.882 259.089 425.882 259.089 L 424.921 258.589 Z" fill="#FFFFFF" style=""/>
  <path d="M 414.326 258.089 C 415.29 258.589 415.29 258.589 415.29 258.589 L 414.326 258.089 Z" fill="#FFFFFF" style=""/>
  <path fill="#FFFFFF" style=""/>
  <path d="M 419.624 236.576 C 420.587 237.077 420.587 237.077 420.587 237.077 L 419.624 236.576 Z" fill="#FFFFFF" style=""/>
  <path fill="#FFFFFF" style=""/>
  <path fill="#FFFFFF" style=""/>
  <path fill="#FFFFFF" style=""/>
  <path fill="#FFFFFF" style=""/>
  <path fill="#FFFFFF" style=""/>
  <path fill="#FFFFFF" style=""/>
  <path fill="#FFFFFF" style=""/>
  <path fill="#FFFFFF" style=""/>
  <path fill="#FFFFFF" style=""/>
  <path fill="#FFFFFF" style=""/>
  <path fill="#FFFFAA" style=""/>
  <path fill="#FFFFFF" style=""/>
  <path fill="#BFBFBF" style=""/>
  <path fill="#FFFFFF" style=""/>
  <path fill="#FFFFFF" style=""/>
  <path fill="#FFFFFF" style=""/>
  <path fill="#FFFFFF" style=""/>
  <path fill="#FFAAAA" style=""/>
  <path fill="#FFFFFF" style=""/>
  <path fill="#FFFFFF" style=""/>
  <path fill="#FFFFFF" style=""/>
  <path fill="#FFFFFF" style=""/>
  <path fill="#FFFFFF" style=""/>
  <path fill="#FFFFFF" style=""/>
  <path fill="#FFFFFF" style=""/>
  <path fill="#FFFFFF" style=""/>
  <path fill="#FFFFFF" style=""/>
  <path fill="#FFFFFF" style=""/>
  <path fill="#FFFFFF" style=""/>
  <path fill="#FFFFFF" style=""/>
  <path fill="#FFFFFF" style=""/>
  <path fill="#FFFFFF" style=""/>
  <path fill="#FFFFFF" style=""/>
  <path fill="#FFFFFF" style=""/>
  <path fill="#FFFFFF" style=""/>
  <path fill="#FFFFFF" style=""/>
  <path fill="#FFFFFF" style=""/>
  <path fill="#FFFFFF" style=""/>
  <path fill="#FFFFFF" style=""/>
  <path fill="#FFFFFF" style=""/>
  <path fill="#FFFFFF" style=""/>
  <path fill="#FFFFFF" style=""/>
  <path fill="#FFFFFF" style=""/>
  <path fill="#FFFFFF" style=""/>
  <path fill="#FFFFFF" style=""/>
  <path fill="#FFFFFF" style=""/>
  <path fill="#FFFFFF" style=""/>
  <path fill="#FFFFFF" style=""/>
  <path fill="#FFFFFF" style=""/>
  <path fill="#FFFFFF" style=""/>
  <path fill="#FFFFFF" style=""/>
  <path fill="#FFFFFF" style=""/>
  <path fill="#FFFFFF" style=""/>
  <path fill="#FFFFFF" style=""/>
  <path fill="#FFFFFF" style=""/>
  <path fill="#FFFFFF" style=""/>
  <path fill="#FFFFFF" style=""/>
  <path fill="#FFFFFF" style=""/>
  <path fill="#FFFFFF" style=""/>
  <path fill="#FFFFFF" style=""/>
  <path fill="#FFFFFF" style=""/>
  <path fill="#FFFFFF" style=""/>
  <path fill="#FFFFFF" style=""/>
  <path fill="#FFFFFF" style=""/>
  <path fill="#FFFFFF" style=""/>
  <path fill="#FFFFFF" style=""/>
  <path fill="#FFFFFF" style=""/>
  <path fill="#FFFFFF" style=""/>
  <path fill="#FFFFFF" style=""/>
  <path fill="#FFFFFF" style=""/>
  <path fill="#FFFFFF" style=""/>
  <path fill="#FFFFFF" style=""/>
  <path fill="#FFFFFF" style=""/>
  <path fill="#FFFFFF" style=""/>
  <path fill="#FFFFFF" style=""/>
  <path fill="#FFFFFF" style=""/>
  <path fill="#FFFFFF" style=""/>
  <path fill="#FFFFFF" style=""/>
  <path fill="#FFFFFF" style=""/>
  <path fill="#FFD5D5" style=""/>
  <path fill="#FFFFFF" style=""/>
  <path fill="#FFFFFF" style=""/>
  <path fill="#FFFFFF" style=""/>
  <path fill="#FFFFFF" style=""/>
  <path fill="#FFFFFF" style=""/>
  <path fill="#FFFFFF" style=""/>
  <path fill="#D5D5D5" style=""/>
  <path fill="#FFFFFF" style=""/>
  <path fill="#FFFFFF" style=""/>
  <path fill="#FFFFFF" style=""/>
  <path fill="#FFFFFF" style=""/>
  <path fill="#FFFFFF" style=""/>
  <path fill="#FFFFFF" style=""/>
  <path fill="#FFFFFF" style=""/>
  <path fill="#D5D5D5" style=""/>
  <path fill="#FFFFFF" style=""/>
  <path fill="#FFFFFF" style=""/>
  <path fill="#FFFFFF" style=""/>
  <path fill="#FFFFFF" style=""/>
  <path fill="#FFFFFF" style=""/>
  <path fill="#FFFFFF" style=""/>
  <path fill="#FFFFFF" style=""/>
  <path fill="#FFFFFF" style=""/>
  <path fill="#FFFFCC" style=""/>
  <path fill="#FFFFFF" style=""/>
  <path fill="#FFFFFF" style=""/>
  <path fill="#FFFFFF" style=""/>
  <path fill="#FFFFFF" style=""/>
  <path fill="#FFFFFF" style=""/>
  <path fill="#FFFFFF" style=""/>
  <path fill="#FFFFFF" style=""/>
  <path fill="#FFFFFF" style=""/>
  <path fill="#FFFFFF" style=""/>
  <path fill="#FFFFFF" style=""/>
  <path fill="#FFFFFF" style=""/>
  <path fill="#FFFFFF" style=""/>
  <path fill="#FFFFFF" style=""/>
  <path fill="#FFFFFF" style=""/>
  <path fill="#FFFFFF" style=""/>
  <path fill="#FFFFFF" style=""/>
  <path fill="#FFFFFF" style=""/>
  <path fill="#FFFFFF" style=""/>
  <path fill="#FFFFFF" style=""/>
  <path fill="#FFFFFF" style=""/>
  <path fill="#FFFFFF" style=""/>
  <path fill="#FFFFFF" style=""/>
  <path fill="#FFFFFF" style=""/>
  <path fill="#FFFFFF" style=""/>
  <path fill="#FFFFFF" style=""/>
  <path fill="#FFFFFF" style=""/>
  <path fill="#FFFFFF" style=""/>
  <path fill="#FFFFFF" style=""/>
  <path fill="#FFFFFF" style=""/>
  <path fill="#FFFFFF" style=""/>
  <path fill="#FFFFFF" style=""/>
  <path fill="#FFFFFF" style=""/>
  <path fill="#FFFFFF" style=""/>
  <path fill="#FFFFFF" style=""/>
  <path fill="#FFFFFF" style=""/>
  <path fill="#FFFFFF" style=""/>
  <path fill="#FFFFFF" style=""/>
  <path fill="#FFFFFF" style=""/>
  <path fill="#FFFFFF" style=""/>
  <path fill="#FFFFFF" style=""/>
  <path fill="#FFFFFF" style=""/>
  <path fill="#FFFFFF" style=""/>
  <path fill="#FFFFFF" style=""/>
  <path fill="#FFFFFF" style=""/>
  <path fill="#D5D5D5" style=""/>
  <path fill="#FFFFFF" style=""/>
  <path fill="#FFFFFF" style=""/>
  <path fill="#FFFFFF" style=""/>
  <path fill="#FFFFFF" style=""/>
  <path fill="#FFFFFF" style=""/>
  <path fill="#FFFFFF" style=""/>
  <path fill="#FFFFFF" style=""/>
  <path fill="#FFFFFF" style=""/>
  <path fill="#FFFFFF" style=""/>
  <path fill="#FFFFFF" style=""/>
  <path fill="#FFFFFF" style=""/>
  <path fill="#FFFFFF" style=""/>
  <path fill="#FFFFFF" style=""/>
  <path fill="#FFFFFF" style=""/>
  <path fill="#FFFFFF" style=""/>
  <path fill="#FFFFFF" style=""/>
  <path fill="#FFFFFF" style=""/>
  <path fill="#FFFFFF" style=""/>
  <path fill="#FFFFFF" style=""/>
  <path fill="#FFFFFF" style=""/>
  <path fill="#FFFFFF" style=""/>
  <path fill="#FFFFFF" style=""/>
  <path fill="#FFFFCC" style=""/>
  <path fill="#FFFFFF" style=""/>
  <path fill="#FFFFFF" style=""/>
  <path fill="#FFFFFF" style=""/>
  <path fill="#FFFFFF" style=""/>
  <path fill="#FFFFFF" style=""/>
  <path fill="#FFFFFF" style=""/>
  <path fill="#FFFFFF" style=""/>
  <path fill="#FFFFFF" style=""/>
  <path fill="#FFFFFF" style=""/>
  <path fill="#FFFFFF" style=""/>
  <path fill="#FFFFFF" style=""/>
  <path fill="#FFFFFF" style=""/>
  <path fill="#FFFFFF" style=""/>
  <path fill="#FFFFFF" style=""/>
  <path fill="#FFFFFF" style=""/>
  <path fill="#FFFFFF" style=""/>
  <path fill="#FFFFFF" style=""/>
  <path fill="#DBDBDB" style=""/>
  <path fill="#FFFFFF" style=""/>
  <path fill="#FFFFFF" style=""/>
  <path fill="#FFFFFF" style=""/>
  <path fill="#FFFFFF" style=""/>
  <path fill="#FFFFFF" style=""/>
  <path fill="#FFFFFF" style=""/>
  <path fill="#FFFFFF" style=""/>
  <path fill="#FFCCCC" style=""/>
  <path fill="#FFFFFF" style=""/>
  <path fill="#FFFFFF" style=""/>
  <path fill="#FFFFFF" style=""/>
  <path fill="#FFFFFF" style=""/>
  <path fill="#FFFFFF" style=""/>
  <path fill="#FFFFFF" style=""/>
  <path fill="#FFFFFF" style=""/>
  <path fill="#FFFFFF" style=""/>
  <path fill="#FFFFFF" style=""/>
  <path fill="#FFFFFF" style=""/>
  <path fill="#FFFFFF" style=""/>
  <path fill="#FFFFFF" style=""/>
  <path fill="#FFFFFF" style=""/>
  <path fill="#FFFFFF" style=""/>
  <path fill="#FFFFFF" style=""/>
  <path fill="#FFFFFF" style=""/>
  <path fill="#FFFFFF" style=""/>
  <path fill="#FFFFFF" style=""/>
  <path fill="#FFFFFF" style=""/>
  <path fill="#FFFFFF" style=""/>
  <path fill="#FFFFFF" style=""/>
  <path fill="#FFFFFF" style=""/>
  <path fill="#FFFFFF" style=""/>
  <path fill="#FFFFFF" style=""/>
  <path fill="#FFFFFF" style=""/>
  <path fill="#FFFFFF" style=""/>
  <path fill="#FFFFFF" style=""/>
  <path fill="#FFFFFF" style=""/>
  <path fill="#FFFFFF" style=""/>
  <path fill="#FFFFFF" style=""/>
  <path fill="#FFFFFF" style=""/>
  <path fill="#FFFFFF" style=""/>
  <path fill="#FFFFFF" style=""/>
  <path fill="#FFFFFF" style=""/>
  <path fill="#FFFFFF" style=""/>
  <path fill="#FFFFFF" style=""/>
  <path fill="#FFFFFF" style=""/>
  <path fill="#FFFFFF" style=""/>
  <path fill="#FFFFFF" style=""/>
  <path fill="#FFFFFF" style=""/>
  <path fill="#FFFFFF" style=""/>
  <path fill="#FFFFFF" style=""/>
  <path fill="#FFFFFF" style=""/>
  <path fill="#FFFFFF" style=""/>
  <path fill="#FFFFFF" style=""/>
  <path fill="#FFFFFF" style=""/>
  <path fill="#FFFFFF" style=""/>
  <path fill="#FFFFFF" style=""/>
  <path fill="#FFFFFF" style=""/>
  <path fill="#FFFFFF" style=""/>
  <path fill="#FFFFFF" style=""/>
  <path fill="#FFFFFF" style=""/>
  <path fill="#FFFFFF" style=""/>
  <path fill="#FFFFFF" style=""/>
  <path fill="#FFFFFF" style=""/>
  <path fill="#FFFFFF" style=""/>
  <path fill="#FFFFFF" style=""/>
  <path fill="#FFFFFF" style=""/>
  <path fill="#FFFFFF" style=""/>
  <path fill="#FFFFFF" style=""/>
  <path fill="#FFFFFF" style=""/>
  <path fill="#FFFFFF" style=""/>
  <path fill="#FFFFFF" style=""/>
  <path fill="#FFFFFF" style=""/>
  <path fill="#FFFFFF" style=""/>
  <path fill="#CCCCCC" style=""/>
  <path fill="#FFFFFF" style=""/>
  <path fill="#FFFFFF" style=""/>
  <path fill="#FFFFFF" style=""/>
  <path fill="#FFFFFF" style=""/>
  <path fill="#FFFFFF" style=""/>
  <path fill="#FFFFFF" style=""/>
  <path fill="#FFFFFF" style=""/>
  <path fill="#FFFFFF" style=""/>
  <path fill="#FFFFFF" style=""/>
  <path fill="#FFFFFF" style=""/>
  <path fill="#FFFFFF" style=""/>
  <path fill="#FFFFFF" style=""/>
  <path fill="#FFFFFF" style=""/>
  <path fill="#FFFFFF" style=""/>
  <path fill="#FFFFFF" style=""/>
  <path fill="#FFFFFF" style=""/>
  <path fill="#FFFFFF" style=""/>
  <path fill="#FFFFFF" style=""/>
  <path fill="#FFFFFF" style=""/>
  <path fill="#FFFFFF" style=""/>
  <path d="M 203.25 22.531 C 203.947 22.531 204.645 22.532 205.363 22.532 C 210.494 22.568 210.494 22.568 211.407 23.481 C 213.542 23.782 215.669 24.047 217.812 24.282 C 224.109 24.975 224.109 24.975 225.018 25.884 C 226.763 26.201 228.516 26.479 230.272 26.734 C 231.71 26.947 231.71 26.947 233.177 27.163 C 233.919 27.269 234.661 27.375 235.426 27.485 C 235.426 28.014 235.426 28.542 235.426 29.086 C 236.334 29.169 237.242 29.251 238.178 29.337 C 241.986 29.799 245.449 30.968 249.036 32.288 C 249.036 32.817 249.036 33.345 249.036 33.89 C 250.886 34.155 252.736 34.418 254.641 34.691 C 254.641 35.219 254.641 35.747 254.641 36.292 C 255.202 36.375 255.764 36.457 256.342 36.542 C 258.957 37.167 261.084 38.23 263.448 39.494 C 263.448 40.023 263.448 40.551 263.448 41.095 C 264.241 41.095 265.033 41.095 265.85 41.095 C 265.85 41.888 265.85 42.681 265.85 43.498 C 266.907 43.762 267.964 44.026 269.053 44.298 C 269.053 44.827 269.053 45.355 269.053 45.899 C 269.697 45.999 270.34 46.098 271.004 46.2 C 271.681 46.365 272.358 46.53 273.055 46.7 C 273.32 47.229 273.584 47.757 273.856 48.301 C 274.649 48.565 275.441 48.83 276.259 49.102 C 276.259 49.63 276.259 50.159 276.259 50.704 C 277.05 50.968 277.843 51.231 278.66 51.504 C 278.66 52.033 278.66 52.56 278.66 53.105 C 279.139 53.188 279.618 53.271 280.112 53.355 C 282.113 53.985 282.964 54.682 284.265 56.308 C 284.265 56.836 284.265 57.365 284.265 57.909 C 284.743 58.123 285.222 58.338 285.715 58.56 C 287.466 59.51 288.599 60.388 289.869 61.912 C 289.869 62.441 289.869 62.969 289.869 63.513 C 290.397 63.513 290.926 63.513 291.47 63.513 C 292.585 64.808 293.647 66.149 294.673 67.517 C 295.367 68.384 295.367 68.384 296.074 69.268 C 297.075 70.719 297.075 70.719 297.075 72.32 C 297.603 72.32 298.132 72.32 298.676 72.32 C 298.94 73.377 299.204 74.434 299.476 75.523 C 300.005 75.523 300.533 75.523 301.078 75.523 C 301.342 76.844 301.606 78.165 301.879 79.526 C 302.407 79.526 302.935 79.526 303.48 79.526 C 306.682 84.831 306.682 84.831 306.682 87.533 C 307.211 87.533 307.739 87.533 308.283 87.533 C 308.547 88.061 308.812 88.59 309.084 89.134 C 315.04 91.04 321.312 91.579 327.499 92.336 C 327.499 92.864 327.499 93.393 327.499 93.938 C 328.473 94.021 329.447 94.103 330.452 94.188 C 333.425 94.558 335.503 95.261 337.907 97.14 C 337.907 97.669 337.907 98.197 337.907 98.741 C 339.228 99.005 340.549 99.27 341.91 99.542 C 341.91 100.07 341.91 100.599 341.91 101.144 C 342.381 101.23 342.851 101.317 343.336 101.406 C 347.701 102.727 351.442 107.084 353.92 110.751 C 353.92 111.544 353.92 112.336 353.92 113.153 C 354.713 113.417 355.506 113.681 356.322 113.953 C 356.322 114.746 356.322 115.539 356.322 116.355 C 356.85 116.355 357.379 116.355 357.923 116.355 C 358.187 117.676 358.451 118.998 358.723 120.359 C 359.252 120.359 359.78 120.359 360.325 120.359 C 362.114 125.425 363.733 130.223 364.328 135.571 C 364.592 135.835 364.857 136.1 365.129 136.372 C 365.317 138.119 365.46 139.872 365.579 141.626 C 365.679 143.064 365.679 143.064 365.782 144.531 C 365.831 145.273 365.88 146.015 365.929 146.78 C 368.307 147.044 370.685 147.308 373.135 147.58 C 373.135 148.109 373.135 148.637 373.135 149.181 C 374.721 149.446 376.305 149.71 377.939 149.982 C 377.939 150.51 377.939 151.039 377.939 151.584 C 379.524 151.847 381.109 152.111 382.742 152.384 C 382.742 152.913 382.742 153.44 382.742 153.985 C 384.064 154.25 385.385 154.514 386.746 154.786 C 386.746 155.315 386.746 155.843 386.746 156.387 C 387.802 156.651 388.859 156.916 389.948 157.188 C 389.948 157.716 389.948 158.245 389.948 158.789 C 390.741 159.053 391.534 159.317 392.35 159.589 C 392.35 160.118 392.35 160.646 392.35 161.191 C 393.143 161.456 393.936 161.72 394.753 161.992 C 394.753 162.52 394.753 163.049 394.753 163.593 C 395.544 163.857 396.337 164.121 397.154 164.394 C 397.154 164.922 397.154 165.451 397.154 165.995 C 397.683 165.995 398.211 165.995 398.755 165.995 C 399.02 167.052 399.284 168.109 399.556 169.198 C 400.084 169.198 400.613 169.198 401.157 169.198 C 401.157 169.726 401.157 170.254 401.157 170.799 C 401.685 170.799 402.214 170.799 402.759 170.799 C 403.563 172.231 404.363 173.666 405.161 175.102 C 405.829 176.301 405.829 176.301 406.512 177.523 C 407.562 179.606 407.562 179.606 407.562 181.207 C 408.619 181.207 409.676 181.207 410.765 181.207 C 412.116 183.908 411.814 186.973 411.903 189.948 C 411.937 191.017 411.937 191.017 411.971 192.109 C 412.016 193.621 412.059 195.134 412.1 196.646 C 412.165 198.948 412.248 201.25 412.331 203.551 C 412.373 205.022 412.414 206.492 412.454 207.963 C 412.481 208.647 412.508 209.331 412.536 210.035 C 412.628 214.367 412.306 217.523 409.964 221.239 C 407.878 221.986 407.878 221.986 405.161 222.039 C 404.615 222.054 404.069 222.069 403.507 222.083 C 401.57 222.12 399.638 222.108 397.701 222.089 C 396.63 222.085 396.63 222.085 395.535 222.08 C 392.498 222.068 389.46 222.045 386.422 222.023 C 384.194 222.008 381.965 221.998 379.738 221.989 C 379.015 221.987 378.293 221.984 377.549 221.981 C 373.641 221.984 369.802 222.124 365.908 222.489 C 361.718 222.876 357.793 222.642 353.611 222.253 C 347.571 221.807 341.509 221.922 335.455 221.939 C 334.374 221.94 334.374 221.94 333.27 221.941 C 320.298 221.956 307.337 222.219 294.371 222.555 C 284.917 222.796 275.478 222.915 266.021 222.81 C 261.974 222.778 258.004 222.865 253.974 223.236 C 247.594 223.745 241.238 223.757 234.844 223.747 C 233.565 223.747 232.285 223.748 231.005 223.749 C 228.331 223.75 225.657 223.748 222.983 223.744 C 219.625 223.741 216.267 223.744 212.91 223.747 C 199.608 223.763 186.333 223.721 173.045 223.049 C 172.241 223.011 171.438 222.973 170.61 222.933 C 169.577 222.878 169.577 222.878 168.522 222.821 C 166.558 222.761 166.558 222.761 164.667 223.334 C 161.812 223.75 159.722 222.844 156.963 222.039 C 154.76 221.899 152.641 221.828 150.44 221.845 C 149.5 221.842 149.5 221.842 148.54 221.84 C 146.481 221.837 144.423 221.846 142.365 221.855 C 140.921 221.856 139.478 221.856 138.036 221.856 C 135.015 221.857 131.996 221.864 128.98 221.874 C 125.123 221.888 121.276 221.891 117.428 221.891 C 114.446 221.891 111.463 221.896 108.481 221.901 C 107.072 221.903 105.644 221.905 104.235 221.905 C 92.237 221.185 92.237 221.185 80.899 223.641 C 78.742 223.71 76.605 223.733 74.438 223.719 C 73.807 223.717 73.165 223.716 72.514 223.715 C 70.474 223.71 68.434 223.701 66.394 223.691 C 65.014 223.686 63.625 223.683 62.245 223.679 C 58.855 223.671 55.464 223.657 52.083 223.641 C 52.083 223.112 52.083 222.583 52.083 222.039 C 48.906 222.039 45.739 222.039 42.475 222.039 C 42.475 209.093 42.475 196.147 42.475 182.808 C 44.058 182.015 45.642 181.223 47.274 180.406 C 47.672 179.614 47.672 179.614 48.08 178.805 C 48.605 178.805 49.13 178.805 49.683 178.805 C 50.072 177.22 50.072 177.22 50.48 175.602 C 51.005 175.602 51.539 175.602 52.083 175.602 C 52.248 175.057 52.413 174.513 52.579 173.951 C 53.822 171.298 55.386 169.472 57.339 167.315 C 58.641 165.875 58.641 165.875 60.089 163.593 C 60.613 163.593 61.147 163.593 61.692 163.593 C 61.692 163.064 61.692 162.536 61.692 161.992 C 63.178 160.609 63.178 160.609 65.14 159.089 C 65.782 158.584 66.423 158.078 67.084 157.557 C 68.891 156.387 68.891 156.387 71.3 156.387 C 71.3 155.859 71.3 155.33 71.3 154.786 C 77.596 150.379 86.689 144.378 94.51 144.378 C 94.51 143.849 94.51 143.321 94.51 142.776 C 97.153 141.984 99.795 141.191 102.515 140.374 C 102.515 138.261 102.515 136.147 102.515 133.969 C 103.05 133.969 103.574 133.969 104.118 133.969 C 104.08 133.228 104.08 133.228 104.041 132.471 C 103.876 127.39 104.662 123.464 106.528 118.758 C 106.916 117.569 106.916 117.569 107.324 116.355 C 107.849 116.355 108.383 116.355 108.927 116.355 C 109.005 115.909 109.093 115.464 109.18 115.005 C 110.443 110.754 112.716 108.615 116.136 105.947 C 116.641 105.286 117.156 104.626 117.681 103.946 C 119.595 101.632 121.557 100.254 124.142 98.741 C 124.666 98.741 125.191 98.741 125.735 98.741 C 125.735 98.213 125.735 97.684 125.735 97.14 C 132.721 93.101 139.933 89.851 147.356 86.732 C 147.911 86.496 148.466 86.26 149.038 86.016 C 150.659 85.328 152.284 84.652 153.911 83.98 C 154.864 83.584 155.817 83.189 156.798 82.782 C 159.194 81.985 160.874 81.735 163.368 81.928 C 163.368 81.399 163.368 80.871 163.368 80.327 C 164.918 79.789 166.469 79.256 168.022 78.726 C 168.886 78.428 169.75 78.131 170.64 77.825 C 172.976 77.125 172.976 77.125 175.378 77.125 C 175.378 76.596 175.378 76.068 175.378 75.523 C 177.756 75.127 177.756 75.127 180.182 74.722 C 180.182 74.193 180.182 73.666 180.182 73.121 C 185.586 69.919 185.586 69.919 187.388 69.919 C 187.388 69.39 187.388 68.862 187.388 68.318 C 188.975 66.966 190.577 65.632 192.192 64.314 C 192.456 63.785 192.72 63.257 192.992 62.713 C 193.521 62.713 194.049 62.713 194.593 62.713 C 194.709 62.069 194.825 61.425 194.943 60.761 C 195.394 58.709 195.394 58.709 196.194 57.909 C 196.384 55.62 196.533 53.346 196.645 51.053 C 196.697 50.085 196.697 50.085 196.749 49.098 C 196.835 47.498 196.915 45.898 196.995 44.298 C 196.467 44.298 195.938 44.298 195.394 44.298 C 195.13 42.713 194.865 41.127 194.593 39.494 C 194.065 39.494 193.536 39.494 192.992 39.494 C 191.9 37.91 190.835 36.307 189.789 34.691 C 189.327 34.311 188.865 33.931 188.388 33.54 C 187.388 32.288 187.388 32.288 187.038 29.486 C 187.388 26.685 187.388 26.685 188.688 25.233 C 193.615 22.77 197.846 22.453 203.25 22.531 Z" fill="#FBE9CD"/>
  <path d="M 58.431 222.298 C 179.436 222.298 275.341 220.115 400.017 220.115 C 400.017 253.742 396.458 253.449 393.254 279.87 C 274.36 279.87 184.65 282.168 62.15 282.168 C 61.625 276.42 58.546 252.808 58.002 252.808 C 56.68 240.869 58.431 234.311 58.431 222.298 Z" fill="#AD6E38" style=""/>
</svg>